<svg xmlns="http://www.w3.org/2000/svg" width="11" height="11" viewBox="0 0 11 11" fill="none">
<path d="M1.75071 10.5C1.3128 10.5 0.89235 10.3188 0.557258 9.98335C-0.185724 9.23795 -0.185724 8.02559 0.557086 7.28067L6.35051 1.12859C7.25442 0.223225 8.63901 0.304577 9.64946 1.31631C10.1022 1.76988 10.3563 2.42376 10.3468 3.11106C10.3372 3.7911 10.0716 4.4419 9.61749 4.89676L5.23901 9.55804C5.11714 9.68863 4.91279 9.69459 4.78271 9.57209C4.65293 9.44942 4.64664 9.24474 4.76899 9.11464L9.15408 4.44626C9.49708 4.10261 9.69385 3.61514 9.7011 3.10201C9.70836 2.58856 9.5229 2.10448 9.19297 1.77374C8.57315 1.15263 7.56399 0.827382 6.81374 1.5794L1.02048 7.73148C0.522363 8.23088 0.522524 9.03295 1.01403 9.52573C1.24451 9.75639 1.51811 9.86874 1.80946 9.85113C2.09774 9.83354 2.39409 9.68568 2.64396 9.43517L7.25357 4.52887C7.42063 4.36149 7.75637 3.95118 7.41466 3.60866C7.22113 3.41481 7.08522 3.42675 7.04051 3.43046C6.91284 3.44176 6.76369 3.53005 6.6089 3.68533L3.13933 7.37539C3.01682 7.50565 2.81231 7.51194 2.68301 7.38911C2.55307 7.26676 2.5471 7.06176 2.66929 6.93198L6.14517 3.23499C6.41844 2.96043 6.69785 2.81161 6.98226 2.7861C7.2042 2.7664 7.53429 2.8137 7.87099 3.15138C8.37073 3.65207 8.30858 4.38651 7.71684 4.97954L3.10722 9.8855C2.7392 10.2548 2.29482 10.4693 1.849 10.4968C1.81624 10.499 1.78348 10.5 1.75071 10.5Z" fill="#373737"/>
</svg>