<svg xmlns="http://www.w3.org/2000/svg" width="18" height="18" viewBox="0 0 18 18" fill="none">
<path fill-rule="evenodd" clip-rule="evenodd" d="M17.5666 1.56639C17.641 1.492 17.7 1.4037 17.7403 1.30652C17.7805 1.20934 17.8012 1.10518 17.8012 0.999985C17.8012 0.894795 17.7805 0.790635 17.7403 0.693452C17.7 0.596269 17.641 0.507966 17.5666 0.433585C17.4922 0.359204 17.4039 0.300203 17.3068 0.259948C17.2096 0.219693 17.1054 0.198975 17.0002 0.198975C16.895 0.198975 16.7909 0.219693 16.6937 0.259948C16.5965 0.300203 16.5082 0.359204 16.4338 0.433585L9.00023 7.86879L1.56663 0.433585C1.49225 0.359204 1.40395 0.300203 1.30676 0.259948C1.20958 0.219693 1.10542 0.198975 1.00023 0.198975C0.895039 0.198975 0.790879 0.219693 0.693696 0.259948C0.596513 0.300203 0.50821 0.359204 0.433829 0.433585C0.359448 0.507966 0.300447 0.596269 0.260192 0.693452C0.219938 0.790635 0.199219 0.894795 0.199219 0.999985C0.199219 1.10518 0.219938 1.20934 0.260192 1.30652C0.300447 1.4037 0.359448 1.492 0.433829 1.56639L7.86903 8.99998L0.433829 16.4336C0.283611 16.5838 0.199219 16.7875 0.199219 17C0.199219 17.2124 0.283611 17.4162 0.433829 17.5664C0.584048 17.7166 0.787788 17.801 1.00023 17.801C1.21267 17.801 1.41641 17.7166 1.56663 17.5664L9.00023 10.1312L16.4338 17.5664C16.584 17.7166 16.7878 17.801 17.0002 17.801C17.2127 17.801 17.4164 17.7166 17.5666 17.5664C17.7168 17.4162 17.8012 17.2124 17.8012 17C17.8012 16.7875 17.7168 16.5838 17.5666 16.4336L10.1314 8.99998L17.5666 1.56639Z" fill="#373737"/>
</svg>