<svg width="32" height="32" viewBox="0 0 32 32" fill="none" xmlns="http://www.w3.org/2000/svg">
<path fill-rule="evenodd" clip-rule="evenodd" d="M15.9993 16.6667C14.7617 16.6667 13.5747 16.1751 12.6995 15.2999C11.8243 14.4247 11.3327 13.2378 11.3327 12.0001C11.3327 10.7624 11.8243 9.57542 12.6995 8.70025C13.5747 7.82508 14.7617 7.33341 15.9993 7.33341C17.237 7.33341 18.424 7.82508 19.2992 8.70025C20.1743 9.57542 20.666 10.7624 20.666 12.0001C20.666 12.6129 20.5453 13.2198 20.3108 13.7859C20.0763 14.3521 19.7325 14.8666 19.2992 15.2999C18.8658 15.7333 18.3514 16.077 17.7852 16.3115C17.219 16.546 16.6122 16.6667 15.9993 16.6667ZM15.1216 28.314C15.6645 28.9627 15.9993 29.3334 15.9993 29.3334C15.9993 29.3334 16.3342 28.9627 16.8771 28.314C19.2003 25.5383 25.3327 17.6741 25.3327 12.0001C25.3327 9.52473 24.3493 7.15076 22.599 5.40042C20.8487 3.65008 18.4747 2.66675 15.9993 2.66675C13.524 2.66675 11.15 3.65008 9.39969 5.40042C7.64935 7.15076 6.66602 9.52473 6.66602 12.0001C6.66602 17.6741 12.7984 25.5383 15.1216 28.314ZM15.9993 27.2847C16.1304 27.1268 16.272 26.9546 16.4224 26.7692C17.2802 25.7123 18.4218 24.2341 19.5607 22.546C20.7022 20.8542 21.8246 18.9757 22.6575 17.1164C23.4983 15.2397 23.9993 13.4803 23.9993 12.0001C23.9993 9.87835 23.1565 7.84352 21.6562 6.34323C20.1559 4.84294 18.1211 4.00008 15.9993 4.00008C13.8776 4.00008 11.8428 4.84294 10.3425 6.34323C8.8422 7.84352 7.99935 9.87835 7.99935 12.0001C7.99935 13.4803 8.50038 15.2397 9.34115 17.1164C10.1741 18.9757 11.2965 20.8542 12.438 22.546C13.5769 24.2341 14.7185 25.7123 15.5763 26.7692C15.7267 26.9546 15.8683 27.1268 15.9993 27.2847ZM13.6423 14.3571C14.2674 14.9822 15.1153 15.3334 15.9993 15.3334C16.4371 15.3334 16.8705 15.2472 17.275 15.0797C17.6794 14.9122 18.0468 14.6666 18.3564 14.3571C18.6659 14.0476 18.9114 13.6801 19.0789 13.2757C19.2465 12.8713 19.3327 12.4378 19.3327 12.0001C19.3327 11.116 18.9815 10.2682 18.3564 9.64306C17.7312 9.01794 16.8834 8.66675 15.9993 8.66675C15.1153 8.66675 14.2674 9.01794 13.6423 9.64306C13.0172 10.2682 12.666 11.116 12.666 12.0001C12.666 12.8841 13.0172 13.732 13.6423 14.3571Z" fill="#FEFEFE"/>
</svg>
