<svg width="24" height="24" viewBox="0 0 24 24" fill="none" xmlns="http://www.w3.org/2000/svg">
<path fill-rule="evenodd" clip-rule="evenodd" d="M4.125 5C3.36561 5 2.75 5.61561 2.75 6.375V17.625C2.75 18.3844 3.36561 19 4.125 19H19.875C20.6344 19 21.25 18.3844 21.25 17.625V6.375C21.25 5.61561 20.6344 5 19.875 5H4.125ZM1.75 6.375C1.75 5.06332 2.81332 4 4.125 4H19.875C21.1867 4 22.25 5.06332 22.25 6.375V17.625C22.25 18.9367 21.1867 20 19.875 20H4.125C2.81332 20 1.75 18.9367 1.75 17.625V6.375Z" fill="#A22826"/>
<path fill-rule="evenodd" clip-rule="evenodd" d="M4.85535 7.19305C5.02488 6.97508 5.33902 6.93581 5.55699 7.10535L12 12.1166L18.4431 7.10535C18.661 6.93581 18.9752 6.97508 19.1447 7.19305C19.3142 7.41103 19.275 7.72516 19.057 7.8947L12.307 13.1447C12.1264 13.2851 11.8736 13.2851 11.6931 13.1447L4.94305 7.8947C4.72508 7.72516 4.68581 7.41103 4.85535 7.19305Z" fill="#A22826"/>
</svg>
