<svg width="32" height="32" viewBox="0 0 32 32" fill="none" xmlns="http://www.w3.org/2000/svg">
<path fill-rule="evenodd" clip-rule="evenodd" d="M5.50065 6.66659C4.48813 6.66659 3.66732 7.4874 3.66732 8.49992V23.4999C3.66732 24.5124 4.48813 25.3333 5.50065 25.3333H26.5007C27.5132 25.3333 28.334 24.5124 28.334 23.4999V8.49992C28.334 7.4874 27.5132 6.66659 26.5007 6.66659H5.50065ZM2.33398 8.49992C2.33398 6.75102 3.75175 5.33325 5.50065 5.33325H26.5007C28.2496 5.33325 29.6673 6.75102 29.6673 8.49992V23.4999C29.6673 25.2488 28.2496 26.6666 26.5007 26.6666H5.50065C3.75175 26.6666 2.33398 25.2488 2.33398 23.4999V8.49992Z" fill="#FEFEFE"/>
<path fill-rule="evenodd" clip-rule="evenodd" d="M6.47445 9.59066C6.70049 9.30002 7.11934 9.24767 7.40998 9.47371L16.0007 16.1554L24.5914 9.47371C24.882 9.24767 25.3009 9.30002 25.5269 9.59066C25.753 9.88129 25.7006 10.3001 25.41 10.5262L16.41 17.5262C16.1692 17.7134 15.8321 17.7134 15.5914 17.5262L6.59139 10.5262C6.30076 10.3001 6.2484 9.88129 6.47445 9.59066Z" fill="#FEFEFE"/>
</svg>
