<svg width="31" height="56" viewBox="0 0 31 56" fill="none" xmlns="http://www.w3.org/2000/svg">
<path fill-rule="evenodd" clip-rule="evenodd" d="M6.46908 43.7711H24.5309C28.0894 43.7711 31 46.5227 31 49.8853C31 53.2477 28.089 56 24.5309 56H6.46908C2.91055 56 0 53.2482 0 49.8853C0 46.5232 2.91104 43.7711 6.46908 43.7711ZM28.4372 31.187V31.7214V34.9129C28.4372 37.6425 26.6722 39.8736 24.5126 39.8736H6.4879C4.32877 39.8736 2.56333 37.6425 2.56333 34.9129V31.7214V31.187V8.68595V5.22708V4.95903C2.56333 2.231 4.32877 0 6.4879 0H24.5126C26.6722 0 28.4372 2.231 28.4372 4.95903V5.22708V8.68595V31.187Z" fill="#A22826"/>
</svg>
