<svg width="32" height="32" viewBox="0 0 32 32" fill="none" xmlns="http://www.w3.org/2000/svg">
<path d="M24.0408 22.1561L29.7515 27.8654L27.8648 29.7521L22.1555 24.0414C20.0311 25.7444 17.3888 26.6706 14.6661 26.6667C8.04214 26.6667 2.66614 21.2907 2.66614 14.6667C2.66614 8.04275 8.04214 2.66675 14.6661 2.66675C21.2901 2.66675 26.6661 8.04275 26.6661 14.6667C26.67 17.3894 25.7438 20.0317 24.0408 22.1561ZM21.3661 21.1667C23.0583 19.4266 24.0033 17.094 23.9995 14.6667C23.9995 9.50941 19.8221 5.33341 14.6661 5.33341C9.5088 5.33341 5.3328 9.50941 5.3328 14.6667C5.3328 19.8227 9.5088 24.0001 14.6661 24.0001C17.0934 24.0039 19.426 23.0589 21.1661 21.3667L21.3661 21.1667Z" fill="#FEFEFE"/>
</svg>
