<svg width="32" height="32" viewBox="0 0 32 32" fill="none" xmlns="http://www.w3.org/2000/svg">
<path d="M31.4396 8.22755C31.3016 11.2556 29.1856 15.4036 25.0956 20.6676C20.8676 26.1656 17.2896 28.9156 14.3616 28.9156C12.5496 28.9156 11.0156 27.2416 9.76156 23.8916C8.92556 20.8216 8.08756 17.7536 7.25156 14.6836C6.32156 11.3356 5.32356 9.65955 4.25556 9.65955C4.02356 9.65955 3.20756 10.1496 1.81356 11.1256L0.351562 9.23955C1.88556 7.89155 3.39956 6.54155 4.88956 5.18955C6.93756 3.42155 8.47356 2.48955 9.49956 2.39555C11.9196 2.16355 13.4096 3.81955 13.9696 7.36155C14.5736 11.1856 14.9916 13.5636 15.2256 14.4936C15.9236 17.6656 16.6916 19.2496 17.5296 19.2496C18.1816 19.2496 19.1596 18.2196 20.4636 16.1636C21.7656 14.1056 22.4636 12.5396 22.5576 11.4656C22.7436 9.68955 22.0456 8.79955 20.4636 8.79955C19.7176 8.79955 18.9496 8.96955 18.1616 9.30955C19.6896 4.30155 22.6096 1.86755 26.9216 2.00555C30.1176 2.09955 31.6236 4.17355 31.4396 8.22755Z" fill="#FEFEFE"/>
</svg>
