<svg width="32" height="32" viewBox="0 0 32 32" fill="none" xmlns="http://www.w3.org/2000/svg">
<path d="M17.4291 26.1818C6.49594 26.1818 0.259838 18.5377 0 5.81812H5.47658C5.65647 15.154 9.69394 19.1085 12.8919 19.9239V5.81812H18.0487V13.8698C21.2067 13.5233 24.5247 9.85415 25.644 5.81812H30.8008C30.379 7.91132 29.5382 9.89325 28.3311 11.6399C27.1239 13.3866 25.5763 14.8605 23.7851 15.9694C25.7845 16.9826 27.5505 18.4167 28.9666 20.177C30.3826 21.9374 31.4165 23.984 32 26.1818H26.3235C25.7997 24.2728 24.7351 22.564 23.2631 21.2695C21.7911 19.975 19.9772 19.1523 18.0487 18.9047V26.1818H17.4291Z" fill="#FEFEFE"/>
</svg>
