<svg width="57" height="56" viewBox="0 0 57 56" fill="none" xmlns="http://www.w3.org/2000/svg">
<path fill-rule="evenodd" clip-rule="evenodd" d="M32.4777 24.3268C31.1486 24.3268 30.0719 25.3961 30.0719 26.7145C30.0719 28.0329 31.1486 29.1022 32.4777 29.1022C33.8068 29.1022 34.8849 28.0329 34.8849 26.7145C34.8849 25.3961 33.8068 24.3268 32.4777 24.3268ZM41.9771 50.5675L23.1027 22.4189C25.0801 20.8487 26.7326 19.1012 28.1227 17.4057L31.5782 19.6077C31.8477 19.7793 32.1598 19.8708 32.4803 19.8708H33.8662C42.9885 19.8708 50.4087 27.2309 50.4087 36.2793C50.4087 42.4068 47.0029 47.7479 41.9771 50.5675ZM33.8659 52.6893C29.558 52.6893 25.5167 51.0585 22.4258 48.1024L16.8285 26.0813C18.0966 25.5776 19.2782 24.9867 20.3733 24.324L38.8732 51.9168C37.2944 52.4163 35.6121 52.6893 33.8659 52.6893ZM9.17458 24.4225C9.02281 22.2754 9.21998 18.0037 12.6116 14.9829C14.5322 13.2748 16.6968 12.4067 19.043 12.4067C21.958 12.4067 24.5794 13.7222 26.066 14.6508C22.6786 18.9591 17.4472 23.8963 9.17458 24.4225ZM33.8648 16.5616H32.9697L30.0462 14.6987C30.2008 14.1021 30.0093 13.4464 29.51 13.0243C29.3185 12.8653 24.7737 9.09738 19.043 9.09738C18.3436 9.09738 17.6585 9.16351 16.9876 9.27325C14.3662 3.77889 10.1348 0.497743 4.97721 0.00951096C4.05235 -0.0889796 3.24665 0.589198 3.16012 1.49953C3.07075 2.40846 3.74312 3.21749 4.66088 3.30472C9.38304 3.75215 12.1718 7.11209 13.7704 10.2736C13.1818 10.5494 12.6073 10.8716 12.0498 11.2445C10.9193 9.13818 8.66103 6.13844 4.75025 5.55031C3.84667 5.43071 2.99132 6.03432 2.85231 6.93903C2.71329 7.84092 3.34027 8.68512 4.25094 8.82301C7.14324 9.25778 8.77025 12.0169 9.4341 13.4647C4.46513 18.8606 6.01554 26.1545 6.08647 26.481C6.25527 27.2393 6.93331 27.7782 7.71489 27.7782C7.77022 27.7782 7.81986 27.7726 7.87235 27.7712V30.0759H4.65946C3.73886 30.0759 2.99132 30.8174 2.99132 31.7319C2.99132 32.6451 3.73886 33.3852 4.65946 33.3852H9.54049C10.4611 33.3852 11.2086 32.6451 11.2086 31.7319V27.532C12.047 27.4194 12.864 27.2816 13.6428 27.0944L18.7777 47.2934H4.70911C3.78851 47.2934 3.04096 48.0349 3.04096 48.9481C3.04096 49.8612 3.78851 50.6027 4.70911 50.6027H20.2161C23.9169 54.0879 28.7369 56 33.8634 56C44.8255 56 53.7421 47.1541 53.7421 36.2822C53.7421 25.4102 44.8269 16.5616 33.8648 16.5616Z" fill="#A22826"/>
</svg>
