<svg width="57" height="56" viewBox="0 0 57 56" fill="none" xmlns="http://www.w3.org/2000/svg">
<path fill-rule="evenodd" clip-rule="evenodd" d="M44.6533 41.7473H8.16513C7.39922 41.7473 6.77679 41.1157 6.77679 40.3407C6.77679 39.5658 7.39922 38.936 8.16513 38.936H44.6533C45.4192 38.936 46.0435 39.5658 46.0435 40.3407C46.0435 41.1157 45.4192 41.7473 44.6533 41.7473ZM37.0994 47.9827C36.8944 48.2335 36.7845 48.5484 36.7845 48.8727V53.1868H16.0414V48.8727C16.0414 48.5484 15.9314 48.2335 15.7283 47.9827L12.9553 44.5586H39.8723L37.0994 47.9827ZM14.2954 34.0337C15.1974 33.1211 17.4746 32.1029 20.1115 31.3827C20.5774 33.5774 22.1372 35.3573 24.1834 36.1247H15.0315C14.3364 36.1247 14.0662 35.7137 13.9674 35.4705C13.8127 35.0934 13.8165 34.5183 14.2954 34.0337ZM26.4107 26.3012C28.4345 26.3012 30.08 27.9661 30.08 30.0119C30.08 32.0577 28.4345 33.7226 26.4107 33.7226C24.3887 33.7226 22.7451 32.0577 22.7451 30.0119C22.7451 27.968 24.3887 26.3012 26.4107 26.3012ZM32.7108 31.3827C35.3496 32.1048 37.6269 33.1211 38.527 34.0337C39.0059 34.5164 39.0115 35.0934 38.8568 35.4705C38.7562 35.7137 38.486 36.1229 37.7927 36.1229H28.639C30.6833 35.3573 32.245 33.5755 32.7108 31.3827ZM26.2227 0C19.0686 0 12.3449 2.81697 7.28915 7.93428C6.49901 8.73185 6.06667 9.79152 6.06667 10.9172C6.06667 12.0447 6.50087 13.1044 7.28915 13.9001C8.91416 15.5461 11.5567 15.5461 13.1817 13.9001C16.6665 10.376 21.2974 8.43582 26.2227 8.43582C36.3902 8.43582 44.6606 16.8038 44.6606 27.0912C44.6606 27.868 45.2831 28.4978 46.0508 28.4978C46.8186 28.4978 47.4392 27.868 47.4392 27.0912C47.4392 15.2539 37.9221 5.62451 26.2227 5.62451C20.5557 5.62451 15.226 7.85697 11.2175 11.9127C10.6752 12.4614 9.79375 12.4614 9.25333 11.9127C8.99057 11.6488 8.84707 11.2943 8.84707 10.9172C8.84707 10.542 8.99057 10.1894 9.25333 9.9235C13.7855 5.33414 19.8122 2.81131 26.2227 2.81131C39.4539 2.81131 50.2196 13.7021 50.2196 27.0912C50.2196 30.7887 49.3866 34.3655 47.8212 37.6294C47.0572 36.7168 45.9297 36.1247 44.6551 36.1247H41.5616C41.9678 34.6993 41.5765 33.1418 40.4919 32.0444C39.0011 30.5379 35.9001 29.2633 32.6706 28.477C31.9848 25.6205 29.4429 23.4898 26.4128 23.4898C23.3808 23.4898 20.8352 25.6224 20.1532 28.4808C16.9237 29.2671 13.8227 30.536 12.3319 32.0444C11.2473 33.1418 10.856 34.6993 11.2641 36.1247H8.16688C5.86913 36.1247 4 38.0159 4 40.3407C4 42.6656 5.86913 44.5587 8.16688 44.5587H9.36328L13.2618 49.3762V54.5934C13.2618 55.3702 13.8842 56 14.6501 56H38.1736C38.9414 56 39.5639 55.3702 39.5639 54.5934V49.3762L43.4624 44.5587H44.6551C46.049 44.5587 47.2789 43.8554 48.0355 42.79C48.0411 42.7881 48.0523 42.7863 48.0523 42.7863C48.0709 42.7599 48.0877 42.7278 48.1082 42.6995C48.1101 42.6958 48.1119 42.6939 48.1138 42.6901C51.3079 38.1083 53 32.7176 53 27.0912C53 12.1522 40.9857 0 26.2227 0ZM15.9788 23.816V18.7194C15.9788 17.9426 15.3564 17.3147 14.5886 17.3147C13.8208 17.3147 13.2003 17.9426 13.2003 18.7194V23.816C13.2003 24.5909 13.8208 25.2207 14.5886 25.2207C15.3564 25.2207 15.9788 24.5909 15.9788 23.816ZM21.8891 19.7659V14.6675C21.8891 13.8925 21.2667 13.2628 20.4989 13.2628C19.7311 13.2628 19.1087 13.8925 19.1087 14.6675V19.7659C19.1087 20.5409 19.7311 21.1706 20.4989 21.1706C21.2667 21.1706 21.8891 20.5409 21.8891 19.7659ZM39.6262 23.816V18.7194C39.6262 17.9426 39.0038 17.3147 38.236 17.3147C37.4682 17.3147 36.8477 17.9426 36.8477 18.7194V23.816C36.8477 24.5909 37.4682 25.2207 38.236 25.2207C39.0038 25.2207 39.6262 24.5909 39.6262 23.816ZM32.323 21.1706C33.0908 21.1706 33.7132 20.5409 33.7132 19.7659V14.6675C33.7132 13.8925 33.0908 13.2628 32.323 13.2628C31.5552 13.2628 30.9347 13.8925 30.9347 14.6675V19.7659C30.9347 20.5409 31.5552 21.1706 32.323 21.1706ZM27.8014 18.6648V13.5682C27.8014 12.7933 27.1789 12.1635 26.4112 12.1635C25.6452 12.1635 25.0228 12.7933 25.0228 13.5682V18.6648C25.0228 19.4416 25.6452 20.0714 26.4112 20.0714C27.1789 20.0714 27.8014 19.4416 27.8014 18.6648Z" fill="#A22826"/>
</svg>
