<svg width="57" height="56" viewBox="0 0 57 56" fill="none" xmlns="http://www.w3.org/2000/svg">
<path fill-rule="evenodd" clip-rule="evenodd" d="M28.1684 48.8665V49.1959L28.169 48.8665C29.8075 48.8632 33.6472 43.563 36.7792 37.0011C34.7144 35.5477 28.3291 32.1021 19.5444 37.1276C23.7589 45.9038 27.2243 48.8665 28.1684 48.8665ZM38.0663 34.6945C39.3187 32.2575 40.1759 29.4134 40.5514 26.4421L40.5705 26.3598C40.697 25.7207 41.2781 25.2628 41.9494 25.2944C41.9988 25.2977 42.0449 25.2991 42.0911 25.2991C43.1807 25.2991 44.0675 24.4123 44.0675 23.3226C44.0675 22.2322 43.1807 21.3461 42.0911 21.3461H14.2452C13.1555 21.3461 12.2688 22.2322 12.2688 23.3226C12.2688 23.8681 12.4934 24.378 12.8999 24.7582C13.3031 25.135 13.8414 25.3373 14.3856 25.2944C15.0358 25.2371 15.6446 25.7049 15.7684 26.3677L15.7856 26.4527C16.165 29.4549 17.038 32.3307 18.3135 34.7841C27.8209 29.4213 35.0884 32.7497 38.0663 34.6945ZM40.0327 10.2199L40.0354 10.1712C40.0327 10.1955 40.0301 10.1738 40.0308 10.1461C40.0308 7.23939 37.6662 4.87553 34.7602 4.87553H21.5837C18.6776 4.87553 16.3131 7.23939 16.3131 10.1461L16.3092 10.2001L16.3085 10.1995L15.6681 18.7108H40.6718L40.0327 10.2199ZM55.8162 54.5495C55.7464 54.8941 55.5467 55.1912 55.2536 55.3856C54.6692 55.7736 53.816 55.6016 53.428 55.0166C48.9322 48.2525 41.5698 45.2594 36.0963 43.9385C33.0565 48.9535 30.3909 51.4978 28.1733 51.5018C25.9451 51.5018 23.2651 48.9614 20.2009 43.949C14.7432 45.2746 7.40058 48.2683 2.91465 55.0173C2.67089 55.3862 2.26044 55.6056 1.81705 55.6056C1.55748 55.6056 1.30581 55.5298 1.0884 55.3862C0.795219 55.1912 0.595596 54.8934 0.526419 54.5482C0.456584 54.2036 0.526419 53.8518 0.721431 53.5586C4.53865 47.8157 10.7935 43.6809 18.8292 41.5812C17.7184 39.5632 16.9002 37.8352 16.5885 37.1599C16.547 37.0722 16.5312 36.9892 16.5187 36.9214C14.9705 34.2703 13.8689 31.1343 13.3274 27.8362C11.2059 27.4033 9.63465 25.5046 9.63465 23.3226C9.63465 21.2598 11.0412 19.4303 13.0118 18.8815L13.6825 10.0368C13.7424 5.73332 17.2816 2.24023 21.5831 2.24023H34.7595C39.0538 2.24023 42.589 5.72278 42.6602 10.013L42.6628 10.071L43.3269 18.8815C45.2974 19.4309 46.704 21.2605 46.704 23.3226C46.704 25.5046 45.1334 27.4033 43.012 27.8362C42.4474 31.2739 41.2799 34.5219 39.6302 37.2416C39.3423 37.8747 38.5445 39.5744 37.4581 41.5674C45.5195 43.6611 51.7941 47.8018 55.6212 53.5593V53.5586C55.8169 53.8518 55.8854 54.2043 55.8162 54.5495ZM24.1994 27.097C24.1994 26.3248 23.5709 25.697 22.7994 25.697C22.0272 25.697 21.3994 26.3248 21.3994 27.097C21.3994 27.8691 22.0272 28.497 22.7994 28.497C23.5709 28.497 24.1994 27.8691 24.1994 27.097ZM32.1444 27.097C32.1444 27.8691 32.7722 28.497 33.5444 28.497C34.3165 28.497 34.9444 27.8691 34.9444 27.097C34.9444 26.3248 34.3165 25.697 33.5444 25.697C32.7722 25.697 32.1444 26.3248 32.1444 27.097ZM29.7544 28.4792H26.5861C26.009 30.0525 24.4851 31.1323 22.7965 31.1323C20.5717 31.1323 18.7612 29.3218 18.7612 27.097C18.7612 24.8721 20.5717 23.0617 22.7965 23.0617C24.4851 23.0617 26.009 24.1415 26.5861 25.7148H29.7544C30.3309 24.1415 31.8554 23.0617 33.5439 23.0617C35.7688 23.0617 37.5792 24.8721 37.5792 27.097C37.5792 29.3218 35.7688 31.1323 33.5439 31.1323C31.8554 31.1323 30.3309 30.0525 29.7544 28.4792ZM32.4142 39.3195C32.4142 38.5928 31.8232 38.0018 31.0965 38.0018H25.2501C24.5241 38.0018 23.9325 38.5928 23.9325 39.3195C23.9325 40.0455 24.5241 40.6371 25.2501 40.6371H31.0965C31.8232 40.6371 32.4142 40.0455 32.4142 39.3195ZM29.642 10.7964H31.7647V13.7407H29.642V15.8627H26.6984V13.7407H24.5756V10.7964H26.6984V8.67365H29.642V10.7964Z" fill="#A22826"/>
</svg>
