<svg width="57" height="56" viewBox="0 0 57 56" fill="none" xmlns="http://www.w3.org/2000/svg">
<path fill-rule="evenodd" clip-rule="evenodd" d="M10.7437 46.7608C9.53113 47.1081 8.47905 47.2873 7.60946 47.2873C5.76364 47.2873 3.7947 46.7673 3.7947 40.5593C3.7947 30.1374 12.1575 15.7755 18.2281 15.7755C18.8822 15.7755 20.3938 15.7887 21.2371 20.2641C17.8159 21.2569 12.6214 23.6919 12.6214 29.3393C12.6214 30.2496 13.3602 30.9883 14.2704 30.9883C15.1807 30.9883 15.9195 30.2496 15.9195 29.3393C15.9195 26.0676 19.1516 24.3966 21.6603 23.5908C21.9395 27.0065 21.9406 31.2742 21.9406 36.0344V36.4862H21.9439C21.9439 42.3315 17.4663 44.8215 10.7437 46.7608ZM51.0758 22.4606C47.3677 16.1152 42.8812 12.4752 38.7674 12.4752C33.9654 12.4752 32.865 17.6642 32.4967 19.7397C31.1984 19.6254 30.1485 18.7822 30.1485 17.7818V6.31553C30.1485 5.40527 29.4108 4.6665 28.4994 4.6665C27.587 4.6665 26.8504 5.40527 26.8504 6.31553V17.7818C26.8504 18.6997 25.9643 19.4803 24.8144 19.6903C24.7067 19.6595 24.5956 19.6386 24.4813 19.6309C24.0965 17.4894 22.9576 12.4752 18.2326 12.4752C14.1177 12.4752 9.63014 16.1163 5.92201 22.4606C2.57668 28.185 0.5 35.1197 0.5 40.5571C0.5 43.0372 0.5 50.5843 7.61172 50.5843C8.80782 50.5843 10.1303 50.3699 11.6606 49.928C16.0691 48.6571 25.2432 46.011 25.2432 36.4851V36.0322C25.2432 31.0675 25.2388 26.6338 24.9211 23.018C26.3216 22.8685 27.5727 22.2836 28.4994 21.4217C29.4251 22.2836 30.6762 22.8685 32.0767 23.018C31.8997 25.0441 31.8217 26.2336 31.7865 28.7226L35.0868 28.2509C35.1209 26.1874 35.189 24.6846 35.3242 23.3071C36.981 23.7447 39.1368 24.5582 40.5396 25.9203C40.8606 26.2314 41.2739 26.3864 41.6873 26.3864C42.1182 26.3864 42.5481 26.2182 42.8713 25.8862C43.5056 25.2321 43.4902 24.1888 42.8361 23.5545C40.7408 21.5196 37.7626 20.5038 35.8036 20.0256C36.6534 15.7854 38.1232 15.7733 38.7641 15.7733C44.8348 15.7733 53.1975 30.1341 53.1975 40.5571C53.1986 43.0328 52.8699 44.8325 52.218 45.9087C51.8761 46.4694 51.3165 47.1037 49.9929 47.2522L46.3596 50.194L46.7751 50.2809C47.7162 50.4777 48.5835 50.5843 49.385 50.5843C51.9432 50.5843 53.8473 49.5861 55.0401 47.6193C56.035 45.9758 56.5 43.7331 56.5 40.5571C56.4967 35.1175 54.4211 28.185 51.0758 22.4606ZM48.0464 38.2296C48.0464 43.6165 41.0644 46.7221 39.0229 47.5159C36.9814 46.7232 30.0005 43.6176 30.0005 38.2296C30.0005 35.9375 31.865 34.073 34.1571 34.073C35.5467 34.073 36.8374 34.7634 37.6124 35.921C37.918 36.375 38.4435 36.6477 39.0196 36.6488H39.0229C39.5978 36.6488 40.1255 36.3772 40.4334 35.9199C41.2073 34.7634 42.499 34.073 43.8875 34.073C46.1808 34.073 48.0464 35.9375 48.0464 38.2296ZM51.4386 38.232C51.4386 34.0676 48.0515 30.6794 43.8871 30.6794C42.1051 30.6794 40.3725 31.3182 39.0214 32.4549C37.667 31.3193 35.9355 30.6794 34.1567 30.6794C29.9924 30.6794 26.6053 34.0676 26.6053 38.232C26.6053 46.9554 38.01 50.7767 38.4893 50.9339C38.6597 50.99 38.8389 51.0186 39.0236 51.0186C39.2072 51.0186 39.3864 50.99 39.5447 50.9361C40.0306 50.7789 51.4386 46.9993 51.4386 38.232Z" fill="#A22826"/>
</svg>
