<svg width="57" height="56" viewBox="0 0 57 56" fill="none" xmlns="http://www.w3.org/2000/svg">
<path fill-rule="evenodd" clip-rule="evenodd" d="M29.0076 19.1487C29.0026 19.1516 28.4537 19.3981 27.9909 19.1487C27.2385 18.7392 26.3021 19.029 25.8994 19.7838C25.496 20.5408 25.7797 21.4837 26.5321 21.8896C27.2034 22.2522 27.864 22.3733 28.4473 22.3733C29.5249 22.3733 30.3374 21.9595 30.4685 21.8896C31.2194 21.4823 31.5039 20.5408 31.099 19.7838C30.6971 19.0262 29.762 18.745 29.0076 19.1487ZM41.7434 24.0098L24.6441 32.3925L15.2565 26.5005V16.4331C15.2565 9.0863 21.1985 3.10927 28.4996 3.10927C35.8007 3.10927 41.742 9.08702 41.742 16.4331V24.0098H41.7434ZM41.7434 39.5677C41.7434 40.706 41.5858 41.8032 41.3178 42.8586L33.7874 38.1323C33.7852 38.1302 33.7838 38.128 33.7809 38.128L27.7394 34.336L41.7434 27.4687V39.5677ZM28.501 52.89C24.5238 52.89 20.9592 51.1079 18.5295 48.3079L32.9183 41.2503L40.1893 45.815C37.9603 50.0186 33.5588 52.89 28.501 52.89ZM15.2568 39.5677V30.1663L29.8233 39.3089L16.7629 45.7148C15.805 43.8729 15.2568 41.7852 15.2568 39.5677ZM28.501 0C19.4939 0 12.167 7.37199 12.167 16.4331V39.5677C12.167 42.8175 13.1221 45.8424 14.7478 48.3973C14.7521 48.4081 14.7536 48.4182 14.7593 48.4276C14.7786 48.4658 14.8073 48.4939 14.8281 48.5314C17.7471 53.0212 22.7819 56 28.501 56C35.3042 56 41.143 51.7921 43.5955 45.8302C43.6142 45.7855 43.6299 45.7408 43.6443 45.6961C44.4045 43.7987 44.8337 41.734 44.8337 39.5677V16.4331C44.8337 7.37199 37.5067 0 28.501 0ZM28.501 24.4265C24.1189 24.4265 20.5543 20.8414 20.5543 16.4331C20.5543 16.136 20.573 15.8441 20.6045 15.555C21.0946 15.6055 21.5689 15.63 22.0296 15.63C24.6857 15.63 26.8796 14.8161 28.6314 13.6684C30.2393 14.9213 32.7305 16.1087 36.4427 16.3321C36.4434 16.3653 36.4492 16.3977 36.4492 16.4323C36.4492 20.8414 32.8832 24.4265 28.501 24.4265ZM28.501 8.43677C28.8708 8.43677 29.2312 8.46993 29.5873 8.52039C29.138 9.15623 28.5089 9.88507 27.6835 10.5526C27.6642 10.5706 27.6391 10.5757 27.6205 10.5944C27.6169 10.6002 27.6147 10.6067 27.6104 10.6117C26.2061 11.7255 24.2386 12.6144 21.5918 12.4955C22.9611 10.0754 25.5426 8.43677 28.501 8.43677ZM32.595 9.5931C33.9742 10.433 35.0798 11.6765 35.7461 13.1659C33.8968 12.959 32.3299 12.4371 31.0638 11.6051C31.6807 10.9354 32.1887 10.2484 32.595 9.5931ZM32.6051 6.13203C32.5829 6.1205 32.5621 6.10608 32.5384 6.09599C32.4725 6.06715 32.4023 6.04985 32.3335 6.03183C31.1384 5.58414 29.8501 5.32678 28.5002 5.32678C23.4733 5.32678 19.2295 8.72802 17.9018 13.3613C17.891 13.398 17.876 13.4326 17.8674 13.4709C17.8638 13.486 17.866 13.4975 17.8624 13.5127C17.6102 14.4448 17.4626 15.4209 17.4626 16.4323C17.4626 22.555 22.4143 27.5357 28.5002 27.5357C34.5862 27.5357 39.5386 22.555 39.5386 16.4323C39.5386 11.7702 36.6633 7.77642 32.6051 6.13203Z" fill="#A22826"/>
</svg>
