<svg width="57" height="56" viewBox="0 0 57 56" fill="none" xmlns="http://www.w3.org/2000/svg">
<path fill-rule="evenodd" clip-rule="evenodd" d="M20.0626 4.21714C14.158 4.21714 9.35173 9.06135 9.35173 15.0145C9.35173 20.3741 10.7167 22.7492 12.1628 25.2602C13.1023 26.8947 14.0759 28.5851 14.5955 30.9631C14.8927 32.3204 15.1824 33.7112 15.4741 35.103C16.576 40.3873 18.5408 49.8012 20.6172 51.5139C20.9965 50.1864 21.3066 47.4856 21.5244 45.5785C22.3227 38.6131 23.2253 30.7212 28.7478 30.7212C34.3985 30.7212 35.2688 38.6736 36.0348 45.6882C36.2479 47.6559 36.5285 50.2143 36.8856 51.5065C38.9621 49.7733 40.9223 40.3807 42.0233 35.1039C42.3131 33.7131 42.6047 32.3213 42.9019 30.9631C43.4214 28.5898 44.3932 26.8957 45.3345 25.263C46.7816 22.7501 48.1475 20.376 48.1475 15.0173C48.1475 9.06507 43.3421 4.21807 37.4348 4.21807C34.74 4.21807 32.1624 5.24329 30.1708 7.10022C29.3688 7.84913 28.1313 7.84913 27.3293 7.10022C25.335 5.24143 22.7546 4.21714 20.0626 4.21714ZM36.2291 56C32.9519 56 32.5006 51.8684 31.8759 46.1479C31.5095 42.7922 30.6503 34.9356 28.7482 34.9356C26.9533 34.9356 26.0599 42.7326 25.6797 46.0623C25.0171 51.8293 24.5427 56 21.2637 56C15.5595 56 13.6224 46.7172 11.3798 35.9664C11.0918 34.5914 10.8057 33.2117 10.5086 31.8664C10.1311 30.1323 9.39467 28.8522 8.54379 27.3767C6.96106 24.6266 5.16699 21.5082 5.16699 15.0145C5.16699 6.73555 11.8486 0 20.0622 0C23.1981 0 26.2214 0.994518 28.7482 2.8347C31.2723 0.996378 34.2938 0.000930325 37.4306 0.000930325C45.6442 0.000930325 52.3249 6.73649 52.3249 15.0145C52.3249 21.51 50.5317 24.6276 48.949 27.3785C48.0972 28.8559 47.3617 30.1332 46.9833 31.8664C46.6898 33.2126 46.401 34.5895 46.113 35.9682C43.8723 46.7172 41.9361 56 36.2291 56Z" fill="#A22826"/>
</svg>
