<svg width="57" height="56" viewBox="0 0 57 56" fill="none" xmlns="http://www.w3.org/2000/svg">
<path fill-rule="evenodd" clip-rule="evenodd" d="M48.2637 37.5228C45.7253 37.5228 43.6594 35.492 43.6594 32.9918C43.6594 30.4887 45.7253 28.4552 48.2637 28.4552C50.8034 28.4552 52.868 30.4887 52.868 32.9918C52.868 35.4878 50.802 37.5228 48.2637 37.5228ZM5.63516 29.4152C8.89061 30.6513 13.1733 31.3465 17.9711 31.3549C18.001 31.3563 18.0309 31.3563 18.0608 31.3563C22.8486 31.3563 27.1214 30.6653 30.3769 29.425C27.5198 33.2188 21.3063 36.1885 18.0081 37.4078C14.71 36.1843 8.48937 33.2104 5.63516 29.4152ZM48.2646 24.8786C43.7243 24.8786 40.0278 28.5169 40.0278 32.9918C40.0278 36.8108 42.7284 40.0146 46.3466 40.8681C45.5612 47.3639 39.941 52.4232 33.137 52.4232C26.2107 52.4232 20.5108 47.1831 19.8876 40.5205C23.8559 38.9537 35.5203 33.6449 35.5203 25.4897V11.1554C35.5203 11.0405 35.506 10.9298 35.4861 10.8261C35.2016 7.66012 32.8781 5.07019 29.819 4.32741C29.6923 3.4627 28.9425 2.7998 28.029 2.7998C27.0259 2.7998 26.2135 3.60145 26.2135 4.58809V7.20184C26.2135 8.18848 27.0259 8.99012 28.029 8.99012C28.7262 8.99012 29.3224 8.60051 29.6269 8.03431C30.9572 8.63555 31.8863 9.94733 31.8863 11.4805V24.5998C29.3665 26.5478 24.0821 27.7783 18.0564 27.7783H17.9795C11.9382 27.7671 6.64523 26.5324 4.1325 24.5984V11.4805C4.1325 9.95153 5.06304 8.63555 6.39054 8.03431C6.69503 8.60051 7.29262 8.99012 7.98839 8.99012C8.99006 8.99012 9.80393 8.18848 9.80393 7.20184V4.58809C9.80393 3.60145 8.99006 2.7998 7.98839 2.7998C7.07493 2.7998 6.32652 3.46691 6.19846 4.32741C3.14363 5.07019 0.818715 7.66152 0.532725 10.8261C0.512806 10.9326 0.5 11.0433 0.5 11.1554V25.4897C0.5 33.7388 12.4248 39.0714 16.2565 40.571C16.9153 49.1872 24.2258 55.9998 33.1356 55.9998C41.9287 55.9998 49.1738 49.3666 49.9976 40.9157C53.7084 40.1281 56.5 36.8739 56.5 32.9904C56.5014 28.5169 52.8063 24.8786 48.2646 24.8786ZM48.2627 30.8181C47.0462 30.8181 46.0602 31.7893 46.0602 32.9876C46.0602 34.1858 47.0462 35.1557 48.2627 35.1557C49.4807 35.1557 50.4653 34.1858 50.4653 32.9876C50.4653 31.7893 49.4807 30.8181 48.2627 30.8181Z" fill="#A22826"/>
</svg>
