<svg width="57" height="56" viewBox="0 0 57 56" fill="none" xmlns="http://www.w3.org/2000/svg">
<path fill-rule="evenodd" clip-rule="evenodd" d="M28.4925 42.8027C22.8834 42.8027 18.319 38.1444 18.319 32.4184C18.319 26.6953 22.8834 22.0355 28.4925 22.0355C34.1031 22.0355 38.6675 26.6938 38.6675 32.4184C38.6675 38.1459 34.1031 42.8027 28.4925 42.8027ZM28.4945 18.0188C20.7121 18.0188 14.3849 24.4777 14.3849 32.4188C14.3849 40.3628 20.7121 46.8202 28.4945 46.8202C36.2769 46.8202 42.6056 40.3628 42.6056 32.4188C42.6056 24.4792 36.2769 18.0188 28.4945 18.0188ZM30.4625 30.4034V26.2842C30.4625 25.1774 29.5812 24.2764 28.4952 24.2764C27.4093 24.2764 26.5279 25.1774 26.5279 26.2842V30.4034H22.4844C21.397 30.4034 20.5156 31.3029 20.5156 32.4112C20.5156 33.5194 21.397 34.419 22.4844 34.419H26.5279V38.5532C26.5279 39.6615 27.4093 40.561 28.4952 40.561C29.5812 40.561 30.4625 39.6615 30.4625 38.5532V34.419H34.5119C35.5979 34.419 36.4793 33.5194 36.4793 32.4112C36.4793 31.3029 35.5979 30.4034 34.5119 30.4034H30.4625ZM52.5619 45.5737C52.5619 48.1266 50.5284 50.205 48.0284 50.205H8.96906C6.46908 50.205 4.43408 48.1266 4.43408 45.5737V19.2667C4.43408 16.7122 6.46908 14.6339 8.96906 14.6339H48.0284C50.5284 14.6339 52.5619 16.7122 52.5619 19.2667V45.5737ZM18.9502 10.6155C18.9502 7.62254 21.3369 5.18376 24.2709 5.18376H32.7258C35.6584 5.18376 38.0495 7.61954 38.0495 10.6155H18.9502ZM48.0289 10.6153H41.9843C41.9843 5.40435 37.8319 1.1665 32.726 1.1665H24.2711C19.1667 1.1665 15.0143 5.40435 15.0143 10.6153H8.97107C4.29925 10.6153 0.5 14.4927 0.5 19.2637V45.5707C0.5 50.3402 4.30072 54.2191 8.97107 54.2191H48.0304C52.7022 54.2191 56.5 50.3402 56.5 45.5707V19.2637C56.4985 14.4957 52.6978 10.6153 48.0289 10.6153Z" fill="#A22826"/>
</svg>
