<svg width="57" height="56" viewBox="0 0 57 56" fill="none" xmlns="http://www.w3.org/2000/svg">
<path fill-rule="evenodd" clip-rule="evenodd" d="M55.9724 14.0562C55.6205 14.4015 55.1585 14.5737 54.6966 14.5737C54.2346 14.5737 53.7727 14.4015 53.4208 14.0562C46.7711 7.54877 40.2594 12.0254 39.986 12.2188C39.1812 12.7883 38.0543 12.6179 37.4678 11.8312C36.8822 11.0471 37.051 9.94956 37.8495 9.3721C41.0101 7.08786 48.867 4.60407 55.9724 11.5592C56.677 12.2488 56.677 13.3666 55.9724 14.0562ZM34.6818 24.3622L25.6998 34.9605C25.4516 32.1623 24.2417 29.4322 22.0582 27.2954C20.7481 26.0134 19.208 25.0492 17.481 24.4302C16.4191 24.0488 15.3246 23.8218 14.2266 23.73L25.0546 14.941C27.7849 12.7247 31.7125 12.843 34.1901 15.2182L34.2957 15.3197L34.4003 15.4231C36.8256 17.8477 36.9474 21.6904 34.6818 24.3622ZM6.74639 42.2794C3.24199 38.85 3.23116 33.2776 6.7094 29.8323L8.05648 28.7391C9.56236 27.7405 11.3407 27.209 13.1444 27.209C14.1847 27.209 15.2331 27.3847 16.24 27.7458C17.4707 28.1873 18.5697 28.876 19.5062 29.7925C22.61 32.8299 22.9718 37.5467 20.598 40.9797L19.4647 42.3165C15.9432 45.7204 10.2517 45.7089 6.74639 42.2794ZM36.8471 12.8227L36.7144 12.6947C32.9114 9.04888 26.9086 8.84668 22.7501 12.2223L5.83983 25.9489C5.25968 26.3489 4.70568 26.7939 4.1941 27.2954C-0.731367 32.1146 -0.731367 39.9572 4.1941 44.7764C6.65638 47.1869 9.891 48.3913 13.1256 48.3913C16.3611 48.3913 19.5958 47.1869 22.0581 44.7764C22.0941 44.7411 22.1248 44.7013 22.1609 44.666C22.1636 44.6616 22.1681 44.6598 22.1708 44.6554L22.1862 44.6378C22.6319 44.1874 23.0298 43.7098 23.3925 43.2144L37.4597 26.6173C40.9091 22.5477 40.7025 16.6733 36.9355 12.9092L36.8471 12.8227ZM14.9948 37.8654C13.9644 38.8747 12.2862 38.8738 11.2558 37.8654C10.7568 37.3772 10.4817 36.7273 10.4817 36.0359C10.4817 35.3446 10.7568 34.6956 11.2558 34.2064C11.7602 33.7137 12.4405 33.4488 13.1316 33.4488C13.4357 33.4488 13.7433 33.5 14.0375 33.606C14.3984 33.7358 14.7205 33.938 14.9948 34.2064C15.4946 34.6956 15.7698 35.3446 15.7698 36.0359C15.7698 36.7273 15.4946 37.3772 14.9948 37.8654ZM17.5486 31.7094C16.9008 31.0754 16.1392 30.5977 15.2821 30.2904C13.0021 29.4728 10.4216 30.03 8.70548 31.7094C6.26756 34.0952 6.26756 37.9767 8.70548 40.3633C9.92444 41.5562 11.526 42.1522 13.1266 42.1522C14.7281 42.1522 16.3296 41.5562 17.5486 40.3633V40.3625C18.7296 39.2075 19.3802 37.6703 19.3802 36.0359C19.3802 34.4015 18.7296 32.8643 17.5486 31.7094Z" fill="#A22826"/>
</svg>
