<svg width="57" height="56" viewBox="0 0 57 56" fill="none" xmlns="http://www.w3.org/2000/svg">
<path fill-rule="evenodd" clip-rule="evenodd" d="M28.4987 20.2867C27.4814 20.2867 26.6506 21.0888 26.6506 22.0801C26.6506 23.0673 27.4814 23.8694 28.4987 23.8694C30.9784 23.8694 33.0003 25.8273 33.0003 28.2376C33.0003 30.6439 30.9784 32.6018 28.4987 32.6018C26.019 32.6018 23.9971 30.6439 23.9971 28.2376C23.9971 27.2463 23.1748 26.4443 22.1532 26.4443C21.1359 26.4443 20.3051 27.2463 20.3051 28.2376C20.3051 32.6182 23.9844 36.1844 28.4987 36.1844C33.013 36.1844 36.6923 32.6182 36.6923 28.2376C36.6923 23.8529 33.013 20.2867 28.4987 20.2867ZM42.1937 35.9787C43.5671 33.7 44.3725 31.0593 44.3725 28.2335C44.3725 25.4241 43.5756 22.7875 42.2107 20.517C46.8819 23.1988 50.4637 26.5182 52.1592 28.2376C50.4637 29.961 46.8734 33.2928 42.1937 35.9787ZM28.4987 40.0549C21.7845 40.0549 16.3206 34.753 16.3206 28.2335C16.3206 21.7181 21.7845 16.4161 28.4987 16.4161C35.213 16.4161 40.6768 21.7181 40.6768 28.2335C40.6768 34.753 35.213 40.0549 28.4987 40.0549ZM4.84219 28.2335C6.53771 26.5183 10.1153 23.203 14.7822 20.5253C13.4215 22.7917 12.6289 25.4242 12.6289 28.2335C12.6289 31.0429 13.4215 33.6753 14.7864 35.95C10.1195 33.2681 6.53771 29.9529 4.84219 28.2335ZM56.0676 27.0859C55.5717 26.5059 43.6352 12.8335 28.4984 12.8335H28.4942C13.3659 12.8376 1.42936 26.5059 0.92918 27.0859C0.35694 27.7522 0.35694 28.7147 0.92918 29.3811C1.42936 29.9652 13.3659 43.6335 28.4942 43.6335H28.4984C43.6352 43.6335 55.5717 29.9611 56.0676 29.3811C56.6441 28.7147 56.6441 27.7522 56.0676 27.0859Z" fill="#A22826"/>
</svg>
