<svg width="57" height="56" viewBox="0 0 57 56" fill="none" xmlns="http://www.w3.org/2000/svg">
<path fill-rule="evenodd" clip-rule="evenodd" d="M52.805 18.7893C52.736 16.878 50.6289 15.3219 47.0245 14.5181C45.5022 14.1785 44.052 14.0212 42.4638 14.0212C41.4259 14.0212 40.4539 14.0866 39.5117 14.1521C37.6319 14.2814 35.8038 14.3421 34.2297 14.0664C31.969 13.6676 29.9512 13.2174 28.0009 12.786C24.4232 11.9915 21.3377 11.303 18.2429 11.303C16.1029 11.303 14.0522 11.6411 11.9749 12.3358C6.78701 14.0711 4.16722 17.6304 4.18917 22.9125C4.20328 26.5871 5.11888 29.2492 6.00311 31.8225C6.84972 34.2821 7.72456 36.8243 7.61481 39.9116C7.54112 41.9927 7.87193 43.5224 8.54922 44.2187C8.77968 44.457 9.20142 44.7732 10.1719 44.7732C11.8024 44.7732 14.2152 43.8604 16.9636 42.2046C17.7099 41.7544 18.3903 41.3276 19.0425 40.9117C16.8476 38.6935 15.6388 35.7651 15.6435 32.6481C15.6482 29.4985 16.8868 26.5357 19.1303 24.3051C21.3754 22.0745 24.3573 20.8439 27.529 20.8392H27.5447C30.1911 20.8392 32.7011 21.7069 34.7612 23.2864C34.6781 22.2536 34.4116 21.1897 33.9475 20.0791C33.5572 19.1445 34.0024 18.0697 34.9431 17.6818C35.8869 17.2955 36.964 17.7363 37.3559 18.6709C38.5772 21.5823 38.7732 24.3861 38.005 27.07C38.0426 27.1401 38.0724 27.2133 38.1069 27.285C40.5934 26.2148 43.787 25.0746 48.1722 23.7552C50.8453 22.9515 52.8818 20.7691 52.805 18.7893ZM35.4589 32.7634C35.4542 32.7665 35.4479 32.7696 35.4432 32.7727C35.4761 31.0281 34.9117 29.2944 33.7876 27.8426C33.7908 27.8348 33.7939 27.8271 33.797 27.8208C33.5901 27.5545 33.3957 27.2819 33.1527 27.0404C31.6554 25.5528 29.6627 24.7335 27.5447 24.7335H27.5337C25.4077 24.7366 23.4072 25.5622 21.9021 27.0591C20.3971 28.5545 19.5661 30.5406 19.563 32.6528C19.5599 34.7635 20.3845 36.7449 21.8833 38.2356C22.0401 38.3913 22.2235 38.5082 22.3913 38.6499C22.396 38.6452 22.4007 38.6421 22.407 38.6374C23.5264 39.5783 24.8308 40.178 26.2026 40.4023C26.1963 40.407 26.1901 40.4117 26.1854 40.4148C26.6149 40.4849 27.0477 40.5409 27.4913 40.5409H27.5008C29.6283 40.5378 31.6272 39.7138 33.1323 38.2169C34.606 36.7558 35.4181 34.8211 35.4589 32.7634ZM56.4956 18.6538C56.632 22.3393 53.5811 25.9609 49.2414 27.2663C44.7512 28.6168 41.6109 29.7415 39.2389 30.7913C39.3314 31.3942 39.3925 32.0048 39.3909 32.6279C39.3878 35.1186 38.6008 37.4863 37.1678 39.4724L45.9067 48.155L43.1348 50.909L34.3975 42.2264C32.3954 43.6501 30.0139 44.4321 27.507 44.4352C27.5008 44.4352 27.496 44.4352 27.4913 44.4352C25.6382 44.4352 23.8541 44.0053 22.2424 43.2124C21.2264 43.8838 20.1352 44.5847 18.8794 45.3402C15.4648 47.3979 12.533 48.4416 10.1719 48.4416C8.4379 48.4416 6.95947 47.8621 5.89494 46.767C4.4557 45.2857 3.81133 43.0005 3.92578 39.7839C4.01358 37.3695 3.31748 35.3492 2.51163 33.0079C1.57565 30.2882 0.51739 27.2024 0.500145 22.9281C0.473492 16.0867 4.13116 11.0912 10.799 8.86058C13.2604 8.03656 15.6984 7.63623 18.2445 7.63623C21.7438 7.63623 25.0174 8.36367 28.8067 9.20639C30.7179 9.63008 32.6949 10.0709 34.8757 10.4541C36.1048 10.6691 37.5958 10.6068 39.2592 10.493C40.2626 10.4245 41.3005 10.3528 42.4654 10.3528C44.3342 10.3528 46.0415 10.5382 47.8351 10.9385C55.4577 12.638 56.4313 16.8998 56.4956 18.6538ZM31.8145 30.5234C32.1344 31.1714 32.3241 31.8786 32.3225 32.6232C32.3209 33.8989 31.8177 35.1015 30.9068 36.0049C29.9959 36.9115 28.784 37.41 27.4968 37.41C26.5875 37.41 25.7252 37.1514 24.9727 36.6841C26.3507 35.5704 27.4388 34.5874 28.4077 33.7027C28.9392 33.2182 29.4487 32.7572 29.9583 32.3101C30.6638 31.7119 31.2658 31.1185 31.8145 30.5234Z" fill="#A22826"/>
</svg>
