<svg width="56" height="56" viewBox="0 0 56 56" fill="none" xmlns="http://www.w3.org/2000/svg">
<path fill-rule="evenodd" clip-rule="evenodd" d="M23.5946 10.8379C23.3181 10.3948 23.2897 9.83998 23.5188 9.37038L27.6808 0.849407C28.0491 0.0967212 28.958 -0.211927 29.7069 0.153528C30.4587 0.520876 30.7702 1.42789 30.4028 2.17868L27.3059 8.52018H30.4625C30.9841 8.52018 31.4689 8.78906 31.7453 9.23121C32.0227 9.67335 32.053 10.2263 31.8258 10.6959L27.6998 19.2168C27.4385 19.7565 26.8969 20.0718 26.3355 20.0718C26.113 20.0718 25.8886 20.0225 25.6756 19.9193C24.9229 19.5548 24.6076 18.6488 24.9721 17.8961L28.0453 11.5499H24.8793C24.3577 11.5499 23.872 11.281 23.5946 10.8379ZM8.86816 52.9692H46.4561V25.6982H8.86816V52.9692ZM11.709 14.9906H13.256V6.65894H11.709V14.9906ZM42.082 14.9906H43.6291V6.65894H42.082V14.9906ZM53.8242 9.46706H46.659V5.14409C46.659 4.30714 45.9811 3.62925 45.1451 3.62925H40.5693C39.7324 3.62925 39.0545 4.30714 39.0545 5.14409V16.5054C39.0545 17.3423 39.7324 18.0202 40.5693 18.0202H45.1451C45.9811 18.0202 46.659 17.3423 46.659 16.5054V12.4967H52.3093V37.8201H49.4851V24.1837C49.4851 23.3468 48.8072 22.6689 47.9703 22.6689H7.3536C6.51665 22.6689 5.83876 23.3468 5.83876 24.1837V37.8201H3.02873V12.4967H8.67909V16.5054C8.67909 17.3423 9.35698 18.0202 10.1939 18.0202H14.7697C15.6057 18.0202 16.2836 17.3423 16.2836 16.5054V5.14409C16.2836 4.30714 15.6057 3.62925 14.7697 3.62925H10.1939C9.35698 3.62925 8.67909 4.30714 8.67909 5.14409V9.46706H1.51484C0.677891 9.46706 0 10.1459 0 10.9819V39.335C0 40.171 0.677891 40.8498 1.51484 40.8498H5.83876V54.4853C5.83876 55.3213 6.51665 56.0001 7.3536 56.0001H47.9703C48.8072 56.0001 49.4851 55.3213 49.4851 54.4853V40.8498H53.8242C54.6602 40.8498 55.3381 40.171 55.3381 39.335V10.9819C55.3381 10.1459 54.6602 9.46706 53.8242 9.46706ZM27.3684 47.8803C27.3684 48.685 26.717 49.3374 25.9122 49.3374C25.1084 49.3374 24.4561 48.685 24.4561 47.8803C24.4561 47.0765 25.1084 46.4241 25.9122 46.4241C26.717 46.4241 27.3684 47.0765 27.3684 47.8803ZM22.1621 47.8803C22.1621 48.685 21.5107 49.3374 20.7059 49.3374C19.9021 49.3374 19.2498 48.685 19.2498 47.8803C19.2498 47.0765 19.9021 46.4241 20.7059 46.4241C21.5107 46.4241 22.1621 47.0765 22.1621 47.8803ZM16.9562 47.8802C16.9562 48.685 16.3048 49.3373 15.5001 49.3373C14.6963 49.3373 14.0439 48.685 14.0439 47.8802C14.0439 47.0764 14.6963 46.4241 15.5001 46.4241C16.3048 46.4241 16.9562 47.0764 16.9562 47.8802ZM38.7564 47.0246C38.1846 47.0246 37.7188 46.5588 37.7188 45.9869C37.7188 45.4151 38.1846 44.9502 38.7564 44.9502C39.3283 44.9502 39.7941 45.4151 39.7941 45.9869C39.7941 46.5588 39.3283 47.0246 38.7564 47.0246ZM38.7559 41.9204C36.5139 41.9204 34.6895 43.7448 34.6895 45.9868C34.6895 48.2297 36.5139 50.0542 38.7559 50.0542C40.9988 50.0542 42.8232 48.2297 42.8232 45.9868C42.8232 43.7448 40.9988 41.9204 38.7559 41.9204ZM38.7534 31.7483C39.9075 31.7483 40.8486 32.6875 40.8486 33.8426C40.8486 34.9986 39.9075 35.9378 38.7534 35.9378C37.5984 35.9378 36.6582 34.9986 36.6582 33.8426C36.6582 32.6875 37.5984 31.7483 38.7534 31.7483ZM38.7529 38.9676C41.578 38.9676 43.8768 36.6688 43.8768 33.8427C43.8768 31.0175 41.578 28.7188 38.7529 28.7188C35.9267 28.7188 33.6289 31.0175 33.6289 33.8427C33.6289 36.6688 35.9267 38.9676 38.7529 38.9676ZM14.1133 40.1984H27.2981V31.7484H14.1133V40.1984ZM12.5998 43.2281H28.8133C29.6493 43.2281 30.3272 42.5502 30.3272 41.7132V30.2336C30.3272 29.3966 29.6493 28.7188 28.8133 28.7188H12.5998C11.7629 28.7188 11.085 29.3966 11.085 30.2336V41.7132C11.085 42.5502 11.7629 43.2281 12.5998 43.2281Z" fill="#A22826"/>
</svg>
