<svg width="57" height="56" viewBox="0 0 57 56" fill="none" xmlns="http://www.w3.org/2000/svg">
<path fill-rule="evenodd" clip-rule="evenodd" d="M13.7136 42.7879C10.3876 39.4619 10.3902 34.0547 13.7136 30.7313L14.8308 29.6115L19.0359 33.8153C19.8043 34.5824 21.0503 34.5837 21.8187 33.8153C22.5884 33.0469 22.5884 31.7996 21.8187 31.0312L17.6136 26.83L20.1351 24.3085L24.3376 28.5123C25.1073 29.2794 26.352 29.2807 27.1204 28.5123C27.8889 27.7439 27.8889 26.4979 27.1204 25.7282L22.9179 21.5244L25.4394 19.0042L29.6419 23.208C30.4104 23.9764 31.655 23.9777 32.4247 23.208C33.1931 22.4396 33.1931 21.1936 32.4247 20.4252L28.2222 16.2214L30.7411 13.7012L34.9462 17.905C35.7146 18.6734 36.9606 18.6734 37.729 17.905C38.4974 17.1366 38.4974 15.8906 37.729 15.1222L33.5239 10.9197L36.0454 8.39823L48.1008 20.4548L25.7715 42.7853C22.4468 46.1087 17.0383 46.11 13.7136 42.7879ZM1.07648 55.4237C1.84619 56.1921 3.09085 56.1921 3.85927 55.4237L12.4432 46.8398C17.3099 50.3665 24.1703 49.9508 28.5556 45.5694L50.8849 23.2389L52.5363 24.8877C53.3047 25.6561 54.5493 25.6561 55.3178 24.8877C56.0875 24.1193 56.0875 22.8733 55.3178 22.1049L46.2499 13.0358L48.9387 10.3444L53.1399 14.5482C53.9122 15.3166 55.1569 15.3166 55.9227 14.5482C56.6924 13.7785 56.6924 12.5351 55.9227 11.7654L44.7362 0.576314C43.9665 -0.192105 42.7193 -0.192105 41.9534 0.576314C41.185 1.34473 41.185 2.59197 41.9534 3.3591L46.1559 7.56159L43.4671 10.253L34.3966 1.18255C33.6282 0.412848 32.3822 0.412848 31.6138 1.18255C30.8454 1.95097 30.8454 3.19563 31.6138 3.96405L33.2639 5.61545L10.9308 27.9472C6.54681 32.3312 6.13107 39.1865 9.6604 44.0596L1.07519 52.6409C0.308056 53.4093 0.308056 54.6553 1.07648 55.4237Z" fill="#A22826"/>
</svg>
