<svg width="57" height="56" viewBox="0 0 57 56" fill="none" xmlns="http://www.w3.org/2000/svg">
<path fill-rule="evenodd" clip-rule="evenodd" d="M52.219 44.2834C51.83 44.9299 51.157 45.6736 49.3867 45.6736C48.5172 45.6736 47.4632 45.4948 46.2535 45.1427C39.5333 43.1845 35.0534 40.6744 35.0534 34.7778V34.3206C35.0534 27.9733 35.0534 22.4926 35.6999 18.7202C36.5285 13.8844 38.0975 13.8844 38.7665 13.8844C44.8354 13.8844 53.1992 28.3714 53.1992 38.8861C53.2008 41.3832 52.8719 43.1991 52.219 44.2834ZM21.9439 34.7794C21.9439 40.6744 17.4673 43.1877 10.7438 45.1435C9.53257 45.4947 8.48017 45.676 7.61066 45.676C5.76335 45.676 3.79492 45.1508 3.79492 38.8885C3.79492 28.3746 12.1579 13.886 18.2277 13.886C18.8975 13.886 20.4672 13.886 21.2966 18.7226C21.9407 22.495 21.9407 27.9773 21.9407 34.323V34.7794H21.9439ZM51.076 20.629C47.3677 14.2283 42.8822 10.5562 38.7681 10.5562C33.9657 10.5562 32.8652 15.7909 32.4978 17.8851C31.1992 17.7693 30.1492 16.9181 30.1492 15.909V10.9964C30.1492 10.078 29.4104 9.3335 28.5008 9.3335C27.588 9.3335 26.8516 10.078 26.8516 10.9964V15.909C26.8516 16.9181 25.8016 17.771 24.5022 17.8851C24.1348 15.7876 23.0359 10.5562 18.2327 10.5562C14.1186 10.5562 9.63146 14.2291 5.92321 20.629C2.57752 26.4034 0.5 33.4005 0.5 38.8861C0.5 41.3881 0.5 49.0002 7.6125 49.0002C8.80848 49.0002 10.1312 48.7849 11.6601 48.3399C16.0694 47.0565 25.2433 44.3878 25.2433 34.7778V34.3206C25.2433 29.3117 25.2385 24.8401 24.9209 21.1922C26.3214 21.0401 27.5727 20.4518 28.5008 19.5819C29.4257 20.4518 30.6762 21.0401 32.0783 21.1922C31.7607 24.8401 31.7558 29.3117 31.7583 34.3206V34.7778C31.7583 44.3845 40.9322 47.0541 45.3391 48.3399C46.868 48.7833 48.1899 49.0002 49.3859 49.0002C51.9431 49.0002 53.8474 47.9943 55.0401 46.0102C56.0364 44.3522 56.5 42.0897 56.5 38.8861C56.4976 33.3981 54.4217 26.4034 51.076 20.629Z" fill="#A22826"/>
</svg>
