<svg width="57" height="56" viewBox="0 0 57 56" fill="none" xmlns="http://www.w3.org/2000/svg">
<path fill-rule="evenodd" clip-rule="evenodd" d="M51.2942 49.0992C50.9998 49.3952 50.611 49.5568 50.195 49.5568L32.491 49.5888C31.6366 49.5888 30.9358 48.8912 30.9326 48.0368L30.875 30.7136L20.075 24.6528L17.4622 38.8976C16.7294 38.72 15.9422 38.648 15.1694 38.6976C15.1806 30.9248 15.1998 17.9296 15.1982 17.664L15.2062 17.5696L15.203 17.4768C15.1262 15.136 16.043 14.4224 16.8206 14.0464C19.4734 12.5856 24.4622 16.1904 26.0686 17.6288C30.2446 20.9728 37.1598 27.2752 37.947 29.9776C38.1406 30.6048 38.2942 31.3536 38.123 32.5664L34.4958 46.4672L50.1902 46.4432C51.0478 46.4432 51.747 47.1392 51.7486 47.9968C51.7486 48.4112 51.5886 48.8032 51.2942 49.0992ZM20.6775 39.096L22.4135 29.6352L27.6791 32.5904L27.7159 43.3312C26.0071 41.6304 23.5431 40.0432 20.6775 39.096ZM26.9089 49.1936C26.7217 49.4192 26.2961 49.5488 25.7393 49.5504L22.6769 49.5552C23.1265 48.5744 23.3649 47.5024 23.3649 46.3968C23.3649 45.4 23.1761 44.4496 22.8305 43.5744C25.3281 45.0688 26.8513 46.9424 27.0305 47.9072C27.1425 48.5056 27.0993 48.9632 26.9089 49.1936ZM18.4368 49.9088L15.6608 52.1168L12.872 49.9152C11.7696 49.0448 11.136 47.7616 11.136 46.3968C11.136 43.9072 13.1616 41.8816 15.6512 41.8816C18.1376 41.8816 20.1632 43.9072 20.1632 46.3968C20.1632 47.7552 19.5328 49.0352 18.4368 49.9088ZM8.63563 49.576L5.17003 49.5824C4.80523 49.5056 3.68043 49.1696 3.70283 47.928C3.71723 47.072 5.63403 44.7552 8.67083 43.1168C8.20043 44.1136 7.93803 45.224 7.93803 46.3968C7.93803 47.5104 8.18123 48.5904 8.63563 49.576ZM8.48345 15.3344C6.37305 15.3344 4.65625 13.6176 4.65625 11.5072C4.65625 9.39678 6.37305 7.67998 8.48345 7.67998C10.5954 7.67998 12.3123 9.39678 12.3123 11.5072C12.3123 13.6176 10.5954 15.3344 8.48345 15.3344ZM50.1888 43.2432L38.6384 43.2624L41.24 33.288L41.272 33.1232C41.4992 31.6336 41.416 30.3728 41.0112 29.0608C39.6944 24.5424 29.2544 16.08 28.1376 15.1904C27.368 14.4976 20.5056 8.53118 15.4736 11.1504C15.2832 7.44318 12.2352 4.47998 8.48162 4.47998C4.60642 4.47998 1.45442 7.63198 1.45442 11.5072C1.45442 15.3824 4.60642 18.5344 8.48162 18.5344C9.77282 18.5344 10.9664 18.1616 12.0064 17.552C12.0064 17.5632 12.0048 17.5728 12.0048 17.584C11.9984 18.2512 11.9936 21.4992 11.968 38.5216C5.80962 39.8336 0.555216 44.584 0.500816 47.8736C0.444816 51.2288 3.28322 52.5392 4.79362 52.7648L4.91042 52.7824L14.848 52.7664H14.8464L25.744 52.7504C27.1632 52.7472 28.3728 52.2848 29.184 51.4448C30.0432 52.2752 31.2112 52.7888 32.4976 52.7888H32.6784L50.1984 52.7568C51.4688 52.7552 52.6624 52.2592 53.5616 51.3568C54.4576 50.4576 54.9488 49.2608 54.9472 47.9888C54.9392 45.3728 52.8048 43.2432 50.1888 43.2432Z" fill="#FEFEFE"/>
</svg>
