<svg width="57" height="56" viewBox="0 0 57 56" fill="none" xmlns="http://www.w3.org/2000/svg">
<path fill-rule="evenodd" clip-rule="evenodd" d="M28.4651 15.021C32.3076 15.3426 33.3739 18.2715 33.3938 18.6828C33.3967 19.8467 34.3511 20.7881 35.5312 20.7881C36.7103 20.7881 37.6676 19.8439 37.6676 18.6809C37.6676 16.1961 35.0753 11.3405 28.8253 10.8189C21.7061 10.2131 16.8967 16.342 15.8446 22.6961C15.2029 26.5738 16.238 29.327 18.5516 29.8813C20.217 30.2824 20.9184 31.6669 20.8729 32.8579C20.8151 34.3676 19.6417 35.4567 17.7318 35.768C16.5697 35.9597 15.7821 37.045 15.9735 38.193C16.1489 39.2242 17.0541 39.9561 18.0815 39.9561C18.1981 39.9561 18.3156 39.9468 18.4341 39.9272C22.379 39.2821 25.0112 36.5683 25.1458 33.014C25.269 29.7355 23.1847 26.8786 20.0265 25.912C19.7099 24.8229 20.0322 21.4892 21.9013 18.5959C23.5809 16.0007 25.7836 14.806 28.4651 15.021ZM26.87 0C12.66 0 7.5 11.2658 7.5 18.8362C7.5 20.0001 8.45826 20.9443 9.63737 20.9443C10.8174 20.9443 11.7747 20.0001 11.7747 18.8362C11.7747 12.9579 15.7945 4.21615 26.87 4.21615C37.9028 4.21615 44.4884 12.3764 44.4884 26.0438C44.4884 39.9973 35.284 51.7829 24.3886 51.7829C19.4513 51.7829 16.0921 49.7328 14.9254 46.0084C14.5775 44.8959 13.3775 44.2789 12.2515 44.6164C11.1236 44.9604 10.4923 46.1411 10.8402 47.2527C12.5539 52.729 17.6191 56 24.3886 56C37.5995 56 48.7632 42.2821 48.7632 26.0457C48.7632 9.9804 40.3748 0 26.87 0Z" fill="#FEFEFE"/>
</svg>
