<svg width="56" height="56" viewBox="0 0 56 56" fill="none" xmlns="http://www.w3.org/2000/svg">
<path fill-rule="evenodd" clip-rule="evenodd" d="M51.9972 10.9224L50.7458 4.99644C50.6586 4.42649 50.3188 3.92627 49.822 3.63694C49.4769 3.38247 49.0569 3.24826 48.6246 3.25698H48.1906L24.9764 8.14942L27.1498 18.316L50.31 13.4236C51.4604 13.2057 52.2186 12.0972 52.0007 10.9468C51.999 10.9381 51.9972 10.9294 51.9972 10.9224ZM19.1027 11.9017L20.2443 17.446L23.4513 16.7383L22.3114 11.194L19.1027 11.9017ZM36.8253 29.7324V31.5276C36.8253 32.4287 37.5556 33.159 38.455 33.159H46.6102V28.1027H38.455C37.5853 28.0714 36.855 28.7528 36.8253 29.6226C36.8236 29.6592 36.8236 29.6958 36.8253 29.7324ZM51.0144 16.6862L43.3489 18.3158V24.8397H48.2431C49.1128 24.81 49.8431 25.4898 49.8728 26.3595C49.8745 26.3979 49.8745 26.4345 49.8728 26.4711V34.7884C49.8728 35.6895 49.1425 36.4198 48.2431 36.4198H38.4547C35.7549 36.4198 33.564 34.2306 33.564 31.5273V29.7321C33.564 27.0306 35.7549 24.8397 38.4547 24.8397H40.0861V18.9694L26.2228 21.9046H25.8968C25.116 21.8993 24.4415 21.359 24.2672 20.5991L24.1574 19.8932L19.319 20.925H18.9913C18.6828 20.9198 18.3813 20.8257 18.1216 20.6531C17.7399 20.4387 17.4767 20.057 17.4157 19.6213L15.5682 10.9223C15.474 10.4935 15.5525 10.0438 15.786 9.67258C16.0335 9.32051 16.3995 9.06952 16.8179 8.96495L21.6022 7.98541L21.4401 7.22549C21.3582 6.80544 21.4558 6.37319 21.7103 6.02983C21.9264 5.64639 22.3081 5.38494 22.7439 5.3222L47.4797 0.102084C48.888 -0.168072 50.3451 0.102084 51.5582 0.86375C52.7748 1.64633 53.634 2.87685 53.9495 4.28863L55.2009 10.2687C55.7744 13.1898 53.9181 16.0343 51.0144 16.6862ZM42.8154 40.16V44.4233C42.8154 45.3854 42.0363 46.1662 41.0724 46.1662H23.1498V52.514H31.2405C32.2043 52.514 32.9834 53.2948 32.9834 54.2569C32.9834 55.219 32.2043 55.9999 31.2405 55.9999H11.5766C10.6128 55.9999 9.83368 55.219 9.83368 54.2569C9.83368 53.2948 10.6128 52.514 11.5766 52.514H19.6639V46.1662H1.74294C0.779095 46.1662 0 45.3854 0 44.4233V14.9239C0 13.9618 0.779095 13.181 1.74294 13.181H12.5318V16.6669H3.48589V42.6803H39.3295V40.16H42.8154Z" fill="#A22826"/>
</svg>
