<svg width="56" height="56" viewBox="0 0 56 56" fill="none" xmlns="http://www.w3.org/2000/svg">
<path fill-rule="evenodd" clip-rule="evenodd" d="M30.7402 24.6617C30.7402 21.6178 33.232 19.1418 36.2955 19.1418C39.3589 19.1418 41.8507 21.6178 41.8507 24.6617C41.8507 27.7573 39.4109 30.1816 36.2955 30.1816C33.181 30.1816 30.7402 27.7573 30.7402 24.6617ZM47.7919 7.19275C43.19 2.55428 37.038 0 30.472 0C26.7375 0 23.2296 0.779014 20.0577 2.30944C11.4704 6.298 5.92138 14.9313 5.92138 24.3052V27.2895L1.72537 35.1954C0.782767 36.9636 0.760367 38.892 1.64921 40.3271C2.44755 41.716 3.99227 42.5458 5.92138 42.6366V48.2544C5.92138 52.1325 9.09684 55.2878 12.9999 55.2878L19.7835 54.296L32.6529 52.0755C36.392 51.5725 39.1015 48.1662 38.7153 44.4679V34.7423C43.3799 33.6623 46.6907 29.5393 46.6907 24.6614C46.6907 18.9171 41.9875 14.2448 36.2074 14.2448C30.4263 14.2448 25.7232 18.9171 25.7232 24.6614C25.7232 29.4423 29.102 33.6454 33.6986 34.7387V44.5151L33.7039 44.7858C33.8303 45.9886 33.0194 47.0676 31.9065 47.186L18.875 49.4216L12.7893 50.2976C11.663 50.1934 10.7598 49.2542 10.7598 48.1653V40.0636C10.7598 38.7157 9.69716 37.6598 8.34061 37.6598H6.27978C6.1642 37.6598 6.05937 37.6473 5.96977 37.6313C5.99575 37.561 6.03249 37.4719 6.08714 37.3624L10.5672 28.9045L10.6738 28.6312C10.7518 28.4131 10.8494 28.1424 10.8494 27.7774V24.1272C10.8494 16.6335 15.2883 9.75148 22.1598 6.59358C24.8433 5.34982 27.6398 4.7186 30.472 4.7186C41.1937 4.7186 49.9154 13.3848 49.9154 24.0382C49.9154 29.4637 47.6046 34.6764 43.6425 38.283C43.0825 38.7014 42.7474 39.4003 42.7474 40.1526V53.5962C42.7474 54.9432 43.8109 56 45.1675 56C46.5231 56 47.5867 54.9432 47.5867 53.5962V41.1507C52.0892 36.7054 54.6643 30.4911 54.6643 24.0506C54.7539 17.7357 52.3132 11.7493 47.7919 7.19275Z" fill="#A22826"/>
</svg>
