<svg width="57" height="56" viewBox="0 0 57 56" fill="none" xmlns="http://www.w3.org/2000/svg">
<path fill-rule="evenodd" clip-rule="evenodd" d="M45.1573 27.4802C46.0267 27.4802 46.7531 26.7834 46.7947 25.8854C46.8375 24.962 46.1393 24.1767 45.235 24.1319C44.1483 24.0778 42.9039 23.4017 42.5717 22.6819C42.1843 21.8459 41.209 21.4883 40.3881 21.8816C39.5682 22.276 39.2158 23.2729 39.602 24.11C40.5626 26.1912 43.0829 27.3802 45.0762 27.4779C45.1021 27.4791 45.1303 27.4802 45.1573 27.4802ZM24.7889 27.0136C25.6617 27.255 26.5615 26.7353 26.8047 25.8453C27.0457 24.953 26.5344 24.0308 25.6617 23.7813C25.4072 23.71 23.5715 23.2432 21.7641 23.8239C20.6041 22.3808 19.1773 21.2631 18.3237 20.8986C17.4881 20.5456 16.5309 20.9481 16.1829 21.8001C15.8326 22.6533 16.2279 23.6353 17.0613 23.994C17.7313 24.2815 19.978 26.2638 20.308 27.9081C20.4679 28.7015 21.1515 29.2477 21.9139 29.2477C22.0242 29.2477 22.1346 29.2362 22.2461 29.2144C23.1335 29.0281 23.7056 28.1427 23.5231 27.2366C23.5006 27.1205 23.4488 27.0078 23.4184 26.8905C23.9837 26.856 24.5434 26.9469 24.7889 27.0136ZM56.5 25.8049C56.5 20.4558 52.6148 16.0104 47.5753 15.2642C46.8489 11.1339 43.3038 7.99022 39.0526 7.99022C37.4174 7.99022 35.8521 8.42946 34.5063 9.21481C32.0333 7.45669 29.1132 6.70698 26.1514 7.10368C23.5556 7.45324 21.1536 8.68703 19.4756 10.49C17.5364 9.75869 15.0138 9.82538 12.7412 10.7453C9.96528 11.871 8.02267 14.0327 7.17131 16.8855C5.8143 17.3144 4.58116 18.025 3.55412 19.0035C1.58561 20.8801 0.5 23.5282 0.5 26.4626C0.5 29.458 1.84462 32.3338 4.09579 34.1597C5.767 35.512 7.80645 36.2122 10.0036 36.2122C10.5182 36.2122 11.0441 36.1593 11.5745 36.0823C13.4631 38.4935 16.2458 39.9458 19.3731 39.9458C21.211 39.9458 22.6818 39.7158 23.9205 39.3421C27.4848 42.5364 32.0761 42.587 34.3498 42.3639C36.4287 47.1209 39.9186 49.324 40.0774 49.4229C40.3431 49.5873 40.6348 49.6667 40.9242 49.6667C41.4749 49.6667 42.0132 49.3804 42.3229 48.8641C42.7959 48.0776 42.5526 47.0485 41.7846 46.5621C41.7576 46.5425 39.2553 44.9293 37.5931 41.5292C39.119 40.8749 40.0177 40.1079 40.1427 39.9952C40.8195 39.3801 40.8814 38.3222 40.2778 37.63C39.6753 36.9378 38.6393 36.8757 37.9625 37.4909C37.9512 37.5012 36.8566 38.4395 35.0266 38.8891C34.8216 38.9293 30.7168 39.7239 27.335 37.7208C27.8429 37.392 28.3305 37.0482 28.808 36.7078C30.3182 35.6281 31.8779 34.5104 34.5074 33.7182C35.3757 33.456 35.8723 32.5258 35.6167 31.637C35.3611 30.7504 34.4466 30.2364 33.5795 30.5044C30.4353 31.453 28.5704 32.7857 26.9262 33.9643C24.7933 35.4913 23.2505 36.5928 19.3731 36.5928C16.0566 36.5928 13.3876 34.2506 12.5712 30.6274C12.3685 29.7248 11.4901 29.1579 10.6038 29.3694C9.72091 29.5764 9.16909 30.4756 9.37293 31.3782C9.48779 31.8899 9.6387 32.3786 9.80875 32.8558C8.12966 32.8121 6.91905 32.1682 6.13637 31.5312C4.66112 30.3388 3.7816 28.4427 3.7816 26.4615C3.7816 24.4676 4.4967 22.6888 5.79177 21.4539C7.0891 20.2212 8.84251 19.6463 10.8583 19.7866C11.7795 19.8602 12.5464 19.1541 12.6106 18.2297C12.6737 17.3052 11.9912 16.506 11.0858 16.4416C11.0362 16.437 10.9867 16.4405 10.9349 16.437C11.7514 15.04 12.9428 14.2684 13.953 13.8591C15.9857 13.0358 18.0476 13.2922 18.9553 13.9534C19.3134 14.2144 19.7617 14.3156 20.1918 14.2408C20.6243 14.1638 21.0094 13.9108 21.2594 13.5429C22.3788 11.8871 24.3665 10.7211 26.5771 10.4256C28.4409 10.1726 30.2855 10.5613 31.9218 11.5122C31.6977 11.8146 31.4882 12.132 31.3024 12.4654C30.683 13.5785 30.3542 14.7882 30.2765 16.0127C29.79 16.3876 28.96 16.9142 28.0861 16.9947C27.1841 17.0775 26.5174 17.8951 26.6019 18.8161C26.6785 19.6854 27.3947 20.3385 28.2337 20.3385C28.2832 20.3385 28.335 20.3362 28.3846 20.3316C29.3024 20.2465 30.1324 19.9441 30.8317 19.5888C31.0029 20.0315 31.1988 20.4719 31.4466 20.8962C31.9117 21.6942 32.9184 21.9506 33.6966 21.4792C34.4759 21.0066 34.7293 19.9774 34.2676 19.1829C33.3148 17.5513 33.2754 15.7069 34.1561 14.1212C35.1257 12.3804 36.9568 11.342 39.0537 11.342C42.0177 11.342 44.4288 13.8027 44.4288 16.8291C44.4288 17.7536 45.1642 18.5045 46.0696 18.5045C50.0123 18.5045 53.2184 21.7793 53.2184 25.8038C53.2184 29.8282 50.0111 33.1042 46.0696 33.1042C45.2689 33.1042 44.5853 33.694 44.4525 34.5012C43.5617 39.9309 45.5617 45.9584 45.6473 46.2125C45.8815 46.907 46.5178 47.3428 47.198 47.3428C47.3748 47.3428 47.5539 47.3141 47.7318 47.2508C48.5877 46.9507 49.0438 45.9986 48.751 45.1247C48.7352 45.0742 47.2577 40.5955 47.5426 36.3502C52.5968 35.6178 56.5 31.1678 56.5 25.8049Z" fill="#A22826"/>
</svg>
