<svg width="57" height="56" viewBox="0 0 57 56" fill="none" xmlns="http://www.w3.org/2000/svg">
<path fill-rule="evenodd" clip-rule="evenodd" d="M31.382 8.46279H30.049V7.11726C30.049 6.15819 29.2809 5.37988 28.3319 5.37988C27.3851 5.37988 26.6149 6.15819 26.6149 7.11726V8.46279H25.283C24.3362 8.46279 23.5659 9.24109 23.5659 10.1991C23.5659 11.1593 24.3362 11.9365 25.283 11.9365H26.6149V13.2874C26.6149 14.2465 27.3851 15.0248 28.3319 15.0248C29.2809 15.0248 30.049 14.2465 30.049 13.2874V11.9365H31.382C32.3298 11.9365 33.0979 11.1593 33.0979 10.1991C33.0979 9.24109 32.3298 8.46279 31.382 8.46279ZM42.8994 46.3712C45.1557 42.5695 46.5507 37.9516 46.647 33.0664C46.7593 33.0685 46.8674 33.0761 46.9808 33.0761C47.9276 33.0761 48.6967 32.2978 48.6967 31.3387C48.6967 30.3797 47.9276 29.6014 46.9808 29.6014C39.6665 29.6014 33.0721 26.447 29.7664 21.3745C29.408 20.7932 28.8796 19.7021 28.7458 18.9032C28.5886 17.9593 27.7306 17.2968 26.8041 17.4375C25.8659 17.5728 25.2133 18.455 25.3492 19.4022C25.3738 19.5765 25.5824 20.8527 26.281 22.2405C22.818 26.801 16.5703 29.597 9.68392 29.597C8.73713 29.597 7.96794 30.3764 7.96794 31.3344C7.96794 32.2946 8.73713 33.0718 9.68392 33.0718C9.79732 33.0718 9.90537 33.0653 10.0177 33.0631C10.114 37.9516 11.5122 42.5673 13.7674 46.3701C5.83366 44.1445 5.09977 35.6329 5.09977 32.7752C5.09977 25.4371 8.63122 18.9162 14.0883 14.7227L14.9485 17.6832C15.2148 18.6066 16.1745 19.1262 17.0795 18.8621C17.9899 18.5914 18.5109 17.628 18.2435 16.7068L15.432 7.03487C18.8436 4.76166 23.4706 3.47351 28.3329 3.47351C33.1909 3.47351 37.8189 4.76166 41.2337 7.03596L38.4223 16.7068C38.1559 17.628 38.6758 18.5914 39.5862 18.8621C39.7488 18.9097 39.9104 18.9335 40.0719 18.9335C40.8133 18.9335 41.498 18.4431 41.7173 17.6865L42.5796 14.7205C48.0388 18.9162 51.5671 25.4425 51.5671 32.7795C51.566 35.6384 50.8278 44.1456 42.8994 46.3712ZM28.3315 52.5252C20.463 52.5252 13.5638 43.348 13.4408 32.8176C19.4702 32.0079 24.8396 29.2725 28.3315 25.1958C31.8255 29.2725 37.1938 32.0068 43.2243 32.8176C43.1024 43.348 36.201 52.5252 28.3315 52.5252ZM43.609 11.1745L44.8724 6.82721C45.0735 6.13659 44.8339 5.39833 44.2712 4.96101C40.207 1.80558 34.399 0 28.3331 0C22.2662 0 16.4582 1.80883 12.3961 4.96101C11.8334 5.39833 11.5938 6.142 11.7949 6.82721L13.0594 11.1777C6.17946 15.9547 1.66699 23.8449 1.66699 32.7765C1.66699 40.9697 5.65311 49.7768 16.7214 50.3798C19.9362 53.8502 24.0154 56 28.3353 56C32.652 56 36.7311 53.8524 39.947 50.3798C51.0153 49.7768 55.0003 40.9697 55.0003 32.7765C54.9982 23.8503 50.4868 15.9525 43.609 11.1745ZM31.7708 43.1055C29.9061 44.4489 26.7609 44.4489 24.8962 43.1055C24.127 42.5491 23.0519 42.7277 22.4998 43.5104C21.9489 44.2941 22.1286 45.3766 22.9021 45.9362C24.4244 47.0328 26.3779 47.5859 28.3314 47.5859C30.2859 47.5859 32.2415 47.0328 33.765 45.9362C34.5352 45.3809 34.7139 44.2941 34.1651 43.5104C33.6152 42.7277 32.54 42.5491 31.7708 43.1055Z" fill="#A22826"/>
</svg>
