<svg width="57" height="56" viewBox="0 0 57 56" fill="none" xmlns="http://www.w3.org/2000/svg">
<path fill-rule="evenodd" clip-rule="evenodd" d="M23.4488 12.7477H26.8426V16.1092C26.8426 17.0137 27.5848 17.7469 28.4983 17.7469C29.4153 17.7469 30.1548 17.0137 30.1548 16.1092V12.7477H33.5496C34.4648 12.7477 35.2061 12.0135 35.2061 11.1099C35.2061 10.2054 34.4648 9.4722 33.5496 9.4722H30.1548V6.11771C30.1548 5.21498 29.4153 4.47998 28.4983 4.47998C27.5848 4.47998 26.8426 5.21498 26.8426 6.11771V9.4722H23.4488C22.5344 9.4722 21.7931 10.2054 21.7931 11.1099C21.7931 12.0135 22.5344 12.7477 23.4488 12.7477ZM53.186 39.4896H30.1534V29.2707H48.1099C50.909 29.2707 53.1878 31.5249 53.1878 34.2937L53.186 39.4896ZM26.8427 32.6551H18.8662C19.556 30.6907 21.4265 29.269 23.6432 29.269H26.8418V32.6551H26.8427ZM3.81219 39.4896H26.8412V35.9305H3.81219V39.4896ZM48.1099 25.9944H23.6436C19.5839 25.9944 16.1909 28.8606 15.4186 32.6551H3.81219V19.2468C3.81219 18.3423 3.07092 17.609 2.15565 17.609C1.24038 17.609 0.5 18.3423 0.5 19.2468V47.6414C0.5 48.5459 1.24038 49.28 2.15565 49.28C3.07092 49.28 3.81219 48.5459 3.81219 47.6414V42.7677H53.1878V47.6414C53.1878 48.5459 53.93 49.28 54.8444 49.28C55.7596 49.28 56.5 48.5459 56.5 47.6414V34.2928C56.4982 29.7177 52.7342 25.9944 48.1099 25.9944ZM10.6337 24.188C11.7212 24.188 12.6072 25.0653 12.6072 26.1401C12.6072 27.2176 11.7212 28.0931 10.6337 28.0931C9.54624 28.0931 8.65938 27.2176 8.65938 26.1401C8.65938 25.0653 9.54624 24.188 10.6337 24.188ZM10.634 31.3703C13.5485 31.3703 15.9197 29.0266 15.9197 26.1428C15.9197 23.2581 13.5485 20.9143 10.634 20.9143C7.71956 20.9143 5.3475 23.2581 5.3475 26.1428C5.3475 29.0257 7.72045 31.3703 10.634 31.3703Z" fill="#A22826"/>
</svg>
