<svg width="57" height="56" viewBox="0 0 57 56" fill="none" xmlns="http://www.w3.org/2000/svg">
<path fill-rule="evenodd" clip-rule="evenodd" d="M17.5668 21.621L19.7996 7.68927C20.2863 4.64823 21.7434 3.10946 24.1324 3.10946C26.7871 3.10946 27.7273 5.21538 27.7273 7.021C27.7273 8.64264 26.987 9.8332 25.5329 10.5539C24.767 10.9303 24.4493 11.8646 24.8251 12.6355C25.2002 13.4064 26.1253 13.7257 26.8904 13.3479C29.4206 12.0965 30.8143 9.84993 30.8143 7.021C30.8143 3.53065 28.5196 0 24.1324 0C20.1724 0 17.4845 2.62138 16.7526 7.19282L14.5205 21.1231C14.3824 21.9685 14.9567 22.7698 15.7958 22.9074C15.8795 22.9218 15.9618 22.9294 16.044 22.9294C16.7888 22.9279 17.4445 22.3836 17.5668 21.621ZM37.7195 43.7233C41.1642 41.0388 42.9783 36.6597 42.3919 32.2632C41.6479 26.7406 37.5996 22.5341 32.362 21.6803L31.2173 16.9591C31.0166 16.1266 30.1797 15.615 29.3534 15.818C28.5249 16.021 28.0171 16.8641 28.2178 17.6973L29.6183 23.4639C29.779 24.1238 30.3435 24.6035 31.012 24.6476C35.3154 24.9396 38.733 28.2429 39.3298 32.6767C39.8105 36.2477 38.164 39.8095 35.1426 41.7474C34.5835 42.1063 34.3118 42.7814 34.4711 43.4299L35.6331 48.2028H31.0535C30.3638 48.2028 29.7594 48.6582 29.573 49.3295L28.2367 54.015C28.0005 54.8391 28.4728 55.702 29.2908 55.9369C29.4365 55.9795 29.576 56 29.7194 56C30.388 56 31.0075 55.556 31.1992 54.8741L32.2141 51.3145H37.5996C38.0734 51.3145 38.5217 51.0956 38.8137 50.7215C39.1065 50.3452 39.2114 49.8525 39.0982 49.3918L37.7195 43.7233ZM22.9961 48.2072H20.0525L22.1993 34.2047C22.3298 33.357 21.7503 32.5603 20.9089 32.431C20.0721 32.301 19.279 32.8826 19.1485 33.7311L16.7278 49.5232C16.6606 49.9748 16.7889 50.4279 17.0809 50.7716C17.3744 51.116 17.8023 51.3144 18.2543 51.3144H21.453V54.4429C21.453 55.3012 22.1464 55.9976 22.9961 55.9976C23.8488 55.9976 24.54 55.3012 24.54 54.4429V49.7589C24.54 48.9059 23.8488 48.2072 22.9961 48.2072ZM29.8519 34.0961C30.2941 33.361 30.0587 32.403 29.3267 31.959L20.7969 26.7763L22.4811 16.2627C22.6177 15.4158 22.0427 14.6167 21.2051 14.4776C20.3615 14.3354 19.5692 14.9201 19.4341 15.764L17.5846 27.3154C17.4835 27.9411 17.7717 28.5675 18.3105 28.8937L27.7346 34.6169C27.9836 34.7682 28.259 34.8404 28.5276 34.8404C29.0543 34.8465 29.5652 34.5774 29.8519 34.0961Z" fill="#A22826"/>
</svg>
