<svg xmlns="http://www.w3.org/2000/svg" width="48" height="48" viewBox="0 0 48 48" fill="none">
  <path fill-rule="evenodd" clip-rule="evenodd" d="M12.7805 34.1873C12.438 34.4978 12.2433 34.9331 12.2433 35.372C12.2433 35.8037 12.438 36.2391 12.7805 36.5495C13.1231 36.8635 13.5825 37.0419 14.0691 37.0419C14.5557 37.0419 15.0151 36.8635 15.3577 36.5495C15.6964 36.2391 15.891 35.8037 15.891 35.372C15.891 34.926 15.6964 34.5013 15.3577 34.1873C14.6725 33.5629 13.4501 33.5629 12.7805 34.1873ZM7.80925 34.1873C7.47835 34.4978 7.2837 34.9224 7.2837 35.372C7.2837 35.8037 7.47835 36.2391 7.80925 36.5495C8.15182 36.8635 8.62287 37.0419 9.10949 37.0419C9.58443 37.0419 10.0555 36.8635 10.3981 36.5495C10.7367 36.2391 10.9314 35.8037 10.9314 35.372C10.9314 34.926 10.7367 34.5013 10.3981 34.1873C9.71679 33.5629 8.48662 33.5629 7.80925 34.1873ZM38.8983 33.6949H19.0287C18.0282 33.6949 17.2107 34.4442 17.2107 35.3684C17.2107 36.289 18.0282 37.0384 19.0287 37.0384H38.8983C39.9066 37.0384 40.7241 36.289 40.7241 35.3684C40.7241 34.4442 39.9066 33.6949 38.8983 33.6949ZM3.64769 39.5968H44.3523V3.33988H3.64769V39.5968ZM46.1781 0H1.82579C0.817518 0 0 0.749331 0 1.66994V41.2703C0 42.1909 0.817518 42.9402 1.82579 42.9402H7.27981V46.3301C7.27981 47.2507 8.09732 48 9.1056 48C10.11 48 10.9275 47.2507 10.9275 46.3301V42.9402H17.2107V46.3301C17.2107 47.2507 18.0282 48 19.0287 48C20.037 48 20.8545 47.2507 20.8545 46.3301V42.9402H46.1781C47.1864 42.9402 48 42.1909 48 41.2703V1.66994C48 0.749331 47.1864 0 46.1781 0ZM10.9275 27.793H37.0764V10.1053H10.9275V27.793ZM9.1056 31.1365H38.8983C39.9066 31.1365 40.7241 30.3872 40.7241 29.463V8.43533C40.7241 7.51115 39.9066 6.76182 38.8983 6.76182H9.1056C8.09732 6.76182 7.27981 7.51115 7.27981 8.43533V29.463C7.27981 30.3872 8.09732 31.1365 9.1056 31.1365ZM33.6779 18.4585H31.1669L30.0457 15.6574C29.781 14.9973 29.0959 14.562 28.3328 14.562H28.3251C27.562 14.562 26.8769 15.0045 26.6199 15.6646L25.0277 19.7145L22.692 12.835C22.4623 12.157 21.7849 11.686 21.0102 11.661C20.2706 11.6218 19.527 12.0678 19.2506 12.7315L16.8564 18.4585H14.3221C13.3178 18.4585 12.5002 19.2079 12.5002 20.132C12.5002 21.0526 13.3178 21.802 14.3221 21.802H18.1061C18.8613 21.802 19.5387 21.3738 19.8112 20.7279L20.7727 18.43L23.1552 25.4665C23.3888 26.1517 24.074 26.6262 24.8564 26.6405H24.8954C25.6662 26.6405 26.3513 26.2016 26.6122 25.5379L28.3718 21.0562C28.7066 21.5129 29.271 21.802 29.8939 21.802H33.674C34.6822 21.802 35.4998 21.0526 35.4998 20.132C35.4998 19.2079 34.6861 18.4585 33.6779 18.4585Z" fill="#FEFEFE"/>
</svg>