<svg width="56" height="56" viewBox="0 0 56 56" fill="none" xmlns="http://www.w3.org/2000/svg">
  <path fill-rule="evenodd" clip-rule="evenodd" d="M32.4235 52.4755C27.7079 53.7937 20.4996 50.0076 15.0099 38.5704C10.5741 29.3299 12.5935 23.8471 14.1915 21.4C16.0484 18.5568 18.8386 17.2846 20.7916 17.3612C22.7977 17.4005 24.2188 17.8994 25.3601 18.9758C24.3283 20.783 22.7844 23.2914 19.9113 23.6447C19.0022 23.7563 18.3575 24.5757 18.4692 25.4749C18.582 26.3752 19.4147 27.0108 20.3194 26.9014C24.9929 26.3293 27.2103 22.4217 28.4035 20.3235C28.5528 20.0588 28.6889 19.8203 28.8426 19.5698C31.5709 15.1448 34.4263 13.3748 36.6061 12.7119L37.2718 13.6976C34.1576 18.2998 34.0968 22.0618 34.0404 25.4049C33.9696 29.7533 33.911 33.1872 26.2703 37.8813C25.4928 38.3604 25.2528 39.3701 25.7372 40.1392C26.0502 40.6413 26.5921 40.9148 27.1472 40.9148C27.4458 40.9148 27.7477 40.836 28.0209 40.6686C37.1977 35.0305 37.2807 30.1624 37.3581 25.4585C37.3924 23.3669 37.4278 21.3464 38.1986 19.1147C41.5572 20.2098 43.3974 23.1853 43.6551 28.0041C44.1915 38.1515 37.5229 51.0479 32.4235 52.4755ZM23.906 11.0904C24.3174 10.9055 24.6337 10.5631 24.7841 10.1408C24.9334 9.71966 24.9025 9.25583 24.7001 8.85763C23.7579 7.01216 24.1726 4.85819 24.5862 3.55859L26.9672 4.10119C26.2959 6.62491 27.3731 8.6115 28.2113 9.43305C28.531 9.74701 28.97 9.90453 29.4212 9.90891C29.4433 9.89907 31.3787 9.87609 32.4038 11.0685C30.7085 12.1329 28.9092 13.7454 27.1563 16.1597C25.2121 14.5746 23.0777 14.1862 21.3945 14.0998C21.9984 12.0158 23.822 11.1308 23.906 11.0904ZM46.9668 27.8322C46.6471 21.8155 44.0682 17.7406 39.6401 16.1237C39.9299 15.661 40.2495 15.1884 40.6166 14.6994C41.0358 14.1426 41.0535 13.3856 40.6642 12.808L38.72 9.93641C38.3528 9.39491 37.7004 9.12799 37.0523 9.23192C36.5425 9.32162 35.9873 9.45617 35.4023 9.64652C34.1559 7.65664 31.9286 6.8526 30.272 6.66882C30.0187 6.13279 29.844 5.16137 30.6845 3.78957C30.9587 3.33996 30.9997 2.78643 30.7929 2.30181C30.5861 1.8172 30.1559 1.45948 29.6372 1.34133L23.9362 0.0406389C23.1953 -0.124546 22.4311 0.224421 22.0849 0.895005C21.9898 1.07879 20.0136 5.00056 21.1803 8.93765C19.934 9.87953 18.2408 11.6681 17.9356 14.5463C15.4152 15.3438 13.0265 17.1367 11.4041 19.6189C9.43226 22.6392 6.88757 29.2991 12.0134 39.9782C17.7454 51.9196 25.0576 56 30.5706 56C31.5537 56 32.4783 55.8698 33.3265 55.6324C40.286 53.6841 47.5529 38.8755 46.9668 27.8322Z" fill="#A22826"/>
</svg>
