<svg width="57" height="56" viewBox="0 0 57 56" fill="none" xmlns="http://www.w3.org/2000/svg">
<path fill-rule="evenodd" clip-rule="evenodd" d="M45.1878 22.019C44.3325 22.2428 43.8206 23.1189 44.0438 23.9776C44.2199 24.654 43.3241 25.228 43.2808 25.2551C42.5265 25.7027 42.2706 26.6763 42.7113 27.4395C42.9778 27.9016 43.4406 28.1795 43.9332 28.2306C44.2574 28.2644 44.5932 28.1998 44.8972 28.0232C46.0297 27.3661 47.775 25.6053 47.14 23.1652C46.9177 22.3074 46.0431 21.7961 45.1878 22.019ZM50.2859 30.5964C48.3327 33.4012 48.1162 34.4269 47.8719 36.1424C47.7756 36.8245 47.666 37.5993 47.3388 38.8005C45.53 45.4531 36.6119 50.3266 29.0909 52.0421C22.4838 53.5472 16.8861 52.7522 14.4826 49.9647C11.2393 46.2019 11.7761 40.6771 13.9814 37.1661C14.4519 36.4145 14.2277 35.4245 13.4801 34.9527C12.7354 34.4828 11.7454 34.7076 11.2749 35.4554C10.8996 36.0517 10.5629 36.7 10.2656 37.3851C7.86311 37.9823 5.9523 37.8743 4.84872 37.0503C3.8529 36.3083 3.69992 35.1235 3.69704 34.4838C3.68164 30.7807 5.50105 28.9359 6.7961 28.8095C7.53117 28.7323 7.96317 29.2476 8.21141 29.7937C7.84387 30.1034 7.47922 30.4266 7.12707 30.7769C6.49783 31.3992 6.4911 32.4142 7.11168 33.0452C7.383 33.3202 7.72841 33.4755 8.08537 33.5132C8.54527 33.5604 9.01961 33.408 9.37367 33.0587C12.694 29.7676 16.076 29.3402 17.9666 29.9751C19.2347 30.4025 20.0275 31.3365 20.3229 32.6535C19.3569 34.342 19.2443 35.9957 19.4858 37.0156C19.5733 37.3812 19.7109 37.7363 19.8812 38.0788C19.8447 38.3577 19.7311 39.199 19.0528 40.2931C18.5871 41.0438 18.8171 42.0347 19.5666 42.5017C19.7802 42.6329 20.013 42.7091 20.2468 42.7352C20.8357 42.7959 21.437 42.5248 21.7718 41.9845C22.0441 41.5465 22.2539 41.1306 22.4203 40.7456C22.6195 40.872 22.8225 40.9946 23.038 41.1133C24.7747 42.0607 26.9068 42.656 29.2053 42.8944C32.5228 43.2378 36.1866 42.8345 39.4955 41.6603C40.3277 41.366 40.7626 40.4494 40.4701 39.6139C40.1757 38.7793 39.2617 38.3412 38.4284 38.6365C32.9163 40.5893 27.3802 39.8271 24.564 38.2949C23.4652 37.6938 22.7657 36.976 22.5974 36.2707C22.5367 36.015 22.5262 35.1187 23.2025 34.0573C24.0213 32.777 25.9398 31.0837 30.408 29.9789C30.8708 30.8183 31.4356 31.4667 32.0408 31.9559C30.9497 32.2318 29.8096 32.6168 28.757 33.1542C27.97 33.5566 27.6563 34.5214 28.0575 35.3116C28.4558 36.0989 29.4209 36.4154 30.2089 36.014C33.129 34.5234 37.1719 34.4664 37.2113 34.4645C37.9329 34.4577 38.5593 33.9695 38.744 33.2729C38.9288 32.5763 38.6266 31.8392 38.0051 31.4754C37.9647 31.4522 36.9621 30.8695 34.8281 29.9278C32.6315 28.961 31.9176 25.7249 32.8124 20.8177C33.3454 17.8894 34.7925 15.5747 36.9968 14.1265C39.4185 12.5355 42.5262 12.1254 45.9861 12.9407C49.1611 13.6865 51.6011 15.7397 52.6826 18.5754C54.0479 22.1453 53.1954 26.4158 50.2859 30.5964ZM55.6722 17.4244C54.204 13.5804 50.9395 10.8055 46.7176 9.81365C42.4437 8.81214 38.371 9.38816 35.244 11.4404C32.3326 13.3546 30.3515 16.4788 29.6655 20.2398C29.1614 23.0041 29.1354 25.1885 29.4135 26.9233C27.1592 27.5012 25.2753 28.2779 23.7561 29.237C23.5309 28.1496 23.5252 26.5721 24.4767 24.6752C25.9218 21.7961 26.0662 18.6536 24.8712 16.0581C23.6656 13.4415 21.2112 11.561 17.9601 10.7631C17.1057 10.5575 16.236 11.0805 16.0262 11.9421C15.8165 12.8027 16.3428 13.6701 17.201 13.8805C19.5207 14.4478 21.1679 15.6664 21.9674 17.4031C22.7622 19.1302 22.64 21.2017 21.6191 23.2337C20.8109 24.8479 20.4934 26.327 20.4424 27.6151C19.996 27.3401 19.5101 27.1095 18.9848 26.9339C16.4842 26.0877 13.5805 26.5055 10.8335 27.9942C9.7925 26.1967 8.06353 25.4654 6.48754 25.614C3.49528 25.9044 0.47704 29.0517 0.500132 34.4954C0.509753 36.6335 1.37568 38.4551 2.94012 39.6235C3.71561 40.2005 4.85767 40.7534 6.48947 40.9232C7.27457 41.0033 8.19342 40.9734 9.22387 40.8325C8.54845 44.5356 9.1623 48.6989 12.0632 52.0643C13.9105 54.2062 16.8729 55.502 20.5454 55.8822C23.2904 56.1668 26.4327 55.9391 29.8012 55.1711C38.5067 53.1883 48.2609 47.6173 50.4276 39.6448C50.8057 38.2506 50.9385 37.3301 51.0415 36.592C51.2271 35.2837 51.3041 34.7424 52.9109 32.4325C56.3938 27.4279 57.4012 21.9553 55.6722 17.4244Z" fill="#A22826"/>
</svg>
