<svg width="57" height="56" viewBox="0 0 57 56" fill="none" xmlns="http://www.w3.org/2000/svg">
<path fill-rule="evenodd" clip-rule="evenodd" d="M31.2189 39.7476C29.466 40.4235 27.532 40.4235 25.7804 39.7476C24.8628 39.3939 23.8248 39.8305 23.4639 40.722C23.1004 41.6149 23.5491 42.6248 24.4654 42.9759C25.7669 43.4782 27.1333 43.728 28.501 43.728C29.8688 43.728 31.2351 43.4769 32.5367 42.9759C33.4516 42.6235 33.899 41.6149 33.5381 40.722C33.1719 39.8318 32.138 39.3913 31.2189 39.7476ZM39.7065 26.2639C38.9618 26.9898 37.9712 27.3909 36.9156 27.3909C35.8601 27.3909 34.8708 26.9898 34.1261 26.2652C33.4301 25.5841 32.2989 25.5841 31.6015 26.2626C30.9041 26.9398 30.9041 28.0404 31.6001 28.7177C33.0179 30.101 34.9046 30.8637 36.9156 30.8637C38.924 30.8637 40.8121 30.1023 42.2325 28.7203C42.9285 28.0404 42.9272 26.9411 42.2298 26.2626C41.5324 25.5867 40.4039 25.5854 39.7065 26.2639ZM25.4004 26.2626C24.7044 25.5867 23.5732 25.5854 22.8771 26.2639C21.3864 27.7156 18.7847 27.7156 17.2954 26.2639C16.598 25.5854 15.4695 25.5867 14.7721 26.2626C14.0747 26.9411 14.0734 28.0404 14.7694 28.7202C16.1885 30.101 18.0765 30.8636 20.0862 30.8636C22.0959 30.8636 23.9827 30.1023 25.4031 28.7202C26.0964 28.0417 26.0964 26.9411 25.4004 26.2626ZM51.554 32.1629C51.627 31.4383 51.6689 30.7046 51.6689 29.9629C51.6689 28.8123 51.5784 27.6736 51.4027 26.5585C52.3244 27.1962 52.9326 28.2403 52.9326 29.4212C52.9326 30.5376 52.3879 31.5185 51.554 32.1629ZM28.5012 49.0286C17.6945 49.0286 8.90023 40.4761 8.90023 29.9616C8.89888 23.9193 11.7992 18.332 16.8566 14.6304C18.6555 13.3154 20.1178 11.8558 21.5315 10.4409C24.1142 7.85958 26.1685 5.80429 29.131 5.80429C29.2175 5.80429 29.3054 5.8056 29.3959 5.80955C31.8935 5.91211 33.7748 7.71362 33.7748 10.0004C33.7748 10.0411 33.7748 10.0819 33.7735 10.124C33.7654 10.195 33.76 10.266 33.76 10.337C33.5843 12.4896 31.7273 14.1885 29.4716 14.1885C28.6864 14.1885 27.9309 13.6862 27.6457 13.3325C27.0376 12.579 25.9171 12.4409 25.1414 13.034C24.3643 13.6244 24.2264 14.7158 24.8346 15.4706C25.6455 16.4805 27.3457 17.66 29.4716 17.66C32.8328 17.66 35.7075 15.5995 36.836 12.7092C43.6477 15.823 48.0996 22.5267 48.0996 29.9616C48.0982 40.4761 39.3066 49.0286 28.5012 49.0286ZM5.44555 32.1602C4.61167 31.5185 4.06836 30.5362 4.06836 29.4211C4.06836 28.2403 4.67924 27.2093 5.60098 26.5742C5.42798 27.6867 5.33067 28.8162 5.33067 29.9629C5.33067 30.7045 5.37257 31.4383 5.44555 32.1602ZM50.3452 22.5097C48.1855 16.5305 43.4957 11.5862 37.2882 9.11145C36.8382 5.41113 33.5986 2.50768 29.544 2.33936C24.834 2.1842 21.8593 5.13367 18.9725 8.01871C17.6534 9.33763 16.2897 10.7012 14.7125 11.8545C10.9026 14.6396 8.13876 18.3412 6.63452 22.5123C3.17059 23.0094 0.5 25.9128 0.5 29.4198C0.5 32.8059 2.98679 35.6357 6.27367 36.2761C9.08887 45.6373 17.9791 52.5002 28.5007 52.5002C39.0195 52.5002 47.9084 45.6373 50.725 36.2761C54.0146 35.6357 56.5 32.8059 56.5 29.4198C56.5014 25.9076 53.8186 23.0002 50.3452 22.5097Z" fill="#A22826"/>
</svg>
