<svg width="57" height="56" viewBox="0 0 57 56" fill="none" xmlns="http://www.w3.org/2000/svg">
<path fill-rule="evenodd" clip-rule="evenodd" d="M47.8084 8.25776C47.1093 7.97051 46.1165 7.64849 44.9679 7.27617C42.6004 6.50956 39.3574 5.46027 37.3634 4.21705C36.7094 3.80813 35.8385 3.99567 35.4191 4.63329C35.0025 5.27182 35.192 6.12077 35.847 6.52877C38.1347 7.95678 41.4322 9.02345 44.0802 9.88062C45.1725 10.2347 46.1165 10.5402 46.7124 10.7854C51.0758 12.5839 53.4292 16.2422 53.1665 20.8199C53.1186 21.6487 52.8587 22.4739 52.5828 23.3475C52.1521 24.7179 51.6623 26.2703 51.9297 28.1201C53.1092 36.3341 50.1909 43.7816 50.1618 43.8557C49.8794 44.561 50.2378 45.3578 50.9623 45.6313C51.1302 45.6944 51.3029 45.7264 51.4737 45.7264C52.0358 45.7264 52.5669 45.3953 52.7836 44.8528C52.9159 44.5253 56.0032 36.6863 54.7167 27.7395C54.5374 26.4944 54.879 25.4095 55.275 24.1534C55.5875 23.1618 55.9122 22.1363 55.9778 20.9736C56.3053 15.2551 53.2519 10.5018 47.8084 8.25776ZM4.07578 28.12C4.34228 26.2711 3.85245 24.7178 3.41986 23.3474C3.14492 22.4738 2.88405 21.6495 2.83619 20.8198C2.57439 16.2412 4.92688 12.5838 9.2903 10.7853C9.88711 10.5392 10.8302 10.2337 11.9224 9.88054C14.5705 9.02245 17.8661 7.95579 20.1548 6.52869C20.8097 6.12068 21.0012 5.27174 20.5826 4.63321C20.1641 3.99558 19.2924 3.80713 18.6383 4.21697C16.6452 5.45928 13.4022 6.50948 11.0347 7.27608C9.88523 7.64841 8.89244 7.97042 8.19335 8.25767C2.7508 10.5008 -0.303592 15.2541 0.0238989 20.9735C0.0905232 22.1362 0.414261 23.1617 0.727676 24.1543C1.12367 25.4094 1.46617 26.4944 1.28695 27.7394C-0.000498704 36.6862 3.0858 44.5252 3.21811 44.8527C3.43487 45.3961 3.96693 45.7264 4.52901 45.7264C4.6998 45.7264 4.87246 45.6962 5.04043 45.6321C5.76485 45.3559 6.12237 44.56 5.83898 43.8547C5.81177 43.7806 2.88968 36.3633 4.07578 28.12ZM40.3966 28.699C39.6421 28.8884 39.1898 29.6358 39.3831 30.3704C39.5464 30.9897 40.1179 31.4005 40.7466 31.4005C40.8611 31.4005 40.9793 31.3867 41.0966 31.3575C41.6972 31.2065 42.233 31.0236 42.7406 30.826C42.6543 31.5834 42.5586 32.4909 42.4563 33.5182C41.7553 33.5905 41.0825 33.7039 40.3919 33.8284C39.5239 33.9839 38.6174 34.133 37.5871 34.2025C36.9969 32.6995 35.5105 31.6255 33.7632 31.6255C31.7776 31.6255 30.1177 33.0069 29.7404 34.8346C28.6594 35.4229 27.3448 35.4238 26.2638 34.8356C25.8856 33.0078 24.2266 31.6255 22.241 31.6255C20.4881 31.6255 19.0008 32.7068 18.4124 34.2162C17.3783 34.144 16.4822 33.9848 15.6105 33.8284C14.9198 33.7039 14.2479 33.5905 13.5479 33.5173C13.4475 32.4964 13.3499 31.5798 13.2655 30.826C13.7731 31.0236 14.308 31.2065 14.9086 31.3575C15.0259 31.3867 15.1441 31.4005 15.2604 31.4005C15.8873 31.4005 16.4597 30.9897 16.623 30.3704C16.8172 29.6358 16.363 28.8884 15.6105 28.699C11.5473 27.6808 10.624 25.3893 10.3096 22.5808C11.4732 22.6915 12.2408 22.922 13.0299 23.1654C13.9814 23.4581 14.9696 23.7563 16.5122 23.8597C17.0781 25.4094 18.5842 26.53 20.3661 26.53C21.9257 26.53 23.2676 25.6692 23.9629 24.4168C25.2381 24.8898 26.6129 25.1496 28.0035 25.1496C29.3932 25.1496 30.7783 24.9017 32.0526 24.4333C32.7507 25.6756 34.0888 26.53 35.6409 26.53C37.4248 26.53 38.929 25.4085 39.4957 23.857C41.0365 23.7554 42.0256 23.4581 42.9762 23.1663C43.7672 22.922 44.5329 22.6897 45.6984 22.5781C45.3831 25.3874 44.4597 27.6799 40.3966 28.699ZM32.4727 35.6287C32.4727 34.9353 33.0507 34.3708 33.7629 34.3708C34.4742 34.3708 35.0532 34.9353 35.0532 35.6287C35.0532 36.3221 34.4742 36.8866 33.7629 36.8866C33.0507 36.8866 32.4727 36.3212 32.4727 35.6287ZM20.9514 35.6287C20.9514 34.9352 21.5304 34.3708 22.2416 34.3708C22.9529 34.3708 23.5319 34.9352 23.5319 35.6287C23.5319 36.3221 22.9529 36.8865 22.2416 36.8865C21.5304 36.8865 20.9514 36.3212 20.9514 35.6287ZM41.647 45.3899C40.7302 45.4997 39.925 45.6964 39.1931 45.8803C38.6254 46.0248 38.1027 46.1502 37.5725 46.2343C36.9692 44.7542 35.4922 43.7003 33.7618 43.7003C31.7762 43.7003 30.1163 45.0807 29.739 46.9085C28.658 47.4977 27.3434 47.4977 26.2624 46.9094C25.8842 45.0807 24.2252 43.7003 22.2396 43.7003C20.5083 43.7003 19.0322 44.7532 18.4289 46.2343C17.8977 46.1511 17.3751 46.0248 16.8074 45.8803C16.0764 45.6964 15.2703 45.5006 14.3554 45.3899C14.2447 42.146 14.0307 39.0055 13.8018 36.3141C14.2203 36.3727 14.6454 36.4477 15.0995 36.5282C16.0585 36.7002 17.1217 36.8868 18.3857 36.9637C18.9525 38.5124 20.4576 39.6303 22.2386 39.6303C23.7607 39.6303 25.0763 38.8107 25.7857 37.6077C26.4998 37.8721 27.2458 38.0248 27.9984 38.0248C28.7537 38.0248 29.5082 37.8913 30.2251 37.6287C30.9383 38.8198 32.2464 39.6294 33.7609 39.6294C35.5475 39.6294 37.0546 38.506 37.6167 36.949C38.8741 36.874 39.9457 36.6984 40.8991 36.5273C41.3532 36.4459 41.7793 36.3718 42.1978 36.3132C41.9707 39.0046 41.7577 42.1451 41.647 45.3899ZM33.7629 48.9603C33.0507 48.9603 32.4727 48.395 32.4727 47.7024C32.4727 47.009 33.0507 46.4446 33.7629 46.4446C34.4742 46.4446 35.0532 47.009 35.0532 47.7024C35.0532 48.395 34.4742 48.9603 33.7629 48.9603ZM22.2416 48.9603C21.5304 48.9603 20.9514 48.395 20.9514 47.7024C20.9514 47.009 21.5304 46.4446 22.2416 46.4446C22.9529 46.4446 23.5319 47.009 23.5319 47.7024C23.5319 48.395 22.9539 48.9603 22.2416 48.9603ZM20.3615 21.269C21.0728 21.269 21.6518 21.8335 21.6518 22.5269C21.6518 23.2203 21.0728 23.7848 20.3615 23.7848C19.6503 23.7848 19.0713 23.2203 19.0713 22.5269C19.0713 21.8335 19.6503 21.269 20.3615 21.269ZM35.6381 21.2691C36.3493 21.2691 36.9283 21.8335 36.9283 22.527C36.9283 23.2204 36.3493 23.7848 35.6381 23.7848C34.9258 23.7848 34.3478 23.2204 34.3478 22.527C34.3478 21.8335 34.9258 21.2691 35.6381 21.2691ZM47.4557 17.7623C46.6825 17.6983 46.005 18.2719 45.9478 19.0275C45.9271 19.2837 45.913 19.548 45.8971 19.8097C44.1686 19.9268 43.0904 20.2506 42.1267 20.5479C41.316 20.7967 40.584 21.0209 39.4664 21.1105C38.8771 19.6038 37.3898 18.5244 35.6398 18.5244C33.6964 18.5244 32.073 19.8499 31.6498 21.621C29.4399 22.6456 26.5657 22.6447 24.354 21.621C23.9298 19.8499 22.3074 18.5244 20.364 18.5244C18.614 18.5244 17.1276 19.602 16.5374 21.1078C15.4207 21.0172 14.685 20.7967 13.8761 20.5479C12.9134 20.2515 11.8352 19.9268 10.1076 19.8106C10.0917 19.548 10.0786 19.2837 10.0579 19.0275C9.9988 18.2728 9.32317 17.7084 8.54807 17.7623C7.77298 17.82 7.19213 18.4786 7.25125 19.2343C7.28503 19.666 7.30943 20.1052 7.33382 20.5498C7.48209 23.2219 7.67821 26.5811 10.2099 28.9641C10.4286 30.6822 11.6222 40.466 11.6222 49.7001C11.6222 50.4566 12.2518 51.0723 13.0297 51.0723C13.8076 51.0723 14.4373 50.4566 14.4373 49.7001C14.4373 49.1905 14.4326 48.6801 14.426 48.1678C14.9975 48.2629 15.5427 48.3947 16.101 48.5355C16.8189 48.7176 17.5583 48.8978 18.3756 48.9966C18.9311 50.5655 20.4447 51.7035 22.2408 51.7035C23.76 51.7035 25.0746 50.8848 25.7841 49.6864C26.4991 49.9489 27.247 50.0971 28.0005 50.0971C28.7559 50.0971 29.5103 49.9626 30.2272 49.701C30.9404 50.8921 32.2485 51.7026 33.763 51.7026C35.5591 51.7026 37.0736 50.5646 37.6282 48.9957C38.4436 48.8978 39.1849 48.7167 39.9018 48.5346C40.4611 48.3937 41.0063 48.2602 41.5778 48.166C41.5721 48.6792 41.5674 49.1896 41.5674 49.6992C41.5674 50.4557 42.1971 51.0714 42.975 51.0714C43.752 51.0714 44.3826 50.4557 44.3826 49.6992C44.3826 40.4724 45.5743 30.6858 45.7939 28.9651C48.3256 26.5802 48.5217 23.221 48.67 20.5488C48.6944 20.1052 48.7197 19.6651 48.7525 19.2333C48.8117 18.4795 48.2308 17.82 47.4557 17.7623Z" fill="#A22826"/>
</svg>
