<svg width="57" height="56" viewBox="0 0 57 56" fill="none" xmlns="http://www.w3.org/2000/svg">
<path fill-rule="evenodd" clip-rule="evenodd" d="M52.8265 47.6201C51.9384 49.1589 49.9466 50.006 47.2127 50.006H9.78618C7.0555 50.006 5.06266 49.1578 4.17346 47.6201C3.28425 46.0813 3.54702 43.9319 4.91446 41.567L23.6267 9.1551C24.9952 6.78913 26.7252 5.48686 28.5005 5.48686C30.2779 5.48686 32.0058 6.78913 33.3722 9.1551L52.0866 41.567C53.4519 43.9319 53.7147 46.0813 52.8265 47.6201ZM54.8168 39.9902L36.1025 7.57834C34.1496 4.19599 31.4484 2.3335 28.5001 2.3335C25.5497 2.3335 22.8495 4.19599 20.8977 7.57834L2.18337 39.9902C0.230481 43.3715 -0.0322867 46.6393 1.44237 49.1955C2.91807 51.7517 5.88209 53.1591 9.78577 53.1591H47.2113C51.1181 53.1591 54.08 51.7517 55.5568 49.1966C57.0325 46.6414 56.7697 43.3715 54.8168 39.9902ZM20.0279 44.4656C16.8127 42.0955 14.7189 38.4756 14.2733 34.5225H21.5015C21.8231 35.9362 22.5694 37.2269 23.6373 38.2149L20.0279 44.4656ZM26.4932 36.428C25.2509 35.707 24.4773 34.3732 24.4773 32.9469C24.4773 32.0766 23.772 31.3703 22.9007 31.3703H12.6096C11.7404 31.3703 11.033 32.0766 11.033 32.9469C11.033 39.1493 14.3818 44.9417 19.7706 48.0623C20.0123 48.2032 20.2856 48.2747 20.56 48.2747C20.6987 48.2747 20.8343 48.2557 20.9678 48.2211C21.3735 48.1128 21.7172 47.849 21.9263 47.4864L27.0692 38.5806C27.5033 37.827 27.2469 36.8642 26.4932 36.428ZM36.9697 44.4667L33.3593 38.216C34.4282 37.229 35.1756 35.9373 35.4982 34.5225H42.7243C42.2808 38.4767 40.185 42.0976 36.9697 44.4667ZM44.3896 31.3694H34.0985C33.2272 31.3694 32.5219 32.0757 32.5219 32.946C32.5219 34.3734 31.7494 35.7072 30.506 36.4272C29.7523 36.8634 29.4938 37.8272 29.93 38.5808L35.0708 47.4866C35.281 47.8492 35.6257 48.113 36.0304 48.2213C36.1628 48.2559 36.3005 48.2749 36.4361 48.2749C36.7125 48.2749 36.9848 48.2034 37.2265 48.0636C42.6175 44.9451 45.9662 39.1526 45.9662 32.9471C45.9662 32.0757 45.2609 31.3694 44.3896 31.3694ZM34.2419 19.8475L30.6346 26.1024C29.2546 25.6715 27.7463 25.6704 26.3662 26.1024L22.7568 19.8475C26.3757 18.2561 30.6304 18.2582 34.2419 19.8475ZM24.3364 28.895C24.5445 29.2576 24.8882 29.5215 25.2939 29.6297C25.6965 29.738 26.1295 29.6812 26.49 29.4721C27.7366 28.751 29.2648 28.7531 30.5072 29.471C30.7479 29.6119 31.0212 29.6833 31.2966 29.6833C31.4332 29.6833 31.5698 29.6655 31.7044 29.6297C32.109 29.5204 32.4527 29.2576 32.6619 28.895L37.8027 19.984C38.2368 19.2294 37.9814 18.2666 37.2267 17.8314C31.9209 14.7623 25.0837 14.7592 19.7716 17.8304C19.018 18.2666 18.7594 19.2294 19.1945 19.984L24.3364 28.895ZM31.0698 32.946C31.0698 31.5249 29.9189 30.3761 28.4989 30.3761C27.0789 30.3761 25.9321 31.526 25.9321 32.946C25.9321 34.3649 27.0789 35.5158 28.4989 35.5158C29.9189 35.5158 31.0698 34.3649 31.0698 32.946Z" fill="#A22826"/>
</svg>
