<svg xmlns="http://www.w3.org/2000/svg" width="56" height="56" viewBox="0 0 56 56" fill="none">
  <path fill-rule="evenodd" clip-rule="evenodd" d="M28.029 2.58937C29.1558 2.58937 30.0736 3.4943 30.0736 4.60677C30.0736 5.93892 28.9287 7.6394 28.029 7.6394C27.132 7.6394 25.9853 5.93892 25.9853 4.60677C25.9853 3.4943 26.9021 2.58937 28.029 2.58937ZM28.0295 10.2263C30.6569 10.2263 32.6939 7.20485 32.6939 4.60598C32.6939 2.06694 30.602 0 28.0295 0C25.457 0 23.367 2.06694 23.367 4.60598C23.367 7.20485 25.403 10.2263 28.0295 10.2263ZM17.798 20.7255C17.9646 20.7956 18.1386 20.8283 18.3089 20.8283C18.8189 20.8283 19.3033 20.5319 19.5153 20.0402L22.663 12.7204C22.9459 12.0613 22.6356 11.3013 21.9686 11.0227C21.3034 10.7441 20.5342 11.0498 20.2513 11.707L17.1045 19.0278C16.8216 19.6859 17.1329 20.4459 17.798 20.7255ZM37.7517 21.5473C37.0279 21.5473 36.4422 22.1269 36.4422 22.8411V30.1049C36.4422 30.8191 37.0279 31.3987 37.7517 31.3987C38.4764 31.3987 39.0621 30.8191 39.0621 30.1049V22.8411C39.0621 22.126 38.4764 21.5473 37.7517 21.5473ZM18.3094 21.5473C17.5857 21.5473 17 22.1269 17 22.8411V30.1049C17 30.8191 17.5857 31.3987 18.3094 31.3987C19.0332 31.3987 19.6189 30.8191 19.6189 30.1049V22.8411C19.6189 22.126 19.0332 21.5473 18.3094 21.5473ZM36.5449 20.0402C36.7568 20.5319 37.2412 20.8283 37.7512 20.8283C37.9225 20.8283 38.0965 20.7956 38.2631 20.7254C38.9291 20.4459 39.2385 19.6859 38.9566 19.0287L35.8098 11.7079C35.5278 11.0498 34.7567 10.7441 34.0916 11.0227C33.4264 11.3013 33.1161 12.0613 33.3981 12.7194L36.5449 20.0402ZM31.6229 35.2317C30.9001 35.2317 30.3135 35.8113 30.3135 36.5255V41.4166C30.3135 42.1308 30.9001 42.7114 31.6229 42.7114C32.3467 42.7114 32.9333 42.1308 32.9333 41.4166V36.5255C32.9333 35.8113 32.3467 35.2317 31.6229 35.2317ZM31.6229 50.8725C32.3467 50.8725 32.9333 50.2929 32.9333 49.5787V44.6866C32.9333 43.9724 32.3467 43.3928 31.6229 43.3928C30.9001 43.3928 30.3135 43.9724 30.3135 44.6866V49.5787C30.3135 50.2929 30.9001 50.8725 31.6229 50.8725ZM32.5499 51.9138C32.0371 51.4099 31.2083 51.4109 30.6974 51.9148C30.1855 52.4205 30.1855 53.2404 30.6974 53.7461L32.6 55.6223C32.8555 55.8748 33.1895 56 33.5254 56C33.8603 56 34.1971 55.8748 34.4526 55.6214C34.9635 55.1166 34.9625 54.2967 34.4507 53.791L32.5499 51.9138ZM23.125 49.5787C23.125 50.293 23.7116 50.8726 24.4344 50.8726C25.1573 50.8726 25.7439 50.293 25.7439 49.5787V44.6867C25.7439 43.9725 25.1573 43.3929 24.4344 43.3929C23.7116 43.3929 23.125 43.9725 23.125 44.6867V49.5787ZM23.5093 51.9145L21.6095 53.7917C21.0976 54.2965 21.0976 55.1163 21.6095 55.6212C21.8649 55.8745 22.1999 55.9998 22.5357 55.9998C22.8707 55.9998 23.2065 55.8745 23.462 55.6212L25.3628 53.7449C25.8737 53.2401 25.8737 52.4203 25.3628 51.9145C24.8509 51.4097 24.0212 51.4097 23.5093 51.9145ZM24.4344 42.7113C25.1573 42.7113 25.7439 42.1307 25.7439 41.4165V36.5254C25.7439 35.8112 25.1573 35.2316 24.4344 35.2316C23.7116 35.2316 23.125 35.8112 23.125 36.5254V41.4165C23.125 42.1307 23.7116 42.7113 24.4344 42.7113ZM31.0083 31.622C31.0083 31.9174 30.8939 32.195 30.6867 32.4054C30.1814 32.9167 30.1918 33.7357 30.7084 34.2349C31.226 34.735 32.0548 34.7247 32.5609 34.2134C33.2488 33.5169 33.6282 32.5979 33.6282 31.622C33.6282 29.5728 31.9412 27.905 29.8673 27.905C29.2533 27.905 28.7878 28.078 28.4481 28.206C28.0356 28.3612 28.028 28.3631 27.6117 28.206C27.2721 28.0789 26.8075 27.905 26.1944 27.905C24.1205 27.905 22.4326 29.5728 22.4326 31.622C22.4326 32.5961 22.8111 33.515 23.4961 34.2115C23.7534 34.4732 24.094 34.6032 24.4346 34.6032C24.7639 34.6032 25.0931 34.4807 25.3486 34.2367C25.8671 33.7375 25.8775 32.9195 25.3732 32.4072C25.1669 32.196 25.0525 31.9174 25.0525 31.622C25.0525 30.9994 25.5643 30.4936 26.1944 30.4936C26.3222 30.4936 26.4508 30.5385 26.6836 30.6264C27.01 30.7488 27.4566 30.9152 28.0299 30.9152C28.6033 30.9152 29.0508 30.7488 29.3763 30.6264C29.61 30.5376 29.7386 30.4936 29.8673 30.4936C30.4965 30.4945 31.0083 31.0003 31.0083 31.622ZM21.6103 17.0395C21.6103 17.7537 22.1969 18.3333 22.9198 18.3333H26.7223V19.5084L22.9188 19.5093C22.196 19.5093 21.6103 20.0889 21.6103 20.8032C21.6103 21.5193 22.1969 22.0979 22.9207 22.0979L26.7223 22.097V23.273H25.4308C24.708 23.273 24.1223 23.8526 24.1223 24.5669C24.1223 25.282 24.7089 25.8616 25.4327 25.8616H26.7459C26.8576 26.4637 27.3893 26.9217 28.0327 26.9217C28.676 26.9217 29.2078 26.4637 29.3184 25.8607H30.6336C31.3564 25.8607 31.9421 25.2801 31.9421 24.5659C31.9421 23.8508 31.3555 23.2721 30.6317 23.2721H29.3412V22.097L33.1437 22.0961C33.8665 22.0961 34.4531 21.5165 34.4531 20.8013C34.4531 20.0861 33.8665 19.5075 33.1418 19.5075L29.3412 19.5084V18.3333L33.1427 18.3324C33.8665 18.3324 34.4531 17.7528 34.4531 17.0386C34.4531 16.3243 33.8665 15.7438 33.1427 15.7438L29.3412 15.7447V14.5687H31.0262C31.75 14.5687 32.3357 13.9891 32.3357 13.2749C32.3357 12.5597 31.7491 11.981 31.0262 11.981H29.3175C29.2068 11.3781 28.6751 10.9209 28.0317 10.9209C27.3883 10.9209 26.8566 11.3781 26.7459 11.982H25.0372C24.3134 11.982 23.7278 12.5616 23.7278 13.2758C23.7278 13.991 24.3144 14.5696 25.0372 14.5696H26.7223V15.7447H22.9198C22.195 15.7447 21.6103 16.3243 21.6103 17.0395Z" fill="#A22826"/>
</svg>