<svg width="57" height="56" viewBox="0 0 57 56" fill="none" xmlns="http://www.w3.org/2000/svg">
<path fill-rule="evenodd" clip-rule="evenodd" d="M54.9702 24.6825C56.2934 26.0057 56.2934 28.1507 54.9702 29.4716C54.3086 30.1332 53.4416 30.4651 52.5745 30.4651C51.7097 30.4651 50.8426 30.1332 50.1811 29.4716L41.0001 20.2909L33.0882 28.2026L42.2691 37.3834C43.5923 38.7043 43.5923 40.8516 42.2691 42.1725C41.6075 42.834 40.7405 43.1659 39.8734 43.1659C39.0086 43.1659 38.1415 42.834 37.48 42.1725L28.2968 32.9917L20.3871 40.9035L29.568 50.0842C30.8912 51.4051 30.8912 53.5524 29.568 54.8733C28.9064 55.5349 28.0394 55.8668 27.1723 55.8668C26.3075 55.8668 25.4404 55.5349 24.7789 54.8733L15.5979 45.6926L6.2838 55.0065C5.62221 55.6681 4.75515 56 3.88809 56C3.02103 56 2.15397 55.6681 1.49238 55.0065C0.169207 53.6856 0.169207 51.5406 1.49238 50.2174L10.8065 40.9035L1.62786 31.7228C0.304685 30.4019 0.304685 28.2568 1.62786 26.9337C2.95103 25.6105 5.09385 25.6105 6.41702 26.9337L15.5979 36.1144L23.5076 28.2026L14.329 19.0219C13.0058 17.701 13.0058 15.556 14.329 14.2328C15.6521 12.9097 17.7949 12.9097 19.1181 14.2328L28.2968 23.4136L36.2087 15.5018L27.0301 6.32107C25.7069 4.99792 25.7069 2.85289 27.0301 1.532C28.3532 0.208858 30.496 0.208858 31.8192 1.532L41.0001 10.7127L50.7185 0.992359C52.0416 -0.330786 54.1844 -0.330786 55.5076 0.992359C56.8308 2.31551 56.8308 4.46054 55.5076 5.78142L45.7893 15.5018L54.9702 24.6825Z" fill="#A22826"/>
</svg>
