<svg width="57" height="56" viewBox="0 0 57 56" fill="none" xmlns="http://www.w3.org/2000/svg">
<path fill-rule="evenodd" clip-rule="evenodd" d="M25.7458 35.1162L22.4018 38.5219C21.2104 39.7354 20.7143 41.2008 20.2761 42.4934C19.8564 43.7299 19.4946 44.798 18.614 45.6948C13.5147 50.8883 7.6338 51.6901 4.95693 51.3475C4.70253 51.3159 4.48911 51.2756 4.31386 51.2324C7.18294 48.3088 14.7966 40.5545 19.6953 35.5653L22.9417 32.2603L25.7458 35.1162ZM31.4826 21.4859H29.0432L31.8416 18.6358L37.5388 18.6372C38.4391 18.6372 39.1712 17.893 39.1712 16.9761C39.1712 16.0606 38.4391 15.3164 37.5402 15.3164L35.1036 15.3149L37.9006 12.4677H43.5977C44.4981 12.4677 45.2287 11.7235 45.2287 10.8065C45.2287 9.89105 44.4981 9.14541 43.5977 9.14541H41.1611L44.1815 6.06928C46.1842 4.02956 49.6822 4.03244 51.6849 6.07216C53.7554 8.18097 53.7569 11.6083 51.6905 13.7157L32.0748 33.6897C31.2451 34.5389 29.7908 34.5389 28.9569 33.6911L24.5699 29.223C23.7106 28.3449 23.7106 26.9199 24.5685 26.0432L25.7826 24.8082H31.4826C32.3815 24.8082 33.1136 24.0625 33.1136 23.147C33.1136 22.2301 32.3815 21.4859 31.4826 21.4859ZM53.9934 3.72299C52.3766 2.0748 50.2241 1.1665 47.933 1.1665C45.6448 1.1665 43.4937 2.07336 41.8769 3.72011L22.2639 23.6955C20.7587 25.2285 20.2782 27.5216 21.0004 29.5397L1.36907 49.5338C0.321784 50.599 0.465945 51.6973 0.576185 52.1191C0.774053 52.8734 1.4143 53.8824 3.33927 54.4078C4.11661 54.6194 5.07203 54.7317 6.10094 54.7317C8.03722 54.7317 14.8255 54.2495 20.9198 48.044C22.3332 46.6045 22.9013 44.9261 23.3593 43.5759C23.7437 42.4402 24.049 41.5419 24.709 40.8712L28.3158 37.1976C30.3383 38.1045 32.8131 37.6367 34.3833 36.0403L53.9991 16.0649C57.336 12.662 57.3332 7.12587 53.9934 3.72299Z" fill="#A22826"/>
</svg>
