<svg width="57" height="56" viewBox="0 0 57 56" fill="none" xmlns="http://www.w3.org/2000/svg">
<path fill-rule="evenodd" clip-rule="evenodd" d="M54.7128 28.0544L51.5679 30.7104L51.472 30.6062L50.9111 29.9937L53.3429 26.5655C53.3729 26.5541 53.4397 26.5392 53.5533 26.5596C53.801 26.6012 54.0728 26.7669 54.2987 27.0134C54.721 27.4747 54.7528 27.9369 54.7128 28.0544ZM51.1417 34.9196C50.8558 35.231 50.3572 35.232 50.0713 34.9196L47.0837 31.659C46.9405 31.5033 46.8623 31.296 46.8623 31.0758C46.8623 30.855 46.9405 30.6482 47.0837 30.492C47.2309 30.3308 47.425 30.2504 47.6186 30.2504C47.8118 30.2504 48.0059 30.3308 48.1532 30.492L49.6472 32.1223L50.669 33.2367C50.6694 33.2367 50.6694 33.2372 50.6694 33.2372L51.1417 33.752C51.4362 34.0739 51.4362 34.5977 51.1417 34.9196ZM35.6564 31.5824C35.1864 31.8224 34.9428 32.368 35.0209 32.9007C34.7519 32.743 34.5664 32.4365 34.5664 32.0809C34.5664 31.5655 34.95 31.1464 35.4223 31.1464C35.6791 31.1464 35.9077 31.2734 36.065 31.4698C35.9273 31.4797 35.7886 31.5144 35.6564 31.5824ZM22.118 31.5874C21.9812 31.5164 21.838 31.4797 21.6953 31.4713C21.8526 31.2744 22.0812 31.1464 22.3389 31.1464C22.8107 31.1464 23.1948 31.5655 23.1948 32.0809C23.1948 32.432 23.0144 32.735 22.7512 32.8943C22.8253 32.3665 22.5835 31.8274 22.118 31.5874ZM16.4004 42.5204V38.0175C16.8126 37.9887 17.2213 37.9341 17.6208 37.827C19.2939 37.3757 20.5157 36.3073 21.3388 35.3134C21.6529 35.4294 21.9884 35.4949 22.3374 35.4949C24.0624 35.4949 25.4659 33.9633 25.4659 32.0811C25.4659 30.1984 24.0624 28.6668 22.3374 28.6668C20.6125 28.6668 19.2089 30.1984 19.2089 32.0811C19.2089 32.6738 19.3485 33.2318 19.5934 33.7183C19.0067 34.4082 18.1658 35.1314 17.0563 35.4245C16.8422 35.481 16.6231 35.5187 16.4004 35.541V29.7426C16.4004 26.5976 18.7453 24.0388 21.6275 24.0388H23.4024H34.3574H36.1328C39.015 24.0388 41.3599 26.5976 41.3599 29.7426V35.5401C41.1403 35.5172 40.9244 35.48 40.7131 35.4245C39.6004 35.1304 38.7568 34.4038 38.17 33.7114C38.4132 33.2268 38.5509 32.6713 38.5509 32.0811C38.5509 30.1984 37.1473 28.6668 35.4224 28.6668C33.6974 28.6668 32.2939 30.1984 32.2939 32.0811C32.2939 33.9633 33.6974 35.4949 35.4224 35.4949C35.7746 35.4949 36.1119 35.428 36.4282 35.3104C37.2514 36.3053 38.4741 37.3752 40.149 37.827C40.5458 37.9336 40.9508 37.9877 41.3599 38.0165V42.5204H16.4004ZM24.5381 21.5582H33.2205V15.7364H24.5381V21.5582ZM20.2529 11.4795H37.5073V21.7021C37.0614 21.6113 36.6032 21.5583 36.1332 21.5583H35.4942V14.4965C35.4942 13.8116 34.9855 13.2566 34.3578 13.2566H23.4028C22.7751 13.2566 22.2665 13.8116 22.2665 14.4965V21.5583H21.6279C21.1579 21.5583 20.6997 21.6113 20.2529 21.7021V11.4795ZM6.64571 34.9196C6.35117 34.5977 6.35117 34.0739 6.64571 33.7525L9.63377 30.492C9.78149 30.3308 9.97512 30.2504 10.1687 30.2504C10.3624 30.2504 10.5565 30.3308 10.7037 30.492C10.8465 30.6482 10.9251 30.855 10.9251 31.0758C10.9251 31.296 10.8465 31.5033 10.7037 31.6595L7.71612 34.9196C7.42977 35.232 6.93115 35.231 6.64571 34.9196ZM3.46403 27.0137C3.88628 26.5535 4.31036 26.5177 4.41808 26.5624L6.85208 29.9941L6.19483 30.7107L3.04995 28.0548C3.00996 27.9372 3.04177 27.475 3.46403 27.0137ZM55.9049 25.2601C55.3377 24.6406 54.6263 24.232 53.9027 24.1089C53.0582 23.9661 52.2623 24.2255 51.7164 24.8217C51.6828 24.8589 51.6514 24.898 51.6219 24.9392L49.2452 28.29C48.0743 27.4751 46.498 27.6224 45.4762 28.7379C44.904 29.3623 44.589 30.1926 44.589 31.0754C44.589 31.9583 44.904 32.7885 45.4762 33.4125L45.9962 33.9799C45.1744 34.5517 44.3854 34.9708 43.6331 35.2327V29.7423C43.6331 26.6741 42.0754 23.9983 39.7801 22.5977V10.2399C39.7801 9.555 39.2715 9 38.6438 9H19.1168C18.4895 9 17.9805 9.555 17.9805 10.2399V22.5982C15.6856 23.9988 14.1283 26.6741 14.1283 29.7423V35.2292C13.3811 34.9684 12.5989 34.5522 11.7839 33.9863L12.3093 33.4125C12.8816 32.7885 13.1966 31.9583 13.1966 31.0754C13.1966 30.1926 12.8816 29.3623 12.3093 28.7379C11.283 27.618 9.6967 27.4722 8.52357 28.3005L6.13957 24.9392C6.11002 24.898 6.07866 24.8589 6.04457 24.8217C4.98325 23.6631 3.14287 23.855 1.8561 25.2601C0.568876 26.6647 0.392065 28.6724 1.45384 29.8305C1.48748 29.8677 1.52384 29.9025 1.56156 29.9347L4.64054 32.5351C3.87738 33.8152 4.0092 35.5506 5.03779 36.673C5.61004 37.2975 6.37092 37.6412 7.17998 37.6412C7.98904 37.6412 8.74947 37.297 9.32172 36.6725L10.1426 35.7768C11.5162 36.7931 12.847 37.4626 14.1283 37.7949V43.7601C14.1283 44.445 14.637 45 15.2647 45H42.4968C43.1245 45 43.6331 44.445 43.6331 43.7601V37.7979C44.9203 37.4651 46.2562 36.7926 47.6366 35.7699L48.4638 36.6725C49.0361 37.297 49.7965 37.6412 50.6056 37.6412C51.4146 37.6412 52.1755 37.2975 52.7477 36.6725C53.7795 35.5462 53.9091 33.8028 53.1373 32.5207L56.199 29.9347C56.2367 29.9025 56.2735 29.8677 56.3072 29.8305C57.3689 28.6724 57.1921 26.6647 55.9049 25.2601Z" fill="#A22826"/>
</svg>
