<svg width="57" height="56" viewBox="0 0 57 56" fill="none" xmlns="http://www.w3.org/2000/svg">
<path fill-rule="evenodd" clip-rule="evenodd" d="M48.9877 49.5213H48.9868V38.9031C48.9868 33.4022 47.0472 31.7162 44.0999 31.0302L47.1221 52.6565C48.2244 52.0644 48.9877 50.8881 48.9877 49.5213ZM44.305 53.0686L41.1417 30.4247L36.6834 29.5259L33.6501 53.0686H44.305ZM31.694 45.9757H28.122C26.2237 45.9757 24.679 47.5668 24.679 49.5222C24.679 51.4785 26.2237 53.0687 28.122 53.0687H30.7801L31.694 45.9757ZM51.8337 38.9031V49.5213C51.8337 52.8373 49.4001 55.5763 46.2773 55.9512C46.2343 55.9627 46.1938 55.9769 46.1499 55.984C46.082 55.9947 46.0131 56 45.9451 56C45.9159 56 45.8883 55.9849 45.8582 55.9831C45.755 55.9876 45.65 56 45.545 56H28.123C24.656 56 21.8343 53.0935 21.8343 49.5222C21.8343 45.9509 24.656 43.0444 28.123 43.0444H32.0728L33.9211 28.698C32.0917 27.4881 31.7742 24.7562 31.9256 23.0907C31.9626 22.6803 32.1657 22.3053 32.4841 22.058C35.2567 19.897 37.0491 15.8453 37.0491 11.7359C37.0491 6.88111 33.2147 2.93132 28.5016 2.93132C23.7868 2.93132 19.9532 6.88111 19.9532 11.7359C19.9532 15.8461 21.744 19.8979 24.5183 22.0589C24.8728 22.3337 25.0725 22.7556 25.0828 23.1935C25.2394 25.2083 24.7205 28.6386 21.8016 29.2263L13.2584 30.9477C10.1089 31.5833 8.01272 33.1788 8.01272 38.9031V54.5339C8.01272 55.3432 7.37594 56 6.59029 56C5.80463 56 5.16699 55.3432 5.16699 54.5339V38.9031C5.16699 32.5512 7.56439 29.1102 12.712 28.0731L21.2552 26.3517C22.0366 26.1931 22.2241 24.7881 22.25 23.9372C19.1056 21.1619 17.1075 16.4613 17.1075 11.7359C17.1075 5.2652 22.219 0 28.5016 0C34.7834 0 39.894 5.2652 39.894 11.7359C39.894 16.4622 37.8933 21.1636 34.749 23.939C34.7756 24.8059 34.9675 26.194 35.7446 26.3517L44.2886 28.0731C49.4354 29.1102 51.8337 32.5512 51.8337 38.9031ZM17.1424 43.5337V54.5339C17.1424 55.3432 16.5056 56 15.7191 56C14.9343 56 14.2975 55.3432 14.2975 54.5339V43.5337C14.2975 42.7253 14.9343 42.0685 15.7191 42.0685C16.5065 42.0685 17.1424 42.7253 17.1424 43.5337Z" fill="#A22826"/>
</svg>
