<svg width="57" height="56" viewBox="0 0 57 56" fill="none" xmlns="http://www.w3.org/2000/svg">
<path fill-rule="evenodd" clip-rule="evenodd" d="M28.887 51.8222C24.5412 51.8222 21.0078 48.1988 21.0078 43.7496C21.0078 42.6937 23.9986 40.7578 28.887 40.7578C33.7737 40.7578 36.7661 42.6953 36.7661 43.7496C36.7661 48.1988 33.2295 51.8222 28.887 51.8222ZM45.1826 0.606948C44.3831 -0.205576 43.0908 -0.198997 42.2978 0.620106C41.5031 1.44085 41.5079 2.76326 42.309 3.57743C46.8666 8.20421 49.6969 14.5629 49.6969 20.1618C49.6969 25.8544 46.7206 29.8413 40.8497 32.0486V17.3097C40.8497 16.1551 39.9363 15.2176 38.8093 15.2176C37.6807 15.2176 36.7689 16.1551 36.7689 17.3097V38.2955C34.6931 37.2231 31.9768 36.5767 28.8881 36.5767C25.801 36.5767 23.0847 37.2264 21.0089 38.2955V17.3097C21.0089 16.1551 20.0955 15.2176 18.9685 15.2176C17.8399 15.2176 16.9281 16.1551 16.9281 17.3097V32.0338C11.0636 29.8265 8.08086 25.8478 8.08086 20.1601C8.08086 14.558 10.9111 8.20256 15.4672 3.57578C16.2683 2.76162 16.2731 1.43921 15.48 0.618461C14.687 -0.200641 13.3946 -0.20722 12.5952 0.605303C7.29262 5.99033 4 13.484 4 20.1601C4 28.0699 8.57692 33.8053 16.9297 36.455V43.7447C16.9297 50.5031 22.2948 56 28.8897 56C35.4846 56 40.8513 50.5031 40.8513 43.7447V36.455C49.2009 33.8053 53.7778 28.0699 53.7778 20.1618C53.7778 13.4856 50.4852 5.99197 45.1826 0.606948Z" fill="#A22826"/>
</svg>
