<svg xmlns="http://www.w3.org/2000/svg" width="56" height="56" viewBox="0 0 56 56" fill="none">
<path fill-rule="evenodd" clip-rule="evenodd" d="M37.7223 35.7539C37.8617 35.6156 38.402 35.6484 38.8701 36.1154C39.1115 36.3568 39.2674 36.6533 39.2984 36.9287C39.3154 37.0804 39.2908 37.2058 39.2316 37.2644C39.1736 37.323 39.0471 37.3464 38.8971 37.33C38.6211 37.299 38.3246 37.1431 38.0838 36.9017C37.6156 36.4336 37.584 35.8922 37.7223 35.7539ZM36.01 38.9741C36.7225 39.686 37.6307 40.136 38.567 40.2414C38.7059 40.2572 38.8435 40.2649 38.9801 40.2649C39.8713 40.2649 40.7004 39.9367 41.3009 39.3362C41.9941 38.643 42.3245 37.6464 42.2068 36.6011C42.1019 35.6647 41.6519 34.7566 40.9394 34.0441C39.3808 32.4855 37.0067 32.3232 35.6479 33.6826C34.2897 35.0419 34.452 37.4149 36.01 38.9735V38.9741ZM17.192 36.116C17.4328 35.8751 17.7293 35.7187 18.0047 35.6882C18.0363 35.6841 18.0668 35.6824 18.0961 35.6824C18.2056 35.6824 18.2941 35.7076 18.3398 35.7539C18.4787 35.8921 18.4465 36.4335 17.9783 36.9017V36.9023C17.7375 37.1431 17.441 37.2989 17.1656 37.33C17.0127 37.3464 16.8879 37.3224 16.8299 37.2644C16.691 37.1255 16.7232 36.5841 17.192 36.116ZM17.0799 40.2647C17.2164 40.2647 17.3541 40.2571 17.4935 40.2413C18.4299 40.1358 19.338 39.6858 20.0499 38.9739V38.9733C21.6085 37.4148 21.7708 35.0418 20.412 33.6824C19.7189 32.9893 18.7193 32.6588 17.6781 32.7766C16.7406 32.882 15.833 33.332 15.1211 34.0445C13.5626 35.6031 13.3997 37.9761 14.7584 39.3354C15.3596 39.9366 16.1887 40.2647 17.0799 40.2647ZM32.1798 16.6029C32.1798 15.7943 32.8355 15.1381 33.6446 15.1381H39.7606C40.5697 15.1381 41.2254 15.7943 41.2254 16.6029C41.2254 17.412 40.5697 18.0677 39.7606 18.0677H33.6446C32.8355 18.0677 32.1798 17.412 32.1798 16.6029ZM32.1798 12.2002C32.1798 11.3911 32.8355 10.7354 33.6446 10.7354H38.0502C38.8594 10.7354 39.5151 11.3911 39.5151 12.2002C39.5151 13.0094 38.8594 13.665 38.0502 13.665H33.6446C32.8355 13.665 32.1798 13.0094 32.1798 12.2002ZM32.1798 6.3053C32.1798 5.49613 32.8355 4.84048 33.6446 4.84048H39.7606C40.5697 4.84048 41.2254 5.49613 41.2254 6.3053C41.2254 7.11446 40.5697 7.77012 39.7606 7.77012H33.6446C32.8355 7.77012 32.1798 7.11446 32.1798 6.3053ZM22.9843 16.5078C20.6008 16.5078 18.662 14.5683 18.662 12.1848C18.662 9.80181 20.6008 7.86239 22.9843 7.86239C25.3679 7.86239 27.3073 9.80181 27.3073 12.1848C27.3073 14.5683 25.3679 16.5078 22.9843 16.5078ZM30.2352 12.1849C30.2352 8.18656 26.9816 4.9329 22.9826 4.9329C18.9843 4.9329 15.7306 8.18656 15.7306 12.1849C15.7306 16.1839 18.9843 19.4375 22.9826 19.4375C26.9816 19.4375 30.2352 16.1839 30.2352 12.1849ZM45.5638 52.2678C45.0663 52.7781 44.3316 53.0705 43.5464 53.0705H43.5418L28.0305 53.0459L12.5245 53.0705H12.5193C11.7341 53.0705 10.9994 52.7781 10.5019 52.2672C10.2324 51.99 9.91422 51.5254 9.93238 50.8867C10.0021 48.4259 10.1545 46.153 10.3794 44.0847C11.0369 44.482 11.9204 44.7773 13.1228 44.7773H28.0328H42.9429C44.1459 44.7773 45.0294 44.482 45.6868 44.0847C45.9118 46.153 46.0636 48.4259 46.1339 50.8867C46.1521 51.5254 45.8339 51.99 45.5638 52.2678ZM16.2502 30.7396H24.6858H31.3742H39.8086C41.7732 30.7396 43.3921 33.1114 44.5054 37.336C44.5171 37.4116 44.5294 37.4871 44.5535 37.5616C44.5863 37.6641 44.6197 37.7842 44.6525 37.9178C44.6536 37.9219 44.6548 37.926 44.6554 37.9301C44.888 38.8822 45.0732 40.5053 44.506 41.2822C44.4035 41.4217 44.0929 41.8476 42.9398 41.8476H28.0297H13.1196C11.9665 41.8476 11.656 41.4222 11.554 41.2822C10.9857 40.5053 11.1714 38.8787 11.4046 37.9272C11.4052 37.9254 11.4058 37.9231 11.4064 37.9201C11.4392 37.786 11.4738 37.6647 11.5066 37.5621C11.5323 37.4819 11.5464 37.4016 11.5581 37.3213C12.672 33.1056 14.2886 30.7396 16.2502 30.7396ZM26.1523 27.8099H29.9111V24.3811H26.1523V27.8099ZM13.7734 2.92944H42.2888V21.4512H31.3753H24.6869H13.7734V2.92944ZM39.8097 27.8099H32.8401V24.381H43.7536C44.5628 24.381 45.2184 23.7254 45.2184 22.9162V1.46482C45.2184 0.656239 44.5628 0 43.7536 0H12.3087C11.4995 0 10.8438 0.656239 10.8438 1.46482V22.9162C10.8438 23.7254 11.4995 24.381 12.3087 24.381H23.2221V27.8099H16.2514C12.3298 27.8099 7.54156 31.7989 7.00192 50.8034C6.96501 52.1007 7.46129 53.3463 8.40053 54.3108C9.44582 55.3842 10.9464 56 12.5173 56H12.5272L28.0285 55.9754L43.5351 56H43.5444C45.1153 56 46.6159 55.3848 47.6606 54.3114C48.5992 53.3469 49.0967 52.1012 49.0604 50.804C48.5207 31.7989 43.7325 27.8099 39.8097 27.8099Z" fill="#A22826"/>
</svg>
