<svg xmlns="http://www.w3.org/2000/svg" width="56" height="56" viewBox="0 0 56 56" fill="none">
   <path fill-rule="evenodd" clip-rule="evenodd" d="M52.4992 21.9484C52.4992 20.9036 52.1474 17.4999 47.6132 17.4999H27.6475C25.6963 17.4999 24.3435 18.5691 22.7755 19.8064C21.029 21.1854 19.048 22.7499 16.0958 22.7499H3.52733C3.60258 25.4186 3.84583 27.7233 4.20983 29.7498H16.1028C18.9185 29.7498 20.931 31.2968 22.7038 32.6601C24.3365 33.9166 25.747 34.9998 27.6528 34.9998H44.6242C49.9232 34.9998 52.4992 32.1368 52.4992 26.2498V21.9484ZM3.58658 19.2499H16.0973C17.8333 19.2499 19.0565 18.2839 20.607 17.0589C22.4235 15.6256 24.4815 13.9999 27.649 13.9999H43.2047C40.7705 6.85815 33.816 3.49991 21.5118 3.49991C11.8536 3.49991 4.43357 10.1569 3.58658 19.2499ZM55.9998 21.9484V26.2499C55.9998 33.1099 52.7763 37.3886 47.0626 38.3091C46.4624 42.0174 45.1954 45.7431 43.2179 49.3988C41.6359 52.3231 39.2244 52.5086 36.8286 52.5086L36.3071 52.5068L35.9921 52.5051V54.2498C35.9921 55.2176 35.2099 55.9998 34.2421 55.9998C33.2744 55.9998 32.4921 55.2176 32.4921 54.2498V52.2846C27.5292 51.6581 23.5392 49.5493 20.6307 45.9479C20.0234 45.1954 20.1407 44.0946 20.8914 43.4874C21.6422 42.8801 22.7447 42.9991 23.3519 43.7499C26.1677 47.2359 30.3222 49.0051 35.6999 49.0051L36.3246 49.0068C38.9584 49.0488 39.4974 48.9211 40.1414 47.7329C41.7934 44.6739 42.8924 41.5764 43.4751 38.4999H27.6534C24.5577 38.4999 22.4402 36.8706 20.5729 35.4356C19.0469 34.2614 17.7292 33.2499 16.1035 33.2499H5.02248C6.00248 36.6711 7.31498 39.2244 8.54522 41.6026C10.451 45.2864 12.25 48.7654 12.25 54.2498C12.25 55.2176 11.466 55.9998 10.5 55.9998C9.53397 55.9998 8.74997 55.2176 8.74997 54.2498C8.74997 49.6176 7.28873 46.7896 5.43723 43.2109C3.01524 38.5296 0 32.7004 0 20.9999C0 9.02822 9.24872 0 21.5109 0C36.0009 0 44.3046 4.59199 46.8666 14H47.6139C53.4081 14 55.9998 17.9917 55.9998 21.9484ZM33.0833 22.6153C31.9423 25.0601 31.9423 27.44 33.0833 29.8848C33.4911 30.7615 33.1131 31.8028 32.2381 32.2105C31.9983 32.3225 31.7481 32.375 31.4996 32.375C30.8398 32.375 30.2098 32.0005 29.9123 31.3653C28.3286 27.972 28.3286 24.5298 29.9123 21.1348C30.3218 20.2598 31.3648 19.8818 32.2381 20.2896C33.1131 20.6973 33.4928 21.7403 33.0833 22.6153Z" fill="#A22826"/>
</svg>