<svg xmlns="http://www.w3.org/2000/svg" width="778" height="364" viewBox="0 0 778 364" fill="none">
<g clip-path="url(#clip0_255_7343)">
<path d="M485.456 22.6001H496.766V43.2301H485.456V22.6001Z" fill="#A9ACBD"/>
<path d="M473.427 18.4702H508.787C509.483 18.4702 510.047 19.0343 510.047 19.7302V25.4602C510.047 26.1561 509.483 26.7202 508.787 26.7202H473.427C472.731 26.7202 472.167 26.1561 472.167 25.4602V19.7302C472.167 19.0343 472.731 18.4702 473.427 18.4702Z" fill="#A9ACBD"/>
<path d="M476.068 18.4701H506.148L505.088 14.3201L502.298 3.3501H480.128L476.068 18.4701Z" fill="#688EC4"/>
<path d="M480.126 3.3501C482.956 14.6601 499.016 14.7201 505.086 14.3201L502.296 3.3501H480.116H480.126Z" fill="#75A0CC"/>
<path d="M477.768 21.9901H507.758C508.348 21.9901 508.828 21.5101 508.828 20.9201C508.828 20.3301 508.348 19.8501 507.758 19.8501H477.768C477.178 19.8501 476.698 20.3301 476.698 20.9201C476.698 21.5101 477.178 21.9901 477.768 21.9901Z" fill="#BBBDD3"/>
<path d="M565.557 62.4399C565.557 62.4399 649.698 137.25 663.688 150.18C663.688 150.18 588.297 176.27 565.557 62.4399Z" fill="#AAC2DB"/>
<path d="M13.3676 225.27C13.5476 237.19 14.4276 248.21 15.6176 257.93C18.7576 283.74 24.0276 300.36 24.0276 300.36H762.368C766.698 288.24 771.998 268.65 771.278 244.21C771.278 244.14 771.278 244.06 771.278 243.99C770.918 232.01 769.178 221.38 766.998 212.43C765.568 206.52 763.928 201.35 762.378 196.98L760.368 195.2L753.028 188.67C745.458 181.93 737.208 176.06 728.418 171.13C717.188 164.84 705.108 160.09 692.478 157.07L634.498 143.19C626.478 141.26 619.398 136.54 614.558 129.87L556.468 49.91L554.028 46.55C551.108 42.53 547.498 39.15 543.418 36.54C537.148 32.52 529.778 30.3 522.138 30.3H453.468C449.128 30.3 445.188 27.76 443.398 23.81L442.568 21.98C436.498 8.58999 423.148 -0.0100098 408.448 -0.0100098H73.9376C73.9376 -0.0100098 61.0076 1.12999 52.3376 9.03999C47.4576 13.49 42.9476 20.14 40.3176 30.07C39.8476 31.85 39.3676 34.02 38.8776 36.54C38.1576 40.24 37.3976 44.72 36.5876 49.91C32.5576 75.68 27.2176 118.87 17.7376 171.12C17.6876 171.41 17.6376 171.69 17.5876 171.98C16.1576 179.86 15.1276 187.62 14.4576 195.18C14.0476 199.71 13.7676 204.17 13.5876 208.55C13.3376 214.29 13.2876 219.87 13.3676 225.26V225.27Z" fill="#ECEAF1"/>
<path d="M673.239 300.36H762.369C765.719 297.12 771.209 290.97 774.849 281.64C776.599 277.14 777.519 272.92 777.989 269.32C778.459 265.68 775.589 262.48 771.919 262.49C752.839 262.53 733.759 262.56 714.679 262.6C703.789 262.62 692.989 264.62 682.809 268.5L673.249 272.15V300.35L673.239 300.36Z" fill="#77727C"/>
<path d="M5.21037 310.45C8.35037 315.34 13.8704 318.19 19.6904 318.19H753.49C759.45 318.19 764.67 314.23 766.28 308.49L769.11 298.47C770.01 295.26 768.26 292.08 765.38 290.98C764.68 290.7 763.92 290.55 763.11 290.55H23.4204C23.4204 290.55 19.1204 281.67 17.6604 272.15H8.72038C4.77038 272.15 -6.60964 292.04 5.20036 310.45H5.21037Z" fill="#CAC0CF"/>
<path d="M122.141 308.38C122.141 311.72 122.401 314.99 122.881 318.19H248.971C249.451 314.99 249.711 311.72 249.711 308.38C249.711 305.66 249.541 302.99 249.211 300.36C248.791 297 248.111 293.72 247.181 290.55C239.471 263.99 214.961 244.59 185.921 244.59C156.881 244.59 132.371 263.99 124.661 290.55C123.741 293.72 123.061 297 122.631 300.36C122.301 302.99 122.131 305.66 122.131 308.38H122.141Z" fill="#542D43"/>
<path d="M185.933 363.97C155.232 363.97 130.343 339.081 130.343 308.38C130.343 277.678 155.232 252.79 185.933 252.79C216.635 252.79 241.523 277.678 241.523 308.38C241.523 339.081 216.635 363.97 185.933 363.97Z" fill="#4E454F"/>
<path d="M185.928 343.28C166.653 343.28 151.028 327.655 151.028 308.38C151.028 289.105 166.653 273.48 185.928 273.48C205.203 273.48 220.828 289.105 220.828 308.38C220.828 327.655 205.203 343.28 185.928 343.28Z" fill="#7A7382"/>
<path d="M164.943 329.359C153.356 317.772 153.356 298.986 164.943 287.4C176.53 275.813 195.316 275.813 206.903 287.4C218.49 298.986 218.49 317.772 206.903 329.359C195.316 340.946 176.53 340.946 164.943 329.359Z" fill="#595266"/>
<path d="M172.842 321.461C165.617 314.236 165.617 302.523 172.842 295.298C180.066 288.073 191.78 288.073 199.004 295.298C206.229 302.523 206.229 314.236 199.004 321.461C191.78 328.686 180.066 328.686 172.842 321.461Z" fill="#B1ACBE"/>
<path d="M227.243 334.82C228.253 334.82 229.233 334.29 229.773 333.35C234.093 325.78 236.383 317.15 236.383 308.38C236.383 280.57 213.753 257.94 185.943 257.94C167.233 257.94 150.153 268.21 141.373 284.75C140.623 286.17 141.163 287.93 142.573 288.68C143.993 289.43 145.753 288.89 146.503 287.48C154.273 272.85 169.383 263.76 185.943 263.76C210.543 263.76 230.563 283.78 230.563 308.38C230.563 316.14 228.543 323.77 224.723 330.47C223.923 331.87 224.413 333.64 225.803 334.44C226.253 334.7 226.753 334.82 227.243 334.82Z" fill="#5A4F5D"/>
<path d="M728.419 171.12H561.129V195.18H760.359L753.019 188.65C745.449 181.91 737.199 176.04 728.409 171.11L728.419 171.12Z" fill="#E04D4A"/>
<path d="M14.4583 195.19H505.988V171.13H17.7383C17.6883 171.42 17.6383 171.7 17.5883 171.99C16.1583 179.87 15.1283 187.63 14.4583 195.19Z" fill="#E04D4A"/>
<g style="mix-blend-mode:multiply">
<path d="M292.179 54.7099H421.289C427.489 54.7099 432.969 58.66 434.929 64.55L435.279 65.62C437.439 59.28 443.439 54.7099 450.499 54.7099H538.839C546.519 54.7099 553.559 58.9 557.219 65.65L593.209 132.01C596.369 137.86 598.039 144.44 598.039 151.09V270.66H596.029V151.09C596.029 144.78 594.449 138.52 591.439 132.97L555.449 66.5999C552.139 60.4999 545.769 56.7099 538.839 56.7099H450.499C443.239 56.7099 437.249 62.23 436.509 69.3C436.459 69.73 436.439 70.17 436.429 70.61V280.41H579.139V282.42H278.469V68.41C278.469 60.85 284.619 54.7 292.179 54.7V54.7099ZM280.479 280.42H434.429V70.79C434.429 70.37 434.449 69.95 434.479 69.54L433.029 65.18C431.349 60.12 426.629 56.72 421.299 56.72H292.189C285.739 56.72 280.489 61.9599 280.489 68.4199V280.43L280.479 280.42Z" fill="#CCCCCC"/>
</g>
<path d="M565.559 308.38C565.559 311.72 565.819 314.99 566.299 318.19H692.389C692.869 314.99 693.129 311.72 693.129 308.38C693.129 305.66 692.959 302.99 692.629 300.36C692.209 297 691.529 293.72 690.599 290.55C682.889 263.99 658.379 244.59 629.339 244.59C600.299 244.59 575.789 263.99 568.079 290.55C567.159 293.72 566.479 297 566.049 300.36C565.719 302.99 565.549 305.66 565.549 308.38H565.559Z" fill="#542D43"/>
<path d="M629.348 363.97C598.646 363.97 573.757 339.081 573.757 308.38C573.757 277.678 598.646 252.79 629.348 252.79C660.049 252.79 684.938 277.678 684.938 308.38C684.938 339.081 660.049 363.97 629.348 363.97Z" fill="#4E454F"/>
<path d="M629.35 343.28C610.075 343.28 594.45 327.655 594.45 308.38C594.45 289.105 610.075 273.48 629.35 273.48C648.625 273.48 664.25 289.105 664.25 308.38C664.25 327.655 648.625 343.28 629.35 343.28Z" fill="#7A7382"/>
<path d="M608.369 329.355C596.782 317.768 596.782 298.982 608.369 287.395C619.956 275.808 638.742 275.808 650.329 287.395C661.916 298.982 661.916 317.768 650.329 329.355C638.742 340.941 619.956 340.941 608.369 329.355Z" fill="#595266"/>
<path d="M616.267 321.456C609.043 314.232 609.043 302.518 616.267 295.293C623.492 288.069 635.206 288.069 642.43 295.293C649.655 302.518 649.655 314.232 642.43 321.456C635.206 328.681 623.492 328.681 616.267 321.456Z" fill="#B1ACBE"/>
<path d="M670.661 334.82C671.671 334.82 672.651 334.29 673.191 333.35C677.511 325.78 679.801 317.15 679.801 308.38C679.801 280.57 657.171 257.94 629.361 257.94C610.651 257.94 593.571 268.21 584.791 284.75C584.041 286.17 584.581 287.93 585.991 288.68C587.411 289.43 589.171 288.89 589.921 287.48C597.691 272.85 612.801 263.76 629.361 263.76C653.961 263.76 673.981 283.78 673.981 308.38C673.981 316.14 671.961 323.77 668.141 330.47C667.341 331.87 667.831 333.64 669.221 334.44C669.671 334.7 670.171 334.82 670.661 334.82Z" fill="#5A4F5D"/>
<path d="M553.137 75.6399L585.527 137.56C588.527 143.3 584.367 150.18 577.887 150.18H459.557C452.547 150.18 446.857 144.49 446.857 137.48V71.7699C446.857 66.6099 451.037 62.4399 456.187 62.4399H531.327C540.487 62.4399 548.887 67.5299 553.127 75.6399H553.137Z" fill="#AAC2DB"/>
<path d="M410.339 62.4399H304.439C297.009 62.4399 290.989 68.4699 290.989 75.8899V136.72C290.989 144.15 297.019 150.17 304.439 150.17H410.339C417.769 150.17 423.789 144.14 423.789 136.72V75.8899C423.789 68.4599 417.759 62.4399 410.339 62.4399Z" fill="#AAC2DB"/>
<path d="M501.14 61.4299L501.49 62.4299L501.84 63.4299L531.94 149.17L532.29 150.17L532.64 151.17H576.98L576.62 150.17L576.27 149.17L548.94 71.2999L548.17 69.0899L547.48 67.1199C543.01 63.4899 537.35 61.4199 531.35 61.4199H501.15L501.14 61.4299Z" fill="#C1CFE3"/>
<path d="M445.859 71.7699V72.8799L447.869 78.5999L472.649 149.18L472.999 150.18L473.349 151.18H506.309L505.959 150.18L505.609 149.18L475.519 63.4399L475.159 62.4399L474.809 61.4399H456.209C450.509 61.4399 445.869 66.0799 445.869 71.7799L445.859 71.7699Z" fill="#C1CFE3"/>
<path d="M348.199 61.4299L348.519 62.4299L348.839 63.4299L376.659 149.17L376.979 150.17L377.299 151.17H412.679C414.529 151.17 416.279 150.72 417.859 149.93L417.549 148.99L417.239 148.04L389.789 63.4399L389.469 62.4399L389.149 61.4399H348.179L348.199 61.4299Z" fill="#C1CFE3"/>
<path d="M290.808 74.7498V137.88C290.808 145.22 296.328 151.18 303.118 151.18H323.328L323.008 150.18L322.688 149.18L295.898 66.5998L295.558 65.5698L295.238 64.5498C292.538 66.9998 290.828 70.6698 290.828 74.7598L290.808 74.7498Z" fill="#C1CFE3"/>
<path d="M456.189 61.4302H531.339C537.349 61.4302 542.999 63.5102 547.469 67.1302C550.139 69.2902 552.369 72.0002 554.029 75.1602L586.419 137.08C587.989 140.09 587.879 143.62 586.129 146.52C584.369 149.43 581.289 151.16 577.889 151.16H459.569C452.009 151.16 445.859 145.01 445.859 137.45V71.7502C445.859 66.0502 450.499 61.4102 456.199 61.4102L456.189 61.4302ZM447.859 137.47C447.859 143.93 453.109 149.17 459.559 149.17H577.879C580.579 149.17 583.009 147.8 584.409 145.5C585.799 143.19 585.879 140.4 584.639 138.01L552.249 76.1002C551.329 74.3502 550.209 72.7402 548.929 71.3102C544.519 66.3602 538.169 63.4402 531.329 63.4402H456.179C451.589 63.4402 447.849 67.1802 447.849 71.7702V137.47H447.859Z" fill="#362E42"/>
<path d="M295.48 64.5399C298.25 62.5999 301.81 61.4299 305.69 61.4299H409.08C417.84 61.4299 424.98 67.4099 424.98 74.7499V137.88C424.98 143.21 421.2 147.83 415.78 149.94C413.74 150.73 411.48 151.18 409.08 151.18H305.69C296.92 151.18 289.77 145.21 289.77 137.88V74.7499C289.77 70.6599 291.99 66.9899 295.47 64.5399H295.48ZM292.17 137.87C292.17 144.1 298.23 149.17 305.69 149.17H409.08C411.2 149.17 413.2 148.76 414.99 148.04C419.48 146.2 422.59 142.33 422.59 137.87V74.7399C422.59 68.4999 416.53 63.4299 409.08 63.4299H305.69C302.06 63.4299 298.76 64.6299 296.34 66.5899C293.76 68.6499 292.17 71.5399 292.17 74.7399V137.87Z" fill="#362E42"/>
<path d="M36.5909 49.91H556.461L554.021 46.55C551.101 42.53 547.491 39.15 543.411 36.54H38.871C38.151 40.24 37.3909 44.72 36.5809 49.91H36.5909Z" fill="#E04D4A"/>
<path d="M561.119 150.18H565.129V97.4299L561.119 91.1899V150.18Z" fill="#362E42"/>
<path d="M560.438 148.79C560.438 148.79 566.058 150.98 578.168 149.85C582.118 149.48 584.018 148.21 584.678 146.58C586.028 143.19 582.018 138.25 579.638 136.42C575.188 132.99 562.248 127.38 559.138 134.22C558.718 135.13 558.428 136.03 558.228 136.92C556.788 143.35 560.428 148.78 560.428 148.78L560.438 148.79Z" fill="#362E42"/>
<path d="M558.238 136.93C568.278 137.45 578.628 142.85 584.678 146.59C586.028 143.2 582.018 138.26 579.638 136.43C575.188 133 562.248 127.39 559.138 134.23C558.718 135.14 558.428 136.04 558.228 136.93H558.238Z" fill="#484057"/>
<path d="M623.629 184.49H660.429C662.229 184.49 663.699 183.03 663.699 181.22C663.699 179.42 662.239 177.95 660.429 177.95H623.629C621.829 177.95 620.359 179.41 620.359 181.22C620.359 183.02 621.819 184.49 623.629 184.49Z" fill="#FFBD55"/>
<path d="M39.8597 184.49H76.6597C78.4597 184.49 79.9297 183.03 79.9297 181.22C79.9297 179.42 78.4697 177.95 76.6597 177.95H39.8597C38.0597 177.95 36.5897 179.41 36.5897 181.22C36.5897 183.02 38.0497 184.49 39.8597 184.49Z" fill="#FFBD55"/>
<path d="M739.569 224.14L740.709 228.79C743.039 238.3 748.949 244.58 755.539 244.58H769.229C769.949 244.58 770.639 244.37 771.279 243.98C771.679 241.57 772.019 238.51 771.999 234.96C771.989 232.34 771.799 229.47 771.289 226.38C770.329 220.56 768.569 215.83 766.999 212.42H744.829C740.899 212.42 738.179 218.48 739.579 224.14H739.569Z" fill="#AAC2DB"/>
<path d="M378.119 8.03003H409.099C413.219 8.03003 416.559 11.37 416.559 15.49V19.73C416.559 23.8501 413.219 27.19 409.099 27.19H378.119C373.999 27.19 370.659 23.8501 370.659 19.73V15.49C370.659 11.37 373.999 8.03003 378.119 8.03003Z" fill="#E04D4A"/>
<path d="M333.799 8.03003H354.509C358.027 8.03003 360.879 10.882 360.879 14.4V20.82C360.879 24.3381 358.027 27.19 354.509 27.19H333.799C330.281 27.19 327.429 24.3381 327.429 20.82V14.4C327.429 10.882 330.281 8.03003 333.799 8.03003Z" fill="#DBD3E0"/>
<path d="M104.87 27.1799L73.8896 27.1799C69.7696 27.1799 66.4297 23.84 66.4297 19.7199V15.4799C66.4297 11.3599 69.7696 8.01993 73.8896 8.01993L104.87 8.01993C108.99 8.01993 112.33 11.3599 112.33 15.4799V19.7199C112.33 23.84 108.99 27.1799 104.87 27.1799Z" fill="#E04D4A"/>
<path d="M186.1 27.1799L165.39 27.1799C161.871 27.1799 159.02 24.328 159.02 20.8099V14.3899C159.02 10.8719 161.871 8.01993 165.39 8.01993L186.1 8.01993C189.618 8.01993 192.47 10.8719 192.47 14.3899V20.8099C192.47 24.328 189.618 27.1799 186.1 27.1799Z" fill="#DBD3E0"/>
<path d="M445.859 179.85V185.82C445.859 186.86 446.709 187.71 447.759 187.71H479.159C480.209 187.71 481.059 186.86 481.059 185.82V179.85C481.059 178.81 480.209 177.96 479.159 177.96H447.759C446.709 177.96 445.859 178.81 445.859 179.85Z" fill="#DBD3E0"/>
<path d="M445.859 182.82V185.81C445.859 186.85 446.709 187.7 447.759 187.7H479.159C480.209 187.7 481.059 186.85 481.059 185.81V182.82H445.859Z" fill="#CAC0CF"/>
<path d="M280.929 179.85V185.82C280.929 186.86 281.779 187.71 282.829 187.71H314.229C315.279 187.71 316.129 186.86 316.129 185.82V179.85C316.129 178.81 315.279 177.96 314.229 177.96H282.829C281.779 177.96 280.929 178.81 280.929 179.85Z" fill="#DBD3E0"/>
<path d="M280.929 182.82V185.81C280.929 186.85 281.779 187.7 282.829 187.7H314.229C315.279 187.7 316.129 186.85 316.129 185.81V182.82H280.929Z" fill="#CAC0CF"/>
<path d="M13.3663 225.27C13.5463 237.19 14.4263 248.21 15.6163 257.93C20.9363 257.56 25.1562 253.12 25.1562 247.69V218.81C25.1562 213.15 20.5662 208.55 14.8962 208.55H13.5963C13.3463 214.29 13.2962 219.87 13.3762 225.26L13.3663 225.27Z" fill="#E04D4A"/>
<path d="M13.3685 225.27H25.1484V218.81C25.1484 213.15 20.5584 208.55 14.8884 208.55H13.5884C13.3384 214.29 13.2885 219.87 13.3685 225.26V225.27Z" fill="#FFBD55"/>
<path d="M521.259 183.77L511.139 189.61L516.479 198.85L526.609 193C527.329 192.58 528.229 193.1 528.229 193.94V205.62H538.899V193.93C538.899 193.1 539.799 192.58 540.519 192.99L550.639 198.83L555.969 189.59L545.839 183.74C545.119 183.32 545.119 182.28 545.839 181.87L555.959 176.03L550.629 166.79L540.499 172.64C539.779 173.06 538.879 172.54 538.879 171.7V160.02H528.209V171.71C528.209 172.54 527.309 173.06 526.589 172.65L516.479 166.81L511.139 176.05L521.269 181.9C521.989 182.32 521.989 183.36 521.269 183.77H521.259Z" fill="#E04D4A"/>
<path d="M748.518 212.42C751.538 227.35 763.328 232.9 771.988 234.96C771.978 232.34 771.788 229.47 771.278 226.38C770.318 220.56 768.558 215.83 766.988 212.42H748.518Z" fill="#C1CFE3"/>
<g clip-path="url(#clip1_255_7343)">
<mask id="mask0_255_7343" style="mask-type:luminance" maskUnits="userSpaceOnUse" x="48" y="105" width="212" height="32">
<path d="M260 105H48V137H260V105Z" fill="white"/>
</mask>
<g mask="url(#mask0_255_7343)">
<path fill-rule="evenodd" clip-rule="evenodd" d="M62.1815 114.675L62.1689 114.687L62.1563 114.675V114.686C59.9923 112.717 56.7548 108.117 53.7847 108.021C52.5253 107.981 51.1678 107.955 49.8968 107.985C49.5077 107.994 49.0967 107.968 48.7549 108.193C48.3168 108.481 47.9927 108.932 48.0001 109.488C48.0074 110.012 48.3114 110.247 48.6271 110.609C49.9284 112.1 52.0907 114.375 55.1464 117.405C56.1813 118.431 57.2675 119.592 58.2758 120.594C59.8338 122.144 60.9185 123.095 62.1689 123.015C63.4194 123.095 64.504 122.144 66.062 120.594C67.0702 119.592 68.1563 118.431 69.1914 117.405C72.2471 114.374 74.4096 112.1 75.7108 110.609C76.0266 110.247 76.3307 110.012 76.3377 109.488C76.3451 108.932 76.0342 108.46 75.5832 108.193C75.1627 107.944 74.7972 107.965 74.2999 107.967C73.1397 107.971 71.8447 107.924 70.6856 107.961C70.1359 107.979 69.4447 108.212 68.8848 108.492C66.4213 109.731 63.945 113.082 62.1815 114.686V114.675ZM260 120.193V120.364V121.387C260 122.262 259.41 122.978 258.688 122.978H252.662C252.081 122.978 251.584 122.513 251.414 121.875C250.543 122.411 249.026 123.029 246.819 122.997C245.108 122.997 243.929 122.997 242.218 122.997H241.762C237.566 122.997 233.553 121.398 233.301 116.325L233.3 116.319V116.314L233.299 116.287L233.298 116.281V116.279L233.297 116.27V116.265L233.297 116.255V116.254L233.296 116.249V116.247L233.295 116.221V116.217H233.29V116.215V115.986V115.984V114.991V114.989V114.76V114.758H233.295V114.753L233.296 114.728V114.726L233.297 114.72L233.297 114.71V114.704L233.298 114.696V114.693L233.299 114.688L233.3 114.661V114.655L233.301 114.65C233.553 109.577 237.566 107.978 241.762 107.978H242.218C243.929 107.978 245.108 107.978 246.819 107.978C248.973 107.947 250.47 108.535 251.35 109.062V107.785V106.676V106.59C251.35 105.716 251.941 105 252.662 105H258.688C259.41 105 260 105.716 260 106.59V106.676V107.785V111.783V111.869V112.978V116.195V120.193ZM251.35 119.922V116.195V112.978V111.869V111.783V111.054H245.199C243.809 111.018 242.876 111.793 242.271 112.769C241.904 113.363 241.784 113.858 241.739 114.412L241.737 114.427L241.737 114.441V114.442L241.735 114.458L241.733 114.48L241.733 114.502L241.732 114.504L241.731 114.519L241.73 114.524L241.73 114.535V114.54L241.726 114.597L241.725 114.608V114.613C241.72 114.701 241.717 114.792 241.714 114.885V114.89L241.712 114.914V114.921L241.711 114.937V114.953V114.959V114.97L241.71 114.987V115.004L241.709 115.004L241.708 115.048V115.05L241.708 115.055V115.072L241.704 115.194L241.704 115.212L241.7 115.332V115.336V115.337L241.7 115.355L241.697 115.435L241.697 115.447L241.696 115.483V115.485V115.488V115.491L241.7 115.618L241.7 115.636V115.638V115.642L241.704 115.761L241.704 115.779V115.782L241.708 115.901V115.918L241.708 115.923V115.925L241.71 115.986L241.711 116.002V116.014L241.711 116.02V116.036V116.054L241.712 116.06L241.713 116.085V116.088C241.716 116.181 241.72 116.272 241.725 116.36V116.365L241.726 116.376L241.73 116.433V116.439L241.73 116.449V116.454L241.732 116.47V116.471L241.733 116.494L241.735 116.516L241.737 116.531V116.533L241.737 116.547L241.739 116.562C241.784 117.117 241.903 117.611 242.271 118.205C242.876 119.182 243.809 119.957 245.199 119.921L251.35 119.922ZM223.604 113.795H228.137C229.03 113.795 229.76 114.557 229.76 115.488C229.76 116.42 229.029 117.183 228.137 117.183H223.604C222.712 117.183 221.981 116.42 221.981 115.488C221.981 114.557 222.712 113.795 223.604 113.795ZM217.947 107.979H220.166H220.622H229.984C232.885 107.979 232.497 111.054 230.145 111.054H223.604C222.213 111.018 221.28 111.793 220.676 112.77C220.091 113.713 220.135 114.404 220.1 115.486V115.489C220.135 116.571 220.091 117.264 220.676 118.207C221.28 119.184 222.213 119.959 223.604 119.923H230.145C232.497 119.923 232.885 122.999 229.984 122.999H220.622H220.166H217.947C214.534 122.999 211.823 119.445 211.699 116.217H211.693V115.986V114.991V114.76H211.699C211.823 111.532 214.534 107.979 217.947 107.979ZM172.568 107.983H172.953C173.198 107.974 173.472 107.982 173.76 107.983H182.805H182.855C183.144 107.982 183.416 107.974 183.661 107.983C184.814 107.983 186.789 109.089 187.445 109.824C187.94 109.206 189.76 107.979 191.326 107.983H191.367H201.212C201.501 107.982 201.774 107.974 202.019 107.983H202.321C206.625 107.983 209.171 109.504 209.171 114.334V120.411V121.164V121.916C209.171 122.528 208.68 123.028 208.08 123.028H201.724C201.123 123.028 200.632 122.528 200.632 121.916V121.164V120.411V117.485H200.627V117.317C200.627 115.793 200.373 113.165 197.473 112.878H194.856C192.409 113.12 191.846 115.029 191.73 116.534V120.411V121.164V121.916C191.73 122.528 191.239 123.028 190.638 123.028H190.605H184.282H184.249C183.649 123.028 183.158 122.528 183.158 121.916V121.164V120.411V116.54C183.042 115.033 182.482 113.12 180.033 112.878H177.331C174.431 113.165 174.178 115.793 174.178 117.317V117.485H174.172V120.411V121.164V121.916C174.172 122.528 173.681 123.028 173.081 123.028H166.725C166.125 123.028 165.633 122.528 165.633 121.916V121.164V120.411V114.334C165.633 109.504 168.265 107.983 172.569 107.983H172.568ZM142.558 123.024H143.014H143.942C144.187 123.033 144.46 123.025 144.749 123.024H154.906H154.956C155.245 123.025 155.518 123.033 155.763 123.024H156.691H157.147C161.45 123.024 163.4 121.503 163.4 116.673V110.595V109.843V109.091C163.4 108.479 162.909 107.979 162.309 107.979H155.953C155.352 107.979 154.861 108.479 154.861 109.091V109.843V110.595V114.596H154.856V114.764C154.856 116.287 154.602 118.915 151.703 119.203H148.003C145.103 118.915 144.849 116.287 144.849 114.764V114.596H144.844V110.595V109.843V109.091C144.844 108.479 144.353 107.979 143.753 107.979H137.396C136.797 107.979 136.305 108.479 136.305 109.091V109.843V110.595V116.673C136.305 121.503 138.255 123.024 142.558 123.024ZM119.11 123.024H121.208H121.638H129.213C131.16 123.024 131.449 119.581 129.213 119.435L127.029 119.291H126.395C123.035 119.291 123.289 116.57 123.289 115.03V112.783H127.007H132.61C133.69 112.783 134.575 111.923 134.575 110.871V109.891C134.575 108.839 133.69 107.979 132.61 107.979H127.007H118.675H113.072C111.992 107.979 111.108 108.839 111.108 109.891V110.871C111.108 111.923 111.992 112.783 113.072 112.783H115.297V118.214C115.297 119.951 115.59 123.024 119.11 123.024ZM93.1408 107.979H95.36H95.8156H107.708C108.788 107.979 109.672 108.839 109.672 109.891V110.871C109.672 111.923 108.788 112.783 107.708 112.783H100.804C97.9045 113.07 97.6513 115.699 97.6513 117.222V117.391H97.6457V120.407V121.159V121.912C97.6457 122.524 97.1546 123.023 96.5544 123.023H90.1982C89.5977 123.023 89.1067 122.524 89.1067 121.912V121.159V120.407V112.909C89.1067 111.128 89.4166 107.979 93.1408 107.979Z" fill="#A22826"/>
<path fill-rule="evenodd" clip-rule="evenodd" d="M79.7218 119.046H85.5217C86.6643 119.046 87.599 119.928 87.599 121.006C87.599 122.084 86.6642 122.967 85.5217 122.967H79.7218C78.5791 122.967 77.6445 122.085 77.6445 121.006C77.6445 119.928 78.5793 119.046 79.7218 119.046ZM86.776 115.011V115.182V116.206C86.776 117.081 86.2093 117.796 85.5158 117.796H79.7279C79.0345 117.796 78.4676 117.081 78.4676 116.206V115.182V115.011V107.796V106.687V106.601C78.4676 105.727 79.0345 105.011 79.7279 105.011H85.5158C86.2093 105.011 86.776 105.727 86.776 106.601V106.687V107.796V115.011Z" fill="#E85222"/>
<path d="M73.5538 133.586C73.4469 133.837 73.3359 134.072 73.2209 134.293C73.1059 134.514 72.9698 134.706 72.8119 134.869C72.6542 135.032 72.4645 135.161 72.2425 135.253C72.0208 135.346 71.7468 135.392 71.4207 135.392C71.3566 135.392 71.2898 135.388 71.2202 135.38C71.1509 135.372 71.0839 135.361 71.0199 135.347C70.9558 135.334 70.8997 135.319 70.8513 135.302C70.8034 135.286 70.7685 135.27 70.7471 135.253L70.8835 134.583C70.9529 134.611 71.037 134.638 71.136 134.665C71.2351 134.692 71.3379 134.706 71.4449 134.706C71.6051 134.706 71.7456 134.686 71.8659 134.645C71.9862 134.604 72.0944 134.547 72.1905 134.473C72.2868 134.4 72.3724 134.31 72.4471 134.203C72.522 134.097 72.5941 133.979 72.6636 133.848C72.4285 133.461 72.2067 133.076 71.9981 132.692C71.7895 132.308 71.5972 131.936 71.4207 131.577C71.2443 131.217 71.0839 130.875 70.9396 130.551C70.7953 130.227 70.667 129.929 70.5547 129.657H71.4368C71.6132 130.131 71.839 130.659 72.1143 131.242C72.3895 131.824 72.6957 132.435 73.0325 133.072C73.2464 132.576 73.4508 132.03 73.6459 131.434C73.841 130.837 74.024 130.245 74.1951 129.657H75.0371C74.9142 130.049 74.7911 130.418 74.6682 130.764C74.5453 131.11 74.4222 131.442 74.2993 131.76C74.1764 132.079 74.0533 132.39 73.9304 132.692C73.8076 132.994 73.6821 133.292 73.5538 133.586ZM82.0211 131.291C82.0211 131.519 82.0411 131.72 82.0811 131.891C82.1213 132.063 82.1907 132.204 82.2898 132.316C82.3886 132.428 82.5222 132.511 82.6907 132.565C82.859 132.62 83.0715 132.647 83.3281 132.647C83.4296 132.647 83.5325 132.643 83.6369 132.635C83.7411 132.627 83.8413 132.617 83.9375 132.606C84.0337 132.595 84.1192 132.582 84.194 132.565C84.2689 132.549 84.3304 132.535 84.3785 132.524V129.657H85.1564V135.319H84.3785V133.211C84.277 133.238 84.1206 133.265 83.9094 133.292C83.6981 133.32 83.4724 133.333 83.2317 133.333C82.8255 133.333 82.4941 133.286 82.2375 133.19C81.981 133.095 81.7791 132.959 81.6322 132.782C81.4852 132.605 81.3848 132.39 81.3314 132.136C81.278 131.883 81.2511 131.601 81.2511 131.291V129.657H82.0209L82.0211 131.291ZM92.2205 135.319V129.657H92.9823V133.848C93.1534 133.559 93.3631 133.23 93.6118 132.859C93.8606 132.489 94.125 132.112 94.4057 131.728C94.6863 131.344 94.9697 130.971 95.2556 130.608C95.5416 130.246 95.8103 129.929 96.0616 129.656H96.6791V135.318H95.9173V130.898C95.7676 131.073 95.6044 131.274 95.428 131.503C95.2516 131.732 95.0697 131.975 94.8826 132.234C94.6956 132.493 94.5072 132.761 94.3173 133.039C94.1275 133.317 93.9446 133.59 93.7681 133.86C93.5916 134.13 93.4273 134.39 93.275 134.64C93.1224 134.891 92.9875 135.117 92.8699 135.318L92.2205 135.319ZM107.456 129.657V130.343H105.708V135.319H104.93V130.343H103.182V129.657H107.456ZM117.912 133.546C117.912 134.156 117.695 134.613 117.262 134.918C116.829 135.223 116.22 135.376 115.434 135.376C115.209 135.376 114.963 135.366 114.696 135.347C114.429 135.328 114.183 135.291 113.958 135.237V129.657H114.736V131.716C114.843 131.705 114.951 131.698 115.061 131.695C115.171 131.692 115.279 131.691 115.386 131.691C117.07 131.691 117.912 132.309 117.912 133.546ZM117.094 133.546C117.094 133.317 117.051 133.126 116.965 132.974C116.88 132.821 116.761 132.701 116.609 132.614C116.456 132.527 116.275 132.466 116.063 132.43C115.852 132.395 115.618 132.377 115.362 132.377C115.26 132.377 115.157 132.377 115.053 132.377C114.949 132.377 114.843 132.383 114.736 132.394V134.657C114.832 134.667 114.941 134.674 115.061 134.677C115.181 134.68 115.327 134.681 115.498 134.681C115.706 134.681 115.907 134.665 116.099 134.632C116.292 134.599 116.462 134.539 116.609 134.452C116.756 134.365 116.873 134.249 116.961 134.105C117.05 133.961 117.094 133.774 117.094 133.546ZM145.96 135.368C145.848 135.368 145.727 135.365 145.595 135.359C145.464 135.354 145.333 135.346 145.202 135.335C145.071 135.324 144.941 135.31 144.813 135.294C144.685 135.278 144.568 135.256 144.461 135.229V129.738C144.568 129.711 144.685 129.69 144.813 129.673C144.941 129.657 145.071 129.643 145.202 129.632C145.333 129.621 145.463 129.613 145.591 129.608C145.719 129.602 145.84 129.599 145.952 129.599C146.273 129.599 146.574 129.624 146.854 129.673C147.135 129.722 147.378 129.805 147.584 129.922C147.79 130.039 147.952 130.193 148.069 130.384C148.186 130.574 148.245 130.809 148.245 131.086C148.245 131.397 148.173 131.651 148.029 131.85C147.885 132.049 147.692 132.197 147.452 132.295C147.777 132.394 148.037 132.549 148.23 132.761C148.422 132.974 148.518 133.273 148.518 133.66C148.518 134.226 148.314 134.652 147.905 134.938C147.496 135.224 146.848 135.368 145.96 135.368ZM145.23 132.68V134.673C145.289 134.679 145.358 134.684 145.439 134.689C145.508 134.695 145.59 134.699 145.683 134.702C145.777 134.705 145.885 134.706 146.008 134.706C146.238 134.706 146.456 134.691 146.662 134.661C146.867 134.631 147.048 134.578 147.203 134.502C147.358 134.425 147.482 134.319 147.576 134.183C147.669 134.047 147.716 133.875 147.716 133.668C147.716 133.483 147.681 133.327 147.612 133.198C147.543 133.07 147.442 132.968 147.311 132.892C147.18 132.816 147.024 132.761 146.842 132.729C146.66 132.696 146.458 132.68 146.233 132.68L145.23 132.68ZM145.23 132.042H146.048C146.241 132.042 146.422 132.029 146.593 132.002C146.765 131.974 146.913 131.925 147.039 131.855C147.164 131.784 147.263 131.691 147.335 131.577C147.408 131.462 147.444 131.318 147.444 131.144C147.444 130.98 147.406 130.843 147.331 130.731C147.257 130.619 147.153 130.53 147.023 130.461C146.892 130.393 146.738 130.343 146.561 130.31C146.385 130.278 146.198 130.261 146 130.261C145.802 130.261 145.647 130.264 145.535 130.27C145.423 130.275 145.321 130.283 145.23 130.294V132.042ZM155.478 135.319V136.83H154.74V134.64H155.325C155.598 134.325 155.808 133.975 155.955 133.591C156.102 133.207 156.209 132.801 156.275 132.373C156.342 131.946 156.383 131.503 156.396 131.046C156.409 130.588 156.418 130.125 156.424 129.657H159.567V134.64H160.265V136.83H159.527V135.319H155.478ZM157.186 130.335C157.17 130.694 157.153 131.061 157.134 131.434C157.115 131.807 157.075 132.177 157.014 132.545C156.952 132.912 156.863 133.273 156.745 133.627C156.627 133.981 156.462 134.319 156.248 134.64H158.79V130.335L157.186 130.335ZM166.559 132.483C166.559 131.999 166.631 131.571 166.772 131.201C166.914 130.831 167.106 130.521 167.35 130.273C167.592 130.026 167.876 129.839 168.199 129.714C168.523 129.589 168.866 129.526 169.229 129.526C169.588 129.526 169.926 129.589 170.244 129.714C170.562 129.839 170.841 130.026 171.082 130.273C171.323 130.521 171.514 130.831 171.656 131.201C171.797 131.571 171.868 131.999 171.868 132.483C171.868 132.968 171.797 133.396 171.656 133.766C171.514 134.137 171.323 134.446 171.082 134.693C170.841 134.941 170.562 135.128 170.244 135.253C169.926 135.378 169.588 135.441 169.229 135.441C168.866 135.441 168.523 135.378 168.199 135.253C167.876 135.128 167.592 134.941 167.35 134.693C167.106 134.446 166.914 134.136 166.772 133.766C166.631 133.396 166.559 132.968 166.559 132.483ZM167.377 132.483C167.377 132.827 167.42 133.138 167.506 133.419C167.591 133.7 167.712 133.938 167.87 134.134C168.028 134.33 168.22 134.481 168.448 134.587C168.675 134.693 168.93 134.747 169.214 134.747C169.497 134.747 169.751 134.693 169.975 134.587C170.2 134.481 170.392 134.33 170.549 134.134C170.706 133.938 170.828 133.7 170.914 133.419C170.999 133.138 171.042 132.827 171.042 132.483C171.042 132.14 170.999 131.829 170.914 131.548C170.828 131.268 170.706 131.029 170.549 130.833C170.392 130.637 170.2 130.486 169.975 130.38C169.751 130.273 169.497 130.22 169.214 130.22C168.93 130.22 168.675 130.273 168.448 130.38C168.22 130.486 168.028 130.637 167.87 130.833C167.712 131.029 167.592 131.267 167.506 131.548C167.42 131.829 167.377 132.14 167.377 132.483ZM182.043 135.319C181.963 135.155 181.867 134.974 181.755 134.775C181.642 134.576 181.519 134.369 181.386 134.154C181.252 133.939 181.113 133.724 180.969 133.509C180.824 133.294 180.685 133.091 180.552 132.9C180.418 133.091 180.279 133.294 180.135 133.509C179.99 133.724 179.853 133.939 179.722 134.154C179.591 134.37 179.467 134.576 179.353 134.775C179.238 134.974 179.14 135.155 179.06 135.319H178.202C178.443 134.839 178.722 134.352 179.04 133.856C179.358 133.361 179.696 132.851 180.054 132.328L178.274 129.657H179.172L180.543 131.765L181.898 129.657H182.789L181.041 132.296C181.405 132.824 181.746 133.339 182.067 133.84C182.388 134.341 182.671 134.834 182.917 135.319L182.043 135.319ZM192.948 129.657H193.726V135.319H192.948V132.704H190.23V135.319H189.452V129.657H190.23V132.018H192.948V129.657ZM200.565 132.483C200.565 131.999 200.637 131.571 200.778 131.201C200.92 130.831 201.113 130.521 201.355 130.273C201.599 130.026 201.882 129.839 202.206 129.714C202.529 129.589 202.872 129.526 203.236 129.526C203.594 129.526 203.932 129.589 204.25 129.714C204.568 129.839 204.848 130.026 205.088 130.273C205.329 130.521 205.52 130.831 205.662 131.201C205.803 131.571 205.874 131.999 205.874 132.483C205.874 132.968 205.803 133.396 205.662 133.766C205.52 134.137 205.329 134.446 205.088 134.693C204.848 134.941 204.568 135.128 204.25 135.253C203.932 135.378 203.594 135.441 203.236 135.441C202.872 135.441 202.529 135.378 202.206 135.253C201.882 135.128 201.599 134.941 201.355 134.693C201.113 134.446 200.92 134.136 200.778 133.766C200.637 133.396 200.565 132.968 200.565 132.483ZM201.384 132.483C201.384 132.827 201.427 133.138 201.512 133.419C201.597 133.7 201.719 133.938 201.877 134.134C202.035 134.33 202.227 134.481 202.455 134.587C202.681 134.693 202.937 134.747 203.22 134.747C203.504 134.747 203.757 134.693 203.982 134.587C204.206 134.481 204.397 134.33 204.555 134.134C204.713 133.938 204.834 133.7 204.92 133.419C205.006 133.138 205.048 132.827 205.048 132.483C205.048 132.14 205.006 131.829 204.92 131.548C204.834 131.268 204.713 131.029 204.555 130.833C204.397 130.637 204.206 130.486 203.982 130.38C203.757 130.273 203.504 130.22 203.22 130.22C202.937 130.22 202.681 130.273 202.455 130.38C202.227 130.486 202.035 130.637 201.877 130.833C201.719 131.029 201.598 131.267 201.512 131.548C201.427 131.829 201.384 132.14 201.384 132.483ZM214.214 135.367C214.101 135.367 213.98 135.365 213.848 135.359C213.717 135.354 213.586 135.346 213.455 135.335C213.325 135.324 213.195 135.31 213.066 135.294C212.938 135.278 212.821 135.256 212.714 135.229V129.738C212.821 129.711 212.938 129.689 213.066 129.673C213.195 129.656 213.325 129.643 213.455 129.632C213.586 129.621 213.716 129.613 213.844 129.607C213.972 129.602 214.093 129.599 214.205 129.599C214.526 129.599 214.827 129.624 215.107 129.673C215.388 129.722 215.632 129.805 215.837 129.922C216.043 130.039 216.205 130.193 216.323 130.383C216.439 130.574 216.498 130.808 216.498 131.086C216.498 131.397 216.426 131.651 216.282 131.85C216.138 132.049 215.946 132.197 215.705 132.295C216.031 132.393 216.29 132.549 216.483 132.761C216.675 132.973 216.772 133.273 216.772 133.66C216.772 134.226 216.567 134.652 216.158 134.938C215.749 135.224 215.101 135.367 214.214 135.367ZM213.483 132.68V134.673C213.542 134.679 213.612 134.684 213.692 134.689C213.761 134.695 213.843 134.699 213.936 134.702C214.031 134.704 214.138 134.706 214.261 134.706C214.491 134.706 214.709 134.691 214.915 134.661C215.12 134.631 215.301 134.578 215.456 134.501C215.611 134.425 215.735 134.319 215.829 134.183C215.922 134.047 215.969 133.875 215.969 133.668C215.969 133.483 215.935 133.326 215.865 133.198C215.796 133.07 215.695 132.968 215.564 132.892C215.434 132.816 215.277 132.761 215.095 132.729C214.914 132.696 214.711 132.68 214.486 132.68L213.483 132.68ZM213.483 132.042H214.301C214.494 132.042 214.676 132.029 214.847 132.001C215.018 131.974 215.166 131.925 215.292 131.854C215.417 131.784 215.516 131.691 215.588 131.577C215.661 131.462 215.697 131.318 215.697 131.144C215.697 130.98 215.659 130.843 215.584 130.731C215.51 130.619 215.407 130.529 215.276 130.461C215.145 130.393 214.991 130.343 214.815 130.31C214.638 130.278 214.451 130.261 214.254 130.261C214.056 130.261 213.9 130.264 213.788 130.27C213.676 130.275 213.574 130.283 213.483 130.294V132.042ZM225.455 130.335C225.445 130.64 225.434 130.935 225.423 131.221C225.413 131.507 225.396 131.785 225.375 132.055C225.354 132.324 225.322 132.587 225.279 132.843C225.236 133.099 225.177 133.35 225.102 133.595C225.028 133.84 224.935 134.07 224.826 134.285C224.716 134.5 224.58 134.688 224.417 134.849C224.254 135.01 224.061 135.139 223.839 135.237C223.618 135.335 223.357 135.39 223.058 135.4L222.97 134.714C223.344 134.67 223.634 134.551 223.84 134.354C224.046 134.158 224.215 133.859 224.349 133.456C224.499 132.998 224.593 132.447 224.634 131.801C224.674 131.156 224.693 130.441 224.693 129.657H227.845V135.319H227.067V130.335H225.455ZM237.066 130.294C236.863 130.294 236.669 130.31 236.484 130.343C236.3 130.376 236.136 130.433 235.991 130.515C235.847 130.596 235.732 130.708 235.647 130.849C235.561 130.991 235.518 131.168 235.518 131.38C235.518 131.784 235.645 132.063 235.9 132.218C236.153 132.373 236.534 132.451 237.042 132.451H237.844V130.318C237.785 130.318 237.716 130.315 237.636 130.31C237.566 130.305 237.484 130.301 237.391 130.298C237.297 130.295 237.189 130.294 237.066 130.294L237.066 130.294ZM237.13 129.599C237.242 129.599 237.362 129.602 237.491 129.608C237.619 129.613 237.749 129.621 237.88 129.632C238.011 129.643 238.14 129.657 238.268 129.673C238.397 129.69 238.514 129.711 238.622 129.739V135.319H237.844V133.105H237.178C237.103 133.105 237.025 133.103 236.941 133.101C236.859 133.098 236.748 133.088 236.609 133.072C236.513 133.203 236.408 133.355 236.296 133.53C236.184 133.704 236.071 133.889 235.959 134.085C235.847 134.281 235.736 134.486 235.626 134.698C235.516 134.91 235.417 135.117 235.326 135.319H234.507C234.593 135.106 234.695 134.886 234.812 134.657C234.93 134.428 235.052 134.211 235.177 134.003C235.303 133.797 235.424 133.605 235.538 133.428C235.653 133.25 235.753 133.105 235.839 132.991C235.716 132.952 235.588 132.898 235.454 132.827C235.32 132.756 235.198 132.658 235.085 132.533C234.973 132.408 234.88 132.251 234.808 132.063C234.736 131.875 234.701 131.651 234.701 131.389C234.701 131.095 234.756 130.836 234.869 130.613C234.981 130.39 235.143 130.203 235.354 130.053C235.565 129.904 235.82 129.791 236.119 129.714C236.419 129.638 236.755 129.599 237.13 129.599ZM249.398 129.657V130.343H247.65V135.319H246.872V130.343H245.124V129.657H249.398ZM259.854 133.546C259.854 134.156 259.638 134.613 259.205 134.918C258.772 135.223 258.162 135.376 257.377 135.376C257.152 135.376 256.906 135.366 256.639 135.347C256.372 135.328 256.126 135.291 255.901 135.237V129.657H256.679V131.716C256.785 131.705 256.894 131.698 257.004 131.695C257.113 131.692 257.221 131.691 257.328 131.691C259.012 131.691 259.855 132.309 259.855 133.546L259.854 133.546ZM259.037 133.546C259.037 133.317 258.993 133.126 258.908 132.974C258.822 132.821 258.704 132.701 258.551 132.614C258.399 132.527 258.217 132.466 258.006 132.43C257.794 132.395 257.56 132.377 257.304 132.377C257.202 132.377 257.1 132.377 256.995 132.377C256.891 132.377 256.785 132.383 256.679 132.394V134.657C256.775 134.667 256.883 134.674 257.004 134.677C257.124 134.68 257.269 134.681 257.44 134.681C257.649 134.681 257.849 134.665 258.042 134.632C258.235 134.599 258.404 134.539 258.551 134.452C258.698 134.365 258.816 134.249 258.904 134.105C258.992 133.961 259.037 133.774 259.037 133.546Z" fill="#A22826"/>
<path d="M128.762 135.318V129.656H129.524V133.847C129.695 133.559 129.905 133.229 130.153 132.859C130.402 132.488 130.667 132.111 130.947 131.727C131.228 131.343 131.511 130.97 131.797 130.608C132.083 130.246 132.352 129.928 132.603 129.656H133.221V135.318H132.459V130.898C132.309 131.072 132.146 131.274 131.969 131.502C131.793 131.731 131.611 131.975 131.424 132.234C131.237 132.492 131.049 132.761 130.859 133.038C130.669 133.316 130.486 133.59 130.309 133.86C130.133 134.129 129.969 134.389 129.816 134.64C129.664 134.89 129.529 135.116 129.411 135.318L128.762 135.318Z" fill="#E85222"/>
</g>
</g>
<path d="M343.434 246.809V252.059H314.723L314.504 248.094L331.676 221.188H336.953L331.238 230.977L321.367 246.809H343.434ZM338.457 221.188V261H331.867V221.188H338.457Z" fill="#A22826"/>
<path d="M373.785 237.758V244.266C373.785 247.383 373.475 250.044 372.855 252.25C372.254 254.438 371.379 256.215 370.23 257.582C369.082 258.949 367.706 259.952 366.102 260.59C364.516 261.228 362.738 261.547 360.77 261.547C359.202 261.547 357.743 261.346 356.395 260.945C355.064 260.544 353.861 259.915 352.785 259.059C351.71 258.202 350.789 257.099 350.023 255.75C349.276 254.383 348.693 252.751 348.273 250.855C347.872 248.96 347.672 246.763 347.672 244.266V237.758C347.672 234.622 347.982 231.979 348.602 229.828C349.221 227.659 350.105 225.9 351.254 224.551C352.402 223.184 353.77 222.19 355.355 221.57C356.96 220.951 358.746 220.641 360.715 220.641C362.301 220.641 363.759 220.841 365.09 221.242C366.439 221.625 367.642 222.236 368.699 223.074C369.775 223.913 370.686 225.007 371.434 226.355C372.199 227.686 372.783 229.299 373.184 231.195C373.585 233.073 373.785 235.26 373.785 237.758ZM367.195 245.195V236.773C367.195 235.188 367.104 233.793 366.922 232.59C366.74 231.368 366.466 230.339 366.102 229.5C365.755 228.643 365.318 227.951 364.789 227.422C364.26 226.875 363.659 226.483 362.984 226.246C362.31 225.991 361.553 225.863 360.715 225.863C359.694 225.863 358.783 226.064 357.98 226.465C357.178 226.848 356.504 227.467 355.957 228.324C355.41 229.181 354.991 230.311 354.699 231.715C354.426 233.1 354.289 234.786 354.289 236.773V245.195C354.289 246.799 354.38 248.212 354.562 249.434C354.745 250.655 355.018 251.703 355.383 252.578C355.747 253.435 356.185 254.146 356.695 254.711C357.224 255.258 357.826 255.659 358.5 255.914C359.193 256.169 359.949 256.297 360.77 256.297C361.809 256.297 362.729 256.096 363.531 255.695C364.333 255.294 365.008 254.656 365.555 253.781C366.102 252.888 366.512 251.73 366.785 250.309C367.059 248.887 367.195 247.182 367.195 245.195Z" fill="#A22826"/>
<path d="M407.09 246.809V252.059H378.379L378.16 248.094L395.332 221.188H400.609L394.895 230.977L385.023 246.809H407.09ZM402.113 221.188V261H395.523V221.188H402.113Z" fill="#A22826"/>
</g>
<defs>
<clipPath id="clip0_255_7343">
<rect width="778" height="364" fill="white" transform="matrix(-1 0 0 1 778 0)"/>
</clipPath>
<clipPath id="clip1_255_7343">
<rect width="212" height="32" fill="white" transform="translate(48 105)"/>
</clipPath>
</defs>
</svg>