<svg xmlns="http://www.w3.org/2000/svg" width="281" height="255" viewBox="0 0 281 255" fill="none">
<path d="M17.1648 182.811L225.817 249.627L234.654 88.1297L4.02734 41.0996L17.1648 182.811Z" fill="#A22826"/>
<path fill-rule="evenodd" clip-rule="evenodd" d="M133.782 125.102C133.965 124.952 134.116 124.767 134.227 124.559C134.339 124.351 134.408 124.122 134.431 123.887C134.454 123.652 134.43 123.415 134.361 123.189C134.292 122.964 134.179 122.753 134.029 122.571C133.878 122.389 133.693 122.238 133.484 122.127C133.275 122.016 133.047 121.947 132.811 121.924C132.576 121.901 132.338 121.925 132.111 121.994C131.885 122.063 131.674 122.175 131.492 122.325L113.224 137.321L98.195 119.096C98.0446 118.914 97.8597 118.763 97.6508 118.652C97.4419 118.541 97.2131 118.472 96.9775 118.449C96.742 118.427 96.5042 118.45 96.2777 118.519C96.0513 118.588 95.8407 118.7 95.6579 118.85C95.4752 119 95.3238 119.185 95.2125 119.393C95.1012 119.602 95.0321 119.83 95.0092 120.065C94.9863 120.3 95.01 120.537 95.079 120.763C95.148 120.989 95.2609 121.199 95.4113 121.381L110.445 139.602L92.1744 154.593C91.8053 154.896 91.5719 155.333 91.5257 155.808C91.4794 156.282 91.624 156.756 91.9278 157.124C92.2315 157.492 92.6694 157.725 93.1452 157.771C93.621 157.817 94.0957 157.673 94.4648 157.37L112.732 142.375L127.761 160.599C128.065 160.967 128.503 161.2 128.979 161.246C129.455 161.292 129.929 161.148 130.298 160.845C130.667 160.542 130.901 160.105 130.947 159.63C130.993 159.156 130.849 158.682 130.545 158.314L115.512 140.093L133.782 125.102Z" fill="#FEFEFE"/>
<path d="M234.659 88.1299L235.334 87.6948L3.33594 40.5508L4.03175 41.0998L234.659 88.1299Z" fill="url(#paint0_linear_319_13862)"/>
<path d="M234.658 88.1294L235.333 87.6943L226.35 250.59L225.82 249.627L234.658 88.1294Z" fill="#FCFEF5"/>
<path d="M225.824 249.627L226.354 250.59L16.4453 183.308L17.1723 182.811L225.824 249.627Z" fill="url(#paint1_linear_319_13862)"/>
<path d="M17.1692 182.812L4.03175 41.0998L3.33594 40.5508L16.4422 183.309L17.1692 182.812Z" fill="url(#paint2_linear_319_13862)"/>
<path d="M3.33594 40.5505C3.33594 40.5505 3.33594 36.0236 4.68603 33.6307C6.03612 31.2481 8.63246 29.3213 8.63246 29.3213L240.392 73.9688C240.392 73.9688 237.93 77.1801 236.964 80.0081C236.009 82.8361 235.334 87.6945 235.334 87.6945L3.33594 40.5505Z" fill="#FEFEFE"/>
<path d="M235.331 87.6943C235.331 87.6943 239.952 88.2951 243.452 88.0465C246.952 87.7979 249.964 86.3062 249.964 86.3062L239.516 248.601C239.516 248.601 237.616 250.207 234.282 250.932C230.948 251.668 226.348 250.601 226.348 250.601L235.331 87.7046V87.6943Z" fill="url(#paint3_linear_319_13862)"/>
<path d="M226.352 250.59C226.352 250.59 226.363 252.165 226.705 253.263C227.048 254.361 227.443 254.682 227.443 254.682L18.4795 186.945C18.4795 186.945 17.9083 186.706 17.3267 185.67C16.7452 184.624 16.4336 183.319 16.4336 183.319L226.352 250.601V250.59Z" fill="url(#paint4_linear_319_13862)"/>
<path d="M3.3352 40.5504C3.3352 40.5504 2.70169 40.2914 1.632 39.7631C0.614239 39.2555 0.5 38.8101 0.5 38.8101L13.7621 180.677C13.7621 180.677 13.8659 181.537 14.6656 182.138C15.4757 182.739 16.4415 183.319 16.4415 183.319L3.3352 40.5504Z" fill="url(#paint5_linear_319_13862)"/>
<path d="M17.3343 185.671C16.7527 184.625 16.4411 183.319 16.4411 183.319C16.4411 183.319 15.4753 182.739 14.6652 182.138C13.8552 181.538 13.7617 180.678 13.7617 180.678C13.7617 180.678 13.9383 182.418 15.2676 184.345C16.5969 186.261 18.487 186.955 18.487 186.955C18.487 186.955 17.9159 186.717 17.3343 185.681V185.671Z" fill="#536267"/>
<path d="M239.602 247.39L267.185 213.857L279.544 62.9468L249.945 86.7104L239.602 247.39Z" fill="#A22826"/>
<path d="M270.581 51.2099L240.09 73.917L9.69141 29.5285L51.8559 13.3994L270.581 51.2099Z" fill="#A22826"/>
<path d="M270.581 51.2101L271.589 50.8579L240.391 73.969L240.09 73.9172L270.581 51.2101Z" fill="#BBCBD6"/>
<path d="M270.581 51.2101L51.8552 13.3996L51.7617 12.9023L271.588 50.8579L270.581 51.2101Z" fill="#BAC9D5"/>
<path d="M240.391 73.9692C240.391 73.9692 244.898 75.5645 247.245 78.5893C249.592 81.6245 249.976 86.2964 249.976 86.2964L280.218 62.0252C280.218 62.0252 279.72 57.5293 277.695 54.8464C275.67 52.1634 271.599 50.8374 271.599 50.8374L240.401 73.9484L240.391 73.9692Z" fill="url(#paint6_linear_319_13862)"/>
<path d="M280.219 62.0347L279.544 62.9463L249.945 86.7099L249.976 86.3059L280.219 62.0347Z" fill="#A5BAC8"/>
<path d="M279.546 62.9463L267.188 213.857L267.395 214.023L280.221 62.0347L279.546 62.9463Z" fill="#A7BBC9"/>
<path d="M267.186 213.857L239.603 247.39L239.52 248.602L267.394 214.023L267.186 213.857Z" fill="#A0B6C5"/>
<path d="M240.39 73.9683C240.39 73.9683 237.928 77.1796 236.963 80.0076C236.007 82.8356 235.332 87.694 235.332 87.694C235.332 87.694 239.954 88.2948 243.453 88.0462C246.953 87.7976 249.965 86.3059 249.965 86.3059C249.965 86.3059 249.581 81.6236 247.234 78.5988C244.887 75.5636 240.379 73.9786 240.379 73.9786L240.39 73.9683Z" fill="url(#paint7_radial_319_13862)"/>
<path d="M239.521 248.601C239.521 248.601 239.179 249.523 238.898 250.155C238.618 250.787 237.984 251.813 237.984 251.813L267.011 215.846L267.396 214.023L239.521 248.601Z" fill="#475F72"/>
<path d="M239.516 248.602C239.516 248.602 237.616 250.207 234.282 250.932C230.948 251.668 226.348 250.601 226.348 250.601C226.348 250.601 226.358 252.175 226.701 253.274C226.96 254.113 227.262 254.496 227.376 254.631L227.438 254.693C227.438 254.693 230.377 255.449 233.316 254.589C236.245 253.729 237.979 251.813 237.979 251.813C237.979 251.813 238.613 250.787 238.893 250.155C239.174 249.524 239.516 248.602 239.516 248.602Z" fill="url(#paint8_radial_319_13862)"/>
<path d="M170.239 154.148C169.751 125.692 146.716 89.7045 110.762 80.7129C82.2334 73.5858 59.043 94.1589 59.043 123.734C59.043 159.794 84.8298 189.597 111.769 198.972C139.685 208.689 170.966 196.392 170.228 154.138L170.239 154.148ZM112.351 187.307C90.7909 179.859 70.2799 156.904 70.2799 127.318C70.2799 108.517 85.754 88.7308 112.008 94.9876C136.144 100.737 156.405 128.023 157.143 152.201C158.109 183.858 132.374 194.227 112.351 187.307Z" fill="white"/>
<path d="M8.62891 29.3214L9.68821 29.5286L51.8527 13.3996L51.7592 12.9023L8.62891 29.3214Z" fill="#B5C5D2"/>
<path d="M51.7626 12.902C51.7626 12.902 51.3057 12.9434 51.0668 12.9745C50.8383 12.9952 50.4541 13.0884 50.4541 13.0884L5.89062 29.9944C5.89062 29.9944 7.00186 29.5904 7.42765 29.4868C7.85345 29.3832 8.63235 29.3107 8.63235 29.3107L51.7626 12.8916V12.902Z" fill="#93A6AF"/>
<path d="M1.63333 39.7525C2.70302 40.2911 3.33653 40.5398 3.33653 40.5398C3.33653 40.5398 3.33653 36.0129 4.68662 33.6199C6.03672 31.2373 8.63305 29.3105 8.63305 29.3105C8.63305 29.3105 7.84376 29.3831 7.42835 29.4866C7.00255 29.5902 5.89132 29.9942 5.89132 29.9942C5.89132 29.9942 3.23268 31.1959 1.89297 33.5992C0.55326 36.0025 0.511719 38.7994 0.511719 38.7994L0.532489 38.8409C0.594801 38.9652 0.823279 39.3277 1.65411 39.7525H1.63333Z" fill="#5B6F79"/>
<path d="M280.217 62.0351L280.497 61.1753L267.775 213.547L267.391 214.023L280.217 62.0351Z" fill="#96AEBF"/>
<path d="M278.68 55.0532C276.718 52.0283 272.48 50.7749 272.48 50.7749L271.598 50.8474C271.598 50.8474 275.669 52.1734 277.694 54.8564C279.719 57.5394 280.217 62.0352 280.217 62.0352L280.498 61.165C280.498 61.165 280.643 58.0677 278.68 55.0532Z" fill="#AEC0CE"/>
<path d="M271.588 50.8579L51.7617 12.9023H52.5718C52.8314 12.9023 53.3299 12.9541 53.3299 12.9541L272.481 50.7854L271.598 50.8579H271.588Z" fill="#BBCBD6"/>
<path d="M267.392 214.023L267.008 215.846C267.008 215.846 267.361 215.08 267.527 214.613C267.693 214.158 267.776 213.536 267.776 213.536L267.392 214.013V214.023Z" fill="#87A2B6"/>
<path d="M217.945 64.5109L220.261 62.8431V62.377L217.945 63.9308V64.5109Z" fill="#A22826"/>
<path d="M232.498 51.21L232.415 54.5041L223.266 60.7196L223.349 57.3943L232.498 51.21Z" fill="#FEFEFE"/>
<path d="M223.267 60.7198L218.957 59.974L218.978 56.5244L223.35 57.3946L223.267 60.7198Z" fill="url(#paint9_linear_319_13862)"/>
<path d="M204.426 56.6998V53.7993L208.601 54.6591V57.5286L204.426 56.6998Z" fill="#FEFEFE"/>
<path d="M208.602 55.2083L216.017 50.5157L216.006 49.9355L208.602 54.6593V55.2083Z" fill="#6AB02E"/>
<path d="M216.018 50.5157L225.095 52.9397L226.061 51.6966L216.008 49.9355L216.018 50.5157Z" fill="#B6B6BA"/>
<path d="M203.51 61.6729L198.66 60.7199V60.2744L203.51 61.2378V61.6729Z" fill="url(#paint10_linear_319_13862)"/>
<path d="M59.0664 21.8837L66.8243 23.6965L66.8346 22.9506L59.0768 21.5107L59.0664 21.8837Z" fill="#809DB2"/>
<g style="mix-blend-mode:multiply">
<path d="M158.408 34.3145C154.794 34.0555 136.661 33.9519 133.286 33.5065C129.911 33.0714 124.656 31.5279 121.862 31.2171C119.069 30.9064 102.681 30.896 102.681 30.896L95.6602 36.0859C95.6602 36.0859 96.8441 36.0134 97.7165 35.7337C98.5888 35.454 99.887 34.7599 99.887 34.7599H111.955C113.637 34.7599 114.302 35.0293 118.113 35.4229C121.925 35.8165 142.072 35.6922 148.085 36.1998C154.098 36.7074 200.189 43.5651 200.189 44.5492C200.189 45.5333 185.203 45.1397 185.203 45.1397L189.824 47.7502C189.824 47.7502 195.38 48.8068 200.157 49.5216L195.193 53.1369C195.193 53.1369 196.751 53.1369 197.852 52.4014C198.953 51.6659 200.199 50.9718 200.199 50.9718C200.199 50.9718 201.134 50.4332 200.988 49.9463C200.936 49.7598 200.801 49.6562 200.656 49.5941C203.553 50.0188 206.077 50.2881 206.752 50.0913C208.58 49.563 207.905 48.7239 210.335 47.7502C212.765 46.7868 221.157 47.5948 221.157 45.8234C221.157 44.052 162.022 34.5838 158.408 34.3248V34.3145Z" fill="#D6D6D8"/>
</g>
<path d="M74.5563 30.2436C74.5563 30.2436 73.7359 30.0468 73.7047 29.8603C73.6632 29.6532 73.8709 29.5599 73.8709 29.5599L79.0843 27.3949C79.0843 27.3949 79.5205 27.312 80.0502 27.312C80.5798 27.312 80.9433 27.3949 80.9433 27.3949L86.811 28.4411L101.704 30.399L103.646 30.658C103.646 30.658 104.279 30.7512 104.279 31.1552C104.279 31.4867 103.905 31.6525 103.905 31.6525L97.2898 34.7084C97.2898 34.7084 96.3655 35.0917 95.6489 35.1538C94.9323 35.216 93.7484 35.0502 93.7484 35.0502L80.0502 32.4708C80.0502 32.4708 78.8974 32.3051 78.9805 31.8596C79.0532 31.5074 79.5724 31.2381 79.5724 31.2381L74.5563 30.2747V30.2436Z" fill="url(#paint11_linear_319_13862)"/>
<path d="M103.909 31.632L97.2937 34.6879C97.2937 34.6879 96.3694 35.0712 95.6528 35.1334C94.9362 35.1955 93.7523 35.0298 93.7523 35.0298L80.0541 32.4504C80.0541 32.4504 78.9844 32.295 78.9844 31.8806V32.8854C79.0571 33.2687 80.0541 33.4138 80.0541 33.4138L93.7523 35.9932C93.7523 35.9932 94.9362 36.1589 95.6528 36.0968C96.3694 36.0346 97.2937 35.6513 97.2937 35.6513L103.909 32.5954C103.909 32.5954 104.283 32.4296 104.283 32.0982V31.1348C104.283 31.4663 103.909 31.632 103.909 31.632Z" fill="#FEFEFE"/>
<path d="M78.9906 31.8281C79.0633 31.4759 79.5826 31.2065 79.5826 31.2065L74.5664 30.2431C74.5664 30.2431 73.746 30.0463 73.7148 29.8599V30.8233C73.746 31.0097 74.5664 31.2065 74.5664 31.2065L79.0841 32.0767C79.0114 32.0042 78.9802 31.9213 79.001 31.8384L78.9906 31.8281Z" fill="url(#paint12_linear_319_13862)"/>
<path d="M86.3125 31.88L97.2275 33.6204L96.6459 15.3159L89.2723 15.5127C89.2723 15.5127 88.1403 15.6267 87.6107 16.1446C87.081 16.673 87.0291 17.7503 87.0291 17.7503L86.3229 31.8697L86.3125 31.88Z" fill="#FEFEFE"/>
<path d="M98.0598 14.6224V13.4829L93.7603 13.5761C93.7603 13.5761 92.0571 13.5761 91.5586 15.2854L97.5405 15.3475L98.0598 14.6224Z" fill="url(#paint13_linear_319_13862)"/>
<path d="M94.1337 13.4202C94.1337 13.4202 93.5522 13.4098 92.7213 13.8552C92.7213 13.8552 92.7213 13.8552 92.7109 13.8552C93.251 13.5756 93.7702 13.5756 93.7702 13.5756L98.0698 13.4823V13.3477L94.1441 13.4098L94.1337 13.4202Z" fill="#C9D5DE"/>
<path d="M87.6026 16.1444C88.1323 15.6161 89.2643 15.5125 89.2643 15.5125L96.6379 15.3157L97.0325 15.1914L89.9809 15.3157C89.9809 15.3157 88.1115 15.3157 87.5195 16.2273C87.5403 16.1962 87.5715 16.1652 87.5922 16.1444H87.6026Z" fill="#C9D5DE"/>
<path d="M96.6367 15.3156L97.0314 15.2017V16.0718L98.288 15.4503L101.84 27.3114L101.975 31.4861L97.2287 33.6201L96.6367 15.3156Z" fill="#FEFEFE"/>
<path d="M97.0293 16.0718L98.2859 15.4503L98.0574 14.6216L93.1452 14.7045C93.1452 14.7045 92.3351 14.7045 91.6289 15.2846L97.0293 15.1913V16.0718Z" fill="url(#paint14_linear_319_13862)"/>
<path d="M124.389 2.71925L139.115 4.77034L159.501 9.69089C159.501 9.69089 161.849 10.2192 162.607 10.7061C163.365 11.193 166.501 15.1812 166.501 15.1812C166.501 15.1812 169.368 18.4339 169.513 19.6459C169.658 20.8683 169.617 23.7896 169.617 23.7896L169.149 40.1776L171.247 38.7998L171.964 19.7702C171.964 19.7702 171.974 18.7654 171.881 18.3303C171.787 17.9056 171.258 17.253 171.258 17.253L168.641 14.0935L165.141 9.88771C165.141 9.88771 164.518 9.16258 164.164 8.91396C163.811 8.6757 162.825 8.4996 162.825 8.4996L140.112 3.32008L128.595 1.39329L108.478 0.00517952C108.478 0.00517952 108.104 -0.0155386 107.814 0.0258976C107.523 0.0673338 107.19 0.202001 107.19 0.202001L105.113 1.01001C105.113 1.01001 104.771 1.10324 104.501 1.2897C104.293 1.42437 103.867 1.84909 103.867 1.84909L124.399 2.70889L124.389 2.71925Z" fill="url(#paint15_linear_319_13862)"/>
<path d="M98.4741 27.7675L102.213 28.3269C102.213 28.3269 103.127 28.4823 104.363 27.436C105.598 26.3898 105.484 25.4989 105.484 25.4989L105.266 13.8553C105.266 13.8553 105.432 12.4154 106.803 11.048C108.174 9.68062 109.462 9.6599 109.462 9.6599C109.462 9.6599 114.686 10.3643 117.085 10.8305C119.484 11.2966 123.897 12.7676 124.562 12.8919C125.216 13.0162 129.35 13.8242 131.769 14.2593C134.189 14.6944 137.835 15.1088 138.634 15.1813C139.434 15.2538 146.683 15.9271 149.445 16.1343C152.208 16.3415 157.224 17.3981 157.224 17.3981C157.224 17.3981 158.927 18.0818 160.36 20.0189C161.793 21.9664 162.115 23.4581 162.115 23.4581V35.485C162.115 35.485 162.147 36.5831 162.925 37.6811C163.704 38.7792 164.805 39.1728 164.805 39.1728L169.167 40.1569L169.634 23.7689C169.634 23.7689 169.676 20.8477 169.531 19.6253C169.385 18.4029 166.519 15.1606 166.519 15.1606C166.519 15.1606 163.372 11.1723 162.624 10.6854C161.866 10.1986 159.519 9.67026 159.519 9.67026L139.133 4.74971L124.406 2.69862L105.713 1.32086C105.713 1.32086 105.069 1.24835 104.601 1.39338C104.134 1.54876 103.781 1.92169 103.781 1.92169L98.9103 6.52111C98.9103 6.52111 98.3495 7.0287 98.0691 7.53629C97.7887 8.03353 97.8821 9.03835 97.8821 9.03835L98.4845 27.7468L98.4741 27.7675Z" fill="#404344"/>
<path d="M109.91 9.73256C109.63 9.69113 109.463 9.67041 109.463 9.67041C109.463 9.67041 108.165 9.69113 106.805 11.0585C105.444 12.4259 105.268 13.8658 105.268 13.8658L105.486 25.5094C105.486 25.5094 105.59 26.3899 104.364 27.4465C103.814 27.9127 103.336 28.1406 102.973 28.2442C103.596 28.0888 105.06 27.6744 105.642 27.0943C106.389 26.3485 107.168 25.7373 107.345 24.9396C107.511 24.1316 107.48 23.5826 107.48 23.5826L107.324 13.6172C107.324 13.6172 107.49 11.6697 108.29 10.8617C109.09 10.0641 109.92 9.73256 109.92 9.73256H109.91Z" fill="#FEFEFE"/>
<path d="M166.614 47.3459C166.614 47.3459 166.385 47.5116 166.427 47.7499C166.458 47.9778 167.673 48.4025 167.673 48.4025L183.511 51.3134C183.511 51.3134 184.84 51.5102 185.577 51.4274C186.315 51.3445 187.187 50.9612 187.187 50.9612L192.993 52.0385C192.993 52.0385 193.844 52.2146 194.488 52.2146C195.132 52.2146 195.963 52.0385 195.963 52.0385L200.086 49.687C200.086 49.687 200.242 49.5109 200.169 49.2623C200.055 48.8376 199.702 48.7444 199.702 48.7444L193.034 47.4598C193.034 47.4598 193.273 47.3252 193.273 47.0248C193.273 46.6933 192.702 46.5793 192.702 46.5793L184.882 45.0669L168.764 46.0924L166.624 47.3355L166.614 47.3459Z" fill="url(#paint16_linear_319_13862)"/>
<path d="M200.188 49.3554C200.199 49.5522 200.085 49.6869 200.085 49.6869L195.962 52.0384C195.962 52.0384 195.131 52.2145 194.487 52.2145C193.843 52.2145 192.991 52.0384 192.991 52.0384L187.186 50.9611C187.186 50.9611 186.314 51.3443 185.576 51.4272C184.839 51.5101 183.51 51.3133 183.51 51.3133L167.672 48.4024C167.672 48.4024 166.457 47.988 166.426 47.7498C166.426 47.7187 166.426 47.698 166.426 47.6772V48.6303C166.426 48.6614 166.426 48.6924 166.426 48.7235C166.457 48.9514 167.672 49.3761 167.672 49.3761L183.51 52.287C183.51 52.287 184.839 52.4838 185.576 52.401C186.314 52.3181 187.186 51.9348 187.186 51.9348L192.991 53.0122C192.991 53.0122 193.843 53.1883 194.487 53.1883C195.131 53.1883 195.962 53.0122 195.962 53.0122L200.085 50.6607C200.085 50.6607 200.178 50.5467 200.188 50.381V49.3658V49.3554Z" fill="url(#paint17_linear_319_13862)"/>
<path d="M168.629 47.2112L180.915 49.138L179.866 33.5166C179.866 33.5166 179.845 32.7189 179.243 31.8799C178.64 31.0408 177.571 30.6678 177.571 30.6678L168.847 27.6016L168.629 47.2112Z" fill="#FEFEFE"/>
<path d="M183.822 31.4452C183.822 31.4452 183.781 30.3472 183.241 29.6945C182.701 29.0419 181.527 28.524 181.527 28.524L172.97 25.4888L172.824 26.2864L181.33 29.3631C181.33 29.3631 182.306 29.8396 182.649 30.4404C182.94 30.948 183.075 31.8803 183.075 31.8803L184.248 46.7766L184.913 46.9216L183.802 31.4556L183.822 31.4452Z" fill="url(#paint18_linear_319_13862)"/>
<path d="M180.209 33.2165C180.209 33.2165 180.053 32.3981 179.503 31.6108C179.046 30.9686 177.924 30.4921 177.924 30.4921L169.533 27.4258L168.848 27.5915L177.571 30.6578C177.571 30.6578 178.641 31.0307 179.243 31.8698C179.846 32.7089 179.866 33.5065 179.866 33.5065L180.915 49.128L181.341 48.8794L180.22 33.2061L180.209 33.2165Z" fill="url(#paint19_linear_319_13862)"/>
<path d="M177.923 30.5023C177.923 30.5023 179.044 30.9788 179.501 31.621C180.052 32.398 180.207 33.2267 180.207 33.2267L181.298 48.382L184.258 46.7763L183.084 31.88C183.084 31.88 182.949 30.9477 182.658 30.4401C182.316 29.8393 181.339 29.3628 181.339 29.3628L172.834 26.2861L170.414 27.7468L177.923 30.4919V30.5023Z" fill="#FEFEFE"/>
<path d="M184.185 31.2788C184.185 31.2788 184.206 30.2326 183.437 29.4038C182.71 28.6165 181.744 28.2125 181.744 28.2125L173.353 25.312L172.969 25.4985L181.526 28.5337C181.526 28.5337 182.689 29.062 183.24 29.7042C183.78 30.3569 183.821 31.4549 183.821 31.4549L184.933 46.921L185.203 46.7656L184.185 31.2788Z" fill="url(#paint20_linear_319_13862)"/>
<path d="M252.853 95.6707C252.853 95.6707 254.525 95.6707 254.972 93.112C255.408 90.543 254.006 90.2011 254.006 90.2011C254.006 90.2011 253.029 89.9525 252.469 92.5734C251.856 95.4532 252.853 95.6707 252.853 95.6707Z" fill="#435461"/>
<path d="M275.077 77.2215C275.077 77.2215 276.666 77.2215 277.092 74.7871C277.518 72.3424 276.178 72.0213 276.178 72.0213C276.178 72.0213 275.254 71.783 274.724 74.2795C274.143 77.0143 275.088 77.2215 275.088 77.2215H275.077Z" fill="#435461"/>
<path d="M264.037 212.22C264.037 212.22 265.584 212.345 265.968 210.097C266.353 207.849 265.221 207.548 265.221 207.548C265.221 207.548 264.577 207.258 263.881 209.62C263.154 212.086 264.037 212.22 264.037 212.22Z" fill="#435461"/>
<path d="M243.34 237.186C243.34 237.186 244.971 237.321 245.386 234.938C245.791 232.555 244.597 232.245 244.597 232.245C244.597 232.245 243.912 231.944 243.174 234.441C242.406 237.051 243.34 237.186 243.34 237.186Z" fill="#435461"/>
<path d="M196.421 50.0813C196.421 50.0813 196.432 48.4342 193.825 48.3513C191.675 48.2892 191.125 49.5737 191.125 49.5737C191.125 49.5737 190.585 50.6717 193.534 50.7546C196.473 50.8375 196.421 50.0709 196.421 50.0709V50.0813Z" fill="url(#paint21_radial_319_13862)"/>
<path d="M82.1569 29.1246C82.1569 29.1246 82.0634 27.8297 79.7994 27.7572C77.8262 27.6951 77.3173 28.8864 77.3173 28.8864C77.3173 28.8864 76.8188 29.8912 79.5294 29.9741C82.2296 30.0569 82.1569 29.1246 82.1569 29.1246Z" fill="url(#paint22_radial_319_13862)"/>
<path d="M260.902 52.4739C260.902 52.4739 260.756 50.9407 258.347 50.7646C255.937 50.5885 255.75 51.9145 255.75 51.9145C255.75 51.9145 255.356 52.9711 258.077 53.1058C260.798 53.2405 260.902 52.4739 260.902 52.4739Z" fill="url(#paint23_radial_319_13862)"/>
<path d="M237.816 69.2865C237.816 69.2865 237.65 67.4633 234.784 67.2561C231.917 67.0489 231.699 68.6235 231.699 68.6235C231.699 68.6235 231.232 69.8769 234.462 70.0427C237.692 70.2084 237.816 69.2968 237.816 69.2968V69.2865Z" fill="url(#paint24_radial_319_13862)"/>
<path d="M55.7319 16.3732C55.7319 16.3732 55.5345 15.2337 53.7171 15.099C51.8997 14.9644 51.1104 16.0935 51.1104 16.0935C51.1104 16.0935 50.9962 16.974 53.1875 16.974C55.3788 16.974 55.7319 16.3732 55.7319 16.3732Z" fill="url(#paint25_radial_319_13862)"/>
<path d="M24.541 28.3888C24.541 28.3888 24.1049 27.3218 22.2874 27.1871C20.47 27.0525 19.6807 28.337 19.6807 28.337C19.6807 28.337 19.5665 29.2175 21.7578 29.2175C24.1568 29.2175 24.541 28.3784 24.541 28.3784V28.3888Z" fill="url(#paint26_radial_319_13862)"/>
<path d="M265.52 118.596L265.592 117.083C265.592 117.083 265.572 116.265 265.821 115.519C266.081 114.773 266.517 113.955 266.517 113.955L271.304 109.521C271.304 109.521 271.72 109.252 271.896 109.521C272.062 109.79 272.042 111.272 272.042 111.272V112.494L273.953 110.598C273.953 110.598 274.223 110.381 274.534 110.557C274.846 110.743 274.68 112.422 274.68 112.422L273.942 122.729C273.942 122.729 273.849 123.931 273.631 124.707C273.423 125.495 273.07 126.085 273.07 126.085L270.858 128.292L270.359 132.218L265.395 137.19C265.395 137.19 264.907 137.76 264.554 137.76C264.201 137.76 264.19 137.045 264.19 137.045L264.17 134.797L262.477 136.486C262.477 136.486 262.082 136.91 261.698 136.828C261.262 136.734 261.262 136.03 261.262 136.03L262.196 123.734C262.196 123.734 262.269 122.491 262.56 121.828C262.851 121.175 263.401 120.553 263.401 120.553L265.53 118.565L265.52 118.596Z" fill="url(#paint27_linear_319_13862)"/>
<path d="M261.254 136.061L262.189 123.765C262.189 123.765 262.262 122.522 262.553 121.859C262.843 121.206 263.394 120.585 263.394 120.585L265.523 118.596L265.595 117.083C265.595 117.083 265.575 116.265 265.824 115.519C266.084 114.773 266.52 113.955 266.52 113.955L271.307 109.521C271.307 109.521 271.546 109.366 271.733 109.407L270.788 109.21C270.788 109.21 270.601 109.179 270.508 109.179C270.414 109.179 270.259 109.2 270.259 109.2L265.336 113.654C265.336 113.654 264.9 114.141 264.63 115.063C264.349 115.985 264.36 116.948 264.36 116.948V118.119L262.646 119.828C262.646 119.828 261.763 120.667 261.358 121.475C260.953 122.283 260.943 123.589 260.943 123.589L260.133 135.999C260.133 135.999 260.133 136.237 260.309 136.392C260.465 136.527 260.735 136.651 260.735 136.651L261.68 136.859C261.244 136.765 261.244 136.061 261.244 136.061H261.254Z" fill="url(#paint28_linear_319_13862)"/>
<path d="M272.043 112.504L273.954 110.609C273.954 110.609 274.151 110.453 274.4 110.515L273.632 110.308C273.632 110.308 273.227 110.163 272.978 110.37L272.053 111.292V112.515L272.043 112.504Z" fill="#6EB133"/>
<path d="M264.181 137.066L264.161 134.818L263.008 135.968V136.993C263.008 137.304 263.413 137.491 263.413 137.491L264.42 137.749C264.181 137.615 264.171 137.066 264.171 137.066H264.181Z" fill="url(#paint29_linear_319_13862)"/>
<path d="M262.93 127.711L263.148 124.199C263.148 124.199 265.879 124.562 265.619 126.872C265.433 128.519 262.93 127.711 262.93 127.711Z" fill="#86BE54"/>
<path d="M273.023 118.036L273.231 114.7C273.231 114.7 275.827 115.042 275.578 117.228C275.402 118.792 273.023 118.025 273.023 118.025V118.036Z" fill="#B8C8D4"/>
<path d="M274.041 113.903L273.23 114.711C273.23 114.711 275.827 115.053 275.578 117.239C275.536 117.612 275.37 117.84 275.141 117.995C275.141 117.995 276.481 117.052 276.481 116.255C276.481 114.152 274.041 113.903 274.041 113.903Z" fill="url(#paint30_linear_319_13862)"/>
<path d="M263.996 123.351L263.145 124.2C263.145 124.2 265.876 124.563 265.616 126.873C265.575 127.256 265.398 127.505 265.159 127.67C265.159 127.67 266.572 126.676 266.572 125.837C266.572 123.62 263.996 123.361 263.996 123.361V123.351Z" fill="url(#paint31_linear_319_13862)"/>
<path d="M212.34 62.76L214.593 61.3408L220.264 62.3767L217.948 63.9306L212.34 62.76Z" fill="url(#paint32_linear_319_13862)"/>
<g style="mix-blend-mode:multiply">
<path d="M54.2422 28.6269L58.1159 26.9487L58.2094 29.6317L57.0566 29.4038L54.8757 30.3879L54.2422 29.321V28.6269Z" fill="#D0D0D2"/>
</g>
<path d="M44.8984 31.372L47.8063 29.9839L44.8984 29.4556V31.372Z" fill="#5EA91C"/>
<path d="M72.8576 22.5571L72.8992 25.613L61.5792 30.2746L61.4961 27.2187L72.8576 22.5571Z" fill="#FEFEFE"/>
<g style="mix-blend-mode:multiply">
<path d="M216.484 59.8497L217.211 59.3732L218.956 59.6943L218.976 56.5244L215.477 58.907V59.7772L216.484 59.8497Z" fill="#D0D0D2"/>
</g>
<path d="M50.3018 32.4391L53.4797 31.1546C53.4797 31.1546 53.9886 30.7609 54.1652 30.1187C54.3417 29.4764 54.2586 28.6166 54.2586 28.6166L65.7448 23.6546V22.9502L50.2188 29.2278L50.3018 32.4391Z" fill="#FEFEFE"/>
<path d="M212.34 59.8491L212.309 63.1847L214.863 61.8173C214.863 61.8173 215.289 61.2786 215.393 60.5431C215.497 59.8076 215.476 58.9064 215.476 58.9064L224.854 52.6185V51.6758L212.34 59.8491Z" fill="#FEFEFE"/>
<path d="M58.1055 26.6377L58.2093 29.6315L61.5742 30.2737L61.4911 27.2178L58.1055 26.6377Z" fill="url(#paint33_linear_319_13862)"/>
<path d="M214.562 63.227C214.562 63.227 214.864 59.736 216.162 59.5081C216.66 59.4149 216.837 61.756 216.837 61.756L214.562 63.227Z" fill="url(#paint34_linear_319_13862)"/>
<path d="M216.162 59.5079C216.162 59.5079 216.182 59.5079 216.193 59.5079L213.825 59.166C213.825 59.166 213.451 59.3318 212.921 60.3366C212.496 61.1446 212.34 62.771 212.34 62.771L214.562 63.2371C214.562 63.2371 214.863 59.7461 216.162 59.5182V59.5079Z" fill="url(#paint35_linear_319_13862)"/>
<path d="M205.27 62.0563L207.762 60.2331L205.27 59.7773V62.0563Z" fill="#A22826"/>
<path d="M198.66 60.2743L201.028 58.8447L203.51 59.2487V61.2377L198.66 60.2743Z" fill="#829FB7"/>
<path d="M201.352 60.8024C201.352 60.8024 201.674 57.2596 202.764 57.0835L204.623 57.415L203.522 61.2168L201.362 60.792L201.352 60.8024Z" fill="url(#paint36_linear_319_13862)"/>
<path d="M54.7734 33.3199L57.6813 32.0976V31.6729L54.7734 32.8331V33.3199Z" fill="#79B742"/>
<path d="M43.499 31.0923L39.7188 30.3361V29.9839L43.4886 30.7194L43.499 31.0923Z" fill="url(#paint37_linear_319_13862)"/>
<path d="M57.6821 31.6727L53.4345 30.7715L50.2773 31.9731L54.7742 32.8329L57.6821 31.6727Z" fill="url(#paint38_linear_319_13862)"/>
<path d="M39.7188 29.9843L42.3982 28.938L43.904 29.4663L43.4886 30.7197L39.7188 29.9843Z" fill="#87A6BC"/>
<path d="M46.6797 24.5044L46.7212 26.7316L49.7434 25.6542V25.0534L46.6797 24.5044Z" fill="url(#paint39_linear_319_13862)"/>
<path d="M49.7461 25.6544L59.0617 21.8837L59.0721 21.5107L49.7461 25.0535V25.6544Z" fill="#77B640"/>
<path d="M52.1432 32.3259C52.1432 32.3259 52.2886 28.7624 54.0022 29.0524C54.7084 29.1664 55.0511 31.1139 55.0511 31.1139L52.1328 32.3259H52.1432Z" fill="#A5BAC8"/>
<path d="M54.0057 29.062L52.2194 28.772C50.7551 28.772 50.2773 31.9833 50.2773 31.9833L52.1363 32.3458C52.1363 32.3458 52.2817 28.7823 53.9953 29.0724L54.0057 29.062Z" fill="url(#paint40_linear_319_13862)"/>
<path d="M41.9297 30.4192C41.9297 30.4192 42.0024 27.0939 43.5083 27.1768L44.9103 27.4047L43.4979 30.7196L41.9297 30.4192Z" fill="url(#paint41_linear_319_13862)"/>
<path d="M44.8993 31.3723V29.4558L48.7418 30.1603L48.8041 32.1492L50.2996 32.4393L50.2062 29.2279L43.4453 27.9849L43.4972 31.0926L44.8993 31.3723Z" fill="#FEFEFE"/>
<path d="M218.976 56.5246L223.348 57.3948L232.497 51.2104L213.897 47.7505L204.426 53.8002L208.601 54.66L216.005 49.9362L226.058 51.6973L218.976 56.5246Z" fill="url(#paint42_linear_319_13862)"/>
<path d="M212.339 63.3094V59.8495L203.512 58.1299V61.6727L205.267 62.056V59.777L210.324 60.7196V62.9676L212.339 63.3094Z" fill="#FEFEFE"/>
<path d="M212.339 59.8495L224.854 51.6659L216.161 50.0913L203.512 58.1299L212.339 59.8495Z" fill="url(#paint43_linear_319_13862)"/>
<path d="M46.6797 24.5047L49.7434 25.0538L59.0694 21.511L66.8272 22.9509L58.1036 26.6387L61.4892 27.2188L72.8507 22.5572L58.2178 19.8535L46.6797 24.5047Z" fill="#FEFEFE"/>
<path d="M50.2062 29.2281L65.7322 22.9609L59.0752 21.666L43.4453 27.985L50.2062 29.2281Z" fill="url(#paint44_linear_319_13862)"/>
<path d="M50.2981 32.4393L50.2773 31.9731L54.7742 32.8329V33.3198L50.2981 32.4393Z" fill="url(#paint45_linear_319_13862)"/>
<path d="M217.948 64.5114L212.34 63.3098V62.7607L217.948 63.9313V64.5114Z" fill="url(#paint46_linear_319_13862)"/>
<g style="mix-blend-mode:multiply">
<path d="M223.266 60.7192L228.344 60.5431L237.14 54.452L232.436 53.5093L232.415 54.5037L223.266 60.7192Z" fill="#D6D6D8"/>
</g>
<g style="mix-blend-mode:multiply">
<path d="M205.27 62.0561L210.327 61.9939V60.7198L207.762 60.2329L205.27 62.0561Z" fill="#D6D6D8"/>
</g>
<g style="mix-blend-mode:multiply">
<path d="M61.5742 30.2745L65.3649 30.3885L76.5914 25.6337L72.8838 24.8774L72.8942 25.6129L61.5742 30.2745Z" fill="#D6D6D8"/>
</g>
<g style="mix-blend-mode:multiply">
<path d="M44.8984 31.372H48.7826L48.741 30.16L47.8063 29.9839L44.8984 31.372Z" fill="#D6D6D8"/>
</g>
<defs>
<linearGradient id="paint0_linear_319_13862" x1="4.19792" y1="41.1309" x2="234.54" y2="87.9428" gradientUnits="userSpaceOnUse">
<stop stop-color="#E6E6E8"/>
<stop offset="0.4" stop-color="#E4E5E5"/>
<stop offset="0.63" stop-color="#E0E5DD"/>
<stop offset="0.82" stop-color="#D9E5CF"/>
<stop offset="0.99" stop-color="#CEE5BB"/>
<stop offset="1" stop-color="#CEE5BA"/>
</linearGradient>
<linearGradient id="paint1_linear_319_13862" x1="17.1515" y1="182.832" x2="226.138" y2="250.787" gradientUnits="userSpaceOnUse">
<stop stop-color="#F6F6F6"/>
<stop offset="0.5" stop-color="#F8F8F8"/>
<stop offset="1" stop-color="#F1F1F2"/>
</linearGradient>
<linearGradient id="paint2_linear_319_13862" x1="3.59557" y1="41.5867" x2="16.8118" y2="182.901" gradientUnits="userSpaceOnUse">
<stop stop-color="#E7E7E9"/>
<stop offset="0.5" stop-color="#E8E8EA"/>
<stop offset="1" stop-color="#E9E9EA"/>
</linearGradient>
<linearGradient id="paint3_linear_319_13862" x1="244.719" y1="168.992" x2="231.229" y2="168.201" gradientUnits="userSpaceOnUse">
<stop stop-color="#8493A0"/>
<stop offset="0.21" stop-color="#8493A0"/>
<stop offset="0.28" stop-color="#949FA9"/>
<stop offset="0.42" stop-color="#A9B0B6"/>
<stop offset="0.57" stop-color="#B8BBBF"/>
<stop offset="0.74" stop-color="#C1C2C5"/>
<stop offset="1" stop-color="#C4C5C7"/>
</linearGradient>
<linearGradient id="paint4_linear_319_13862" x1="121.502" y1="220.321" x2="122.474" y2="217.399" gradientUnits="userSpaceOnUse">
<stop stop-color="#C0DDA6"/>
<stop offset="0.24" stop-color="#C8E1B2"/>
<stop offset="0.62" stop-color="#D1E6BE"/>
<stop offset="1" stop-color="#D4E8C2"/>
</linearGradient>
<linearGradient id="paint5_linear_319_13862" x1="7.26085" y1="111.168" x2="9.78438" y2="110.939" gradientUnits="userSpaceOnUse">
<stop stop-color="#A6A7AE"/>
<stop offset="0.05" stop-color="#B4B5BB"/>
<stop offset="0.13" stop-color="#C3C3C8"/>
<stop offset="0.22" stop-color="#CCCCD0"/>
<stop offset="0.37" stop-color="#CFCFD3"/>
<stop offset="1" stop-color="#EBE9E1"/>
</linearGradient>
<linearGradient id="paint6_linear_319_13862" x1="265.482" y1="73.3994" x2="257.056" y2="61.5906" gradientUnits="userSpaceOnUse">
<stop stop-color="#B1BAC0"/>
<stop offset="0.14" stop-color="#A4B2BB"/>
<stop offset="0.34" stop-color="#96A9B7"/>
<stop offset="0.4" stop-color="#8EA5B6"/>
<stop offset="0.71" stop-color="#6D96B6"/>
<stop offset="1" stop-color="#749CB6"/>
</linearGradient>
<radialGradient id="paint7_radial_319_13862" cx="0" cy="0" r="1" gradientUnits="userSpaceOnUse" gradientTransform="translate(240.41 73.8543) scale(15.2561 15.2174)">
<stop stop-color="#324656"/>
<stop offset="0.16" stop-color="#283746"/>
<stop offset="0.29" stop-color="#253240"/>
<stop offset="0.45" stop-color="#28333F"/>
<stop offset="0.58" stop-color="#33393F"/>
<stop offset="0.67" stop-color="#3F3F3F"/>
<stop offset="0.75" stop-color="#424245"/>
<stop offset="1" stop-color="#434447"/>
</radialGradient>
<radialGradient id="paint8_radial_319_13862" cx="0" cy="0" r="1" gradientUnits="userSpaceOnUse" gradientTransform="translate(226.192 250.404) scale(12.6597 12.6277)">
<stop stop-color="#494946"/>
<stop offset="0.63" stop-color="#5A5958"/>
<stop offset="0.65" stop-color="#515253"/>
<stop offset="0.66" stop-color="#2C3540"/>
<stop offset="1" stop-color="#535E6A"/>
</radialGradient>
<linearGradient id="paint9_linear_319_13862" x1="220.764" y1="60.264" x2="221.467" y2="57.0209" gradientUnits="userSpaceOnUse">
<stop stop-color="#B4B4B8"/>
<stop offset="1" stop-color="#93ABBD"/>
</linearGradient>
<linearGradient id="paint10_linear_319_13862" x1="201.007" y1="61.5589" x2="201.493" y2="58.1712" gradientUnits="userSpaceOnUse">
<stop stop-color="#A8D085"/>
<stop offset="1" stop-color="#BEDCA3"/>
</linearGradient>
<linearGradient id="paint11_linear_319_13862" x1="73.8916" y1="30.7201" x2="104.082" y2="31.8446" gradientUnits="userSpaceOnUse">
<stop stop-color="#8FA4BA"/>
<stop offset="1" stop-color="#90A9BC"/>
</linearGradient>
<linearGradient id="paint12_linear_319_13862" x1="73.6318" y1="30.4296" x2="79.4879" y2="31.6163" gradientUnits="userSpaceOnUse">
<stop stop-color="#92C566"/>
<stop offset="0.03" stop-color="#A1CD7B"/>
<stop offset="0.06" stop-color="#ADD38C"/>
<stop offset="0.1" stop-color="#B5D798"/>
<stop offset="0.15" stop-color="#BADA9F"/>
<stop offset="0.31" stop-color="#BCDBA1"/>
<stop offset="1" stop-color="#C3DFAB"/>
</linearGradient>
<linearGradient id="paint13_linear_319_13862" x1="91.7144" y1="15.5236" x2="98.234" y2="13.7127" gradientUnits="userSpaceOnUse">
<stop stop-color="#D9EBC9"/>
<stop offset="1" stop-color="#E6F1DB"/>
</linearGradient>
<linearGradient id="paint14_linear_319_13862" x1="91.6289" y1="15.3467" x2="98.2859" y2="15.3467" gradientUnits="userSpaceOnUse">
<stop stop-color="#888F9A"/>
<stop offset="1" stop-color="#A3A8AD"/>
</linearGradient>
<linearGradient id="paint15_linear_319_13862" x1="171.455" y1="26.5243" x2="106.917" y2="-0.296998" gradientUnits="userSpaceOnUse">
<stop stop-color="#606062"/>
<stop offset="0.07" stop-color="#555759"/>
<stop offset="0.14" stop-color="#3C4955"/>
<stop offset="0.2" stop-color="#324353"/>
<stop offset="0.32" stop-color="#445768"/>
<stop offset="0.56" stop-color="#5F6A76"/>
<stop offset="1" stop-color="#8C8B8E"/>
</linearGradient>
<linearGradient id="paint16_linear_319_13862" x1="200.2" y1="49.283" x2="166.635" y2="47.2632" gradientUnits="userSpaceOnUse">
<stop stop-color="#89A1B9"/>
<stop offset="1" stop-color="#879EB0"/>
</linearGradient>
<linearGradient id="paint17_linear_319_13862" x1="166.415" y1="50.4224" x2="200.188" y2="50.4224" gradientUnits="userSpaceOnUse">
<stop stop-color="#82BC4F"/>
<stop offset="0.06" stop-color="#A1CD7A"/>
<stop offset="0.47" stop-color="#B3D694"/>
<stop offset="0.53" stop-color="#7BB845"/>
<stop offset="0.56" stop-color="#77B640"/>
<stop offset="0.61" stop-color="#6CB130"/>
<stop offset="0.68" stop-color="#90C463"/>
<stop offset="0.72" stop-color="#9AC970"/>
<stop offset="0.76" stop-color="#9BCA73"/>
<stop offset="0.77" stop-color="#96C76C"/>
<stop offset="0.8" stop-color="#8BC15C"/>
<stop offset="0.82" stop-color="#77B640"/>
<stop offset="0.83" stop-color="#72B338"/>
<stop offset="0.89" stop-color="#6EB133"/>
<stop offset="1" stop-color="#73B43B"/>
</linearGradient>
<linearGradient id="paint18_linear_319_13862" x1="187.156" y1="44.9845" x2="175.922" y2="23.9009" gradientUnits="userSpaceOnUse">
<stop stop-color="#A9BCC9"/>
<stop offset="0.08" stop-color="#BFC8CF"/>
<stop offset="0.15" stop-color="#CDCFD2"/>
<stop offset="0.21" stop-color="#D2D2D4"/>
<stop offset="0.59" stop-color="#DBDCDE"/>
<stop offset="0.64" stop-color="#C7D0D8"/>
<stop offset="0.68" stop-color="#BBCAD5"/>
<stop offset="0.73" stop-color="#B8C8D4"/>
<stop offset="0.86" stop-color="#C2D0DA"/>
<stop offset="0.91" stop-color="#BFCDD8"/>
<stop offset="0.94" stop-color="#B6C7D3"/>
<stop offset="0.96" stop-color="#A7BBCA"/>
<stop offset="0.98" stop-color="#93ABBD"/>
<stop offset="1" stop-color="#7896AD"/>
</linearGradient>
<linearGradient id="paint19_linear_319_13862" x1="184.01" y1="47.253" x2="172.227" y2="25.9812" gradientUnits="userSpaceOnUse">
<stop stop-color="#A9BCCA"/>
<stop offset="0.03" stop-color="#A3BEB1"/>
<stop offset="0.08" stop-color="#9CC191"/>
<stop offset="0.13" stop-color="#97C47B"/>
<stop offset="0.17" stop-color="#95C56D"/>
<stop offset="0.21" stop-color="#94C669"/>
<stop offset="0.25" stop-color="#9AC777"/>
<stop offset="0.41" stop-color="#B3CEAE"/>
<stop offset="0.53" stop-color="#C3D3D1"/>
<stop offset="0.59" stop-color="#C9D5DE"/>
<stop offset="0.65" stop-color="#C1CFD9"/>
<stop offset="0.79" stop-color="#B8C9D4"/>
<stop offset="1" stop-color="#B6C7D3"/>
</linearGradient>
<linearGradient id="paint20_linear_319_13862" x1="188.069" y1="45.0149" x2="176.193" y2="23.7015" gradientUnits="userSpaceOnUse">
<stop stop-color="#A9BCCA"/>
<stop offset="0.03" stop-color="#A3BEB1"/>
<stop offset="0.08" stop-color="#9CC191"/>
<stop offset="0.13" stop-color="#97C47B"/>
<stop offset="0.17" stop-color="#95C56D"/>
<stop offset="0.21" stop-color="#94C669"/>
<stop offset="0.25" stop-color="#9AC777"/>
<stop offset="0.41" stop-color="#B3CEAE"/>
<stop offset="0.53" stop-color="#C3D3D1"/>
<stop offset="0.59" stop-color="#C9D5DE"/>
<stop offset="0.65" stop-color="#C1CFD9"/>
<stop offset="0.79" stop-color="#B8C9D4"/>
<stop offset="1" stop-color="#B6C7D3"/>
</linearGradient>
<radialGradient id="paint21_radial_319_13862" cx="0" cy="0" r="1" gradientUnits="userSpaceOnUse" gradientTransform="translate(192.132 50.5681) scale(4.22682 4.21614)">
<stop stop-color="#FFFEFF"/>
<stop offset="0.15" stop-color="white"/>
<stop offset="0.21" stop-color="#CDDBEB"/>
<stop offset="0.32" stop-color="#BEC8D7"/>
<stop offset="0.4" stop-color="#B7BFCE"/>
<stop offset="0.45" stop-color="#ABB8CA"/>
<stop offset="0.59" stop-color="#8EA7C1"/>
<stop offset="0.73" stop-color="#799BBA"/>
<stop offset="0.87" stop-color="#6D94B6"/>
<stop offset="1" stop-color="#6992B5"/>
</radialGradient>
<radialGradient id="paint22_radial_319_13862" cx="0" cy="0" r="1" gradientUnits="userSpaceOnUse" gradientTransform="translate(77.8677 29.6944) scale(4.34107 4.33008)">
<stop stop-color="#FFFEFF"/>
<stop offset="0.15" stop-color="white"/>
<stop offset="0.21" stop-color="#CDDBEB"/>
<stop offset="0.32" stop-color="#BEC8D7"/>
<stop offset="0.4" stop-color="#B7BFCE"/>
<stop offset="0.45" stop-color="#ABB8CA"/>
<stop offset="0.59" stop-color="#8EA7C1"/>
<stop offset="0.73" stop-color="#799BBA"/>
<stop offset="0.87" stop-color="#6D94B6"/>
<stop offset="1" stop-color="#6992B5"/>
</radialGradient>
<radialGradient id="paint23_radial_319_13862" cx="0" cy="0" r="1" gradientUnits="userSpaceOnUse" gradientTransform="translate(256.457 52.7432) scale(4.57994 4.56834)">
<stop stop-color="#FBFCFC"/>
<stop offset="0.02" stop-color="#D1D4D7"/>
<stop offset="0.04" stop-color="#ACB1B6"/>
<stop offset="0.05" stop-color="#8C939A"/>
<stop offset="0.07" stop-color="#727B83"/>
<stop offset="0.1" stop-color="#5E6871"/>
<stop offset="0.12" stop-color="#505B65"/>
<stop offset="0.16" stop-color="#48535E"/>
<stop offset="0.21" stop-color="#46515C"/>
<stop offset="0.33" stop-color="#36434F"/>
<stop offset="0.5" stop-color="#283644"/>
<stop offset="0.64" stop-color="#233240"/>
<stop offset="0.79" stop-color="#253443"/>
<stop offset="0.91" stop-color="#2C3E4D"/>
<stop offset="1" stop-color="#354A5A"/>
</radialGradient>
<radialGradient id="paint24_radial_319_13862" cx="0" cy="0" r="1" gradientUnits="userSpaceOnUse" gradientTransform="translate(232.156 69.4937) scale(5.71193 5.69748)">
<stop stop-color="#FBFCFC"/>
<stop offset="0.02" stop-color="#D1D4D7"/>
<stop offset="0.04" stop-color="#ACB1B6"/>
<stop offset="0.05" stop-color="#8C939A"/>
<stop offset="0.07" stop-color="#727B83"/>
<stop offset="0.1" stop-color="#5E6871"/>
<stop offset="0.12" stop-color="#505B65"/>
<stop offset="0.16" stop-color="#48535E"/>
<stop offset="0.21" stop-color="#46515C"/>
<stop offset="0.33" stop-color="#36434F"/>
<stop offset="0.5" stop-color="#283644"/>
<stop offset="0.64" stop-color="#233240"/>
<stop offset="0.79" stop-color="#253443"/>
<stop offset="0.91" stop-color="#2C3E4D"/>
<stop offset="1" stop-color="#354A5A"/>
</radialGradient>
<radialGradient id="paint25_radial_319_13862" cx="0" cy="0" r="1" gradientUnits="userSpaceOnUse" gradientTransform="translate(51.557 16.684) scale(4.15413 4.14362)">
<stop stop-color="#FBFCFC"/>
<stop offset="0.02" stop-color="#D1D4D7"/>
<stop offset="0.04" stop-color="#ACB1B6"/>
<stop offset="0.05" stop-color="#8C939A"/>
<stop offset="0.07" stop-color="#727B83"/>
<stop offset="0.1" stop-color="#5E6871"/>
<stop offset="0.12" stop-color="#505B65"/>
<stop offset="0.16" stop-color="#48535E"/>
<stop offset="0.21" stop-color="#46515C"/>
<stop offset="0.33" stop-color="#36434F"/>
<stop offset="0.5" stop-color="#283644"/>
<stop offset="0.64" stop-color="#233240"/>
<stop offset="0.79" stop-color="#253443"/>
<stop offset="0.91" stop-color="#2C3E4D"/>
<stop offset="1" stop-color="#354A5A"/>
</radialGradient>
<radialGradient id="paint26_radial_319_13862" cx="0" cy="0" r="1" gradientUnits="userSpaceOnUse" gradientTransform="translate(20.2207 28.9585) scale(4.36184 4.3508)">
<stop stop-color="#FBFCFC"/>
<stop offset="0.02" stop-color="#D1D4D7"/>
<stop offset="0.04" stop-color="#ACB1B6"/>
<stop offset="0.05" stop-color="#8C939A"/>
<stop offset="0.07" stop-color="#727B83"/>
<stop offset="0.1" stop-color="#5E6871"/>
<stop offset="0.12" stop-color="#505B65"/>
<stop offset="0.16" stop-color="#48535E"/>
<stop offset="0.21" stop-color="#46515C"/>
<stop offset="0.33" stop-color="#36434F"/>
<stop offset="0.5" stop-color="#283644"/>
<stop offset="0.64" stop-color="#233240"/>
<stop offset="0.79" stop-color="#253443"/>
<stop offset="0.91" stop-color="#2C3E4D"/>
<stop offset="1" stop-color="#354A5A"/>
</radialGradient>
<linearGradient id="paint27_linear_319_13862" x1="264.315" y1="136.921" x2="271.974" y2="109.066" gradientUnits="userSpaceOnUse">
<stop stop-color="#CBD6DF"/>
<stop offset="1" stop-color="#D0DAE2"/>
</linearGradient>
<linearGradient id="paint28_linear_319_13862" x1="259.24" y1="136.123" x2="268.968" y2="108.48" gradientUnits="userSpaceOnUse">
<stop stop-color="#6CB130"/>
<stop offset="0.06" stop-color="#73B43A"/>
<stop offset="0.12" stop-color="#77B640"/>
<stop offset="0.37" stop-color="#75B53D"/>
<stop offset="0.45" stop-color="#72B338"/>
<stop offset="0.53" stop-color="#6AB02E"/>
<stop offset="0.7" stop-color="#6EB133"/>
<stop offset="0.81" stop-color="#75B53D"/>
<stop offset="0.9" stop-color="#6AB02E"/>
<stop offset="1" stop-color="#6CB130"/>
</linearGradient>
<linearGradient id="paint29_linear_319_13862" x1="263.724" y1="137.532" x2="263.693" y2="134.849" gradientUnits="userSpaceOnUse">
<stop stop-color="#6AB02E"/>
<stop offset="1" stop-color="#80BB4D"/>
</linearGradient>
<linearGradient id="paint30_linear_319_13862" x1="273.272" y1="114.794" x2="276.227" y2="116.852" gradientUnits="userSpaceOnUse">
<stop stop-color="#A9BCCA"/>
<stop offset="0.3" stop-color="#ACBFCD"/>
<stop offset="0.33" stop-color="#B1C3D0"/>
<stop offset="0.83" stop-color="#CCD8E0"/>
<stop offset="0.94" stop-color="#C9D5DE"/>
<stop offset="1" stop-color="#C2D0DA"/>
</linearGradient>
<linearGradient id="paint31_linear_319_13862" x1="263.217" y1="124.065" x2="266.295" y2="126.559" gradientUnits="userSpaceOnUse">
<stop stop-color="#A9BCCA"/>
<stop offset="0.3" stop-color="#ACBFCD"/>
<stop offset="0.33" stop-color="#B1C3D0"/>
<stop offset="0.83" stop-color="#CCD8E0"/>
<stop offset="0.94" stop-color="#C9D5DE"/>
<stop offset="1" stop-color="#C2D0DA"/>
</linearGradient>
<linearGradient id="paint32_linear_319_13862" x1="220.181" y1="62.0763" x2="214.501" y2="62.8883" gradientUnits="userSpaceOnUse">
<stop stop-color="#BBCBD6"/>
<stop offset="1" stop-color="#ABBECC"/>
</linearGradient>
<linearGradient id="paint33_linear_319_13862" x1="61.6261" y1="30.253" x2="58.0318" y2="26.5354" gradientUnits="userSpaceOnUse">
<stop stop-color="#A1CD7A"/>
<stop offset="0.05" stop-color="#A8C590"/>
<stop offset="0.12" stop-color="#B0BDA7"/>
<stop offset="0.19" stop-color="#B5B8B6"/>
<stop offset="0.25" stop-color="#B7B7BB"/>
<stop offset="0.38" stop-color="#B4B7B6"/>
<stop offset="0.52" stop-color="#AEB7A9"/>
<stop offset="0.67" stop-color="#A2B792"/>
<stop offset="0.82" stop-color="#93B873"/>
<stop offset="0.98" stop-color="#7FB84C"/>
<stop offset="1" stop-color="#7DB947"/>
</linearGradient>
<linearGradient id="paint34_linear_319_13862" x1="215.476" y1="63.2995" x2="216.303" y2="59.5383" gradientUnits="userSpaceOnUse">
<stop stop-color="#A7BBC9"/>
<stop offset="0.45" stop-color="#A2B7C6"/>
<stop offset="0.48" stop-color="#A4B6C4"/>
<stop offset="0.68" stop-color="#B0B4BB"/>
<stop offset="0.88" stop-color="#B4B4B8"/>
<stop offset="1" stop-color="#65AD26"/>
</linearGradient>
<linearGradient id="paint35_linear_319_13862" x1="213.825" y1="63.0714" x2="214.61" y2="59.2895" gradientUnits="userSpaceOnUse">
<stop stop-color="#D9EBC9"/>
<stop offset="0.03" stop-color="#DFEED2"/>
<stop offset="0.07" stop-color="#E6F1DC"/>
<stop offset="0.13" stop-color="#E9F3E0"/>
<stop offset="0.28" stop-color="#F4F4F5"/>
<stop offset="0.38" stop-color="#F0F3F6"/>
<stop offset="0.48" stop-color="white"/>
<stop offset="0.6" stop-color="white"/>
<stop offset="0.61" stop-color="#F5F7F8"/>
<stop offset="0.63" stop-color="#E4EAEE"/>
<stop offset="0.66" stop-color="#DBE3E8"/>
<stop offset="0.68" stop-color="#D8E1E7"/>
<stop offset="0.89" stop-color="#B8C8D4"/>
<stop offset="0.98" stop-color="#BACAD5"/>
<stop offset="1" stop-color="#BDCCD7"/>
</linearGradient>
<linearGradient id="paint36_linear_319_13862" x1="202.556" y1="61.0303" x2="203.321" y2="57.2071" gradientUnits="userSpaceOnUse">
<stop stop-color="#D9EBC9"/>
<stop offset="0.03" stop-color="#DFEED2"/>
<stop offset="0.07" stop-color="#E6F1DC"/>
<stop offset="0.13" stop-color="#E9F3E0"/>
<stop offset="0.28" stop-color="#F4F4F5"/>
<stop offset="0.38" stop-color="#F0F3F6"/>
<stop offset="0.48" stop-color="white"/>
<stop offset="0.6" stop-color="white"/>
<stop offset="0.61" stop-color="#F5F7F8"/>
<stop offset="0.63" stop-color="#E4EAEE"/>
<stop offset="0.66" stop-color="#DBE3E8"/>
<stop offset="0.68" stop-color="#D8E1E7"/>
<stop offset="0.89" stop-color="#B8C8D4"/>
<stop offset="0.98" stop-color="#BACAD5"/>
<stop offset="1" stop-color="#BDCCD7"/>
</linearGradient>
<linearGradient id="paint37_linear_319_13862" x1="41.5673" y1="30.7815" x2="42.053" y2="27.7874" gradientUnits="userSpaceOnUse">
<stop stop-color="#BEDCA3"/>
<stop offset="0.38" stop-color="#C0DDA6"/>
<stop offset="0.68" stop-color="#C7E1B0"/>
<stop offset="0.96" stop-color="#D2E7C0"/>
<stop offset="1" stop-color="#D5E9C4"/>
</linearGradient>
<linearGradient id="paint38_linear_319_13862" x1="50.2773" y1="31.8074" x2="57.6821" y2="31.8074" gradientUnits="userSpaceOnUse">
<stop stop-color="#6F88A1"/>
<stop offset="1" stop-color="#83909E"/>
</linearGradient>
<linearGradient id="paint39_linear_319_13862" x1="47.8117" y1="27.0216" x2="48.2664" y2="24.794" gradientUnits="userSpaceOnUse">
<stop stop-color="#9BCA73"/>
<stop offset="1" stop-color="#CEE5BA"/>
</linearGradient>
<linearGradient id="paint40_linear_319_13862" x1="51.7624" y1="32.263" x2="52.4859" y2="28.8645" gradientUnits="userSpaceOnUse">
<stop stop-color="#E0EFD4"/>
<stop offset="0.02" stop-color="#E3F0D8"/>
<stop offset="0.07" stop-color="#EAF3E2"/>
<stop offset="0.13" stop-color="#EDF5E6"/>
<stop offset="0.28" stop-color="#F7F7F7"/>
<stop offset="0.38" stop-color="#F1F5F7"/>
<stop offset="0.48" stop-color="white"/>
<stop offset="0.6" stop-color="white"/>
<stop offset="0.61" stop-color="#F9FAFB"/>
<stop offset="0.63" stop-color="#E8EDF1"/>
<stop offset="0.65" stop-color="#DFE5EA"/>
<stop offset="0.68" stop-color="#DCE3E9"/>
<stop offset="0.89" stop-color="#BFCDD8"/>
<stop offset="0.97" stop-color="#C1CED9"/>
<stop offset="1" stop-color="#C6D2DC"/>
</linearGradient>
<linearGradient id="paint41_linear_319_13862" x1="43.0409" y1="30.5849" x2="43.6817" y2="27.1969" gradientUnits="userSpaceOnUse">
<stop stop-color="#E0EFD4"/>
<stop offset="0.02" stop-color="#E3F0D8"/>
<stop offset="0.07" stop-color="#EAF3E2"/>
<stop offset="0.13" stop-color="#EDF5E6"/>
<stop offset="0.28" stop-color="#F7F7F7"/>
<stop offset="0.38" stop-color="#F1F5F7"/>
<stop offset="0.48" stop-color="white"/>
<stop offset="0.6" stop-color="white"/>
<stop offset="0.61" stop-color="#F9FAFB"/>
<stop offset="0.63" stop-color="#E8EDF1"/>
<stop offset="0.65" stop-color="#DFE5EA"/>
<stop offset="0.68" stop-color="#DCE3E9"/>
<stop offset="0.89" stop-color="#BFCDD8"/>
<stop offset="0.97" stop-color="#C1CED9"/>
<stop offset="1" stop-color="#C6D2DC"/>
</linearGradient>
<linearGradient id="paint42_linear_319_13862" x1="233.017" y1="51.2104" x2="204.448" y2="53.9277" gradientUnits="userSpaceOnUse">
<stop stop-color="#87A1B7"/>
<stop offset="1" stop-color="#85A4B9"/>
</linearGradient>
<linearGradient id="paint43_linear_319_13862" x1="224.77" y1="51.6555" x2="203.511" y2="58.368" gradientUnits="userSpaceOnUse">
<stop stop-color="#88A3BB"/>
<stop offset="1" stop-color="#88A0B9"/>
</linearGradient>
<linearGradient id="paint44_linear_319_13862" x1="72.7943" y1="22.184" x2="43.7823" y2="27.4306" gradientUnits="userSpaceOnUse">
<stop stop-color="#8FA5B8"/>
<stop offset="1" stop-color="#90A4B7"/>
</linearGradient>
<linearGradient id="paint45_linear_319_13862" x1="52.5413" y1="32.5636" x2="53.0271" y2="29.5591" gradientUnits="userSpaceOnUse">
<stop stop-color="#BEDCA3"/>
<stop offset="0.38" stop-color="#C0DDA6"/>
<stop offset="0.68" stop-color="#C7E1B0"/>
<stop offset="0.96" stop-color="#D2E7C0"/>
<stop offset="1" stop-color="#D5E9C4"/>
</linearGradient>
<linearGradient id="paint46_linear_319_13862" x1="212.34" y1="63.6309" x2="217.948" y2="63.6309" gradientUnits="userSpaceOnUse">
<stop stop-color="#A8D085"/>
<stop offset="1" stop-color="#BEDCA3"/>
</linearGradient>
</defs>
</svg>