<svg xmlns="http://www.w3.org/2000/svg" width="281" height="255" viewBox="0 0 281 255" fill="none">
<path d="M17.1716 182.804L225.815 249.628L234.647 88.1348L4.04297 41.0957L17.1716 182.804Z" fill="url(#paint0_linear_319_13238)"/>
<path d="M234.647 88.1347L235.329 87.6941L3.33984 40.5449L4.04245 41.0956L234.647 88.1347Z" fill="url(#paint1_linear_319_13238)"/>
<path d="M234.649 88.1349L235.332 87.6943L226.348 250.589L225.816 249.628L234.649 88.1349Z" fill="#FCFEF5"/>
<path d="M225.815 249.627L226.347 250.588L16.4492 183.314L17.1719 182.803L225.815 249.627Z" fill="url(#paint2_linear_319_13238)"/>
<path d="M17.1711 182.804L4.04245 41.0956L3.33984 40.5449L16.4484 183.314L17.1711 182.804Z" fill="url(#paint3_linear_319_13238)"/>
<path d="M3.33984 40.5447C3.33984 40.5447 3.33984 36.009 4.68483 33.626C6.02981 31.243 8.62944 29.3105 8.62944 29.3105L240.378 73.9566C240.378 73.9566 237.909 77.1707 236.955 79.9942C236.002 82.8278 235.319 87.6738 235.319 87.6738L3.33984 40.5447Z" fill="url(#paint4_linear_319_13238)"/>
<path d="M235.331 87.694C235.331 87.694 239.948 88.2947 243.451 88.0444C246.954 87.8041 249.965 86.3022 249.965 86.3022L239.516 248.596C239.516 248.596 237.619 250.198 234.287 250.929C230.955 251.66 226.348 250.599 226.348 250.599L235.331 87.694Z" fill="url(#paint5_linear_319_13238)"/>
<path d="M226.347 250.589C226.347 250.589 226.357 252.171 226.698 253.262C227.039 254.364 227.441 254.684 227.441 254.684L18.4868 186.939C18.4868 186.939 17.9146 186.709 17.3425 185.667C16.7704 184.626 16.4492 183.314 16.4492 183.314L226.347 250.599V250.589Z" fill="url(#paint6_linear_319_13238)"/>
<path d="M3.3422 40.5449C3.3422 40.5449 2.70986 40.2946 1.64592 39.7539C0.632165 39.2433 0.511719 38.8027 0.511719 38.8027L13.7708 180.671C13.7708 180.671 13.8712 181.532 14.6742 182.133C15.4772 182.733 16.4508 183.314 16.4508 183.314L3.3422 40.5449Z" fill="url(#paint7_linear_319_13238)"/>
<path d="M17.3428 185.667C16.7706 184.626 16.4495 183.314 16.4495 183.314C16.4495 183.314 15.4859 182.733 14.6729 182.133C13.8699 181.532 13.7695 180.671 13.7695 180.671C13.7695 180.671 13.9402 182.413 15.2751 184.336C16.6 186.258 18.497 186.949 18.497 186.949C18.497 186.949 17.9249 186.718 17.3528 185.677L17.3428 185.667Z" fill="#536267"/>
<path d="M239.598 247.385L267.18 213.863L279.526 62.9531L249.936 86.703L239.598 247.385Z" fill="url(#paint8_linear_319_13238)"/>
<path d="M270.573 51.2079L240.08 73.9064L9.70703 29.5206L51.8632 13.4004L270.573 51.2079Z" fill="url(#paint9_linear_319_13238)"/>
<path d="M270.571 51.2083L271.575 50.8579L240.379 73.9669L240.078 73.9069L270.571 51.2083Z" fill="#B7BEC8"/>
<path d="M270.57 51.208L51.8599 13.4005L51.7695 12.8999L271.574 50.8576L270.57 51.208Z" fill="#B6BCC6"/>
<path d="M240.375 73.9672C240.375 73.9672 244.882 75.5592 247.23 78.593C249.579 81.6268 249.961 86.3027 249.961 86.3027L280.203 62.0322C280.203 62.0322 279.701 57.5365 277.673 54.8532C275.646 52.1698 271.571 50.8481 271.571 50.8481L240.375 73.9672Z" fill="url(#paint10_linear_319_13238)"/>
<path d="M280.21 62.042L279.527 62.9531L249.938 86.703L249.968 86.3025L280.21 62.042Z" fill="#A0A9B6"/>
<path d="M279.525 62.9531L267.18 213.863L267.39 214.023L280.208 62.042L279.525 62.9531Z" fill="#A1AAB7"/>
<path d="M267.178 213.862L239.596 247.384L239.516 248.596L267.389 214.023L267.178 213.862Z" fill="#9CA5B2"/>
<path d="M240.379 73.9666C240.379 73.9666 237.91 77.1806 236.956 80.0041C236.003 82.8377 235.32 87.6838 235.32 87.6838C235.32 87.6838 239.937 88.2845 243.44 88.0342C246.943 87.7939 249.955 86.292 249.955 86.292C249.955 86.292 249.573 81.6162 247.224 78.5824C244.876 75.5485 240.369 73.9565 240.369 73.9565L240.379 73.9666Z" fill="url(#paint11_radial_319_13238)"/>
<path d="M239.516 248.596C239.516 248.596 239.175 249.517 238.894 250.148C238.613 250.779 237.98 251.8 237.98 251.8L267.008 215.835L267.389 214.013L239.516 248.586V248.596Z" fill="#475F72"/>
<path d="M239.516 248.596C239.516 248.596 237.619 250.198 234.287 250.929C230.955 251.66 226.348 250.599 226.348 250.599C226.348 250.599 226.358 252.181 226.699 253.272C226.96 254.113 227.261 254.504 227.381 254.634L227.442 254.694C227.442 254.694 230.383 255.445 233.313 254.594C236.244 253.733 237.971 251.82 237.971 251.82C237.971 251.82 238.603 250.799 238.884 250.168C239.165 249.537 239.506 248.616 239.506 248.616L239.516 248.596Z" fill="url(#paint12_radial_319_13238)"/>
<path d="M105.388 163.706L90.332 148.687L95.6016 143.43L105.388 153.193L130.23 128.412L135.499 133.668L105.388 163.706Z" fill="#FEFEFE"/>
<path d="M170.24 154.148C169.749 125.692 146.723 89.6966 110.77 80.7154C82.2445 73.5864 59.0586 94.1622 59.0586 123.739C59.0586 159.795 84.8441 189.602 111.784 198.974C139.697 208.686 170.973 196.391 170.24 154.148ZM112.356 187.309C90.8062 179.86 70.2902 156.901 70.2902 127.314C70.2902 108.51 85.7575 88.7254 112.015 94.9833C136.144 100.73 156.419 128.025 157.152 152.195C158.116 183.855 132.38 194.228 112.356 187.309Z" fill="white"/>
<path d="M8.64062 29.3205L9.70457 29.5208L51.8607 13.4005L51.7704 12.8999L8.64062 29.3205Z" fill="#B0B7C2"/>
<path d="M51.7684 12.8999C51.7684 12.8999 51.3067 12.94 51.0758 12.97C50.845 12.99 50.4635 13.0801 50.4635 13.0801L5.89844 30.0014C5.89844 30.0014 7.01257 29.6009 7.43413 29.5007C7.85569 29.4006 8.63859 29.3305 8.63859 29.3305L51.7684 12.8999Z" fill="#BDC3CC"/>
<path d="M1.64424 39.7537C2.70818 40.2943 3.34052 40.5447 3.34052 40.5447C3.34052 40.5447 3.34052 36.009 4.68551 33.626C6.03049 31.243 8.63012 29.3105 8.63012 29.3105C8.63012 29.3105 7.83718 29.3806 7.42566 29.4808C7.0041 29.5809 5.88997 29.9814 5.88997 29.9814C5.88997 29.9814 3.23011 31.1829 1.88513 33.5859C0.550186 35.9889 0.5 38.7925 0.5 38.7925L0.520074 38.8325C0.580297 38.9527 0.811153 39.3231 1.6342 39.7436L1.64424 39.7537Z" fill="#5B6F79"/>
<path d="M280.204 62.0415L280.485 61.1704L267.768 213.542L267.387 214.022L280.204 62.0415Z" fill="#909AAA"/>
<path d="M278.668 55.0532C276.701 52.0294 272.465 50.7778 272.465 50.7778L271.582 50.8479C271.582 50.8479 275.657 52.1796 277.685 54.853C279.712 57.5363 280.214 62.032 280.214 62.032L280.495 61.1709C280.495 61.1709 280.646 58.077 278.678 55.0532H278.668Z" fill="#788A91"/>
<path d="M271.574 50.8576L51.7695 12.8999H52.5725C52.8335 12.8999 53.3253 12.95 53.3253 12.95L272.457 50.7775L271.574 50.8476V50.8576Z" fill="#B7BEC8"/>
<path d="M267.389 214.023L267.008 215.845C267.008 215.845 267.359 215.074 267.53 214.613C267.7 214.153 267.781 213.542 267.781 213.542L267.399 214.023H267.389Z" fill="#7F8A9C"/>
<path d="M217.934 64.5045L220.252 62.8424V62.3818L217.934 63.9238V64.5045Z" fill="#388DCD"/>
<path d="M232.488 51.2085L232.408 54.5126L223.254 60.7104L223.344 57.3963L232.488 51.2085Z" fill="url(#paint13_linear_319_13238)"/>
<path d="M223.255 60.7099L218.949 59.969L218.969 56.5146L223.345 57.3958L223.255 60.7099Z" fill="url(#paint14_linear_319_13238)"/>
<path d="M204.426 56.7052V53.7915L208.601 54.6526V57.5262L204.426 56.7052Z" fill="url(#paint15_linear_319_13238)"/>
<path d="M208.598 55.2031L216.005 50.5072L215.995 49.9365L208.598 54.6524V55.2031Z" fill="#2E87CB"/>
<path d="M216.006 50.5072L225.08 52.9403L226.053 51.6987L215.996 49.9365L216.006 50.5072Z" fill="#ADADB2"/>
<path d="M203.512 61.6713L198.664 60.7101V60.2695L203.512 61.2307V61.6713Z" fill="url(#paint16_linear_319_13238)"/>
<path d="M59.0781 21.8812L66.8268 23.6935L66.8369 22.9425L59.0781 21.5107V21.8812Z" fill="#788497"/>
<g style="mix-blend-mode:multiply">
<path d="M158.403 34.3166C154.789 34.0563 136.652 33.9462 133.28 33.5156C129.907 33.0751 124.648 31.5331 121.857 31.2227C119.067 30.9124 102.676 30.9023 102.676 30.9023L95.6602 36.0889C95.6602 36.0889 96.8445 36.0188 97.7178 35.7284C98.591 35.4481 99.8858 34.7572 99.8858 34.7572H111.961C113.647 34.7572 114.309 35.0275 118.113 35.418C121.927 35.8085 142.072 35.6884 148.084 36.189C154.097 36.6896 200.187 43.5482 200.187 44.5395C200.187 45.5307 185.202 45.1302 185.202 45.1302L189.819 47.7335C189.819 47.7335 195.37 48.7848 200.147 49.5057L195.179 53.1202C195.179 53.1202 196.735 53.1202 197.839 52.3793C198.933 51.6484 200.187 50.9575 200.187 50.9575C200.187 50.9575 201.121 50.4169 200.97 49.9262C200.91 49.736 200.78 49.6359 200.639 49.5758C203.54 49.9963 206.059 50.2767 206.742 50.0764C208.578 49.5458 207.896 48.7047 210.325 47.7335C212.754 46.7623 221.155 47.5833 221.155 45.8011C221.155 44.0188 162.026 34.5569 158.413 34.2966L158.403 34.3166Z" fill="#D1D1D3"/>
</g>
<path d="M74.5614 30.242C74.5614 30.242 73.7383 30.0418 73.7082 29.8616C73.6681 29.6513 73.8788 29.5612 73.8788 29.5612L79.0881 27.3985C79.0881 27.3985 79.5298 27.3184 80.0617 27.3184C80.5937 27.3184 80.9551 27.3985 80.9551 27.3985L86.8168 28.4398L101.712 30.3922L103.649 30.6525C103.649 30.6525 104.281 30.7427 104.281 31.1432C104.281 31.4736 103.91 31.6338 103.91 31.6338L97.2956 34.6876C97.2956 34.6876 96.3722 35.0681 95.6595 35.1382C94.9469 35.1983 93.7625 35.0381 93.7625 35.0381L80.0617 32.4548C80.0617 32.4548 78.9075 32.2846 78.9978 31.844C79.0681 31.4936 79.59 31.2233 79.59 31.2233L74.5714 30.252L74.5614 30.242Z" fill="url(#paint17_linear_319_13238)"/>
<path d="M103.911 31.6334L97.2961 34.6873C97.2961 34.6873 96.3727 35.0678 95.66 35.1378C94.9474 35.1979 93.763 35.0377 93.763 35.0377L80.0623 32.4545C80.0623 32.4545 78.9883 32.2943 78.9883 31.8838V32.885C79.0585 33.2655 80.0623 33.4057 80.0623 33.4057L93.763 35.9889C93.763 35.9889 94.9474 36.1491 95.66 36.089C96.3727 36.029 97.2961 35.6385 97.2961 35.6385L103.911 32.5846C103.911 32.5846 104.282 32.4244 104.282 32.094V31.1328C104.282 31.4632 103.911 31.6234 103.911 31.6234V31.6334Z" fill="url(#paint18_linear_319_13238)"/>
<path d="M78.9905 31.8338C79.0608 31.4834 79.5827 31.213 79.5827 31.213L74.5641 30.2418C74.5641 30.2418 73.741 30.0416 73.7109 29.8613V30.8225C73.741 31.0128 74.5641 31.203 74.5641 31.203L79.0808 32.0741C79.0106 32.004 78.9805 31.9239 78.9905 31.8338Z" fill="url(#paint19_linear_319_13238)"/>
<path d="M86.3164 31.8738L97.2369 33.616L96.6547 15.313L89.2774 15.5032C89.2774 15.5032 88.1432 15.6134 87.6212 16.134C87.0993 16.6547 87.0391 17.746 87.0391 17.746L86.3264 31.8738H86.3164Z" fill="url(#paint20_linear_319_13238)"/>
<path d="M98.0605 14.6224V13.481L93.7646 13.5711C93.7646 13.5711 92.0582 13.5711 91.5664 15.2832L97.5486 15.3433L98.0605 14.6224Z" fill="url(#paint21_linear_319_13238)"/>
<path d="M94.1362 13.4206C94.1362 13.4206 93.5541 13.4106 92.721 13.8506C92.721 13.8506 92.721 13.8506 92.7109 13.8506C93.2529 13.5706 93.7648 13.5706 93.7648 13.5706L98.0608 13.4806V13.3506L94.1362 13.4206Z" fill="#C5CBD3"/>
<path d="M87.6155 16.1443C88.1374 15.6237 89.2716 15.5135 89.2716 15.5135L96.6489 15.3233L97.0404 15.2031L89.9943 15.3233C89.9943 15.3233 88.1274 15.3233 87.5352 16.2344C87.5552 16.2044 87.5853 16.1743 87.6155 16.1543V16.1443Z" fill="#C5CBD3"/>
<path d="M96.6445 15.313L97.036 15.1929V16.074L98.2906 15.4532L101.844 27.3081L101.984 31.4833L97.2267 33.616L96.6445 15.313Z" fill="url(#paint22_linear_319_13238)"/>
<path d="M97.035 16.0744L98.2897 15.4536L98.0588 14.6226L93.1507 14.7127C93.1507 14.7127 92.3376 14.7127 91.625 15.2934L97.025 15.2033V16.0844L97.035 16.0744Z" fill="url(#paint23_linear_319_13238)"/>
<path d="M124.387 2.71736L139.112 4.75993L159.497 9.68612C159.497 9.68612 161.846 10.2168 162.609 10.7074C163.361 11.198 166.513 15.183 166.513 15.183C166.513 15.183 169.384 18.4371 169.524 19.6486C169.665 20.8702 169.625 23.7938 169.625 23.7938L169.153 40.1844L171.251 38.8027L171.973 19.7688C171.973 19.7688 171.983 18.7575 171.883 18.337C171.783 17.9064 171.261 17.2656 171.261 17.2656L168.641 14.1117L165.148 9.89638C165.148 9.89638 164.526 9.16546 164.174 8.92516C163.823 8.68486 162.84 8.50463 162.84 8.50463L140.125 3.32813L128.603 1.40572L108.478 0.00395559C108.478 0.00395559 108.107 -0.0160696 107.816 0.0339933C107.525 0.0740436 107.193 0.204207 107.193 0.204207L105.116 1.01523C105.116 1.01523 104.774 1.10534 104.503 1.29558C104.293 1.43575 103.871 1.85628 103.871 1.85628L124.397 2.71736H124.387Z" fill="url(#paint24_linear_319_13238)"/>
<path d="M98.4707 27.7687L102.205 28.3294C102.205 28.3294 103.118 28.4896 104.352 27.4383C105.587 26.387 105.477 25.5059 105.477 25.5059L105.256 13.8613C105.256 13.8613 105.426 12.4195 106.792 11.0578C108.157 9.69604 109.451 9.66601 109.451 9.66601C109.451 9.66601 114.681 10.3669 117.07 10.8375C119.468 11.2981 123.885 12.7799 124.547 12.9001C125.2 13.0302 129.335 13.8312 131.754 14.2718C134.173 14.7123 137.826 15.1229 138.619 15.203C139.412 15.273 146.659 15.9539 149.429 16.1542C152.19 16.3544 157.208 17.4157 157.208 17.4157C157.208 17.4157 158.915 18.0966 160.35 20.039C161.785 21.9815 162.106 23.4834 162.106 23.4834V35.5085C162.106 35.5085 162.137 36.6099 162.919 37.7012C163.702 38.8026 164.796 39.1931 164.796 39.1931L169.153 40.1843L169.624 23.7938C169.624 23.7938 169.664 20.8701 169.524 19.6485C169.373 18.427 166.513 15.1829 166.513 15.1829C166.513 15.1829 163.371 11.1979 162.608 10.7073C161.856 10.2167 159.497 9.68603 159.497 9.68603L139.111 4.75984L124.387 2.71728L105.697 1.34556C105.697 1.34556 105.055 1.26546 104.583 1.41564C104.112 1.56583 103.77 1.9363 103.77 1.9363L98.9023 6.53207C98.9023 6.53207 98.3402 7.04271 98.0692 7.54334C97.7881 8.04397 97.8885 9.04523 97.8885 9.04523L98.4908 27.7487L98.4707 27.7687Z" fill="#404344"/>
<path d="M109.914 9.72609C109.633 9.68604 109.463 9.66602 109.463 9.66602C109.463 9.66602 108.168 9.68604 106.803 11.0578C105.438 12.4195 105.267 13.8613 105.267 13.8613L105.488 25.5059C105.488 25.5059 105.598 26.387 104.364 27.4383C103.822 27.8989 103.34 28.1292 102.969 28.2393C103.591 28.0791 105.056 27.6686 105.639 27.0879C106.381 26.347 107.164 25.7362 107.335 24.9352C107.506 24.1342 107.475 23.5735 107.475 23.5735L107.325 13.611C107.325 13.611 107.485 11.6685 108.298 10.8575C109.101 10.0565 109.925 9.7361 109.925 9.7361L109.914 9.72609Z" fill="#471A1D"/>
<path d="M166.613 47.3434C166.613 47.3434 166.383 47.5136 166.423 47.7439C166.453 47.9742 167.667 48.3947 167.667 48.3947L183.506 51.3084C183.506 51.3084 184.841 51.5086 185.574 51.4285C186.316 51.3484 187.19 50.968 187.19 50.968L192.991 52.0493C192.991 52.0493 193.844 52.2195 194.487 52.2195C195.129 52.2195 195.962 52.0493 195.962 52.0493L200.087 49.7064C200.087 49.7064 200.238 49.5261 200.178 49.2858C200.067 48.8553 199.706 48.7652 199.706 48.7652L193.041 47.4836C193.041 47.4836 193.282 47.3434 193.282 47.053C193.282 46.7226 192.71 46.6125 192.71 46.6125L184.891 45.1006L168.771 46.1219L166.633 47.3634L166.613 47.3434Z" fill="url(#paint25_linear_319_13238)"/>
<path d="M200.179 49.3559C200.189 49.5562 200.079 49.6864 200.079 49.6864L195.954 52.0293C195.954 52.0293 195.12 52.1995 194.478 52.1995C193.836 52.1995 192.982 52.0293 192.982 52.0293L187.181 50.9479C187.181 50.9479 186.308 51.3284 185.565 51.4085C184.822 51.4886 183.497 51.2884 183.497 51.2884L167.659 48.3747C167.659 48.3747 166.444 47.9542 166.414 47.7239C166.414 47.6939 166.414 47.6738 166.414 47.6538V48.605C166.414 48.635 166.414 48.6651 166.414 48.6951C166.444 48.9254 167.659 49.3459 167.659 49.3459L183.497 52.2596C183.497 52.2596 184.832 52.4498 185.565 52.3797C186.308 52.2996 187.181 51.9192 187.181 51.9192L192.982 53.0005C192.982 53.0005 193.836 53.1707 194.478 53.1707C195.12 53.1707 195.954 53.0005 195.954 53.0005L200.079 50.6476C200.079 50.6476 200.169 50.5374 200.179 50.3672V49.3459V49.3559Z" fill="url(#paint26_linear_319_13238)"/>
<path d="M168.619 47.213L180.905 49.1354L179.851 33.5158C179.851 33.5158 179.831 32.7148 179.229 31.8738C178.626 31.0327 177.553 30.6622 177.553 30.6622L168.83 27.5884L168.609 47.203L168.619 47.213Z" fill="url(#paint27_linear_319_13238)"/>
<path d="M183.819 31.4438C183.819 31.4438 183.779 30.3424 183.237 29.6916C182.695 29.0408 181.53 28.5201 181.53 28.5201L172.979 25.4863L172.828 26.2773L181.34 29.3612C181.34 29.3612 182.323 29.8418 182.665 30.4325C182.956 30.9432 183.096 31.8743 183.096 31.8743L184.271 46.7731L184.943 46.9132L183.839 31.4438H183.819Z" fill="url(#paint28_linear_319_13238)"/>
<path d="M180.208 33.2157C180.208 33.2157 180.047 32.3947 179.495 31.6137C179.034 30.9729 177.91 30.4923 177.91 30.4923L169.518 27.4185L168.836 27.5887L177.558 30.6625C177.558 30.6625 178.622 31.033 179.234 31.8741C179.837 32.7151 179.857 33.5161 179.857 33.5161L180.911 49.1357L181.332 48.8854L180.208 33.2157Z" fill="url(#paint29_linear_319_13238)"/>
<path d="M177.918 30.4924C177.918 30.4924 179.042 30.963 179.504 31.6138C180.056 32.3948 180.216 33.2158 180.216 33.2158L181.311 48.3749L184.272 46.7628L183.097 31.8641C183.097 31.8641 182.957 30.9329 182.666 30.4223C182.324 29.8216 181.341 29.351 181.341 29.351L172.829 26.2671L170.41 27.7289L177.918 30.4824V30.4924Z" fill="url(#paint30_linear_319_13238)"/>
<path d="M184.18 31.2734C184.18 31.2734 184.2 30.2221 183.438 29.391C182.705 28.6101 181.741 28.1995 181.741 28.1995L173.35 25.2959L172.969 25.4761L181.52 28.5099C181.52 28.5099 182.685 29.0306 183.227 29.6814C183.769 30.3322 183.809 31.4336 183.809 31.4336L184.913 46.903L185.184 46.7528L184.17 31.2634L184.18 31.2734Z" fill="url(#paint31_linear_319_13238)"/>
<path d="M252.846 95.664C252.846 95.664 254.523 95.664 254.964 93.1008C255.406 90.5275 254.001 90.1871 254.001 90.1871C254.001 90.1871 253.027 89.9368 252.465 92.5601C251.853 95.4337 252.846 95.654 252.846 95.654V95.664Z" fill="#293844"/>
<path d="M275.067 77.2209C275.067 77.2209 276.663 77.2209 277.074 74.7878C277.496 72.3447 276.161 72.0243 276.161 72.0243C276.161 72.0243 275.237 71.784 274.705 74.2772C274.123 77.0106 275.067 77.2209 275.067 77.2209Z" fill="#293844"/>
<path d="M264.039 212.221C264.039 212.221 265.585 212.341 265.976 210.098C266.368 207.845 265.223 207.555 265.223 207.555C265.223 207.555 264.581 207.264 263.879 209.627C263.146 212.1 264.039 212.221 264.039 212.221Z" fill="#293844"/>
<path d="M243.33 237.192C243.33 237.192 244.966 237.322 245.378 234.939C245.789 232.556 244.585 232.246 244.585 232.246C244.585 232.246 243.902 231.945 243.16 234.438C242.387 237.052 243.33 237.182 243.33 237.182V237.192Z" fill="#293844"/>
<path d="M196.417 50.0865C196.417 50.0865 196.437 48.4344 193.817 48.3643C191.669 48.3043 191.117 49.5959 191.117 49.5959C191.117 49.5959 190.575 50.6873 193.526 50.7774C196.467 50.8675 196.417 50.0965 196.417 50.0965V50.0865Z" fill="url(#paint32_radial_319_13238)"/>
<path d="M82.1621 29.1203C82.1621 29.1203 82.0717 27.8287 79.8033 27.7586C77.836 27.6985 77.3241 28.88 77.3241 28.88C77.3241 28.88 76.8323 29.8812 79.5323 29.9613C82.2323 30.0414 82.152 29.1203 82.152 29.1203H82.1621Z" fill="url(#paint33_radial_319_13238)"/>
<path d="M260.883 52.47C260.883 52.47 260.743 50.938 258.334 50.7578C255.925 50.5876 255.734 51.9093 255.734 51.9093C255.734 51.9093 255.343 52.9706 258.063 53.1008C260.783 53.2309 260.883 52.47 260.883 52.47Z" fill="url(#paint34_radial_319_13238)"/>
<path d="M237.809 69.2912C237.809 69.2912 237.638 67.4689 234.777 67.2586C231.917 67.0484 231.696 68.6203 231.696 68.6203C231.696 68.6203 231.224 69.8819 234.456 70.0421C237.688 70.2023 237.809 69.2912 237.809 69.2912Z" fill="url(#paint35_radial_319_13238)"/>
<path d="M55.7352 16.3744C55.7352 16.3744 55.5445 15.233 53.7278 15.1028C51.9111 14.9726 51.1181 16.094 51.1181 16.094C51.1181 16.094 51.0077 16.9752 53.1958 16.9752C55.3839 16.9752 55.7352 16.3744 55.7352 16.3744Z" fill="url(#paint36_radial_319_13238)"/>
<path d="M24.5464 28.3895C24.5464 28.3895 24.1148 27.3182 22.2981 27.188C20.4814 27.0578 19.6884 28.3394 19.6884 28.3394C19.6884 28.3394 19.578 29.2205 21.7661 29.2205C24.165 29.2205 24.5464 28.3795 24.5464 28.3795V28.3895Z" fill="url(#paint37_radial_319_13238)"/>
<path d="M265.511 118.603L265.581 117.091C265.581 117.091 265.561 116.27 265.812 115.529C266.063 114.788 266.504 113.967 266.504 113.967L271.292 109.531C271.292 109.531 271.714 109.261 271.884 109.531C272.055 109.802 272.025 111.283 272.025 111.283V112.505L273.932 110.603C273.932 110.603 274.203 110.382 274.514 110.563C274.825 110.743 274.665 112.425 274.665 112.425L273.922 122.728C273.922 122.728 273.832 123.929 273.611 124.71C273.4 125.491 273.049 126.092 273.049 126.092L270.83 128.305L270.339 132.23L265.37 137.196C265.37 137.196 264.888 137.767 264.527 137.767C264.166 137.767 264.156 137.056 264.156 137.056L264.136 134.813L262.439 136.505C262.439 136.505 262.048 136.936 261.656 136.856C261.215 136.765 261.215 136.065 261.215 136.065L262.148 123.769C262.148 123.769 262.229 122.528 262.52 121.867C262.811 121.206 263.363 120.585 263.363 120.585L265.491 118.603H265.511Z" fill="url(#paint38_linear_319_13238)"/>
<path d="M261.245 136.065L262.179 123.769C262.179 123.769 262.259 122.528 262.55 121.867C262.841 121.206 263.393 120.585 263.393 120.585L265.521 118.603L265.591 117.091C265.591 117.091 265.571 116.27 265.822 115.529C266.073 114.788 266.515 113.967 266.515 113.967L271.303 109.531C271.303 109.531 271.543 109.381 271.724 109.421L270.781 109.221C270.781 109.221 270.6 109.191 270.5 109.191C270.399 109.191 270.249 109.211 270.249 109.211L265.33 113.667C265.33 113.667 264.899 114.157 264.618 115.078C264.337 115.999 264.347 116.961 264.347 116.961V118.132L262.64 119.834C262.64 119.834 261.757 120.675 261.346 121.486C260.944 122.287 260.924 123.599 260.924 123.599L260.121 136.005C260.121 136.005 260.121 136.245 260.292 136.395C260.452 136.535 260.713 136.655 260.713 136.655L261.657 136.856C261.215 136.766 261.215 136.065 261.215 136.065H261.245Z" fill="url(#paint39_linear_319_13238)"/>
<path d="M272.039 112.505L273.946 110.603C273.946 110.603 274.147 110.443 274.398 110.513L273.625 110.302C273.625 110.302 273.213 110.152 272.962 110.363L272.039 111.284V112.505Z" fill="#338ACC"/>
<path d="M264.176 137.066L264.156 134.823L263.012 135.975V137.006C263.012 137.316 263.423 137.497 263.423 137.497L264.427 137.757C264.186 137.617 264.176 137.076 264.176 137.076V137.066Z" fill="url(#paint40_linear_319_13238)"/>
<path d="M262.914 127.714L263.135 124.209C263.135 124.209 265.865 124.57 265.604 126.873C265.423 128.515 262.914 127.714 262.914 127.714Z" fill="#549DD4"/>
<path d="M273.008 118.042L273.219 114.708C273.219 114.708 275.808 115.048 275.567 117.241C275.397 118.803 273.008 118.042 273.008 118.042Z" fill="#B4BBC5"/>
<path d="M274.036 113.907L273.223 114.718C273.223 114.718 275.812 115.059 275.571 117.251C275.531 117.622 275.361 117.852 275.14 118.002C275.14 118.002 276.475 117.061 276.475 116.26C276.475 114.158 274.036 113.907 274.036 113.907Z" fill="url(#paint41_linear_319_13238)"/>
<path d="M263.986 123.349L263.133 124.2C263.133 124.2 265.863 124.56 265.602 126.863C265.562 127.254 265.381 127.504 265.14 127.654C265.14 127.654 266.555 126.663 266.555 125.822C266.555 123.609 263.986 123.349 263.986 123.349Z" fill="url(#paint42_linear_319_13238)"/>
<path d="M212.336 62.7631L214.594 61.3413L220.255 62.3826L217.937 63.9246L212.336 62.7631Z" fill="url(#paint43_linear_319_13238)"/>
<g style="mix-blend-mode:multiply">
<path d="M54.25 28.6299L58.1244 26.9478L58.2147 29.6311L57.0604 29.4008L54.8924 30.3921L54.25 29.3207V28.6299Z" fill="#CACACD"/>
</g>
<path d="M44.9023 31.3633L47.8031 29.9816L44.9023 29.4609V31.3633Z" fill="#1C7DC6"/>
<path d="M72.8582 22.5522L72.9084 25.6161L61.5864 30.282L61.4961 27.2181L72.8582 22.5522Z" fill="url(#paint44_linear_319_13238)"/>
<g style="mix-blend-mode:multiply">
<path d="M216.483 59.8488L217.205 59.3782L218.952 59.6986L218.972 56.5146L215.469 58.9077V59.7687L216.483 59.8488Z" fill="#CACACD"/>
</g>
<path d="M50.2935 32.4446L53.4652 31.1629C53.4652 31.1629 53.9771 30.7624 54.1477 30.1317C54.3184 29.4908 54.2381 28.6298 54.2381 28.6298L65.7206 23.6635V22.9526L50.2031 29.2305L50.2935 32.4446Z" fill="url(#paint45_linear_319_13238)"/>
<path d="M212.335 59.849L212.305 63.1832L214.854 61.8214C214.854 61.8214 215.276 61.2808 215.386 60.5499C215.486 59.8089 215.476 58.9178 215.476 58.9178L224.851 52.6299V51.6787L212.335 59.849Z" fill="url(#paint46_linear_319_13238)"/>
<path d="M58.1133 26.6377L58.2137 29.6315L61.5861 30.2823L61.4958 27.2184L58.1133 26.6377Z" fill="url(#paint47_linear_319_13238)"/>
<path d="M214.553 63.2235C214.553 63.2235 214.844 59.7292 216.149 59.5089C216.651 59.4188 216.821 61.7617 216.821 61.7617L214.543 63.2336L214.553 63.2235Z" fill="url(#paint48_linear_319_13238)"/>
<path d="M216.148 59.4986C216.148 59.4986 216.168 59.4986 216.178 59.4986L213.81 59.1582C213.81 59.1582 213.438 59.3184 212.906 60.3197C212.475 61.1307 212.324 62.7527 212.324 62.7527L214.542 63.2133C214.542 63.2133 214.834 59.7189 216.138 59.4986H216.148Z" fill="url(#paint49_linear_319_13238)"/>
<path d="M205.27 62.0519L207.749 60.2396L205.27 59.769V62.0519Z" fill="#0A72C2"/>
<path d="M198.664 60.2697L201.023 58.8379L203.512 59.2484V61.2309L198.664 60.2697Z" fill="#B7BEC8"/>
<path d="M201.344 60.8006C201.344 60.8006 201.665 57.2562 202.759 57.0859L204.616 57.4264L203.512 61.2311L201.344 60.8006Z" fill="url(#paint50_linear_319_13238)"/>
<path d="M54.7773 33.3254L57.6881 32.0939V31.6733L54.7773 32.8248V33.3254Z" fill="#4292D0"/>
<path d="M43.4966 31.0928L39.7227 30.3419V29.9814L43.4966 30.7124V31.0928Z" fill="url(#paint51_linear_319_13238)"/>
<path d="M57.6926 31.6736L53.4368 30.7725L50.2852 31.974L54.7818 32.825L57.6926 31.6736Z" fill="url(#paint52_linear_319_13238)"/>
<path d="M39.7227 29.9813L42.3925 28.9399L43.9082 29.4606L43.4966 30.7122L39.7227 29.9813Z" fill="#87A6BC"/>
<path d="M46.6914 24.5049L46.7416 26.7277L49.7528 25.6563V25.0556L46.6914 24.5049Z" fill="url(#paint53_linear_319_13238)"/>
<path d="M49.7539 25.6559L59.0784 21.8812V21.5107L49.7539 25.0552V25.6559Z" fill="#4091CF"/>
<path d="M52.1523 32.3245C52.1523 32.3245 52.3029 28.7701 54.0193 29.0504C54.7319 29.1706 55.0732 31.113 55.0732 31.113L52.1523 32.3245Z" fill="#9FA7B5"/>
<path d="M54.0168 29.0604L52.2402 28.77C50.7748 28.77 50.293 31.974 50.293 31.974L52.1599 32.3345C52.1599 32.3345 52.3104 28.78 54.0268 29.0604H54.0168Z" fill="url(#paint54_linear_319_13238)"/>
<path d="M41.9336 30.4121C41.9336 30.4121 42.0039 27.088 43.5094 27.1781L44.9146 27.3983L43.5094 30.7125L41.9436 30.4121H41.9336Z" fill="url(#paint55_linear_319_13238)"/>
<path d="M44.9046 31.3635V29.4611L48.7489 30.152L48.8091 32.1445L50.2946 32.4449L50.2143 29.2308L43.4492 27.9893L43.4994 31.0932L44.9046 31.3635Z" fill="url(#paint56_linear_319_13238)"/>
<path d="M218.97 56.5152L223.346 57.3963L232.49 51.2085L213.891 47.7441L204.426 53.7917L208.601 54.6528L215.999 49.9369L226.056 51.6991L218.97 56.5152Z" fill="url(#paint57_linear_319_13238)"/>
<path d="M217.937 64.5049L212.336 63.3034V62.7627L217.937 63.9242V64.5049Z" fill="url(#paint58_linear_319_13238)"/>
<path d="M212.338 63.3035V59.8491L203.516 58.127V61.6714L205.272 62.0519V59.769L210.331 60.7102V62.973L212.338 63.3035Z" fill="url(#paint59_linear_319_13238)"/>
<path d="M212.338 59.8492L224.855 51.6689L216.152 50.0869L203.516 58.127L212.338 59.8492Z" fill="url(#paint60_linear_319_13238)"/>
<path d="M46.6914 24.5045L49.7528 25.0552L59.0773 21.5107L66.836 22.9425L58.1137 26.6372L61.4963 27.2179L72.8584 22.552L58.2241 19.8486L46.6914 24.5045Z" fill="url(#paint61_linear_319_13238)"/>
<path d="M50.2143 29.2306L65.7318 22.9528L59.0771 21.6611L43.4492 27.9891L50.2143 29.2306Z" fill="url(#paint62_linear_319_13238)"/>
<path d="M50.2952 32.4447L50.2852 31.9741L54.7818 32.8252V33.3258L50.2952 32.4447Z" fill="url(#paint63_linear_319_13238)"/>
<g style="mix-blend-mode:multiply">
<path d="M223.254 60.7105L228.333 60.5403L237.135 54.4527L232.428 53.5015L232.408 54.5127L223.254 60.7105Z" fill="#D1D1D3"/>
</g>
<g style="mix-blend-mode:multiply">
<path d="M205.27 62.052L210.328 61.9919V60.7103L207.749 60.2397L205.27 62.052Z" fill="#D1D1D3"/>
</g>
<g style="mix-blend-mode:multiply">
<path d="M61.5859 30.2818L65.37 30.3919L76.5915 25.636L72.8878 24.875L72.9079 25.6159L61.5859 30.2818Z" fill="#D1D1D3"/>
</g>
<g style="mix-blend-mode:multiply">
<path d="M44.9023 31.3632H48.7867L48.7466 30.1517L47.8031 29.9814L44.9023 31.3632Z" fill="#D1D1D3"/>
</g>
<defs>
<linearGradient id="paint0_linear_319_13238" x1="235.952" y1="236.481" x2="16.0419" y2="33.619" gradientUnits="userSpaceOnUse">
<stop stop-color="#0075D0"/>
<stop offset="1" stop-color="#0082E6"/>
</linearGradient>
<linearGradient id="paint1_linear_319_13238" x1="4.20304" y1="41.1257" x2="234.532" y2="87.9344" gradientUnits="userSpaceOnUse">
<stop stop-color="#E3E3E4"/>
<stop offset="0.42" stop-color="#E0E2E4"/>
<stop offset="0.66" stop-color="#D8DFE6"/>
<stop offset="0.85" stop-color="#CADBEA"/>
<stop offset="1" stop-color="#BAD7EE"/>
</linearGradient>
<linearGradient id="paint2_linear_319_13238" x1="17.1518" y1="182.833" x2="226.129" y2="250.769" gradientUnits="userSpaceOnUse">
<stop stop-color="#F5F5F6"/>
<stop offset="0.5" stop-color="#F7F7F7"/>
<stop offset="1" stop-color="#F0F0F0"/>
</linearGradient>
<linearGradient id="paint3_linear_319_13238" x1="3.60081" y1="41.5762" x2="16.8255" y2="182.9" gradientUnits="userSpaceOnUse">
<stop stop-color="#E5E5E6"/>
<stop offset="0.5" stop-color="#E5E5E6"/>
<stop offset="1" stop-color="#E6E6E8"/>
</linearGradient>
<linearGradient id="paint4_linear_319_13238" x1="122.843" y1="51.3282" x2="120.265" y2="64.2669" gradientUnits="userSpaceOnUse">
<stop stop-color="#749ABF"/>
<stop offset="0.11" stop-color="#769BC0"/>
<stop offset="0.18" stop-color="#7EA1C3"/>
<stop offset="0.23" stop-color="#8CABCA"/>
<stop offset="0.28" stop-color="#A0BAD3"/>
<stop offset="0.33" stop-color="#BACDDF"/>
<stop offset="0.36" stop-color="#D9E3ED"/>
<stop offset="0.4" stop-color="white"/>
<stop offset="0.68" stop-color="white"/>
<stop offset="0.71" stop-color="#F6F7FB"/>
<stop offset="0.76" stop-color="#E5E9F3"/>
<stop offset="1" stop-color="#DBDAE0"/>
</linearGradient>
<linearGradient id="paint5_linear_319_13238" x1="244.716" y1="168.986" x2="231.226" y2="168.201" gradientUnits="userSpaceOnUse">
<stop stop-color="#8493A0"/>
<stop offset="0.21" stop-color="#8493A0"/>
<stop offset="0.28" stop-color="#949FA9"/>
<stop offset="0.42" stop-color="#A9B0B6"/>
<stop offset="0.57" stop-color="#B8BBBF"/>
<stop offset="0.74" stop-color="#C1C2C5"/>
<stop offset="1" stop-color="#C4C5C7"/>
</linearGradient>
<linearGradient id="paint6_linear_319_13238" x1="121.498" y1="220.321" x2="122.478" y2="217.396" gradientUnits="userSpaceOnUse">
<stop stop-color="#B7AFAA"/>
<stop offset="0.22" stop-color="#BFB9B3"/>
<stop offset="0.61" stop-color="#C9C5BF"/>
<stop offset="1" stop-color="#CDC9C3"/>
</linearGradient>
<linearGradient id="paint7_linear_319_13238" x1="7.26674" y1="111.164" x2="9.79602" y2="110.942" gradientUnits="userSpaceOnUse">
<stop stop-color="#A6A7AE"/>
<stop offset="0.05" stop-color="#B4B5BB"/>
<stop offset="0.13" stop-color="#C3C3C8"/>
<stop offset="0.22" stop-color="#CCCCD0"/>
<stop offset="0.37" stop-color="#CFCFD3"/>
<stop offset="1" stop-color="#EBE9E1"/>
</linearGradient>
<linearGradient id="paint8_linear_319_13238" x1="267.551" y1="213.212" x2="250.25" y2="86.8918" gradientUnits="userSpaceOnUse">
<stop stop-color="#006CBD"/>
<stop offset="1" stop-color="#1477C3"/>
</linearGradient>
<linearGradient id="paint9_linear_319_13238" x1="269.6" y1="53.6509" x2="9.15331" y2="32.4915" gradientUnits="userSpaceOnUse">
<stop stop-color="#36A3F5"/>
<stop offset="0.49" stop-color="#41A7F8"/>
<stop offset="1" stop-color="#44AAF8"/>
</linearGradient>
<linearGradient id="paint10_linear_319_13238" x1="265.468" y1="73.3965" x2="257.044" y2="61.5921" gradientUnits="userSpaceOnUse">
<stop stop-color="#B1BAC0"/>
<stop offset="0.14" stop-color="#A4B2BB"/>
<stop offset="0.34" stop-color="#96A9B7"/>
<stop offset="0.4" stop-color="#8EA5B6"/>
<stop offset="0.71" stop-color="#6D96B6"/>
<stop offset="1" stop-color="#749CB6"/>
</linearGradient>
<radialGradient id="paint11_radial_319_13238" cx="0" cy="0" r="1" gradientUnits="userSpaceOnUse" gradientTransform="translate(240.399 73.8564) scale(15.2465 15.2091)">
<stop stop-color="#324656"/>
<stop offset="0.16" stop-color="#283746"/>
<stop offset="0.29" stop-color="#253240"/>
<stop offset="0.45" stop-color="#28333F"/>
<stop offset="0.58" stop-color="#33393F"/>
<stop offset="0.67" stop-color="#3F3F3F"/>
<stop offset="0.75" stop-color="#424245"/>
<stop offset="1" stop-color="#434447"/>
</radialGradient>
<radialGradient id="paint12_radial_319_13238" cx="0" cy="0" r="1" gradientUnits="userSpaceOnUse" gradientTransform="translate(226.187 250.398) scale(12.6569 12.6259)">
<stop stop-color="#494946"/>
<stop offset="0.63" stop-color="#5A5958"/>
<stop offset="0.65" stop-color="#515253"/>
<stop offset="0.66" stop-color="#2C3540"/>
<stop offset="1" stop-color="#535E6A"/>
</radialGradient>
<linearGradient id="paint13_linear_319_13238" x1="228.634" y1="57.0859" x2="227.113" y2="54.8396" gradientUnits="userSpaceOnUse">
<stop stop-color="#2682C9"/>
<stop offset="1" stop-color="#368BCD"/>
</linearGradient>
<linearGradient id="paint14_linear_319_13238" x1="220.756" y1="60.2594" x2="221.455" y2="57.0246" gradientUnits="userSpaceOnUse">
<stop stop-color="#ABABB0"/>
<stop offset="1" stop-color="#8C96A6"/>
</linearGradient>
<linearGradient id="paint15_linear_319_13238" x1="206.222" y1="57.0656" x2="206.792" y2="54.2916" gradientUnits="userSpaceOnUse">
<stop stop-color="#4091CF"/>
<stop offset="1" stop-color="#85B9E0"/>
</linearGradient>
<linearGradient id="paint16_linear_319_13238" x1="201.003" y1="61.5612" x2="201.482" y2="58.1666" gradientUnits="userSpaceOnUse">
<stop stop-color="#85B9E0"/>
<stop offset="1" stop-color="#A3CAE8"/>
</linearGradient>
<linearGradient id="paint17_linear_319_13238" x1="73.8989" y1="30.7126" x2="104.081" y2="31.8395" gradientUnits="userSpaceOnUse">
<stop stop-color="#8FA4BA"/>
<stop offset="1" stop-color="#90A9BC"/>
</linearGradient>
<linearGradient id="paint18_linear_319_13238" x1="78.8478" y1="33.4557" x2="104.302" y2="33.657" gradientUnits="userSpaceOnUse">
<stop stop-color="#549DD4"/>
<stop offset="0.03" stop-color="#6AA9D9"/>
<stop offset="0.07" stop-color="#7BB3DE"/>
<stop offset="0.11" stop-color="#86BAE1"/>
<stop offset="0.15" stop-color="#8ABCE2"/>
<stop offset="0.54" stop-color="#82B7E0"/>
<stop offset="0.64" stop-color="#4292D0"/>
<stop offset="0.7" stop-color="#338ACC"/>
<stop offset="0.79" stop-color="#2E87CB"/>
<stop offset="0.91" stop-color="#2E87CB"/>
<stop offset="0.95" stop-color="#2A84CA"/>
<stop offset="0.99" stop-color="#1F7EC7"/>
<stop offset="1" stop-color="#1F7EC7"/>
</linearGradient>
<linearGradient id="paint19_linear_319_13238" x1="73.6306" y1="30.432" x2="79.4912" y2="31.6191" gradientUnits="userSpaceOnUse">
<stop stop-color="#66A7D8"/>
<stop offset="0.03" stop-color="#7BB3DD"/>
<stop offset="0.06" stop-color="#8CBDE2"/>
<stop offset="0.1" stop-color="#98C4E4"/>
<stop offset="0.15" stop-color="#9FC7E6"/>
<stop offset="0.31" stop-color="#A1C9E7"/>
<stop offset="1" stop-color="#ABCFEA"/>
</linearGradient>
<linearGradient id="paint20_linear_319_13238" x1="91.7766" y1="32.4745" x2="92.286" y2="15.5933" gradientUnits="userSpaceOnUse">
<stop stop-color="#FBFBFC"/>
<stop offset="0.54" stop-color="#C3DCF0"/>
<stop offset="0.59" stop-color="#BFDAEF"/>
<stop offset="1" stop-color="#E8E8EA"/>
</linearGradient>
<linearGradient id="paint21_linear_319_13238" x1="91.717" y1="15.5135" x2="98.2388" y2="13.703" gradientUnits="userSpaceOnUse">
<stop stop-color="#C9E0F2"/>
<stop offset="1" stop-color="#DBEAF6"/>
</linearGradient>
<linearGradient id="paint22_linear_319_13238" x1="100.629" y1="31.8638" x2="94.3627" y2="15.7732" gradientUnits="userSpaceOnUse">
<stop stop-color="#9FA7B5"/>
<stop offset="0.01" stop-color="#89A1BA"/>
<stop offset="0.04" stop-color="#6799C2"/>
<stop offset="0.07" stop-color="#4E92C9"/>
<stop offset="0.09" stop-color="#408FCC"/>
<stop offset="0.11" stop-color="#3B8ECE"/>
<stop offset="0.25" stop-color="#4795D1"/>
<stop offset="0.27" stop-color="#3B8ECE"/>
<stop offset="0.34" stop-color="#2581C8"/>
<stop offset="0.41" stop-color="#1477C4"/>
<stop offset="0.51" stop-color="#0871C1"/>
<stop offset="0.64" stop-color="#016DBF"/>
<stop offset="1" stop-color="#006CBF"/>
</linearGradient>
<linearGradient id="paint23_linear_319_13238" x1="91.625" y1="15.3435" x2="98.2897" y2="15.3435" gradientUnits="userSpaceOnUse">
<stop stop-color="#AEB6C1"/>
<stop offset="1" stop-color="#C1C7CF"/>
</linearGradient>
<linearGradient id="paint24_linear_319_13238" x1="171.451" y1="26.5173" x2="106.919" y2="-0.298361" gradientUnits="userSpaceOnUse">
<stop stop-color="#606062"/>
<stop offset="0.07" stop-color="#555759"/>
<stop offset="0.14" stop-color="#3C4955"/>
<stop offset="0.2" stop-color="#324353"/>
<stop offset="0.32" stop-color="#445768"/>
<stop offset="0.56" stop-color="#5F6A76"/>
<stop offset="1" stop-color="#8C8B8E"/>
</linearGradient>
<linearGradient id="paint25_linear_319_13238" x1="200.188" y1="49.2758" x2="166.634" y2="47.2635" gradientUnits="userSpaceOnUse">
<stop stop-color="#89A1B9"/>
<stop offset="1" stop-color="#879EB0"/>
</linearGradient>
<linearGradient id="paint26_linear_319_13238" x1="166.414" y1="50.4273" x2="200.189" y2="50.4273" gradientUnits="userSpaceOnUse">
<stop stop-color="#4F9AD3"/>
<stop offset="0.06" stop-color="#7AB3DE"/>
<stop offset="0.47" stop-color="#94C1E4"/>
<stop offset="0.53" stop-color="#4594D0"/>
<stop offset="0.56" stop-color="#4091CF"/>
<stop offset="0.61" stop-color="#3088CB"/>
<stop offset="0.68" stop-color="#63A6D8"/>
<stop offset="0.72" stop-color="#70ADDB"/>
<stop offset="0.76" stop-color="#73AEDC"/>
<stop offset="0.77" stop-color="#6CAADA"/>
<stop offset="0.8" stop-color="#5CA1D6"/>
<stop offset="0.82" stop-color="#4091CF"/>
<stop offset="0.83" stop-color="#388DCD"/>
<stop offset="0.89" stop-color="#338ACC"/>
<stop offset="1" stop-color="#3B8ECE"/>
</linearGradient>
<linearGradient id="paint27_linear_319_13238" x1="173.929" y1="47.8538" x2="175.877" y2="28.1181" gradientUnits="userSpaceOnUse">
<stop stop-color="#FBFBFC"/>
<stop offset="0.03" stop-color="#EBF2F8"/>
<stop offset="0.1" stop-color="#CBE0F1"/>
<stop offset="0.16" stop-color="#B5D4EC"/>
<stop offset="0.22" stop-color="#A7CCE9"/>
<stop offset="0.28" stop-color="#A3CAE8"/>
<stop offset="0.45" stop-color="#B5D4EC"/>
<stop offset="0.59" stop-color="#BFDAEF"/>
<stop offset="1" stop-color="#E8E8EA"/>
</linearGradient>
<linearGradient id="paint28_linear_319_13238" x1="187.151" y1="44.9808" x2="175.912" y2="23.9014" gradientUnits="userSpaceOnUse">
<stop stop-color="#A3ABB7"/>
<stop offset="0.08" stop-color="#B9BDC4"/>
<stop offset="0.15" stop-color="#C7C8CC"/>
<stop offset="0.21" stop-color="#CCCCCF"/>
<stop offset="0.22" stop-color="#CCCCCF"/>
<stop offset="0.59" stop-color="#D7D7DA"/>
<stop offset="0.64" stop-color="#C3C7CE"/>
<stop offset="0.68" stop-color="#B7BEC7"/>
<stop offset="0.73" stop-color="#B4BBC5"/>
<stop offset="0.86" stop-color="#BEC4CD"/>
<stop offset="0.91" stop-color="#BBC1CA"/>
<stop offset="0.93" stop-color="#B2B9C4"/>
<stop offset="0.96" stop-color="#A3ACB8"/>
<stop offset="0.98" stop-color="#8E99A8"/>
<stop offset="1" stop-color="#6F7C90"/>
</linearGradient>
<linearGradient id="paint29_linear_319_13238" x1="184.002" y1="47.2534" x2="172.223" y2="25.9821" gradientUnits="userSpaceOnUse">
<stop stop-color="#A4ACB9"/>
<stop offset="0.04" stop-color="#91AAC2"/>
<stop offset="0.1" stop-color="#7BA9CF"/>
<stop offset="0.16" stop-color="#6DA8D6"/>
<stop offset="0.21" stop-color="#69A8D9"/>
<stop offset="0.37" stop-color="#95B9D6"/>
<stop offset="0.51" stop-color="#B8C6D3"/>
<stop offset="0.59" stop-color="#C5CBD3"/>
<stop offset="0.65" stop-color="#BEC5CD"/>
<stop offset="0.79" stop-color="#B5BCC6"/>
<stop offset="1" stop-color="#B3BAC4"/>
</linearGradient>
<linearGradient id="paint30_linear_319_13238" x1="185.727" y1="45.9318" x2="173.997" y2="25.3912" gradientUnits="userSpaceOnUse">
<stop stop-color="#A4ACB9"/>
<stop offset="0.04" stop-color="#91AAC2"/>
<stop offset="0.1" stop-color="#7BA9CF"/>
<stop offset="0.16" stop-color="#6DA8D6"/>
<stop offset="0.21" stop-color="#69A8D9"/>
<stop offset="0.37" stop-color="#95B9D6"/>
<stop offset="0.51" stop-color="#B8C6D3"/>
<stop offset="0.59" stop-color="#C5CBD3"/>
<stop offset="0.65" stop-color="#BEC5CD"/>
<stop offset="0.79" stop-color="#B5BCC6"/>
<stop offset="1" stop-color="#B3BAC4"/>
</linearGradient>
<linearGradient id="paint31_linear_319_13238" x1="188.065" y1="45.0207" x2="176.185" y2="23.6991" gradientUnits="userSpaceOnUse">
<stop stop-color="#A4ACB9"/>
<stop offset="0.04" stop-color="#91AAC2"/>
<stop offset="0.1" stop-color="#7BA9CF"/>
<stop offset="0.16" stop-color="#6DA8D6"/>
<stop offset="0.21" stop-color="#69A8D9"/>
<stop offset="0.37" stop-color="#95B9D6"/>
<stop offset="0.51" stop-color="#B8C6D3"/>
<stop offset="0.59" stop-color="#C5CBD3"/>
<stop offset="0.65" stop-color="#BEC5CD"/>
<stop offset="0.79" stop-color="#B5BCC6"/>
<stop offset="1" stop-color="#B3BAC4"/>
</linearGradient>
<radialGradient id="paint32_radial_319_13238" cx="0" cy="0" r="1" gradientUnits="userSpaceOnUse" gradientTransform="translate(192.131 50.5671) scale(4.22565 4.21529)">
<stop stop-color="#FFFEFF"/>
<stop offset="0.15" stop-color="white"/>
<stop offset="0.21" stop-color="#CDDBEB"/>
<stop offset="0.32" stop-color="#BEC8D7"/>
<stop offset="0.4" stop-color="#B7BFCE"/>
<stop offset="0.45" stop-color="#ABB8CA"/>
<stop offset="0.59" stop-color="#8EA7C1"/>
<stop offset="0.73" stop-color="#799BBA"/>
<stop offset="0.87" stop-color="#6D94B6"/>
<stop offset="1" stop-color="#6992B5"/>
</radialGradient>
<radialGradient id="paint33_radial_319_13238" cx="0" cy="0" r="1" gradientUnits="userSpaceOnUse" gradientTransform="translate(77.8762 29.691) scale(4.33606 4.32543)">
<stop stop-color="#FFFEFF"/>
<stop offset="0.15" stop-color="white"/>
<stop offset="0.21" stop-color="#CDDBEB"/>
<stop offset="0.32" stop-color="#BEC8D7"/>
<stop offset="0.4" stop-color="#B7BFCE"/>
<stop offset="0.45" stop-color="#ABB8CA"/>
<stop offset="0.59" stop-color="#8EA7C1"/>
<stop offset="0.73" stop-color="#799BBA"/>
<stop offset="0.87" stop-color="#6D94B6"/>
<stop offset="1" stop-color="#6992B5"/>
</radialGradient>
<radialGradient id="paint34_radial_319_13238" cx="0" cy="0" r="1" gradientUnits="userSpaceOnUse" gradientTransform="translate(256.447 52.7403) scale(4.57696 4.56573)">
<stop stop-color="#FBFCFC"/>
<stop offset="0.02" stop-color="#D1D4D7"/>
<stop offset="0.04" stop-color="#ACB1B6"/>
<stop offset="0.05" stop-color="#8C939A"/>
<stop offset="0.07" stop-color="#727B83"/>
<stop offset="0.1" stop-color="#5E6871"/>
<stop offset="0.12" stop-color="#505B65"/>
<stop offset="0.16" stop-color="#48535E"/>
<stop offset="0.21" stop-color="#46515C"/>
<stop offset="0.33" stop-color="#36434F"/>
<stop offset="0.5" stop-color="#283644"/>
<stop offset="0.64" stop-color="#233240"/>
<stop offset="0.79" stop-color="#253443"/>
<stop offset="0.91" stop-color="#2C3E4D"/>
<stop offset="1" stop-color="#354A5A"/>
</radialGradient>
<radialGradient id="paint35_radial_319_13238" cx="0" cy="0" r="1" gradientUnits="userSpaceOnUse" gradientTransform="translate(232.148 69.5014) scale(5.71116 5.69715)">
<stop stop-color="#FBFCFC"/>
<stop offset="0.02" stop-color="#D1D4D7"/>
<stop offset="0.04" stop-color="#ACB1B6"/>
<stop offset="0.05" stop-color="#8C939A"/>
<stop offset="0.07" stop-color="#727B83"/>
<stop offset="0.1" stop-color="#5E6871"/>
<stop offset="0.12" stop-color="#505B65"/>
<stop offset="0.16" stop-color="#48535E"/>
<stop offset="0.21" stop-color="#46515C"/>
<stop offset="0.33" stop-color="#36434F"/>
<stop offset="0.5" stop-color="#283644"/>
<stop offset="0.64" stop-color="#233240"/>
<stop offset="0.79" stop-color="#253443"/>
<stop offset="0.91" stop-color="#2C3E4D"/>
<stop offset="1" stop-color="#354A5A"/>
</radialGradient>
<radialGradient id="paint36_radial_319_13238" cx="0" cy="0" r="1" gradientUnits="userSpaceOnUse" gradientTransform="translate(51.5598 16.6848) scale(4.1554 4.14521)">
<stop stop-color="#FBFCFC"/>
<stop offset="0.02" stop-color="#D1D4D7"/>
<stop offset="0.04" stop-color="#ACB1B6"/>
<stop offset="0.05" stop-color="#8C939A"/>
<stop offset="0.07" stop-color="#727B83"/>
<stop offset="0.1" stop-color="#5E6871"/>
<stop offset="0.12" stop-color="#505B65"/>
<stop offset="0.16" stop-color="#48535E"/>
<stop offset="0.21" stop-color="#46515C"/>
<stop offset="0.33" stop-color="#36434F"/>
<stop offset="0.5" stop-color="#283644"/>
<stop offset="0.64" stop-color="#233240"/>
<stop offset="0.79" stop-color="#253443"/>
<stop offset="0.91" stop-color="#2C3E4D"/>
<stop offset="1" stop-color="#354A5A"/>
</radialGradient>
<radialGradient id="paint37_radial_319_13238" cx="0" cy="0" r="1" gradientUnits="userSpaceOnUse" gradientTransform="translate(20.2304 28.9602) scale(4.36618 4.35547)">
<stop stop-color="#FBFCFC"/>
<stop offset="0.02" stop-color="#D1D4D7"/>
<stop offset="0.04" stop-color="#ACB1B6"/>
<stop offset="0.05" stop-color="#8C939A"/>
<stop offset="0.07" stop-color="#727B83"/>
<stop offset="0.1" stop-color="#5E6871"/>
<stop offset="0.12" stop-color="#505B65"/>
<stop offset="0.16" stop-color="#48535E"/>
<stop offset="0.21" stop-color="#46515C"/>
<stop offset="0.33" stop-color="#36434F"/>
<stop offset="0.5" stop-color="#283644"/>
<stop offset="0.64" stop-color="#233240"/>
<stop offset="0.79" stop-color="#253443"/>
<stop offset="0.91" stop-color="#2C3E4D"/>
<stop offset="1" stop-color="#354A5A"/>
</radialGradient>
<linearGradient id="paint38_linear_319_13238" x1="264.306" y1="136.926" x2="271.97" y2="109.061" gradientUnits="userSpaceOnUse">
<stop stop-color="#C7CCD4"/>
<stop offset="1" stop-color="#CDD1D8"/>
</linearGradient>
<linearGradient id="paint39_linear_319_13238" x1="259.228" y1="136.125" x2="268.951" y2="108.475" gradientUnits="userSpaceOnUse">
<stop stop-color="#3088CB"/>
<stop offset="0.06" stop-color="#3A8DCD"/>
<stop offset="0.12" stop-color="#4091CF"/>
<stop offset="0.37" stop-color="#3D90CF"/>
<stop offset="0.45" stop-color="#388DCD"/>
<stop offset="0.53" stop-color="#2E87CB"/>
<stop offset="0.7" stop-color="#338ACC"/>
<stop offset="0.81" stop-color="#3D90CF"/>
<stop offset="0.9" stop-color="#2E87CB"/>
<stop offset="1" stop-color="#3088CB"/>
</linearGradient>
<linearGradient id="paint40_linear_319_13238" x1="263.724" y1="137.537" x2="263.684" y2="134.843" gradientUnits="userSpaceOnUse">
<stop stop-color="#2E87CB"/>
<stop offset="1" stop-color="#4D98D2"/>
</linearGradient>
<linearGradient id="paint41_linear_319_13238" x1="273.253" y1="114.798" x2="276.219" y2="116.848" gradientUnits="userSpaceOnUse">
<stop stop-color="#A3ABB8"/>
<stop offset="0.3" stop-color="#A7AFBB"/>
<stop offset="0.33" stop-color="#ADB4C0"/>
<stop offset="0.83" stop-color="#C8CDD5"/>
<stop offset="0.95" stop-color="#C5CAD2"/>
<stop offset="1" stop-color="#C0C5CE"/>
</linearGradient>
<linearGradient id="paint42_linear_319_13238" x1="263.213" y1="124.07" x2="266.289" y2="126.56" gradientUnits="userSpaceOnUse">
<stop stop-color="#A3ABB8"/>
<stop offset="0.3" stop-color="#A7AFBB"/>
<stop offset="0.33" stop-color="#ADB4C0"/>
<stop offset="0.83" stop-color="#C8CDD5"/>
<stop offset="0.95" stop-color="#C5CAD2"/>
<stop offset="1" stop-color="#C0C5CE"/>
</linearGradient>
<linearGradient id="paint43_linear_319_13238" x1="220.175" y1="62.0822" x2="214.505" y2="62.8871" gradientUnits="userSpaceOnUse">
<stop stop-color="#B6BCC6"/>
<stop offset="1" stop-color="#A4ACB9"/>
</linearGradient>
<linearGradient id="paint44_linear_319_13238" x1="67.7693" y1="27.7187" x2="66.6698" y2="25.1035" gradientUnits="userSpaceOnUse">
<stop stop-color="#3088CB"/>
<stop offset="1" stop-color="#4A97D2"/>
</linearGradient>
<linearGradient id="paint45_linear_319_13238" x1="50.2132" y1="27.6986" x2="65.7307" y2="27.6986" gradientUnits="userSpaceOnUse">
<stop offset="0.1" stop-color="#A4ACB9"/>
<stop offset="0.16" stop-color="#3B8ECE"/>
<stop offset="0.43" stop-color="#4795D1"/>
<stop offset="0.54" stop-color="#1C7DC6"/>
<stop offset="1" stop-color="#1277C4"/>
</linearGradient>
<linearGradient id="paint46_linear_319_13238" x1="212.305" y1="57.4259" x2="224.851" y2="57.4259" gradientUnits="userSpaceOnUse">
<stop offset="0.1" stop-color="#9CA5B2"/>
<stop offset="0.16" stop-color="#2E87CB"/>
<stop offset="0.43" stop-color="#388DCD"/>
<stop offset="0.54" stop-color="#1277C4"/>
<stop offset="1" stop-color="#0871C1"/>
</linearGradient>
<linearGradient id="paint47_linear_319_13238" x1="61.6363" y1="30.2522" x2="58.0321" y2="26.5387" gradientUnits="userSpaceOnUse">
<stop stop-color="#7AB3DE"/>
<stop offset="0.03" stop-color="#84B2D5"/>
<stop offset="0.11" stop-color="#9BB0C2"/>
<stop offset="0.18" stop-color="#AAAFB7"/>
<stop offset="0.25" stop-color="#AFAFB3"/>
<stop offset="0.38" stop-color="#AAADB4"/>
<stop offset="0.54" stop-color="#9DAAB8"/>
<stop offset="0.7" stop-color="#86A4BE"/>
<stop offset="0.86" stop-color="#679DC7"/>
<stop offset="1" stop-color="#4795D1"/>
</linearGradient>
<linearGradient id="paint48_linear_319_13238" x1="215.466" y1="63.2936" x2="216.296" y2="59.5381" gradientUnits="userSpaceOnUse">
<stop stop-color="#A1AAB7"/>
<stop offset="0.45" stop-color="#9CA5B2"/>
<stop offset="0.66" stop-color="#A7A9B0"/>
<stop offset="0.88" stop-color="#ABABB0"/>
<stop offset="1" stop-color="#2682C9"/>
</linearGradient>
<linearGradient id="paint49_linear_319_13238" x1="213.82" y1="63.0731" x2="214.609" y2="59.2876" gradientUnits="userSpaceOnUse">
<stop stop-color="#C9E0F2"/>
<stop offset="0.03" stop-color="#D2E5F4"/>
<stop offset="0.07" stop-color="#DCEBF6"/>
<stop offset="0.13" stop-color="#E0EDF7"/>
<stop offset="0.28" stop-color="#F2F2F3"/>
<stop offset="0.38" stop-color="#EFF1F3"/>
<stop offset="0.48" stop-color="white"/>
<stop offset="0.6" stop-color="white"/>
<stop offset="0.61" stop-color="#F2F3F5"/>
<stop offset="0.63" stop-color="#E1E4E8"/>
<stop offset="0.66" stop-color="#D8DBE1"/>
<stop offset="0.68" stop-color="#D5D9DF"/>
<stop offset="0.89" stop-color="#B3BAC4"/>
<stop offset="0.98" stop-color="#B5BCC6"/>
<stop offset="1" stop-color="#B8BFC9"/>
</linearGradient>
<linearGradient id="paint50_linear_319_13238" x1="202.558" y1="61.0309" x2="203.317" y2="57.2154" gradientUnits="userSpaceOnUse">
<stop stop-color="#C9E0F2"/>
<stop offset="0.03" stop-color="#D2E5F4"/>
<stop offset="0.07" stop-color="#DCEBF6"/>
<stop offset="0.13" stop-color="#E0EDF7"/>
<stop offset="0.28" stop-color="#F2F2F3"/>
<stop offset="0.38" stop-color="#EFF1F3"/>
<stop offset="0.48" stop-color="white"/>
<stop offset="0.6" stop-color="white"/>
<stop offset="0.61" stop-color="#F2F3F5"/>
<stop offset="0.63" stop-color="#E1E4E8"/>
<stop offset="0.66" stop-color="#D8DBE1"/>
<stop offset="0.68" stop-color="#D5D9DF"/>
<stop offset="0.89" stop-color="#B3BAC4"/>
<stop offset="0.98" stop-color="#B5BCC6"/>
<stop offset="1" stop-color="#B8BFC9"/>
</linearGradient>
<linearGradient id="paint51_linear_319_13238" x1="41.5695" y1="30.7825" x2="42.059" y2="27.7883" gradientUnits="userSpaceOnUse">
<stop stop-color="#A3CAE8"/>
<stop offset="0.38" stop-color="#A6CBE8"/>
<stop offset="0.68" stop-color="#B0D1EB"/>
<stop offset="0.96" stop-color="#C0DBEF"/>
<stop offset="1" stop-color="#C4DDF0"/>
</linearGradient>
<linearGradient id="paint52_linear_319_13238" x1="50.2852" y1="31.8038" x2="57.6926" y2="31.8038" gradientUnits="userSpaceOnUse">
<stop stop-color="#6F88A1"/>
<stop offset="1" stop-color="#83909E"/>
</linearGradient>
<linearGradient id="paint53_linear_319_13238" x1="47.8256" y1="27.018" x2="48.2752" y2="24.7848" gradientUnits="userSpaceOnUse">
<stop stop-color="#73AEDC"/>
<stop offset="1" stop-color="#BAD7EE"/>
</linearGradient>
<linearGradient id="paint54_linear_319_13238" x1="51.7684" y1="32.2644" x2="52.4977" y2="28.8694" gradientUnits="userSpaceOnUse">
<stop stop-color="#D4E6F4"/>
<stop offset="0.02" stop-color="#D8E8F5"/>
<stop offset="0.07" stop-color="#E2EEF8"/>
<stop offset="0.13" stop-color="#E6F0F9"/>
<stop offset="0.28" stop-color="#F6F6F6"/>
<stop offset="0.38" stop-color="#F1F2F4"/>
<stop offset="0.48" stop-color="white"/>
<stop offset="0.6" stop-color="white"/>
<stop offset="0.61" stop-color="#F7F7F8"/>
<stop offset="0.63" stop-color="#E6E8EB"/>
<stop offset="0.65" stop-color="#DDDFE4"/>
<stop offset="0.68" stop-color="#DADDE2"/>
<stop offset="0.89" stop-color="#BAC0CA"/>
<stop offset="0.97" stop-color="#BCC2CB"/>
<stop offset="1" stop-color="#C1C7CF"/>
</linearGradient>
<linearGradient id="paint55_linear_319_13238" x1="43.0477" y1="30.5823" x2="43.6871" y2="27.1975" gradientUnits="userSpaceOnUse">
<stop stop-color="#D4E6F4"/>
<stop offset="0.02" stop-color="#D8E8F5"/>
<stop offset="0.07" stop-color="#E2EEF8"/>
<stop offset="0.13" stop-color="#E6F0F9"/>
<stop offset="0.28" stop-color="#F6F6F6"/>
<stop offset="0.38" stop-color="#F1F2F4"/>
<stop offset="0.48" stop-color="white"/>
<stop offset="0.6" stop-color="white"/>
<stop offset="0.61" stop-color="#F7F7F8"/>
<stop offset="0.63" stop-color="#E6E8EB"/>
<stop offset="0.65" stop-color="#DDDFE4"/>
<stop offset="0.68" stop-color="#DADDE2"/>
<stop offset="0.89" stop-color="#BAC0CA"/>
<stop offset="0.97" stop-color="#BCC2CB"/>
<stop offset="1" stop-color="#C1C7CF"/>
</linearGradient>
<linearGradient id="paint56_linear_319_13238" x1="46.6511" y1="31.6038" x2="47.1306" y2="28.6097" gradientUnits="userSpaceOnUse">
<stop stop-color="#A3CAE8"/>
<stop offset="0.38" stop-color="#A6CBE8"/>
<stop offset="0.68" stop-color="#B0D1EB"/>
<stop offset="0.96" stop-color="#C0DBEF"/>
<stop offset="1" stop-color="#C4DDF0"/>
</linearGradient>
<linearGradient id="paint57_linear_319_13238" x1="233.012" y1="51.2085" x2="204.437" y2="53.9251" gradientUnits="userSpaceOnUse">
<stop stop-color="#87A1B7"/>
<stop offset="1" stop-color="#85A4B9"/>
</linearGradient>
<linearGradient id="paint58_linear_319_13238" x1="215.136" y1="63.5837" x2="215.626" y2="60.1991" gradientUnits="userSpaceOnUse">
<stop stop-color="#85B9E0"/>
<stop offset="1" stop-color="#A3CAE8"/>
</linearGradient>
<linearGradient id="paint59_linear_319_13238" x1="207.661" y1="62.5125" x2="208.15" y2="59.1279" gradientUnits="userSpaceOnUse">
<stop stop-color="#85B9E0"/>
<stop offset="1" stop-color="#A3CAE8"/>
</linearGradient>
<linearGradient id="paint60_linear_319_13238" x1="224.774" y1="51.6589" x2="203.515" y2="58.3672" gradientUnits="userSpaceOnUse">
<stop stop-color="#88A3BB"/>
<stop offset="1" stop-color="#88A0B9"/>
</linearGradient>
<linearGradient id="paint61_linear_319_13238" x1="72.6175" y1="21.2404" x2="43.6044" y2="26.4818" gradientUnits="userSpaceOnUse">
<stop stop-color="#8FA5B8"/>
<stop offset="1" stop-color="#90A4B7"/>
</linearGradient>
<linearGradient id="paint62_linear_319_13238" x1="72.798" y1="22.1818" x2="43.7849" y2="27.4232" gradientUnits="userSpaceOnUse">
<stop stop-color="#8FA5B8"/>
<stop offset="1" stop-color="#90A4B7"/>
</linearGradient>
<linearGradient id="paint63_linear_319_13238" x1="52.5435" y1="32.5649" x2="53.033" y2="29.5607" gradientUnits="userSpaceOnUse">
<stop stop-color="#A3CAE8"/>
<stop offset="0.38" stop-color="#A6CBE8"/>
<stop offset="0.68" stop-color="#B0D1EB"/>
<stop offset="0.96" stop-color="#C0DBEF"/>
<stop offset="1" stop-color="#C4DDF0"/>
</linearGradient>
</defs>
</svg>