<svg width="287" height="43" viewBox="0 0 287 43" fill="none" xmlns="http://www.w3.org/2000/svg">
<mask id="mask0_365_1230" style="mask-type:luminance" maskUnits="userSpaceOnUse" x="0" y="0" width="287" height="43">
<path d="M287 0H0V43H287V0Z" fill="white"/>
</mask>
<g mask="url(#mask0_365_1230)">
<path fill-rule="evenodd" clip-rule="evenodd" d="M19.1986 13.0013L19.1815 13.0174L19.1644 13.0013V13.0158C16.2348 10.3702 11.852 4.18836 7.83111 4.05974C6.12621 4.00511 4.28842 3.97053 2.56779 4.01133C2.04104 4.02355 1.48467 3.98874 1.02197 4.29117C0.428902 4.6782 -0.00986036 5.28374 0.000168494 6.0306C0.00996942 6.7348 0.421608 7.05106 0.848975 7.53721C2.61064 9.5408 5.53792 12.5972 9.6746 16.6696C11.0756 18.0485 12.546 19.6074 13.9111 20.9548C16.0203 23.0378 17.4887 24.3157 19.1815 24.2075C20.8744 24.3157 22.3426 23.0378 24.4519 20.9548C25.8167 19.6074 27.2871 18.0485 28.6884 16.6696C32.825 12.5968 35.7527 9.5408 37.5141 7.53721C37.9416 7.05129 38.3533 6.7348 38.3629 6.0306C38.3729 5.28374 37.9519 4.64961 37.3415 4.29117C36.7721 3.95647 36.2773 3.98459 35.604 3.98667C34.0335 3.99289 32.2804 3.92926 30.7112 3.9793C29.9671 4.00303 29.0312 4.31561 28.2733 4.69296C24.9383 6.35676 21.5859 10.8602 19.1986 13.016V13.0013ZM287 20.4153V20.6449V22.0206C287 23.1957 286.201 24.1576 285.224 24.1576H277.067C276.279 24.1576 275.607 23.5333 275.377 22.6755C274.198 23.3961 272.144 24.2268 269.156 24.1832C266.84 24.1832 265.243 24.1832 262.927 24.1832H262.311C256.63 24.1832 251.196 22.0347 250.855 15.2174L250.854 15.2102V15.2031L250.853 15.1671L250.852 15.1594V15.156L250.851 15.1447V15.1374L250.85 15.124V15.1226L250.849 15.1155V15.1129L250.848 15.0788V15.0724H250.84V15.0698V14.7619V14.7591V13.4254V13.4228V13.1151V13.1123H250.848V13.1052L250.849 13.072V13.069L250.85 13.0616L250.851 13.0476V13.04L250.852 13.0291V13.0249L250.853 13.018L250.854 12.9821V12.9745L250.855 12.9673C251.196 6.15 256.63 4.00211 262.311 4.00211H262.927C265.243 4.00211 266.84 4.00211 269.156 4.00211C272.072 3.9597 274.099 4.75035 275.29 5.45779V3.74278V2.25277V2.13706C275.29 0.961688 276.09 0 277.067 0H285.224C286.202 0 287 0.961688 287 2.13706V2.25277V3.74278V9.11435V9.22984V10.7201V15.0433V20.4153ZM275.289 20.0509V15.0433V10.7201V9.22984V9.11435V8.13492H266.963C265.081 8.08674 263.818 9.12749 262.999 10.44C262.502 11.2383 262.34 11.9024 262.279 12.6472L262.277 12.6677L262.276 12.6863V12.6882L262.273 12.7094L262.271 12.7382L262.27 12.7684L262.269 12.7709L262.268 12.7914L262.267 12.7979L262.266 12.8127V12.8198L262.262 12.8966L262.26 12.9113V12.9177C262.253 13.0362 262.249 13.1582 262.245 13.2827V13.2891L262.243 13.3216V13.3309L262.241 13.3532V13.3748V13.3827V13.3972L262.239 13.4203V13.4427L262.238 13.4433L262.237 13.5023V13.5049L262.236 13.5114V13.5344L262.232 13.6981L262.231 13.7218L262.227 13.8834V13.8887V13.8905L262.226 13.9149L262.222 14.0219L262.221 14.0387L262.22 14.0863V14.0895V14.0934V14.097L262.226 14.2678L262.227 14.2923V14.2942V14.2999L262.231 14.4604L262.232 14.4848V14.4887L262.236 14.6477V14.6715L262.237 14.6779V14.68L262.239 14.7621L262.24 14.7845V14.8004L262.241 14.8075V14.8301V14.8532L262.243 14.8617L262.244 14.8949V14.8992C262.248 15.0244 262.253 15.1463 262.26 15.2655V15.2712L262.261 15.2867L262.266 15.3637V15.3709L262.267 15.3849V15.3914L262.269 15.4128V15.4146L262.271 15.4448L262.273 15.4751L262.276 15.4954V15.4972L262.277 15.5161L262.279 15.5371C262.34 16.2821 262.501 16.946 262.998 17.7442C263.818 19.0576 265.081 20.0982 266.963 20.0503L275.289 20.0509ZM237.728 11.818H243.865C245.074 11.818 246.062 12.8422 246.062 14.0938C246.062 15.3462 245.072 16.3703 243.865 16.3703H237.728C236.52 16.3703 235.531 15.3462 235.531 14.0938C235.531 12.8422 236.52 11.818 237.728 11.818ZM230.07 4.00257H233.074H233.691H246.365C250.293 4.00257 249.767 8.13538 246.583 8.13538H237.727C235.845 8.0872 234.582 9.12795 233.764 10.4405C232.972 11.7085 233.032 12.6373 232.984 14.0911V14.095C233.032 15.5488 232.972 16.4799 233.764 17.7474C234.582 19.0602 235.845 20.1009 237.727 20.0527H246.583C249.767 20.0527 250.293 24.1858 246.365 24.1858H233.691H233.074H230.07C225.449 24.1858 221.78 19.411 221.611 15.0728H221.603V14.7623V13.4258V13.1155H221.611C221.78 8.77712 225.449 4.00257 230.07 4.00257ZM168.637 4.00833H169.158C169.489 3.99612 169.86 4.00764 170.251 4.00833H182.495H182.563C182.954 4.00764 183.323 3.99612 183.654 4.00833C185.215 4.00833 187.888 5.49397 188.777 6.4824C189.447 5.65118 191.911 4.00257 194.031 4.00833H194.086H207.415C207.805 4.00718 208.175 3.99634 208.507 4.00833H208.916C214.742 4.00833 218.189 6.05181 218.189 12.5425V20.709V21.7201V22.7313C218.189 23.553 217.525 24.2252 216.712 24.2252H208.107C207.294 24.2252 206.629 23.553 206.629 22.7313V21.7201V20.709V16.7768H206.622V16.5504C206.622 14.5029 206.279 10.972 202.353 10.5855H198.809C195.497 10.9119 194.735 13.4761 194.577 15.4995V20.709V21.7201V22.7313C194.577 23.553 193.913 24.2252 193.1 24.2252H193.055H184.495H184.451C183.637 24.2252 182.973 23.553 182.973 22.7313V21.7201V20.709V15.5071C182.817 13.4823 182.058 10.9119 178.743 10.5855H175.085C171.159 10.972 170.816 14.5037 170.816 16.5504V16.7768H170.809V20.709V21.7201V22.7313C170.809 23.553 170.144 24.2252 169.331 24.2252H160.726C159.914 24.2252 159.249 23.553 159.249 22.7313V21.7201V20.709V12.5425C159.249 6.05181 162.812 4.00833 168.638 4.00833H168.637ZM128.011 24.2192H128.628H129.883C130.215 24.2321 130.585 24.2206 130.976 24.2192H144.727H144.794C145.185 24.2206 145.555 24.2321 145.886 24.2192H147.143H147.76C153.585 24.2192 156.226 22.1764 156.226 15.6858V7.51854V6.50775V5.49697C156.226 4.6752 155.561 4.00257 154.748 4.00257H146.144C145.33 4.00257 144.666 4.6752 144.666 5.49697V6.50775V7.51854V12.894H144.659V13.1204C144.659 15.1675 144.315 18.6988 140.391 19.085H135.381C131.456 18.6988 131.112 15.1675 131.112 13.1204V12.894H131.105V7.51854V6.50775V5.49697C131.105 4.6752 130.44 4.00257 129.627 4.00257H121.023C120.21 4.00257 119.545 4.6752 119.545 5.49697V6.50775V7.51854V15.6858C119.545 22.1764 122.184 24.2192 128.011 24.2192ZM96.267 24.2192H99.1065H99.6898H109.944C112.579 24.2192 112.971 19.5934 109.944 19.3964L106.987 19.2036H106.129C101.58 19.2036 101.924 15.5465 101.924 13.4779V10.4587H106.957H114.543C116.005 10.4587 117.202 9.30222 117.202 7.88874V6.57229C117.202 5.15904 116.005 4.00257 114.543 4.00257H106.957H95.6778H88.0933C86.6302 4.00257 85.434 5.15904 85.434 6.57229V7.88874C85.434 9.30222 86.6306 10.4587 88.0933 10.4587H91.1049V17.756C91.1049 20.0908 91.5014 24.2192 96.267 24.2192ZM61.1104 4.00257H64.1147H64.7315H80.8306C82.2929 4.00257 83.4896 5.15881 83.4896 6.57229V7.88874C83.4896 9.30222 82.2931 10.4587 80.8306 10.4587H71.4846C67.5594 10.8446 67.2166 14.3762 67.2166 16.4233V16.6499H67.209V20.7032V21.7142V22.7249C67.209 23.5472 66.5441 24.219 65.7316 24.219H57.1268C56.3139 24.219 55.6492 23.5472 55.6492 22.7249V21.7142V20.7032V10.6277C55.6492 8.23404 56.0686 4.00257 61.1104 4.00257Z" fill="#FEFEFE"/>
<path fill-rule="evenodd" clip-rule="evenodd" d="M42.945 18.8743H50.7967C52.3436 18.8743 53.6088 20.0599 53.6088 21.5086C53.6088 22.9573 52.3434 24.1431 50.7967 24.1431H42.945C41.3981 24.1431 40.1328 22.9575 40.1328 21.5086C40.1328 20.0601 41.3983 18.8743 42.945 18.8743ZM52.4948 13.4525V13.6827V15.0578C52.4948 16.2338 51.7275 17.1951 50.7887 17.1951H42.9532C42.0146 17.1951 41.2471 16.2338 41.2471 15.0578V13.6827V13.4525V3.75795V2.2677V2.15222C41.2471 0.976849 42.0146 0.015625 42.9532 0.015625H50.7887C51.7275 0.015625 52.4948 0.976849 52.4948 2.15222V2.2677V3.75795V13.4525Z" fill="#E85222"/>
<path d="M34.5943 38.4127C34.4496 38.7495 34.2993 39.066 34.1437 39.3625C33.988 39.6588 33.8036 39.9171 33.59 40.1365C33.3764 40.356 33.1196 40.5281 32.8191 40.6526C32.5189 40.7768 32.148 40.8393 31.7066 40.8393C31.6198 40.8393 31.5293 40.8338 31.4351 40.8227C31.3413 40.8117 31.2506 40.7972 31.164 40.7789C31.0771 40.7607 31.0012 40.7404 30.9358 40.7186C30.8708 40.6967 30.8236 40.6747 30.7947 40.6528L30.9793 39.7525C31.0732 39.7891 31.1872 39.8256 31.3212 39.8622C31.4552 39.8988 31.5945 39.9173 31.7393 39.9173C31.9562 39.9173 32.1464 39.8899 32.3093 39.835C32.4721 39.7799 32.6187 39.7031 32.7488 39.6042C32.8791 39.5055 32.9949 39.3848 33.0961 39.2419C33.1975 39.0992 33.2951 38.9399 33.3892 38.7642C33.0708 38.2447 32.7707 37.7267 32.4882 37.2109C32.2058 36.6947 31.9455 36.1955 31.7066 35.7123C31.4678 35.2292 31.2506 34.77 31.0552 34.3344C30.8599 33.8989 30.6862 33.498 30.5342 33.1322H31.7283C31.9672 33.7691 32.2729 34.4791 32.6455 35.2621C33.0181 36.0451 33.4326 36.8651 33.8886 37.7215C34.1781 37.0553 34.4548 36.3215 34.719 35.5201C34.9831 34.7188 35.2309 33.9226 35.4625 33.1322H36.6023C36.436 33.6592 36.2693 34.1553 36.1029 34.6199C35.9366 35.0848 35.7699 35.5312 35.6036 35.9592C35.4372 36.3875 35.2705 36.8047 35.1042 37.2109C34.9378 37.617 34.768 38.0176 34.5943 38.4127ZM46.0571 35.3278C46.0571 35.6353 46.0842 35.9043 46.1384 36.1349C46.1927 36.3656 46.2868 36.5558 46.4208 36.7058C46.5546 36.8559 46.7355 36.9675 46.9635 37.0408C47.1914 37.1138 47.4791 37.1504 47.8265 37.1504C47.9639 37.1504 48.1032 37.1452 48.2445 37.1341C48.3856 37.123 48.5212 37.1101 48.6515 37.0956C48.7817 37.0811 48.8975 37.0626 48.9987 37.0408C49.1001 37.0189 49.1833 37.0006 49.2485 36.9856V33.1322H50.3016V40.7404H49.2485V37.9081C49.1111 37.9448 48.8993 37.9812 48.6135 38.0179C48.3274 38.0545 48.0218 38.0727 47.696 38.0727C47.1461 38.0727 46.6975 38.0089 46.3501 37.8807C46.0028 37.7525 45.7296 37.5696 45.5306 37.3319C45.3316 37.094 45.1957 36.8049 45.1235 36.4645C45.0512 36.124 45.0147 35.7455 45.0147 35.3281V33.1324H46.0568L46.0571 35.3278ZM59.8647 40.7404V33.1322H60.8961V38.7642C61.1277 38.3763 61.4117 37.9338 61.7483 37.4359C62.085 36.9381 62.4431 36.4313 62.8231 35.9152C63.203 35.3991 63.5866 34.8979 63.9736 34.4111C64.3609 33.9243 64.7246 33.498 65.0647 33.132H65.9008V40.7402H64.8694V34.8009C64.6668 35.0351 64.4459 35.3057 64.207 35.6132C63.9682 35.9207 63.722 36.248 63.4687 36.5958C63.2155 36.9435 62.9605 37.304 62.7034 37.6772C62.4465 38.0504 62.1988 38.4183 61.9598 38.7807C61.721 39.143 61.4985 39.4924 61.2923 39.829C61.0858 40.1658 60.9031 40.4696 60.7439 40.7402L59.8647 40.7404ZM80.4898 33.1322V34.0544H78.1232V40.7404H77.0702V34.0544H74.7036V33.1322H80.4898ZM94.6449 38.3581C94.6449 39.1778 94.3517 39.7926 93.7655 40.2024C93.1793 40.6123 92.3542 40.8172 91.2904 40.8172C90.9866 40.8172 90.6536 40.8045 90.2918 40.7789C89.9299 40.7533 89.5972 40.7037 89.2931 40.6304V33.1322H90.3462V35.899C90.4908 35.8843 90.6374 35.8751 90.7858 35.8716C90.9342 35.8679 91.0808 35.866 91.2254 35.866C93.505 35.866 94.6449 36.6966 94.6449 38.3581ZM93.5376 38.3581C93.5376 38.0506 93.4794 37.7945 93.3639 37.5896C93.248 37.3847 93.0872 37.2235 92.8807 37.1065C92.6744 36.9896 92.4285 36.9071 92.1425 36.8593C91.8566 36.8118 91.54 36.7878 91.1926 36.7878C91.0552 36.7878 90.9159 36.7878 90.7746 36.7878C90.6336 36.7878 90.4906 36.7953 90.3458 36.81V39.8508C90.4763 39.8655 90.6226 39.8748 90.7856 39.8784C90.9483 39.882 91.1455 39.8836 91.3772 39.8836C91.6594 39.8836 91.9309 39.8617 92.1915 39.8179C92.4522 39.7741 92.6817 39.6935 92.8807 39.5764C93.0799 39.4592 93.239 39.3037 93.3584 39.1098C93.4779 38.9159 93.5376 38.6655 93.5376 38.3581ZM132.616 40.8063C132.465 40.8063 132.3 40.8026 132.122 40.7953C131.945 40.7879 131.767 40.7771 131.59 40.7623C131.412 40.7478 131.237 40.7293 131.064 40.7075C130.89 40.6856 130.731 40.6563 130.586 40.6197V33.2422C130.731 33.2055 130.89 33.1765 131.064 33.1543C131.237 33.1322 131.412 33.114 131.59 33.0993C131.767 33.0848 131.943 33.0737 132.117 33.0663C132.29 33.0589 132.453 33.0552 132.605 33.0552C133.04 33.0552 133.447 33.0882 133.826 33.1541C134.207 33.2198 134.535 33.3316 134.815 33.4888C135.093 33.6463 135.312 33.8528 135.471 34.1092C135.63 34.3652 135.71 34.6801 135.71 35.0533C135.71 35.4705 135.612 35.8128 135.417 36.0797C135.222 36.3469 134.96 36.5463 134.635 36.6782C135.076 36.81 135.428 37.0186 135.689 37.3037C135.949 37.5894 136.079 37.9918 136.079 38.5114C136.079 39.2725 135.802 39.8454 135.248 40.2297C134.695 40.6139 133.818 40.8063 132.616 40.8063ZM131.628 37.1945V39.8732C131.708 39.8806 131.801 39.8878 131.911 39.8951C132.004 39.9025 132.115 39.908 132.241 39.9118C132.368 39.9154 132.515 39.9173 132.681 39.9173C132.992 39.9173 133.287 39.897 133.566 39.8569C133.844 39.8165 134.089 39.7453 134.298 39.6427C134.509 39.5402 134.677 39.3977 134.803 39.2147C134.93 39.0317 134.993 38.8009 134.993 38.5229C134.993 38.2742 134.946 38.0638 134.852 37.8915C134.758 37.7195 134.622 37.5825 134.445 37.4798C134.267 37.3775 134.056 37.3042 133.81 37.2604C133.564 37.2167 133.289 37.1947 132.985 37.1947L131.628 37.1945ZM131.628 36.3382H132.736C132.996 36.3382 133.242 36.3199 133.473 36.2832C133.705 36.2467 133.906 36.1807 134.076 36.0858C134.246 35.9905 134.38 35.866 134.478 35.7125C134.576 35.5588 134.625 35.365 134.625 35.1305C134.625 34.9111 134.574 34.7262 134.473 34.5761C134.372 34.4261 134.231 34.3052 134.055 34.2138C133.877 34.1223 133.669 34.0544 133.43 34.0107C133.192 33.9669 132.938 33.945 132.67 33.945C132.402 33.945 132.192 33.9487 132.04 33.9561C131.888 33.9634 131.751 33.9742 131.628 33.989V36.3382ZM145.501 40.7404V42.7714H144.503V39.8292H145.295C145.663 39.4048 145.947 38.9346 146.147 38.4185C146.346 37.9024 146.49 37.3573 146.581 36.7826C146.671 36.2081 146.726 35.6134 146.743 34.9986C146.761 34.3837 146.774 33.7617 146.782 33.1322H151.037V39.8292H151.982V42.7714H150.982V40.7404H145.501ZM147.814 34.0435C147.791 34.5266 147.768 35.0187 147.743 35.5201C147.717 36.0215 147.663 36.5191 147.58 37.0131C147.497 37.507 147.376 37.9921 147.216 38.4679C147.057 38.9433 146.833 39.3973 146.544 39.829H149.984V34.0432L147.814 34.0435ZM160.502 36.9308C160.502 36.2796 160.599 35.7047 160.79 35.2073C160.983 34.7097 161.243 34.2943 161.573 33.9611C161.901 33.6283 162.285 33.3775 162.723 33.2092C163.161 33.0409 163.625 32.9565 164.117 32.9565C164.603 32.9565 165.06 33.0409 165.491 33.2092C165.921 33.3775 166.3 33.6283 166.625 33.9611C166.951 34.2943 167.21 34.7097 167.402 35.2073C167.593 35.705 167.689 36.2796 167.689 36.9308C167.689 37.5823 167.593 38.1569 167.402 38.6546C167.21 39.1522 166.951 39.5676 166.625 39.9004C166.3 40.2335 165.921 40.4841 165.491 40.6526C165.06 40.8209 164.603 40.905 164.117 40.905C163.625 40.905 163.161 40.8206 162.723 40.6526C162.285 40.4843 161.901 40.2335 161.573 39.9004C161.243 39.5674 160.983 39.152 160.79 38.6546C160.599 38.1569 160.502 37.5823 160.502 36.9308ZM161.61 36.9308C161.61 37.392 161.668 37.8109 161.784 38.188C161.899 38.5649 162.064 38.8851 162.277 39.1485C162.491 39.4122 162.752 39.6151 163.06 39.7577C163.367 39.9004 163.713 39.9719 164.096 39.9719C164.48 39.9719 164.823 39.9004 165.127 39.7577C165.431 39.6151 165.691 39.412 165.904 39.1485C166.117 38.8851 166.282 38.5649 166.398 38.188C166.513 37.8109 166.572 37.392 166.572 36.9308C166.572 36.4697 166.513 36.0507 166.398 35.6738C166.282 35.2969 166.117 34.9768 165.904 34.7131C165.691 34.4496 165.431 34.2465 165.127 34.1038C164.823 33.9611 164.48 33.8899 164.096 33.8899C163.713 33.8899 163.367 33.9611 163.06 34.1038C162.752 34.2465 162.491 34.4498 162.277 34.7131C162.064 34.9768 161.9 35.2967 161.784 35.6738C161.668 36.0507 161.61 36.4697 161.61 36.9308ZM181.464 40.7404C181.356 40.521 181.226 40.2776 181.074 40.0104C180.922 39.7432 180.755 39.465 180.574 39.176C180.394 38.8867 180.205 38.5978 180.01 38.3085C179.814 38.0195 179.626 37.7471 179.445 37.4907C179.265 37.7471 179.077 38.0197 178.881 38.3085C178.685 38.5978 178.499 38.8867 178.322 39.176C178.144 39.4652 177.977 39.7432 177.822 40.0104C177.667 40.2776 177.534 40.5208 177.426 40.7404H176.264C176.59 40.0962 176.968 39.4413 177.399 38.7753C177.83 38.1093 178.287 37.425 178.771 36.7224L176.362 33.1324H177.578L179.434 35.9649L181.268 33.1324H182.474L180.108 36.6786C180.6 37.3886 181.062 38.0801 181.497 38.7535C181.931 39.4268 182.314 40.0891 182.647 40.7406L181.464 40.7404ZM196.227 33.1322H197.281V40.7404H196.227V37.2272H192.548V40.7404H191.494V33.1322H192.548V36.3052H196.227V33.1322ZM206.539 36.9308C206.539 36.2796 206.636 35.7047 206.827 35.2073C207.019 34.7097 207.28 34.2943 207.609 33.9611C207.938 33.6283 208.322 33.3775 208.76 33.2092C209.198 33.0409 209.662 32.9565 210.154 32.9565C210.639 32.9565 211.097 33.0409 211.528 33.2092C211.958 33.3775 212.337 33.6283 212.662 33.9611C212.988 34.2943 213.247 34.7097 213.439 35.2073C213.63 35.705 213.726 36.2796 213.726 36.9308C213.726 37.5823 213.63 38.1569 213.439 38.6546C213.247 39.1522 212.988 39.5676 212.662 39.9004C212.337 40.2335 211.958 40.4841 211.528 40.6526C211.097 40.8209 210.639 40.905 210.154 40.905C209.662 40.905 209.198 40.8206 208.76 40.6526C208.322 40.4843 207.938 40.2335 207.609 39.9004C207.28 39.5674 207.019 39.152 206.827 38.6546C206.636 38.1569 206.539 37.5823 206.539 36.9308ZM207.647 36.9308C207.647 37.392 207.705 37.8109 207.821 38.188C207.936 38.5649 208.101 38.8851 208.314 39.1485C208.528 39.4122 208.789 39.6151 209.097 39.7577C209.404 39.9004 209.749 39.9719 210.133 39.9719C210.517 39.9719 210.86 39.9004 211.164 39.7577C211.468 39.6151 211.727 39.412 211.94 39.1485C212.154 38.8851 212.319 38.5649 212.434 38.188C212.55 37.8109 212.608 37.392 212.608 36.9308C212.608 36.4697 212.55 36.0507 212.434 35.6738C212.319 35.2969 212.154 34.9768 211.94 34.7131C211.727 34.4496 211.468 34.2465 211.164 34.1038C210.86 33.9611 210.517 33.8899 210.133 33.8899C209.749 33.8899 209.404 33.9611 209.097 34.1038C208.789 34.2465 208.528 34.4498 208.314 34.7131C208.101 34.9768 207.937 35.2967 207.821 35.6738C207.705 36.0507 207.647 36.4697 207.647 36.9308ZM225.016 40.8061C224.864 40.8061 224.699 40.8024 224.521 40.795C224.344 40.7877 224.166 40.7768 223.989 40.7621C223.812 40.7476 223.637 40.7291 223.463 40.7072C223.289 40.6854 223.13 40.656 222.985 40.6195V33.242C223.13 33.2053 223.289 33.1763 223.463 33.1541C223.637 33.132 223.812 33.1138 223.989 33.099C224.166 33.0845 224.342 33.0734 224.516 33.0661C224.689 33.0587 224.852 33.055 225.004 33.055C225.439 33.055 225.846 33.088 226.225 33.1539C226.606 33.2196 226.935 33.3314 227.214 33.4886C227.492 33.646 227.711 33.8526 227.871 34.1089C228.029 34.365 228.109 34.6799 228.109 35.053C228.109 35.4703 228.011 35.8126 227.817 36.0795C227.621 36.3467 227.361 36.5461 227.034 36.678C227.476 36.8098 227.827 37.0184 228.088 37.3035C228.348 37.5891 228.479 37.9916 228.479 38.5112C228.479 39.2723 228.201 39.8451 227.648 40.2293C227.094 40.6137 226.217 40.8061 225.016 40.8061ZM224.027 37.1943V39.873C224.107 39.8804 224.201 39.8875 224.31 39.8949C224.403 39.9023 224.514 39.9078 224.64 39.9115C224.768 39.9152 224.914 39.9171 225.081 39.9171C225.392 39.9171 225.686 39.8967 225.965 39.8566C226.243 39.8163 226.488 39.7451 226.698 39.6425C226.908 39.54 227.076 39.3975 227.202 39.2144C227.329 39.0315 227.392 38.8007 227.392 38.5227C227.392 38.2739 227.346 38.0635 227.251 37.8913C227.158 37.7193 227.022 37.5822 226.844 37.4796C226.668 37.3773 226.455 37.3039 226.209 37.2602C225.964 37.2163 225.689 37.1945 225.385 37.1945L224.027 37.1943ZM224.027 36.338H225.135C225.395 36.338 225.642 36.3197 225.874 36.283C226.104 36.2464 226.305 36.1805 226.475 36.0855C226.645 35.9903 226.779 35.8658 226.877 35.7123C226.975 35.5586 227.024 35.3648 227.024 35.1303C227.024 34.9108 226.973 34.726 226.872 34.5759C226.771 34.4259 226.631 34.305 226.454 34.2135C226.276 34.1221 226.068 34.0542 225.83 34.0105C225.591 33.9666 225.338 33.9448 225.07 33.9448C224.802 33.9448 224.592 33.9484 224.44 33.9559C224.288 33.9632 224.15 33.974 224.027 33.9888V36.338ZM240.234 34.0435C240.22 34.4535 240.205 34.8505 240.191 35.2347C240.177 35.6192 240.154 35.9923 240.126 36.3547C240.097 36.7171 240.053 37.07 239.996 37.4141C239.938 37.7581 239.858 38.0948 239.757 38.424C239.656 38.7535 239.53 39.0625 239.383 39.3518C239.234 39.6409 239.049 39.8935 238.829 40.1093C238.608 40.3252 238.347 40.4991 238.047 40.6308C237.747 40.7625 237.394 40.8359 236.989 40.8504L236.87 39.9281C237.376 39.8693 237.769 39.7084 238.048 39.4449C238.326 39.1812 238.556 38.7787 238.736 38.2374C238.939 37.6226 239.067 36.8815 239.122 36.0143C239.176 35.1469 239.203 34.1863 239.203 33.1322H243.47V40.7404H242.416V34.0435H240.234ZM255.952 33.9885C255.678 33.9885 255.415 34.0105 255.166 34.0542C254.916 34.0983 254.694 34.1751 254.498 34.285C254.302 34.3947 254.147 34.5447 254.031 34.7349C253.916 34.9254 253.857 35.1632 253.857 35.4486C253.857 35.9903 254.029 36.3654 254.374 36.5739C254.717 36.7826 255.233 36.8867 255.92 36.8867H257.006V34.0213C256.926 34.0213 256.832 34.0176 256.724 34.0103C256.629 34.0028 256.519 33.9976 256.392 33.9939C256.266 33.9902 256.119 33.9883 255.953 33.9883L255.952 33.9885ZM256.039 33.0554C256.191 33.0554 256.354 33.0591 256.528 33.0665C256.702 33.0739 256.877 33.0847 257.054 33.0995C257.232 33.114 257.407 33.1324 257.581 33.1546C257.755 33.1765 257.913 33.2057 258.059 33.2424V40.7406H257.006V37.7654H256.104C256.003 37.7654 255.897 37.7636 255.784 37.76C255.673 37.7562 255.522 37.7435 255.334 37.7217C255.204 37.8971 255.062 38.1022 254.91 38.3365C254.758 38.5706 254.606 38.8196 254.454 39.0831C254.302 39.3466 254.153 39.6211 254.004 39.9064C253.855 40.192 253.72 40.4703 253.597 40.7408H252.489C252.605 40.4553 252.743 40.159 252.901 39.8516C253.061 39.544 253.226 39.2515 253.396 38.9733C253.566 38.6953 253.73 38.4374 253.885 38.1995C254.04 37.9614 254.176 37.7659 254.292 37.6122C254.125 37.561 253.952 37.4877 253.771 37.3927C253.589 37.2975 253.423 37.1657 253.271 36.9977C253.119 36.8293 252.994 36.619 252.896 36.3662C252.798 36.1136 252.751 35.8116 252.751 35.4603C252.751 35.0653 252.826 34.7174 252.978 34.4174C253.13 34.1174 253.349 33.8666 253.635 33.6654C253.921 33.4642 254.266 33.3123 254.671 33.2097C255.076 33.107 255.532 33.0554 256.039 33.0554ZM272.648 33.1322V34.0544H270.281V40.7404H269.229V34.0544H266.861V33.1322H272.648ZM286.803 38.3581C286.803 39.1778 286.51 39.7926 285.923 40.2024C285.338 40.6123 284.512 40.8172 283.449 40.8172C283.145 40.8172 282.811 40.8045 282.45 40.7789C282.088 40.7533 281.756 40.7037 281.452 40.6304V33.1322H282.504V35.899C282.648 35.8843 282.795 35.8751 282.944 35.8716C283.092 35.8679 283.238 35.866 283.383 35.866C285.663 35.866 286.804 36.6968 286.804 38.3583L286.803 38.3581ZM285.696 38.3581C285.696 38.0506 285.638 37.7945 285.522 37.5896C285.406 37.3847 285.245 37.2235 285.039 37.1065C284.833 36.9896 284.586 36.9071 284.3 36.8593C284.014 36.8118 283.698 36.7878 283.351 36.7878C283.213 36.7878 283.074 36.7878 282.932 36.7878C282.792 36.7878 282.648 36.7953 282.504 36.81V39.8508C282.635 39.8655 282.78 39.8748 282.944 39.8784C283.107 39.882 283.303 39.8836 283.535 39.8836C283.818 39.8836 284.089 39.8617 284.349 39.8179C284.611 39.7741 284.839 39.6935 285.039 39.5764C285.238 39.4592 285.397 39.3037 285.516 39.1098C285.635 38.9159 285.696 38.6655 285.696 38.3581Z" fill="#FEFEFE"/>
<path d="M109.331 40.74V33.1318H110.363V38.7638C110.594 38.3759 110.879 37.9333 111.215 37.4354C111.552 36.9377 111.91 36.4309 112.289 35.9148C112.67 35.3987 113.054 34.8975 113.44 34.4106C113.827 33.9239 114.191 33.4976 114.531 33.1316H115.368V40.7398H114.337V34.8004C114.134 35.0347 113.912 35.3052 113.673 35.6128C113.435 35.9202 113.189 36.2476 112.936 36.5955C112.683 36.943 112.427 37.3036 112.17 37.6768C111.913 38.0499 111.665 38.4178 111.426 38.7802C111.188 39.1426 110.965 39.492 110.759 39.8285C110.552 40.1653 110.37 40.4691 110.21 40.7398L109.331 40.74Z" fill="#E85222"/>
</g>
</svg>
