<svg xmlns="http://www.w3.org/2000/svg" width="1300" height="600" viewBox="0 0 1300 600" fill="none">
<path d="M306.777 581.474C301.911 579.658 300.55 577.879 301.706 574.847C302.241 573.442 303.27 572.293 303.991 572.293C304.713 572.293 307.872 573.949 311.012 575.973C314.151 577.996 317.99 580.112 319.543 580.674L322.365 581.696L318.893 581.772C316.983 581.813 314.181 582.026 312.666 582.245C311.151 582.464 308.501 582.117 306.777 581.474ZM295.732 572.151C294.816 571.64 293.288 571.468 292.337 571.768C291.14 572.147 290.215 571.583 289.329 569.932C288.626 568.621 287.364 567.313 286.527 567.025C284.605 566.366 280.576 559.856 278.333 553.786C277.201 550.721 275.678 548.602 273.87 547.576C270.661 545.756 270.431 544.931 272.915 544.145C275.756 543.245 276.284 538.25 273.893 534.901C272.751 533.302 272.151 531.425 272.495 530.531C272.901 529.476 271.78 527.626 269.068 524.87C265.645 521.391 265.012 520.127 264.859 516.461C264.76 514.089 264.181 511.549 263.572 510.817C262.805 509.895 262.648 506.587 263.062 500.046C263.511 492.957 263.25 488.582 262.013 482.484C260.176 473.429 259.238 456.556 259.715 441.163C259.817 437.878 259.39 433.369 258.767 431.143C257.249 425.72 250.263 418.875 241.629 414.351C235.454 411.115 234.586 410.285 232.172 405.314C230.71 402.304 227.916 397.805 225.963 395.316C224.01 392.828 221.887 389.173 221.245 387.195C219.207 380.917 215.614 374.609 213.164 373.008C211.861 372.157 210.374 369.942 209.861 368.087C209.03 365.085 209.249 364.247 211.85 360.476C214.671 356.387 214.704 356.22 212.798 355.723C208.114 354.502 210.084 348.258 218.492 337.677C224.08 330.644 225.717 325.287 224.169 319.098C223.579 316.739 223.051 314.272 222.995 313.615C222.939 312.958 222.519 312.421 222.062 312.421C221.604 312.421 221.692 311.559 222.257 310.506C223.128 308.883 222.908 308.419 220.815 307.468C217.765 306.082 213.16 307.453 213.142 309.751C213.12 312.508 211.905 312.711 207.897 310.628C205.75 309.512 203.521 308.599 202.942 308.599C202.364 308.599 200.114 307.073 197.942 305.207C195.771 303.341 193.455 301.39 192.797 300.87C192.138 300.35 191.599 298.934 191.599 297.722C191.599 296.511 190.753 294.756 189.719 293.823C188.685 292.889 187.345 290.633 186.742 288.809C185.948 286.412 185.354 285.782 184.598 286.536C183.02 288.11 180.683 287.811 175.011 285.31C172.046 284.002 168.958 281.769 167.724 280.041C166.546 278.391 164.296 276.378 162.723 275.567C160.128 274.228 159.479 274.239 155.699 275.679L151.534 277.265L138.755 271.089C130.895 267.291 124.794 263.667 122.905 261.674C119.975 258.584 119.88 258.249 120.855 254.419C121.748 250.91 121.596 249.824 119.654 245.822C118.431 243.303 115.76 239.434 113.717 237.224C111.675 235.014 110.236 232.832 110.519 232.374C110.803 231.917 109.364 228.833 107.322 225.521C105.002 221.759 103.365 217.729 102.959 214.78C102.437 211 101.83 209.843 99.9066 208.969C97.8681 208.043 97.2981 208.161 96.1309 209.751C94.4869 211.991 94.9543 214.356 98.5892 222.19C100.066 225.373 101.593 230.092 101.981 232.677C102.37 235.261 103.518 238.998 104.532 240.981C106.935 245.678 105.383 245.595 101.595 240.824C99.3602 238.01 98.7567 236.467 99.2008 234.703C99.6749 232.818 99.2081 231.911 96.8856 230.198C93.3633 227.601 92.6178 225.926 93.9117 223.515C94.6662 222.109 94.3202 220.567 92.404 216.796C90.4581 212.966 90.0511 211.111 90.5329 208.267C91.3205 203.618 89.229 199.41 85.3302 197.799C83.0791 196.869 82.3031 195.829 81.8444 193.126C81.5199 191.214 80.8984 188.256 80.4633 186.552C80.0107 184.78 80.0436 183.226 80.5403 182.92C81.0177 182.625 80.7053 181.315 79.8461 180.007C78.5806 178.081 78.494 177.169 79.3899 175.208C79.9982 173.876 80.2279 172.354 79.9002 171.825C79.5725 171.297 80.3891 169.717 81.7149 168.314C83.0407 166.912 84.8057 164.115 85.6373 162.099C86.4688 160.083 89.0312 156.346 91.3316 153.794C93.632 151.242 96.5484 146.773 97.8124 143.861C99.5669 139.82 100.595 138.564 102.16 138.552C103.287 138.543 104.149 139.073 104.076 139.729C103.771 142.467 105.941 141.623 108.378 138.058C109.815 135.956 110.59 134.093 110.101 133.917C109.612 133.742 109.212 132.951 109.212 132.16C109.212 131.369 107.228 128.799 104.804 126.45C100.784 122.553 100.526 122.036 101.863 120.563C102.946 119.369 103.073 118.494 102.351 117.206C101.081 114.944 103.084 109.879 105.256 109.858C106.153 109.85 106.409 109.545 105.859 109.142C104.623 108.236 104.063 106.18 104.237 103.185C104.514 98.4009 103.464 96.3998 99.8978 94.9137C97.9742 94.1121 95.0389 92.4207 93.375 91.155C91.7111 89.8893 89.6001 88.8537 88.6838 88.8537C87.7675 88.8537 83.6025 87.984 79.4283 86.9211C72.7173 85.2123 71.5345 85.1448 69.2097 86.338C64.392 88.8109 59.2878 89.8188 57.207 88.7081C55.6461 87.875 53.9428 88.3895 48.0033 91.488C43.9946 93.5792 39.206 95.6147 37.3618 96.0113C35.5177 96.4079 31.9884 97.7477 29.519 98.9887C22.5146 102.509 12.4808 106.057 9.70539 105.995C7.91418 105.956 9.12519 105.172 13.8909 103.287C21.9903 100.084 30.3129 95.9126 31.0827 94.6703C32.0308 93.1404 29.9727 92.5914 27.5004 93.7148C25.6802 94.542 24.5584 94.4646 22.4579 93.367L19.7565 91.9554L22.6951 90.4399C26.017 88.7267 27.062 86.7884 26.2987 83.7557C25.5595 80.8185 29.6351 78.6603 38.415 77.3398C43.1326 76.6302 46.7189 75.4491 49.1335 73.8099C53.3913 70.9192 52.6598 68.7345 48.0691 70.6309C45.8959 71.5286 44.3129 71.5384 41.0945 70.6742C37.1833 69.6238 37.0439 69.4739 38.7934 68.1981C41.7207 66.0634 47.775 64.7794 51.7528 65.4496C54.2699 65.8737 56.3317 65.5768 58.4477 64.4855L61.5054 62.9086L59.4926 60.7718C58.3855 59.5965 57.4797 58.3823 57.4797 58.0735C57.4797 57.187 63.2469 55.4142 66.1306 55.4142C67.5699 55.4142 71.5157 54.3751 74.899 53.105C78.2823 51.835 86.0881 50.1011 92.2451 49.2519C102.231 47.8747 104.346 47.8579 111.834 49.0961C116.451 49.8596 122.815 50.7702 125.976 51.1196C129.138 51.4691 134.733 52.5783 138.411 53.5846C146.953 55.9217 152.516 55.8932 162.058 53.4634C166.272 52.3905 170.531 51.7694 171.522 52.0832C172.514 52.397 174.199 52.187 175.268 51.6165C176.741 50.8304 177.883 50.9254 179.985 52.0092C181.883 52.9884 184.227 53.2679 187.418 52.8956C190.784 52.5028 193.732 52.9096 198.035 54.3607C201.312 55.4656 204.951 56.3696 206.122 56.3696C208.196 56.3696 208.203 56.4047 206.392 57.7345C204.615 59.0385 204.61 59.1295 206.278 59.7742C207.238 60.1453 210.572 60.1834 213.686 59.8588C219.311 59.2725 219.359 59.289 220.928 62.3136L222.507 65.3586L224.556 62.7952C225.734 61.3221 228.533 59.6533 231.136 58.8719C235.071 57.6909 236.265 57.6948 240.217 58.9018C243.007 59.7539 246.346 60.0643 248.847 59.7041C252.031 59.2454 253.51 59.5311 255.587 61.0065C258.21 62.8691 258.283 62.8701 260.609 61.072C261.908 60.0685 264.579 58.8004 266.546 58.2538C271.255 56.9454 272.852 54.1574 270.024 52.182C268.024 50.7851 268.112 50.6785 273.368 48.1074C277.289 46.1899 279.054 45.7544 279.818 46.5165C280.582 47.2786 280.574 48.1168 279.79 49.5792C278.452 52.0716 280.117 55.839 282.203 55.0406C282.953 54.7536 284.197 54.76 284.968 55.0549C286.178 55.5181 286.159 55.9108 284.825 57.9402C281.142 63.5466 289.4 61.9581 294.99 55.9849C297.263 53.5564 300.785 52.8201 304.085 54.0833C306.217 54.8991 306.017 55.5669 302.487 59.4272C298.28 64.0275 296.128 64.9683 289.809 64.9683C286.755 64.9683 283.15 65.6281 281.47 66.4945C279.145 67.6937 278.011 67.7934 276.177 66.96C272.758 65.4063 271.568 66.6995 274.02 69.3033L276.114 71.5259L271.937 72.7082C269.639 73.3585 265.82 73.9533 263.449 74.0302C260.01 74.1416 259.136 74.5139 259.131 75.8694C259.126 77.0294 257.454 78.2501 253.862 79.7143C242.225 84.4585 232.352 93.0126 235.927 95.2553C236.596 95.6755 237.659 97.1898 238.289 98.6203C239.014 100.268 240.412 101.417 242.101 101.754C243.568 102.047 247.354 103.557 250.516 105.109C253.677 106.662 257.557 108.213 259.138 108.557C263.49 109.503 263.528 109.602 261.501 114.73C259.767 119.118 259.732 119.744 261.076 122.335C261.881 123.889 263.068 125.144 263.713 125.126C266.852 125.035 269.795 122.146 271.624 117.36C273.367 112.798 274.162 111.948 279.165 109.283C286.548 105.349 289.619 101.476 288.801 97.1256C288.268 94.2923 288.545 93.6273 290.976 91.9005C292.509 90.8122 294.538 88.2076 295.485 86.1124C297.603 81.4292 301.005 79.8058 306.743 80.7413C311.832 81.571 317.849 84.7929 318.576 87.0769C318.875 88.0144 318.627 89.6982 318.026 90.8186C317.115 92.5155 317.287 93.232 319.056 95.1097L321.179 97.3638L324.646 95.5713C326.553 94.5855 329.61 92.6623 331.438 91.2977L334.763 88.8164L335.544 90.9224C335.974 92.0806 336.096 93.6249 335.815 94.3542C335.535 95.0834 335.753 96.5144 336.3 97.5343C336.916 98.6816 336.964 99.9793 336.426 100.938C335.819 102.019 336.225 103.661 337.767 106.368C339.975 110.246 339.976 110.249 338.036 111.604C335.484 113.387 337.121 115.278 339.923 113.783C342.705 112.298 345.89 112.491 347.854 114.264C350.758 116.884 348.343 120.02 340.636 123.636C332.253 127.569 328.517 128.348 317.576 128.445C309.496 128.516 308.426 128.773 300.571 132.528C295.961 134.732 292.189 136.914 292.189 137.376C292.189 139.348 293.641 139.176 299.215 136.546C302.499 134.997 306.732 133.759 308.748 133.759C312.191 133.758 312.317 133.864 311.242 135.868C310.619 137.029 309.275 138.652 308.256 139.475C306.654 140.769 306.56 141.315 307.563 143.51C309.067 146.803 312.995 148.387 317.694 147.596L321.408 146.971L318.552 148.936C316.982 150.016 314.395 151.181 312.804 151.523C311.213 151.866 307.944 153.135 305.538 154.344C303.096 155.571 300.643 156.22 299.984 155.814C298.468 154.879 300.069 153.477 304.994 151.425C309.375 149.599 308.675 147.66 303.954 148.543C302.115 148.887 296.151 151.127 290.702 153.521C282.196 157.258 280.713 158.244 280.217 160.493C279.609 163.257 277.532 164.564 270.231 166.779C267.902 167.486 264.884 169.194 263.525 170.574C262.166 171.955 259.563 174.022 257.741 175.168C255.92 176.313 254.175 178.321 253.865 179.629C253.354 181.784 253.236 181.835 252.596 180.175C251.397 177.064 249.591 180.105 249.487 185.41C249.38 190.845 246.618 194.552 240.559 197.391C234.348 200.302 225.509 207.18 223.718 210.496C222.137 213.424 222.071 214.565 223.045 222.091C223.954 229.111 223.9 230.873 222.704 233.18C221.811 234.902 220.769 235.725 219.902 235.393C217.846 234.607 215.332 226.171 216.036 222.425C216.526 219.823 216.202 218.837 214.258 217.015C212.691 215.547 211.244 214.989 210.015 215.378C208.988 215.703 206.087 215.087 203.563 214.008C199.697 212.356 198.464 212.217 195.703 213.126C193.832 213.742 191.973 215.202 191.364 216.535C190.458 218.518 189.858 218.772 187.356 218.236C185.738 217.888 183.25 217.011 181.827 216.286C178.323 214.501 176.36 214.625 172.424 216.883C170.588 217.935 166.842 219.95 164.099 221.36C160.947 222.981 158.781 224.825 158.213 226.373C157.719 227.72 155.953 232.97 154.288 238.041L151.261 247.259L152.807 253.21C155.648 264.143 159.6 267.416 167.835 265.655C174.043 264.327 177.771 261.637 179.142 257.495C180.012 254.865 180.951 253.996 183.761 253.217C187.991 252.046 189.757 252.002 191.382 253.031C192.722 253.879 192.251 255.275 186.249 268.235C182.13 277.128 182.427 277.923 189.483 276.908C195.911 275.984 201.787 276.693 202.473 278.477C202.741 279.173 202.306 283.865 201.506 288.906C200.076 297.922 200.086 298.124 202.145 301.447C203.296 303.304 205.454 305.451 206.941 306.218C209.314 307.441 210.059 307.439 213.045 306.194C217.79 304.217 220.366 304.426 223.662 307.056C226.297 309.159 226.669 309.218 228.74 307.865C229.969 307.061 231.646 305.071 232.466 303.441C234.316 299.766 237.432 297.183 240.05 297.155C241.144 297.144 243.051 296.059 244.289 294.745C246.802 292.078 251.227 291.208 249.064 293.807C247.249 295.989 246.211 303.004 247.381 305.184C248.355 307 248.434 306.989 250.206 304.806C251.468 303.252 251.723 302.255 251.033 301.567C249.388 299.926 249.883 298.562 252.945 296.305C256.124 293.961 258.583 294.201 261.326 297.124C263.337 299.268 274.076 302.165 277.153 301.395C281.84 300.221 294.504 307.901 299.262 314.801C301.528 318.087 308.766 321.393 311.949 320.597C318.495 318.958 327.471 325.5 329.57 333.44C330.195 335.804 331.138 338.007 331.665 338.334C333.062 339.203 330.969 342.634 326.392 346.976C323.468 349.75 322.769 350.944 323.592 351.765C324.415 352.585 325.767 351.866 329.014 348.881C333.736 344.54 335.312 344.099 337.678 346.459C339.117 347.894 339.073 348.186 337.1 350.28C335.926 351.528 334.285 352.575 333.455 352.609C332.58 352.644 332.934 353.063 334.296 353.605C336.168 354.35 337.144 354.141 339.086 352.576C344.144 348.5 345.333 348.304 349.826 350.807C352.747 352.435 353.917 353.674 353.77 354.984C353.36 358.628 354.222 359.434 356.755 357.779C358.768 356.464 360.149 356.402 366.884 357.321C374.048 358.299 374.986 358.689 378.423 362.117C380.975 364.662 383.846 366.336 387.451 367.381C392.293 368.785 392.819 369.213 393.697 372.465C394.97 377.18 393.478 382.412 389.444 387.382C387.721 389.505 385.609 392.622 384.75 394.308C383.892 395.995 382.067 398.494 380.694 399.863C378.37 402.18 378.241 402.76 378.82 408.262C379.952 419.011 374.68 439.065 369.595 443.354C367.939 444.75 366.522 445.078 363.897 444.673C361.739 444.339 360.142 444.554 359.72 445.235C359.345 445.841 357.253 447.119 355.071 448.076C352.89 449.032 349.643 451.061 347.855 452.584C344.76 455.22 344.657 455.512 345.698 458.659C346.899 462.287 346.09 466.582 343.517 470.246C342.685 471.431 342.004 473.446 342.004 474.725C342.004 476.003 341.005 478.38 339.783 480.006C338.562 481.632 336.205 485.354 334.546 488.277C330.466 495.469 328.012 496.715 322.095 494.6C316.961 492.765 314.223 492.545 314.223 493.97C314.223 494.506 315.246 495.411 316.497 495.979C317.748 496.548 319.698 498.862 320.829 501.122C322.515 504.487 322.693 505.656 321.815 507.578C320.454 510.557 315.251 513.057 310.415 513.057C306.131 513.057 305.068 514.102 306.548 516.859C307.461 518.561 306.847 521.299 305.081 523.399C304.938 523.569 303.438 522.995 301.748 522.123C297.713 520.042 296.284 521.368 298.324 525.3C299.153 526.9 300.73 528.493 301.828 528.841C303.715 529.438 303.736 529.57 302.201 531.261C301.308 532.246 300.844 533.741 301.17 534.587C301.52 535.497 300.739 537.461 299.258 539.397C296.851 542.545 296.816 542.764 298.36 545.113C299.242 546.456 300.619 547.806 301.419 548.112C304.304 549.216 304.782 552.988 302.582 557.289C300.378 561.597 300.04 565.917 301.746 567.967C303.297 569.83 298.079 573.461 295.732 572.151ZM225.129 158.352C227.689 153.018 232.452 149.045 236.288 149.045C239.049 149.045 239.081 149.492 236.553 152.697L234.565 155.217L236.605 156.864C238.248 158.191 239.096 158.306 240.969 157.455C242.248 156.874 243.558 155.567 243.882 154.551C244.322 153.169 245.037 152.847 246.723 153.269C248.285 153.66 249.262 153.325 249.905 152.18C251.851 148.711 246.898 144.275 243.251 146.221C240.642 147.614 237.233 144.843 237.961 141.921C238.23 140.838 237.675 138.953 236.715 137.688C234.735 135.082 231.722 134.808 225.129 136.633C222.758 137.289 220.054 137.797 219.121 137.761C218.187 137.725 217.674 138.099 217.98 138.593C218.286 139.087 218.187 139.5 217.761 139.512C217.335 139.524 215.913 140.355 214.602 141.36L212.218 143.186L214.895 144.202C216.988 144.995 218.222 144.882 220.547 143.683C223.279 142.274 223.784 142.275 226.766 143.693C228.562 144.547 231.014 144.985 232.256 144.675C233.49 144.366 234.764 144.54 235.087 145.061C235.418 145.594 234.068 146.28 232.006 146.628C226.399 147.572 223.486 149.901 219.419 156.688C216.023 162.358 215.828 163.041 217.182 164.54C218.51 166.01 218.877 166.034 220.699 164.763C221.818 163.982 223.812 161.097 225.129 158.352ZM242.534 164.249C245.944 162.514 246.272 162.078 245.071 160.88C243.869 159.681 243.109 159.76 239.2 161.484C234.609 163.51 233.152 166.242 236.663 166.242C237.738 166.242 240.38 165.345 242.534 164.249ZM259.52 157.03C261.516 155.636 261.59 155.363 260.182 154.577C258.111 153.421 251.953 155.413 251.953 157.24C251.953 159.122 256.715 158.99 259.52 157.03ZM1131.52 545.64C1128.78 543.908 1134.49 540.084 1148.64 534.171C1152.59 532.52 1158.61 529.067 1162.02 526.497C1167.81 522.128 1168.29 521.939 1169.44 523.574C1171.19 526.057 1170.16 527.853 1165.9 529.768C1163.87 530.683 1161.31 532.457 1160.21 533.71C1159.12 534.963 1157.37 535.987 1156.31 535.987C1155.25 535.987 1152.77 537.435 1150.8 539.205C1144.03 545.263 1135.45 548.125 1131.52 545.64ZM1064.47 533.228C1063.48 532.599 1063.42 531.952 1064.23 530.439C1064.82 529.356 1065.29 527.123 1065.29 525.476C1065.29 522.785 1065.51 522.559 1067.45 523.239C1068.63 523.655 1071.11 524.051 1072.95 524.12C1074.8 524.189 1076.64 524.308 1077.05 524.384C1078.64 524.681 1074.39 529.499 1070.58 531.727C1066.04 534.382 1066.23 534.335 1064.47 533.228ZM1175.17 524.873C1174.84 524.541 1175.63 523.436 1176.93 522.417C1178.88 520.884 1179.11 520.236 1178.26 518.643C1177.02 516.338 1178.86 513.865 1183.11 512.108C1186.41 510.746 1187.24 507.983 1186.35 501.315C1185.74 496.728 1185.82 496.442 1187.3 497.664C1188.46 498.624 1188.75 499.834 1188.34 502.039C1187.88 504.457 1188.29 505.713 1190.31 508.109C1192.5 510.698 1193.14 510.979 1194.84 510.072C1196.54 509.168 1196.74 509.251 1196.2 510.636C1195.86 511.528 1195.58 512.427 1195.58 512.633C1195.58 512.84 1194.18 513.724 1192.46 514.598C1190.75 515.473 1187.41 517.786 1185.04 519.738C1181.18 522.913 1177.22 525.478 1176.16 525.478C1175.95 525.478 1175.51 525.206 1175.17 524.873ZM1073.87 512.534C1071.85 510.392 1071.48 510.31 1069.54 511.576C1067.07 513.19 1062.43 512.247 1058.71 509.375C1056.73 507.843 1056.59 507.35 1057.61 505.442C1058.49 503.815 1058.51 502.675 1057.73 500.949C1057.14 499.677 1056.67 497.797 1056.67 496.771C1056.67 494.456 1055.16 494.345 1053.91 496.569C1053.4 497.484 1052.71 497.959 1052.37 497.624C1052.04 497.29 1053.14 495.444 1054.84 493.523C1059 488.794 1057.37 487.511 1051.88 491.183C1049.51 492.766 1047.41 494.495 1047.23 495.025C1047.04 495.556 1045.9 493.918 1044.7 491.387C1043.39 488.642 1041.14 485.883 1039.11 484.552C1036.07 482.552 1035.03 482.387 1029.19 482.967C1020.61 483.818 1012.34 485.927 1006.92 488.642C1004.46 489.876 999.656 491.14 995.952 491.527C992.327 491.907 986.563 493.268 983.142 494.552C977.91 496.516 976.421 496.722 973.77 495.849C970.215 494.679 968.738 492.267 971.038 491.387C971.871 491.068 973.382 488.875 974.397 486.514C976.021 482.735 976.111 481.559 975.148 476.676C974.351 472.636 974.329 468.81 975.067 462.591C975.623 457.895 975.836 453.128 975.54 451.998C975.244 450.868 975.707 448.101 976.569 445.85C978.089 441.88 978.457 441.621 988.735 437.28C994.564 434.817 1000.53 432.803 1001.99 432.803C1005.95 432.803 1010.86 429.045 1013.56 423.94C1015.23 420.784 1016.39 419.584 1017.39 419.97C1020.19 421.049 1020.74 420.837 1020.53 418.768C1020.39 417.437 1020.96 416.469 1022.1 416.108C1023.09 415.796 1024.91 414.056 1026.15 412.242C1027.42 410.385 1030.04 408.293 1032.13 407.453C1035.63 406.053 1035.98 406.074 1037.88 407.798C1041.39 410.98 1043.88 411.909 1045.06 410.481C1045.64 409.787 1045.84 408.946 1045.51 408.612C1044.41 407.518 1049.43 401.24 1051.88 400.636C1053.2 400.313 1055.9 399.235 1057.89 398.241C1060.99 396.692 1062.08 396.59 1065.55 397.52C1073.04 399.525 1073.29 399.853 1070.51 404.051C1066.92 409.451 1067.87 411.562 1076.66 417.73C1080.72 420.578 1084.55 422.739 1085.17 422.531C1085.8 422.324 1087.77 420.143 1089.56 417.685C1091.99 414.336 1092.94 411.901 1093.33 407.962C1093.88 402.367 1096.57 394.586 1097.94 394.586C1098.4 394.586 1099.44 396.887 1100.26 399.699C1101.08 402.512 1102.8 405.794 1104.08 406.993C1107.07 409.795 1108.8 417.631 1107.46 422.261C1106.57 425.328 1106.74 425.821 1109.79 428.948C1111.6 430.806 1114.47 435.335 1116.16 439.013C1117.85 442.691 1120.89 447.896 1122.93 450.579L1126.62 455.456L1125.57 462.992C1124.81 468.46 1123.63 472.104 1121.27 476.268C1117.66 482.645 1112.26 488.731 1109.42 489.632C1108.39 489.956 1106.02 492.349 1104.15 494.951C1102.27 497.553 1100.32 499.682 1099.8 499.682C1099.29 499.682 1097.1 501.914 1094.93 504.643C1091.33 509.195 1090.66 509.612 1086.9 509.682C1084.02 509.736 1081.81 510.516 1079.44 512.318L1076.08 514.877L1073.87 512.534ZM606.733 492.446C604.704 490.423 604.365 489.388 604.818 486.601C605.245 483.979 604.839 482.436 603.016 479.762C601.722 477.862 600.663 475.841 600.663 475.269C600.663 474.698 598.969 471.966 596.899 469.199C593.699 464.921 593.041 463.212 592.513 457.8C591.582 448.251 588.525 437.914 584.415 430.423C582.395 426.74 580.454 421.958 580.103 419.796C579.354 415.196 581.227 408.35 585.503 400.056L588.347 394.538L586.749 389.739C585.855 387.055 585.418 383.878 585.758 382.529C586.155 380.95 585.728 379.069 584.521 377.081C583.507 375.411 582.001 371.68 581.174 368.79C580.07 364.93 578.531 362.42 575.375 359.331C569.304 353.39 568.514 351.052 570.398 344.587C574.234 331.427 570.09 323.752 559.967 325.266C556.025 325.855 555.874 325.782 555.317 323.005C554.89 320.874 553.732 319.621 550.824 318.141C547.045 316.219 545.428 316.211 540.789 318.096C539.735 318.524 535.424 320.008 531.208 321.393C524.87 323.475 522.967 323.744 520.208 322.946C517.595 322.19 515.393 322.385 510.045 323.849C504.518 325.361 502.515 325.523 499.529 324.701C493.298 322.985 482.592 313.362 481.07 308.108C479.891 304.042 472.563 294.567 470.069 293.884C468.484 293.45 468.289 293.114 469.259 292.49C470.235 291.861 470.065 291.543 468.541 291.146C466.12 290.514 465.879 288.541 468.22 288.521C469.653 288.508 469.688 288.371 468.46 287.58C467.555 286.997 467.454 286.648 468.188 286.639C468.949 286.63 468.659 285.451 467.354 283.245C465.516 280.139 465.478 279.728 466.882 278.181C471.168 273.458 472.107 263.289 468.849 256.881C467.293 253.823 468.293 249.597 471.613 245.205C472.862 243.551 475.302 239.527 477.035 236.262C480.065 230.551 486.82 222.612 488.649 222.612C490.672 222.612 497.2 215.613 497.2 213.443C497.2 208.546 500.136 203.663 504.923 200.599C507.495 198.953 510.509 196.139 511.621 194.345C513.895 190.675 514.217 190.556 516.865 192.396C517.904 193.119 520.487 194 522.604 194.354C525.833 194.894 527.376 194.505 532.184 191.941C540.456 187.529 545.567 186.427 555.032 187.016C561.275 187.405 564.085 187.156 567.111 185.949C571.567 184.171 575.419 185.223 574.376 187.933C574.063 188.748 574.254 189.953 574.801 190.61C575.49 191.438 575.485 192.624 574.784 194.462C573.904 196.771 574.099 197.459 576.28 199.729C577.66 201.166 580.131 202.609 581.77 202.936C589.47 204.471 591.659 205.466 593.249 208.15C594.413 210.116 595.94 211.126 598.465 211.598C600.428 211.965 603.278 212.908 604.799 213.692C607.382 215.024 607.717 214.976 609.871 212.958C611.319 211.601 611.976 210.164 611.636 209.097C611.338 208.162 611.565 206.521 612.14 205.45C613.622 202.688 617.83 202.959 624.401 206.24C631.56 209.814 645.135 212.364 649.948 211.039C652.263 210.402 654.488 210.393 656.515 211.014C663.134 213.043 666.524 211.455 667.428 205.902C667.728 204.057 668.24 202.548 668.567 202.548C669.186 202.548 669.51 199.775 669.6 193.71C669.629 191.74 670.096 190.128 670.637 190.128C671.283 190.128 671.251 189.436 670.545 188.121C669.367 185.925 666.978 185.975 661.26 188.316C658.548 189.425 657.794 189.378 655.364 187.947C652.214 186.091 648.982 185.813 648.049 187.317C647.356 188.436 642.458 187.652 639.801 185.997C637.893 184.808 636.109 181.27 636.109 178.672C636.109 177.675 635.139 176.179 633.954 175.346C632.119 174.057 632.012 173.692 633.235 172.894C634.025 172.378 635.651 172.185 636.848 172.466C638.374 172.824 639.777 172.225 641.549 170.458C643.217 168.795 645.245 167.877 647.516 167.757C649.409 167.656 652.151 166.79 653.609 165.832C656.775 163.752 663.962 164.33 669.538 167.113C677.058 170.867 683.736 170.646 686.424 166.555C687.822 164.427 687.83 163.98 686.503 161.96C685.694 160.729 681.811 157.894 677.872 155.659L670.711 151.596L672.053 149.008C672.791 147.585 673.153 146.18 672.858 145.886C672.562 145.591 672.675 144.784 673.108 144.092C673.542 143.401 673.98 142.279 674.083 141.601C674.303 140.154 672.758 140.553 665.14 143.913C660.717 145.864 660.06 146.462 661.041 147.641C661.684 148.413 663.127 149.064 664.248 149.087C665.82 149.12 665.448 149.57 662.619 151.059C659.184 152.866 658.8 152.89 656.567 151.43C654.657 150.183 654.408 149.602 655.313 148.514C656.211 147.435 656.077 147.02 654.658 146.488C653.677 146.12 652.412 145.205 651.846 144.454C649.102 140.806 640.397 150.401 637.865 159.864C636.676 164.306 636.716 164.537 638.953 166.22L641.275 167.966L637.016 168.843C634.673 169.324 631.515 169.381 629.999 168.967C627.201 168.205 623.655 169.354 623.655 171.023C623.655 171.513 623.003 171.665 622.206 171.36C621.409 171.055 620.143 171.313 619.394 171.934C618.231 172.896 618.363 173.684 620.289 177.298C622.376 181.212 622.441 181.747 621.139 184.35C619.508 187.611 617.991 187.368 615.687 183.478C614.081 180.766 614.092 180.704 616.217 180.403C618.899 180.023 619.072 178.32 616.47 177.906C610.535 176.959 607.369 173.84 607.369 168.937C607.369 165.112 603.813 160.895 599.501 159.606C597.26 158.937 594.825 157.531 594.088 156.482C593.351 155.433 591.196 153.928 589.297 153.137C587.399 152.346 585.274 150.885 584.576 149.891C583.573 148.463 582.914 148.292 581.447 149.075C580.424 149.621 579.587 150.682 579.587 151.434C579.587 153.915 591.798 165.137 597.766 168.142C604.095 171.328 605.083 172.465 600.687 171.502C596.767 170.643 595.699 171.503 597.04 174.438C597.981 176.499 597.827 177.126 595.933 178.942L593.732 181.051L594.232 178.205C595.028 173.687 589.055 167.198 584.102 167.198C582.286 167.198 575.311 160.449 573.483 156.925C571.531 153.159 569.358 152.432 566.28 154.513C561.643 157.649 558.167 158.709 554.53 158.096C549.698 157.282 546.659 158.962 547.429 162.021C547.831 163.619 547.607 164.331 546.704 164.331C545.985 164.331 544.145 165.406 542.614 166.719C541.083 168.032 539.501 169.107 539.098 169.107C537.913 169.109 534.569 175.145 534.565 177.29C534.561 179.341 530.815 183.382 527.2 185.234C526.049 185.824 523.37 186.306 521.246 186.306C518.324 186.306 517.127 186.786 516.326 188.28C515.276 190.236 515.244 190.231 512.789 187.783C510.486 185.486 509.16 184.911 504.511 184.193C502.069 183.817 501.656 178.303 503.483 170.448C504.264 167.09 504.647 163.327 504.335 162.086C503.427 158.479 506.269 156.352 511.023 157.08C522 158.761 528.421 158.854 529.926 157.353C531.994 155.291 532.926 148.489 531.664 144.675C530.841 142.188 529.709 141.171 526.331 139.884C521.363 137.992 521.258 136.162 526.115 136.113C527.966 136.094 530.635 135.324 532.048 134.401C533.46 133.478 535.022 132.974 535.518 133.28C536.873 134.115 542.001 131.167 543.704 128.574C544.527 127.322 546.148 126.056 547.305 125.762C548.463 125.467 551.566 123.224 554.2 120.777C557.935 117.307 559.895 116.219 563.098 115.838C567.065 115.365 571.055 112.111 569.182 110.876C568.018 110.107 567.045 105.481 567.694 103.796C568.001 102.997 569.357 101.622 570.708 100.74L573.163 99.1353L572.532 103.067C571.985 106.479 572.125 106.961 573.589 106.717C574.517 106.562 576.253 105.9 577.446 105.247C579.263 104.251 579.709 104.3 580.188 105.544C581.009 107.678 578.726 110.187 577.151 108.883C576.28 108.162 575.728 108.189 575.242 108.973C574.74 109.782 574.348 109.738 573.772 108.808C573.339 108.11 572.766 107.759 572.497 108.027C572.228 108.295 572.994 109.747 574.199 111.254C576.23 113.794 576.617 113.915 579.511 112.909C581.99 112.047 583.181 112.106 585.291 113.194C587.674 114.423 588.478 114.364 593.058 112.629C597.07 111.108 598.652 110.913 600.428 111.72C602.061 112.463 603.272 112.447 604.789 111.665C609.098 109.445 610.292 107.77 609.757 104.697C608.964 100.141 610.416 98.649 614.241 100.089C616.844 101.069 617.605 101.03 618.781 99.8566C620.027 98.6145 619.919 98.1556 617.878 95.9887C615.914 93.904 615.777 93.3858 616.974 92.5802C617.751 92.0576 620.661 91.8704 623.441 92.1641C628.529 92.7016 634.87 90.7193 633.765 88.9365C632.798 87.3752 626.958 86.9241 622.01 88.0284C617.622 89.0077 616.47 88.9285 613.107 87.416C607.883 85.0669 607.268 82.3185 610.851 77.3386C615.462 70.9287 616.306 68.886 614.992 67.3074C613.047 64.97 611.136 65.7321 606.692 70.6173C604.344 73.1986 601.145 75.8388 599.582 76.4843C598.019 77.1298 596.086 78.92 595.287 80.4624C593.984 82.9744 593.986 83.5008 595.306 85.5101C596.117 86.7439 597.654 88.03 598.722 88.368C601.66 89.2982 601.079 91.0441 596.876 93.9124C595.583 94.7946 593.858 97.2904 593.044 99.4587C592.023 102.176 590.47 104.03 588.049 105.424C584.636 107.389 584.481 107.397 582.595 105.694C581.527 104.731 580.395 102.765 580.078 101.327C579.761 99.8884 578.322 97.3023 576.881 95.5801L574.259 92.4487L570.936 94.4693C569.108 95.5807 566.75 96.482 565.696 96.4723C562.656 96.4443 559.137 93.1692 558.901 90.1492C558.784 88.6485 558.393 86.6845 558.032 85.7849C557.174 83.645 561.464 79.6316 565.922 78.404C570.396 77.1719 579.471 70.8292 581.017 67.8531C581.705 66.5293 584.036 63.8653 586.197 61.9332C588.357 60.0011 590.125 57.9945 590.125 57.474C590.125 56.9536 592.173 55.8 594.676 54.9105C597.178 54.0211 601.382 52.4073 604.016 51.3243C607.251 49.9946 611.295 49.2917 616.47 49.1596C625.512 48.929 631.426 50.1243 636.305 53.169C638.753 54.6967 640.686 55.2179 642.535 54.8492C645.842 54.1894 663.474 59.6397 664.208 61.549C664.947 63.468 659.89 65.2795 655.539 64.6545C653.546 64.3683 649.425 63.6029 646.381 62.9536C642.283 62.0795 640.566 62.0519 639.769 62.8473C638.971 63.6427 639.37 64.2297 641.304 65.1087C642.741 65.7616 644.54 67.4977 645.302 68.9667C647.241 72.707 653.453 75.7561 656.657 74.5409C659.737 73.3734 659.715 73.0051 656.466 71.2474C653.462 69.6216 654.849 69.2701 658.622 70.701C661.635 71.8435 665.049 70.4222 664.254 68.3561C663.882 67.3884 664.929 66.6897 667.882 65.935C674.203 64.3198 674.665 64.0889 674.141 62.8107C672.158 57.9757 672.13 58.1147 675.016 58.4432C676.555 58.6185 677.68 59.2752 677.552 59.924C677.425 60.5651 678.228 61.5731 679.335 62.164C680.998 63.0516 682.31 62.7354 686.882 60.3451C693.587 56.8399 698.807 55.6972 700.753 57.3083C701.839 58.2067 703.638 58.213 708.848 57.3367C712.532 56.7169 715.965 56.4678 716.476 56.7831C716.988 57.0983 717.689 56.9005 718.034 56.3434C718.789 55.1252 716.701 52.361 715.558 53.0655C714.178 53.9159 709.648 52.3924 710.633 51.4095C711.626 50.4197 738.286 56.6154 739.882 58.2066C740.957 59.2793 744.362 57.8483 744.362 56.3237C744.362 55.8098 742.461 54.4682 740.137 53.3422C732.932 49.851 732.469 44.2596 739.246 42.5635C743.178 41.5791 744.879 42.7147 750.318 49.957C757.38 59.3595 757.2 58.8812 754.893 62.1126C753.185 64.5055 753.082 65.0656 754.267 65.5192C756.513 66.3787 761.32 63.371 761.996 60.6828C762.789 57.533 761.309 54.8486 757.774 53.0257C754.996 51.5927 752.984 48.9668 752.984 46.772C752.984 46.0239 754.027 45.8373 756.098 46.2146C759.203 46.7803 761.772 45.6571 768.805 40.6584C770.413 39.5153 773.132 38.762 775.874 38.7C781.435 38.5742 783.235 37.6431 781.634 35.7201C781.007 34.966 780.693 34.1501 780.937 33.9069C782.16 32.6868 797.932 30.4881 801.564 31.0313C805.059 31.554 806.141 31.2712 809.016 29.0839C810.866 27.6765 812.38 26.1462 812.38 25.683C812.38 24.5152 804.009 24.6195 803.279 25.7964C802.276 27.4159 800.975 26.8524 801.341 24.9568C801.65 23.3563 800.839 23.0959 793.861 22.554C774.807 21.0745 773.258 20.7273 775.544 18.4476C777.554 16.4433 782.483 16.4821 786.609 18.5348C788.3 19.3758 791.1 20.064 792.832 20.064C794.564 20.064 796.248 20.4939 796.573 21.0194C796.899 21.5449 798.577 21.9748 800.302 21.9748C805.08 21.9748 814.318 24.033 813.738 24.9684C813.456 25.4238 814.35 25.7964 815.724 25.7964C817.099 25.7964 819.603 26.5368 821.289 27.4418C823.557 28.6587 826.725 29.0966 833.456 29.1234C840.692 29.1523 843.097 29.523 845.192 30.932C846.641 31.9066 847.82 32.9771 847.812 33.3108C847.805 33.6444 845.594 35.1305 842.899 36.6131C836.391 40.1938 837.767 41.7542 845.639 39.7201C850.737 38.4025 851.909 38.394 856.13 39.6443C859.593 40.67 861.756 40.8017 864.104 40.1299C866.449 39.4592 868.856 39.6032 872.94 40.6585C877.2 41.7597 879.409 41.8717 882.109 41.1237C888.272 39.4166 895.854 39.8988 900.253 42.2774C902.44 43.4597 906.472 45.6474 909.213 47.1388C914.073 49.7826 914.284 49.8118 917.655 48.3047C920.477 47.0432 922.051 46.9377 926.212 47.7311C930.348 48.5198 931.854 48.4237 934.183 47.2223C936.462 46.047 936.829 45.4693 935.959 44.424C934.277 42.4027 940.245 41.6513 947.578 42.9612C950.937 43.5611 955.193 44.1599 957.037 44.2919C958.882 44.4239 962.485 45.472 965.044 46.621C968.948 48.3733 971.893 48.7702 983.314 49.083C994.151 49.3799 997.601 49.8124 1000.22 51.2019C1002.87 52.6124 1005.89 52.9711 1015.95 53.0689C1025.21 53.1589 1029.36 53.5967 1032.1 54.7735C1036.53 56.6732 1038.31 55.9765 1035.89 53.2832C1034.16 51.3458 1034.17 51.3432 1040.86 52.0062C1052.08 53.1172 1065.53 55.5644 1070.08 57.322C1072.45 58.2372 1076.97 59.3006 1080.12 59.6852C1083.28 60.0697 1087.87 61.4055 1090.34 62.6535C1094.09 64.5478 1095.31 64.7571 1097.72 63.9203C1101.01 62.776 1103.14 63.6 1108.17 67.9542L1111.29 70.6597L1108.94 71.2488C1106.58 71.8401 1100.31 70.2914 1098.14 68.5834C1097.51 68.0811 1096.62 67.899 1096.16 68.1786C1095.71 68.4582 1093.47 68.0446 1091.18 67.2595C1085.83 65.4208 1083.46 66.1115 1085.89 68.7973C1087.56 70.6316 1087.52 70.6702 1084.35 70.4493C1078.41 70.0361 1080.04 71.7856 1088.76 75.1781C1093.5 77.0228 1097.59 78.7281 1097.84 78.9678C1098.73 79.8358 1095.77 80.9118 1093.61 80.5005C1091.24 80.0491 1085.41 82.5839 1085.41 84.064C1085.41 84.5556 1084.49 85.8145 1083.36 86.8616C1081.48 88.6109 1081.09 88.6507 1078.57 87.352C1076.21 86.1367 1075.46 86.1241 1073.19 87.2621C1071.75 87.99 1069.27 88.8955 1067.69 89.2742C1066.11 89.653 1064.29 90.4071 1063.63 90.95C1061.7 92.5458 1065.1 97.1906 1069.89 99.5021C1072.5 100.761 1074.39 102.448 1074.95 104.02C1075.44 105.4 1076.48 107.666 1077.27 109.056C1078.54 111.321 1078.53 111.644 1077.16 112.169C1076.16 112.554 1075.86 113.326 1076.3 114.419C1076.66 115.334 1077.08 117.158 1077.22 118.472C1077.36 119.785 1077.78 121.574 1078.16 122.446C1078.65 123.581 1078.24 124.221 1076.73 124.699C1075.05 125.231 1073.92 124.59 1071.15 121.543C1069.25 119.439 1066.06 116.544 1064.08 115.108C1062.1 113.672 1058.55 109.938 1056.19 106.81C1052.04 101.293 1051.95 101.042 1053.33 98.38C1054.11 96.8711 1054.77 94.6479 1054.79 93.4395C1054.81 92.231 1055.41 90.1746 1056.14 88.8695C1057.52 86.3768 1056.99 84.3867 1054.03 81.0024C1052.09 78.7803 1048.63 80.446 1049.5 83.1842C1050.31 85.7068 1047.84 86.5243 1045.01 84.6753C1043.78 83.8737 1040.96 82.9278 1038.73 82.5732C1034.9 81.9645 1034.62 82.0816 1033.63 84.6746C1033.05 86.185 1032.81 88.5726 1033.09 89.9804C1033.53 92.174 1033.22 92.6228 1030.96 93.1184C1029.42 93.4557 1026.79 93.0567 1024.64 92.1612C1022.28 91.1776 1020.05 90.8803 1018.45 91.334C1017.08 91.7237 1012.43 92.0774 1008.13 92.1201C1001.31 92.1878 999.996 92.4846 997.923 94.426C996.615 95.6516 995.044 98.6611 994.431 101.114C993.818 103.567 992.695 106.531 991.935 107.7C990.622 109.722 990.748 109.926 994.503 111.836C998.578 113.91 1003.02 114.456 1006.39 113.298C1008.99 112.404 1016.91 118.566 1019.39 123.404C1020.4 125.385 1022.08 127.458 1023.11 128.01C1027.02 130.099 1027.82 143.802 1024.55 152.761C1022.28 158.964 1019.74 160.992 1016.02 159.58C1014.6 159.04 1013.29 158.599 1013.11 158.599C1012.94 158.599 1011.87 160.363 1010.75 162.519C1009.27 165.349 1008.98 166.775 1009.71 167.652C1011.1 169.33 1010.07 171.512 1007.28 172.78C1005.99 173.366 1004.94 174.261 1004.94 174.77C1004.94 175.279 1007.93 177.752 1011.6 180.266C1016.26 183.465 1018.75 185.922 1019.89 188.448C1020.79 190.433 1021.35 192.216 1021.13 192.409C1020.92 192.601 1018.96 193.655 1016.78 194.751L1012.82 196.743L1010.44 191.286C1007.77 185.178 1005.48 182.721 1001.45 181.639C999.417 181.094 998.71 180.322 998.71 178.649C998.71 177.115 997.716 175.812 995.605 174.579C992.53 172.781 992.469 172.784 989.196 174.801C985.92 176.82 985.882 176.821 984.876 174.947C984.318 173.907 983.861 172.398 983.861 171.594C983.861 170.789 983.056 169.701 982.072 169.176C980.608 168.395 979.684 168.867 976.994 171.77C975.185 173.722 972.868 175.794 971.844 176.374C970.256 177.275 970.172 177.656 971.267 178.971C971.972 179.819 974.408 181.549 976.68 182.815C980.293 184.829 980.985 184.944 982.203 183.729C983.362 182.573 984.304 182.531 987.8 183.478L992.004 184.616L989.661 186.177C985.316 189.074 983.946 190.595 983.325 193.209C982.816 195.354 983.12 196 985.051 196.877C986.34 197.463 988.3 199.8 989.406 202.07C990.512 204.34 992.721 206.966 994.315 207.905C997.821 209.971 998.838 212.165 996.813 213.296C994.925 214.349 995.827 215.924 998.318 215.924C1001.3 215.924 1001.32 217.699 998.435 227.943C994.943 240.35 991.79 244.49 983.541 247.499C980.292 248.685 976.341 249.726 974.76 249.813C971.086 250.016 968.237 251.568 965.751 254.719L963.778 257.221L962.857 254.807C961.657 251.658 958.904 250.866 954.952 252.533C951.331 254.061 948.944 256.498 947.981 259.649C947.119 262.468 950.17 267.427 955.222 271.417C959.369 274.693 964.022 282.913 965.115 288.895C966.065 294.097 964.382 297.512 959.864 299.544C957.806 300.469 955.88 301.987 955.585 302.917C954.874 305.149 950.621 307.928 949.841 306.669C949.516 306.145 949.503 304.92 949.812 303.948C950.122 302.976 950.107 301.483 949.779 300.63C949.306 299.403 948.783 299.293 947.27 300.1C945.695 300.941 945.087 300.728 943.815 298.888C940.689 294.367 931.627 287.102 929.115 287.102C928.23 287.102 927.889 288.164 928.04 290.446C928.162 292.285 927.786 295.871 927.205 298.414C926.259 302.559 926.356 303.318 928.139 305.723C929.233 307.199 930.401 309.488 930.733 310.809C931.071 312.15 933.842 315.213 937.01 317.748C942.291 321.972 942.847 322.806 945.07 329.823C946.383 333.968 947.458 337.768 947.458 338.266C947.458 339.887 945.456 339.23 941.28 336.239C936.962 333.146 934.205 328.254 931.905 319.607C930.907 315.853 929.812 314.243 926.705 311.964C922.895 309.169 922.78 308.925 923.087 304.3C923.262 301.672 923.693 297.948 924.047 296.024C924.544 293.315 924.133 291.374 922.224 287.425C920.869 284.62 919.266 280.312 918.663 277.852C917.314 272.356 915.41 271.435 912.043 274.652C910.651 275.982 909.243 277.07 908.914 277.07C907.39 277.07 905.295 273.833 905.797 272.254C906.71 269.386 901.097 259.39 897.813 258.033C896.016 257.29 894.373 255.49 893.274 253.058C891.363 248.833 889.22 247.217 887.079 248.385C886.302 248.809 883.193 249.662 880.169 250.281C874.626 251.414 872.638 253.089 873.396 255.982C873.676 257.048 872.706 258.077 870.38 259.183C868.494 260.08 866.463 261.884 865.865 263.191C865.268 264.499 863.953 265.83 862.942 266.15C861.932 266.47 860.374 267.932 859.479 269.399C858.584 270.867 855.92 273.548 853.558 275.359C850.325 277.836 849.316 279.223 849.476 280.965C850.416 291.154 848.974 299.678 845.457 304.74C842.026 309.678 841.785 309.816 838.882 308.496C837.284 307.77 836.3 306.352 835.893 304.187C835.559 302.413 833.63 297.413 831.605 293.076C819.356 266.837 817.545 261.831 818.588 257.093C819.293 253.891 817.602 249.06 815.967 249.607C815.311 249.826 814.764 250.613 814.75 251.356C814.668 255.717 809.756 256.387 805.919 252.56L803.376 250.024L805.563 249.217C808.025 248.309 807.799 245.861 805.295 246.309C804.406 246.469 802.369 245.501 800.771 244.16C799.172 242.818 797.494 241.72 797.043 241.72C796.592 241.72 795.948 240.855 795.612 239.799C794.729 237.024 789.647 234.61 787.1 235.756C784.808 236.786 764.014 236.571 760.533 235.481C759.279 235.088 756.96 233.29 755.38 231.486C752.523 228.226 752.479 228.213 748.194 229.365C744.135 230.456 743.545 230.353 738.076 227.6C733.351 225.221 731.935 223.938 730.477 220.712C728.616 216.596 724.482 213.615 721.969 214.577C721.177 214.88 720.253 216.385 719.915 217.922C719.429 220.128 719.924 221.562 722.273 224.748C723.908 226.965 725.69 230.424 726.233 232.433C727.398 236.748 729.699 238.032 731.606 235.431C732.757 233.861 733.068 233.806 733.847 235.037C734.344 235.822 734.613 236.895 734.443 237.421C733.91 239.072 739.439 241.79 742.018 241.144C743.322 240.818 746.107 238.604 748.207 236.224C751.517 232.474 752.673 232.221 752.107 235.37C751.726 237.489 753.398 239.973 756.166 241.4C760.441 243.604 766.396 248.514 766.396 249.834C766.396 250.443 765.277 251.983 763.908 253.257C762.54 254.531 760.57 257.227 759.531 259.247C757.007 264.157 749.691 271.338 747.214 271.338C744.351 271.338 740.092 273.749 738.396 276.33C737.593 277.552 735.481 279.277 733.704 280.162C724.598 284.695 713.635 289.291 710.55 289.869C707.251 290.486 706.984 290.337 705.237 286.9C704.224 284.909 703.076 280.916 702.685 278.026C702.176 274.267 701.189 271.878 699.218 269.633C697.703 267.907 696.463 266.08 696.463 265.573C696.463 265.067 694.734 262.876 692.621 260.704C689.99 258 688.289 255.065 687.223 251.388C686.367 248.435 684.626 244.73 683.353 243.153C674.561 232.264 671.957 228.425 670.647 224.416C668.91 219.102 667.441 218.243 666.763 222.147L666.281 224.917L663.041 220.837C658.047 214.548 657.418 217.407 662.106 225.083C664.324 228.716 667.861 235.128 669.964 239.331C672.068 243.535 674.796 248.305 676.025 249.931C677.291 251.605 678.261 254.222 678.261 255.965C678.261 259.566 679.338 261.813 683.569 267.039C685.27 269.14 686.951 272.209 687.304 273.858C687.757 275.973 689.606 278.184 693.581 281.364C699.623 286.197 703.538 291.241 704.509 295.445C704.874 297.024 706.257 298.645 708.01 299.549C710.682 300.927 711.622 300.889 720.065 299.065C725.102 297.977 730.437 296.46 731.921 295.694L734.62 294.303L735.261 298.084C735.843 301.521 735.216 303.176 728.397 316.221C721.064 330.247 720.721 330.711 713.43 336.451C709.325 339.683 705.031 343.639 703.885 345.243C702.74 346.847 699.077 351.178 695.744 354.868C686.018 365.638 684.696 375.11 691.147 387.805C692.785 391.03 693.425 393.471 693.037 395.014C692.714 396.298 692.921 399.539 693.497 402.218C694.404 406.435 694.301 407.563 692.731 410.63C690.466 415.056 688.664 416.647 682.332 419.812C679.566 421.194 677.303 422.734 677.303 423.233C677.303 423.732 675.363 426.319 672.992 428.981C670.621 431.644 668.681 434.255 668.681 434.784C668.681 435.312 669.57 437.483 670.656 439.606C673.913 445.973 671.724 450.586 663.918 453.811C660.627 455.17 659.547 457.946 660.361 462.949C660.787 465.57 660.516 466.443 659.027 467.237C657.998 467.786 656.139 469.829 654.896 471.777C650.969 477.928 639.68 488.811 634.552 491.391C630.273 493.544 629.178 493.733 626.034 492.867C623.262 492.104 621.025 492.225 616.377 493.389C608.849 495.275 609.648 495.353 606.733 492.446ZM732.914 187.714C735.387 186.439 735.741 185.737 735.741 182.099C735.741 179.491 735.182 177.478 734.24 176.7C733.415 176.017 732.078 174.182 731.27 172.622C729.932 170.041 729.937 169.838 731.333 170.372C733.175 171.078 735.74 170.229 735.74 168.915C735.74 168.395 734.849 166.722 733.76 165.196C732.119 162.898 731.462 162.592 729.928 163.41C728.688 164.072 728.077 164.079 728.077 163.429C728.077 162.896 726.367 161.589 724.277 160.526C719.652 158.173 718.006 155.566 719.449 152.878C720.54 150.843 724.441 149.418 726.106 150.444C728.352 151.828 729.014 149.788 727.161 147.193C722.668 140.9 716.411 141.314 708.653 148.418C703.646 153.003 703.211 154.221 706.043 155.733C707.096 156.295 707.959 157.395 707.959 158.176C707.959 158.958 709.663 161.441 711.745 163.694C716.542 168.884 717.422 171.255 716.828 177.397L716.351 182.342L722.932 185.71C726.552 187.563 729.643 189.099 729.801 189.125C729.959 189.151 731.36 188.516 732.914 187.714ZM706.522 454.591C703.817 453.061 703.432 452.254 702.726 446.614C702.161 442.108 702.397 441.128 705.1 436.747C707.847 432.294 708.045 431.436 707.439 426.6C706.564 419.616 708.053 415.946 712.123 415.056C715.958 414.217 724.255 406.912 726.243 402.624L727.762 399.348L728.818 401.659C731.475 407.474 731.204 410.028 726.582 422.783C724.109 429.608 721.456 437.771 720.686 440.924C718.223 451.014 716.823 453.447 712.788 454.653C708.492 455.936 708.908 455.94 706.522 454.591ZM1128.04 392.298C1121.98 390.391 1119.23 388.62 1116.84 385.084C1114.12 381.043 1109.13 377.985 1106.58 378.792C1105.55 379.118 1103.82 380.89 1102.73 382.73C1100.88 385.863 1100.52 386.036 1097.15 385.438C1095.17 385.088 1092.41 383.736 1091.01 382.435C1089.23 380.781 1087.86 380.258 1086.48 380.698C1085.38 381.044 1083.8 380.942 1082.96 380.472C1081.64 379.737 1081.77 379.393 1083.88 378.016C1086.32 376.422 1086.32 376.401 1084.68 372.977C1083.37 370.228 1081.55 368.795 1075.62 365.821C1071.54 363.776 1066.93 362.102 1065.38 362.102C1061.81 362.102 1060.34 358.827 1063.03 356.87C1064.62 355.706 1064.39 355.417 1060.23 353.399C1055.8 351.256 1055.74 351.166 1057.85 349.996C1059.05 349.335 1060.97 348.779 1062.12 348.76C1064.37 348.724 1067.21 351.954 1067.21 354.543C1067.21 355.406 1068.14 357.293 1069.28 358.737C1071.32 361.323 1071.37 361.334 1072.87 359.466C1073.71 358.424 1076.38 356.435 1078.81 355.047L1083.22 352.523L1089.35 355.277C1092.71 356.792 1097.49 358.759 1099.97 359.649C1102.44 360.538 1107.39 363.182 1110.97 365.524C1117.79 369.996 1120.76 373.766 1119.06 375.811C1117.67 377.477 1123.12 385.067 1128.76 389.326C1134.96 394.007 1134.85 394.44 1128.04 392.298ZM1008.77 388.332C1007.38 387.566 1006.98 387.003 1007.81 386.991C1009.52 386.968 1012.26 388.559 1011.61 389.201C1011.37 389.45 1010.08 389.058 1008.77 388.332ZM997.507 384.42C996.845 384.141 996.547 383.52 996.845 383.04C997.577 381.859 1003.72 381.925 1004.46 383.121C1004.78 383.647 1004.49 384.082 1003.8 384.09C1003.11 384.097 1001.68 384.288 1000.63 384.514C999.573 384.741 998.169 384.698 997.507 384.42ZM1011.73 383.702C1009.99 381.611 1011.99 380.974 1016.51 382.186C1021.05 383.407 1021.04 383.598 1016.33 384.446C1013.88 384.887 1012.53 384.669 1011.73 383.702ZM981.945 381.994C978.521 381.521 973.692 380.47 971.215 379.659C968.738 378.849 965.819 378.468 964.729 378.813C962.536 379.507 953.206 376.772 953.206 375.435C953.206 372.381 961.794 372.149 966.357 375.079C968.061 376.174 969.404 376.247 973.007 375.442C976.997 374.55 977.829 374.66 980.173 376.388C981.632 377.464 983.26 378.344 983.79 378.344C985.684 378.344 991.434 381.54 990.949 382.323C990.677 382.762 989.941 383.061 989.313 382.988C988.686 382.915 985.37 382.468 981.945 381.994ZM947.87 369.421C944.35 367.421 938.002 359.684 935.936 354.876C934.821 352.282 932.266 348.01 930.258 345.382C928.25 342.755 925.946 339.315 925.137 337.739C924.328 336.163 921.87 333.153 919.676 331.051C915.049 326.619 912.203 321.962 914.143 321.996C916.656 322.039 923.127 325.627 925.903 328.517C933.559 336.488 935.128 337.907 938.742 340.128C942.231 342.271 943.882 344.502 944.048 347.293C944.079 347.819 945.071 349.323 946.252 350.637C947.434 351.951 949.662 354.422 951.205 356.128C952.748 357.834 954.289 360.496 954.63 362.043C955.745 367.108 951.655 371.571 947.87 369.421ZM1008.29 368.781C1007.96 368.251 1007.95 366.981 1008.28 365.959C1008.6 364.935 1008.21 363.093 1007.39 361.859C1006.06 359.828 1006.07 359.403 1007.53 357.329C1008.41 356.07 1009.46 352.689 1009.85 349.816C1010.33 346.272 1011.28 343.871 1012.81 342.346C1014.9 340.261 1015.43 340.169 1020.13 341.058C1024.16 341.821 1025.75 341.727 1027.95 340.594C1031.63 338.697 1031.9 338.781 1030.67 341.455C1029.12 344.854 1026.02 345.941 1022.75 344.231C1016.9 341.178 1009.15 345.715 1013.24 349.794C1014.75 351.293 1015.58 351.429 1018.36 350.633C1023.13 349.268 1025.02 349.518 1022.05 351.124C1018.7 352.942 1018.06 354.959 1019.79 358.293C1020.58 359.811 1021.22 362.163 1021.22 363.521C1021.22 365.696 1020.99 365.869 1019.3 364.967C1018.25 364.405 1016.73 362.372 1015.92 360.45C1014.47 356.983 1014.44 356.971 1012.58 358.825C1010.95 360.451 1010.84 361.173 1011.74 364.396C1012.54 367.308 1012.49 368.272 1011.48 368.908C1009.79 369.977 1009 369.946 1008.28 368.781H1008.29ZM989.282 360.506C987.837 359.751 985.89 359.375 984.955 359.671C982.572 360.425 973.105 358.503 972.167 357.075C971.421 355.938 969.226 348.938 968.052 343.949C967.729 342.577 968.052 340.797 968.806 339.768C969.903 338.274 970.47 338.16 972.206 339.087C974.039 340.065 974.427 339.898 975.432 337.698C976.061 336.323 978.153 334.395 980.081 333.413C982.123 332.374 984.086 330.429 984.781 328.754C985.583 326.824 987.048 325.526 989.24 324.805C991.035 324.214 993.629 322.26 995.003 320.464C996.377 318.668 998.012 317.198 998.636 317.198C999.261 317.198 1001.15 318.617 1002.84 320.352L1005.9 323.505L1003.44 326.801C1000.65 330.544 1000.8 333.764 1003.96 338.193L1005.88 340.875L1003.49 342.434C1002.18 343.292 1001.11 344.521 1001.11 345.165C1001.12 347.354 994.979 359.967 993.44 360.926C992.369 361.593 991.122 361.467 989.282 360.506ZM560.427 342.573C560.427 342.341 560.859 341.886 561.385 341.561C561.912 341.236 562.343 341.426 562.343 341.982C562.343 342.539 561.912 342.994 561.385 342.994C560.859 342.994 560.427 342.804 560.427 342.573ZM566.175 331.108C566.175 330.876 566.606 330.42 567.133 330.096C567.66 329.771 568.091 329.961 568.091 330.517C568.091 331.074 567.66 331.529 567.133 331.529C566.606 331.529 566.175 331.339 566.175 331.108ZM1026.98 316.743C1025.15 312.492 1024.91 312.301 1022.1 312.916C1019.3 313.53 1019.2 313.455 1020.25 311.498C1021.12 309.878 1021.92 309.556 1023.98 310.007C1025.97 310.442 1027.24 310.002 1029.19 308.203C1030.6 306.895 1031.77 305.051 1031.78 304.106C1031.81 301.695 1035.37 309.782 1036.18 314.106C1036.8 317.389 1036.72 317.567 1035.22 316.33C1033 314.495 1030.86 316.399 1032.69 318.59C1033.41 319.465 1033.51 320.064 1032.91 320.064C1032.37 320.064 1031.24 320.323 1030.41 320.641C1029.3 321.066 1028.4 320.045 1026.98 316.743ZM260.255 291.72C259.904 291.37 259.617 290.639 259.617 290.096C259.617 289.497 260.063 289.553 260.75 290.239C261.374 290.861 261.661 291.592 261.389 291.863C261.117 292.135 260.607 292.07 260.255 291.72ZM254.827 290.446C254.827 289.921 255.017 289.491 255.249 289.491C255.482 289.491 255.938 289.921 256.264 290.446C256.589 290.972 256.399 291.401 255.841 291.401C255.283 291.401 254.827 290.972 254.827 290.446ZM1021.87 288.39C1020.91 287.849 1019.09 287.666 1017.83 287.983C1015.97 288.447 1014.69 287.703 1011.22 284.14C1006.31 279.107 1005.36 276.984 1006.8 274.303C1007.36 273.267 1007.81 271.126 1007.81 269.546C1007.81 264.36 1011.29 264.57 1013.85 269.909C1015.26 272.868 1015.27 273.503 1013.94 276.676C1012.51 280.092 1012.54 280.244 1015.09 282.902C1016.94 284.821 1018.32 285.473 1019.78 285.108C1021.01 284.8 1022.34 285.182 1023.06 286.053C1024.79 288.126 1024.03 289.606 1021.87 288.39ZM1004.36 248.624C1003.78 248.242 1002.79 246.941 1002.15 245.732C1001.18 243.909 1001.28 243.024 1002.73 240.554C1004.97 236.738 1006.47 236.262 1007.2 239.144C1007.96 242.175 1005.76 249.543 1004.36 248.624ZM1045.85 198.42C1043.99 195.589 1041.37 195.201 1035.35 196.867C1032.9 197.544 1031.22 197.552 1030.08 196.89C1029.16 196.356 1028.91 195.905 1029.53 195.889C1030.15 195.873 1031.95 194.77 1033.54 193.438C1035.59 191.719 1037.09 191.182 1038.71 191.587C1040.42 192.016 1042.27 191.195 1046.17 188.278C1053.75 182.598 1054.43 180.807 1051.35 174.739C1048.39 168.914 1049.21 167.039 1053.6 169.622C1056.79 171.503 1059.8 176.889 1058.92 179.159C1058.61 179.977 1059.08 182.542 1059.97 184.859C1061.22 188.139 1061.34 189.518 1060.5 191.079C1059.27 193.372 1055.85 194.905 1051.96 194.905C1049.77 194.905 1049.12 195.463 1048.41 197.943L1047.54 200.98L1045.85 198.42ZM1045.28 163.527C1043.53 161.071 1043.48 160.619 1044.77 158.775C1046.05 156.963 1046.04 156.421 1044.73 153.894C1042.58 149.737 1042.88 149.486 1046.62 152.329C1048.46 153.734 1052.11 155.516 1054.72 156.289C1060.11 157.885 1061.41 159.138 1058.6 160.028C1057.54 160.364 1056.67 161.263 1056.67 162.025C1056.67 163.065 1056.01 163.244 1054.03 162.74C1048.98 161.45 1047.54 161.765 1047.87 164.093C1048.27 166.944 1047.62 166.803 1045.28 163.527ZM1039.2 144.507C1038.39 143.587 1036.43 140.254 1034.85 137.1C1033.27 133.946 1029.09 128.155 1025.56 124.23C1021.61 119.845 1019.61 116.937 1020.36 116.688C1021.03 116.465 1022.47 117.464 1023.56 118.908C1026.19 122.409 1029.44 125.448 1034.56 129.212C1038.8 132.332 1040.9 135.22 1038.17 134.171C1035.01 132.963 1035.79 135.832 1039.88 140.422C1042.27 143.098 1044.22 145.488 1044.22 145.733C1044.22 146.895 1040.51 145.989 1039.2 144.507ZM338.172 142.835C338.172 142.046 338.59 141.401 339.1 141.401C339.611 141.401 339.78 142.046 339.477 142.835C339.174 143.623 338.756 144.268 338.549 144.268C338.342 144.268 338.172 143.623 338.172 142.835ZM333.167 139.751L329.598 139.378L336.313 132.746C340.007 129.099 343.512 126.115 344.102 126.115C344.725 126.115 344.538 126.817 343.658 127.787C341.663 129.985 343.023 132.454 346.668 133.253C348.259 133.601 349.845 134.817 350.458 136.159C351.441 138.312 351.274 138.531 347.955 139.45C344.473 140.415 340.317 140.5 333.167 139.751ZM99.7328 132.897C96.4143 129.806 96.0442 128.503 98.2447 127.661C100.215 126.907 103.853 129.365 105.232 132.383C106.679 135.55 106.653 135.669 104.523 135.669C103.525 135.669 101.369 134.422 99.7328 132.897ZM521.629 128.043C522.682 127.525 524.756 126.665 526.237 126.132C529.499 124.958 528.958 123.707 524.832 122.884C522.001 122.32 521.902 122.176 523.521 120.995C524.485 120.292 524.993 119.264 524.65 118.71C524.299 118.144 525.285 117.265 526.899 116.703C528.479 116.154 529.771 115.28 529.771 114.762C529.771 112.555 527.775 108.843 526.665 108.987C524.108 109.32 522.923 108.87 523.335 107.723C523.571 107.066 523.377 105.776 522.902 104.857C521.669 102.466 524.503 97.5207 527.137 97.467C527.532 97.4598 527.748 97.9796 527.616 98.624C527.484 99.2684 528.388 99.9486 529.625 100.136L531.873 100.476L529.725 102.757L527.577 105.037L529.998 105.956C532.598 106.941 535.103 110.152 537.655 115.768C538.877 118.459 539.681 119.162 541.108 118.79C544.035 118.027 544.382 120.005 541.636 121.8C539.775 123.016 539.422 123.701 540.237 124.514C541.052 125.327 539.445 125.872 533.873 126.674C529.773 127.264 524.91 128.026 523.066 128.366C520.501 128.84 520.163 128.764 521.629 128.043ZM505.473 122.765C505.145 121.914 505.519 119.979 506.304 118.465C507.204 116.729 507.378 115.497 506.776 115.125C505.116 114.102 505.738 112.796 508.177 112.186C509.473 111.861 511.035 110.993 511.648 110.257C512.924 108.723 518.825 108.441 519.712 109.871C520.037 110.396 519.631 111.781 518.81 112.95C517.989 114.119 517.318 116.218 517.318 117.615C517.318 119.746 516.661 120.383 513.246 121.565C511.007 122.341 508.476 123.276 507.622 123.644C506.62 124.076 505.857 123.764 505.473 122.765ZM523.066 113.273C523.066 113.041 523.497 112.586 524.024 112.261C524.55 111.937 524.982 112.126 524.982 112.683C524.982 113.239 524.55 113.694 524.024 113.694C523.497 113.694 523.066 113.505 523.066 113.273ZM97.9069 108.67C96.9685 107.542 97.0283 107.016 98.2058 106.042C100.153 104.43 101.118 105.523 99.9852 108.056C99.2038 109.803 98.9196 109.887 97.9069 108.67ZM96.4088 101.484C96.0853 100.962 96.4625 100.004 97.2471 99.3545C98.8047 98.0653 99.13 99.0764 97.8206 101.137C97.3203 101.925 96.7661 102.061 96.4088 101.484ZM34.4878 100.875C34.4878 100.203 37.3927 99.0274 41.5136 98.0317C43.0757 97.6543 43.9993 97.7453 43.689 98.2461C43.3923 98.7248 41.9552 99.3568 40.4952 99.6507C39.0353 99.9445 37.0864 100.476 36.1643 100.832C35.2422 101.187 34.4878 101.207 34.4878 100.875ZM393.257 85.2486C387.195 81.9515 384.297 76.886 386.053 72.6566C386.885 70.655 386.91 69.3963 386.148 67.9759C384.562 65.0197 386.631 61.5553 391.924 58.3072C394.439 56.7645 396.949 54.6577 397.503 53.6256C399.037 50.766 397.67 45.8655 395 44.6521C393.648 44.0379 392.913 43.0667 393.211 42.2907C393.891 40.5232 390.702 34.4865 387.525 31.5289C385.187 29.352 384.181 29.1352 376.176 29.0829C365.274 29.0117 363.243 28.4073 363.423 25.2877C363.498 23.9918 363.786 22.9312 364.063 22.9308C364.341 22.9304 368.221 22.482 372.685 21.9343C378.386 21.235 383.497 19.7927 389.852 17.0903C399.69 12.9062 400.439 12.8244 423.913 13.3747C431.326 13.5485 438.145 13.0014 446.905 11.5301C455.063 10.1599 461.066 9.64342 464.307 10.0327C467.061 10.3635 471.049 10.1453 473.3 9.54074C478.525 8.13771 492.099 9.82542 497.438 12.5418C500.594 14.1477 502.264 14.3597 507.59 13.8309C513.343 13.2597 513.778 13.3349 512.049 14.6014C510.995 15.3733 507.762 16.3162 504.864 16.6967C498.575 17.5225 492.797 21.9924 494.329 24.8464C494.989 26.0775 494.515 27.1283 492.38 29.1691C490.828 30.652 489.331 32.5791 489.053 33.4515C488.386 35.5473 479.917 39.4479 475.717 39.5934C471.053 39.7549 470.565 40.7437 474.172 42.7251C475.876 43.6611 478.364 45.256 479.7 46.2692L482.129 48.1115L479.933 48.9217C478.249 49.5429 476.883 49.1424 474.082 47.2062C470.28 44.5787 466.19 44.5655 468.372 47.1878C469.223 48.2104 469.018 48.6077 467.426 49.023C463.866 49.9515 466.384 51.7875 470.31 51.1259C472.809 50.7049 474.214 50.9268 474.996 51.8658C475.925 52.9831 474.713 53.5004 467.735 54.963C463.128 55.9287 456.988 56.7542 454.09 56.7974C448.706 56.8777 444.827 58.419 439.12 62.7449C437.259 64.1555 433.304 65.5535 428.676 66.4366C419.003 68.2822 415.735 70.4167 409.907 78.6933C405.226 85.341 402.403 87.8187 399.484 87.8421C398.694 87.8486 395.892 86.6814 393.257 85.2486ZM325.331 78.8586C323.274 77.5979 320.752 75.2467 319.728 73.6336C317.729 70.4845 315.886 70.0845 310.488 71.6282C308.661 72.1508 306.611 72.2012 305.791 71.7436C302.954 70.1603 308.078 68.6031 313.785 69.3142C318.125 69.855 319.09 69.7009 319.596 68.3856C320.613 65.7427 325.267 63.8487 327.855 65.0246C329.448 65.7485 330.896 65.7283 332.931 64.9538C335.668 63.9118 335.706 63.8178 333.918 62.5084C332.895 61.7595 331.728 61.1467 331.324 61.1467C330.92 61.1467 329.461 59.2273 328.083 56.8815C326.704 54.5357 324.121 51.7191 322.342 50.6225C319.318 48.7587 318.918 48.726 316.213 50.1208C313.849 51.3402 312.483 51.4256 308.742 50.5878C306.224 50.0239 302.708 49.834 300.929 50.1658C297.843 50.7413 292.189 49.2352 292.189 47.8376C292.189 45.2702 300.302 39.5083 305.122 38.6531L308.954 37.973L306.214 40.8835C302.436 44.8983 303.857 46.746 307.96 43.1532C309.7 41.6291 312.709 40.0858 314.645 39.7235C317.603 39.17 318.87 39.531 322.585 41.9848C327.527 45.2496 327.908 45.3372 330.695 43.8495C332.374 42.9537 332.996 43.1997 334.819 45.4794C336.079 47.0562 338.895 48.7733 341.64 49.6396C346.016 51.0204 346.315 51.3207 346.315 54.3305C346.315 56.5875 346.968 58.0117 348.505 59.1076C354.934 63.693 354.793 63.5036 353.402 65.7251C351.495 68.7711 349.989 68.9919 345.767 66.844C342.831 65.3498 341.548 65.1449 340.069 65.934C338.26 66.8996 338.241 67.1059 339.697 69.9144C340.892 72.2194 341.001 73.3833 340.189 75.161C339.188 77.3516 339.029 77.3855 336.312 75.984C330.969 73.2289 327.372 75.0419 332.355 77.9778C333.917 78.8976 334.977 80.0012 334.711 80.4303C333.783 81.9275 329.043 81.1333 325.331 78.8586ZM289.21 74.9576C287.321 73.9673 285.854 73.8825 283.21 74.6108C278.713 75.8491 277.14 74.943 279.422 72.4283C282.343 69.2091 284.325 68.5759 287.848 69.7356C291.814 71.0409 293.574 72.9809 292.504 74.8676C291.822 76.0704 291.357 76.0831 289.21 74.9576ZM219.381 56.6873C218.064 56.4797 214.855 55.3559 212.25 54.19L207.514 52.0703L214.166 51.5925C217.825 51.3298 220.818 50.6849 220.818 50.1594C220.818 49.6339 218.231 48.9736 215.07 48.6919C210.896 48.3201 210.109 48.0585 212.196 47.7365C215.69 47.1975 215.942 45.6882 212.675 44.8653C210.322 44.2727 210.339 44.2365 213.649 42.8144C219.384 40.3499 225.493 39.8778 230.906 41.4808C235.35 42.797 236.044 42.7913 238.139 41.4223C239.621 40.454 240.5 40.292 240.577 40.9731C240.642 41.559 240.75 42.54 240.816 43.153C241.038 45.2229 242.949 44.955 245.23 42.5345C247.34 40.2936 250.999 39.2202 250.991 40.8441C250.989 41.2382 250.137 42.9521 249.097 44.6526L247.207 47.7446L250.298 49.3531L253.39 50.9615L248.314 53.2721C243.734 55.357 242.794 55.4763 238.688 54.4941C234.707 53.5416 233.565 53.6506 229.554 55.3653C225.024 57.302 224.069 57.4262 219.381 56.6873ZM257.803 56.0142C256.937 54.9744 257.295 54.4627 259.531 53.5389C261.087 52.896 263.32 52.6816 264.516 53.0603C266.591 53.7171 266.543 53.8204 263.389 55.4956C259.365 57.6328 259.165 57.6514 257.803 56.0142ZM697.9 48.9419C693.002 47.0125 693.102 47.118 694.528 45.4054C695.194 44.6045 695.363 43.9356 694.904 43.9189C694.444 43.9021 694.93 43.2387 695.984 42.4446C697.038 41.6505 697.907 40.6968 697.916 40.3253C697.949 38.9122 701.85 35.1855 704.606 33.9332C706.186 33.215 710.282 32.4055 713.707 32.1343C717.132 31.8632 721.719 31.3663 723.901 31.0303C726.223 30.6726 728.116 30.8189 728.465 31.383C729.144 32.4791 727.848 32.945 720.413 34.2772C713.034 35.5992 708.599 37.6592 705.678 41.1213C702.601 44.7685 702.498 47.0713 705.324 49.0374L707.48 50.5369L704.606 50.4942C703.025 50.4707 700.007 49.7722 697.9 48.9419ZM196.154 46.1718C194.609 44.6309 194.961 44.2955 202.374 40.2485C211.059 35.5069 215.423 34.8774 223.213 37.2428L227.524 38.5518L221.776 39.6885C217.075 40.6181 207.113 43.9404 199.246 47.2022C198.443 47.5349 197.058 47.0732 196.154 46.1718ZM265.365 44.9352C265.365 44.4265 264.179 43.3316 262.73 42.5022L260.096 40.9942L263.623 41.5474C266.13 41.9405 267.377 41.7063 267.934 40.7385C268.596 39.5874 274.694 37.2841 277.125 37.2667C277.533 37.2634 277.2 38.5497 276.383 40.1243C274.46 43.833 265.365 47.8043 265.365 44.9352ZM280.28 42.1455C278.908 39.9307 288.282 36.5023 292.264 37.7628C295.166 38.6814 293.226 40.2599 288.164 41.0991C285.899 41.4746 283.335 42.0838 282.466 42.453C281.597 42.8221 280.614 42.6838 280.28 42.1455ZM310.87 35.1101C304.547 34.6085 299.256 34.089 299.112 33.9557C298.255 33.163 300.391 30.5827 302.691 29.6328C304.951 28.6989 305.993 28.8229 309.088 30.3939C312.105 31.9251 314.05 32.1796 319.654 31.7768C323.431 31.5053 327.742 31.5911 329.234 31.9676L331.945 32.6521L328.592 34.439C326.748 35.4217 324.593 36.18 323.802 36.124C323.012 36.0679 317.192 35.6117 310.87 35.1101ZM332.424 29.1036C330.764 28.1313 328.414 27.8497 324.76 28.1849C321.345 28.4982 318.72 28.2281 317.298 27.4171C315.337 26.2991 315.816 26.1717 321.8 26.22C329.281 26.2804 332.567 24.6831 328.515 22.9554C326.591 22.1347 326.871 22.0602 330.171 22.516C334.478 23.1111 336.153 21.9602 333.806 20.0176C331.303 17.9463 334.055 17.3033 342.959 17.8786C348.469 18.2346 351.932 18.0349 353.347 17.2795C356.058 15.8323 354.995 13.99 351.895 14.7658C349.753 15.302 334.888 14.4222 335.516 13.7964C335.964 13.3492 357.024 11.4039 370.853 10.5324C378.026 10.0804 386.001 9.44982 388.576 9.13116L393.257 8.55176L385.529 12.2538C378.284 15.7247 366.501 19.1085 361.661 19.1085C360.482 19.1085 357.094 20.3983 354.132 21.9747C351.17 23.5511 348.153 24.8409 347.426 24.8409C346.7 24.8409 343.567 26.1253 340.463 27.6951C337.359 29.2649 334.819 30.5394 334.819 30.5275C334.819 30.5155 333.742 29.8748 332.424 29.1036ZM313.744 20.3748C309.101 19.3502 308.93 18.9648 312.342 17.2013C317.316 14.6306 322.022 13.9718 324.161 15.5466C325.855 16.7934 325.757 16.9862 322.43 18.9439C318.963 20.9842 317.555 21.216 313.744 20.3748Z" fill="#E85222"/>
<path fill-rule="evenodd" clip-rule="evenodd" d="M327.812 405.859H335.664C337.211 405.859 338.476 407.044 338.476 408.493C338.476 409.942 337.211 411.128 335.664 411.128H327.812C326.265 411.128 325 409.942 325 408.493C325 407.044 326.265 405.859 327.812 405.859ZM337.362 400.437V400.667V402.042C337.362 403.218 336.595 404.179 335.656 404.179H327.82C326.882 404.179 326.114 403.218 326.114 402.042V400.667V400.437V390.742V389.252V389.137C326.114 387.961 326.882 387 327.82 387H335.656C336.595 387 337.362 387.961 337.362 389.137V389.252V390.742V400.437Z" fill="#373737"/>
<path fill-rule="evenodd" clip-rule="evenodd" d="M202.812 96.8587H210.664C212.211 96.8587 213.476 98.0442 213.476 99.493C213.476 100.942 212.211 102.128 210.664 102.128H202.812C201.265 102.128 200 100.942 200 99.493C200 98.0444 201.265 96.8587 202.812 96.8587ZM212.362 91.4368V91.6671V93.0421C212.362 94.2182 211.595 95.1795 210.656 95.1795H202.82C201.882 95.1795 201.114 94.2182 201.114 93.0421V91.6671V91.4368V81.7423V80.2521V80.1366C201.114 78.9612 201.882 78 202.82 78H210.656C211.595 78 212.362 78.9612 212.362 80.1366V80.2521V81.7423V91.4368Z" fill="#373737"/>
<path fill-rule="evenodd" clip-rule="evenodd" d="M281.812 357.859H289.664C291.211 357.859 292.476 359.044 292.476 360.493C292.476 361.942 291.211 363.128 289.664 363.128H281.812C280.265 363.128 279 361.942 279 360.493C279 359.044 280.265 357.859 281.812 357.859ZM291.362 352.437V352.667V354.042C291.362 355.218 290.595 356.179 289.656 356.179H281.82C280.882 356.179 280.114 355.218 280.114 354.042V352.667V352.437V342.742V341.252V341.137C280.114 339.961 280.882 339 281.82 339H289.656C290.595 339 291.362 339.961 291.362 341.137V341.252V342.742V352.437Z" fill="#373737"/>
<path fill-rule="evenodd" clip-rule="evenodd" d="M149.812 162.859H157.664C159.211 162.859 160.476 164.044 160.476 165.493C160.476 166.942 159.211 168.128 157.664 168.128H149.812C148.265 168.128 147 166.942 147 165.493C147 164.044 148.265 162.859 149.812 162.859ZM159.362 157.437V157.667V159.042C159.362 160.218 158.595 161.179 157.656 161.179H149.82C148.882 161.179 148.114 160.218 148.114 159.042V157.667V157.437V147.742V146.252V146.137C148.114 144.961 148.882 144 149.82 144H157.656C158.595 144 159.362 144.961 159.362 146.137V146.252V147.742V157.437Z" fill="#373737"/>
<path fill-rule="evenodd" clip-rule="evenodd" d="M533.812 234.859H541.664C543.211 234.859 544.476 236.044 544.476 237.493C544.476 238.942 543.211 240.128 541.664 240.128H533.812C532.265 240.128 531 238.942 531 237.493C531 236.044 532.265 234.859 533.812 234.859ZM543.362 229.437V229.667V231.042C543.362 232.218 542.595 233.179 541.656 233.179H533.82C532.882 233.179 532.114 232.218 532.114 231.042V229.667V229.437V219.742V218.252V218.137C532.114 216.961 532.882 216 533.82 216H541.656C542.595 216 543.362 216.961 543.362 218.137V218.252V219.742V229.437Z" fill="#373737"/>
<path fill-rule="evenodd" clip-rule="evenodd" d="M610.812 276.859H618.664C620.211 276.859 621.476 278.044 621.476 279.493C621.476 280.942 620.211 282.128 618.664 282.128H610.812C609.265 282.128 608 280.942 608 279.493C608 278.044 609.265 276.859 610.812 276.859ZM620.362 271.437V271.667V273.042C620.362 274.218 619.595 275.179 618.656 275.179H610.82C609.882 275.179 609.114 274.218 609.114 273.042V271.667V271.437V261.742V260.252V260.137C609.114 258.961 609.882 258 610.82 258H618.656C619.595 258 620.362 258.961 620.362 260.137V260.252V261.742V271.437Z" fill="#373737"/>
<path fill-rule="evenodd" clip-rule="evenodd" d="M847.812 96.8587H855.664C857.211 96.8587 858.476 98.0442 858.476 99.493C858.476 100.942 857.211 102.128 855.664 102.128H847.812C846.265 102.128 845 100.942 845 99.493C845 98.0444 846.265 96.8587 847.812 96.8587ZM857.362 91.4368V91.6671V93.0421C857.362 94.2182 856.595 95.1795 855.656 95.1795H847.82C846.882 95.1795 846.114 94.2182 846.114 93.0421V91.6671V91.4368V81.7423V80.2521V80.1366C846.114 78.9612 846.882 78 847.82 78H855.656C856.595 78 857.362 78.9612 857.362 80.1366V80.2521V81.7423V91.4368Z" fill="#373737"/>
<path fill-rule="evenodd" clip-rule="evenodd" d="M1058.81 462.859H1066.66C1068.21 462.859 1069.48 464.044 1069.48 465.493C1069.48 466.942 1068.21 468.128 1066.66 468.128H1058.81C1057.27 468.128 1056 466.942 1056 465.493C1056 464.044 1057.27 462.859 1058.81 462.859ZM1068.36 457.437V457.667V459.042C1068.36 460.218 1067.59 461.179 1066.66 461.179H1058.82C1057.88 461.179 1057.11 460.218 1057.11 459.042V457.667V457.437V447.742V446.252V446.137C1057.11 444.961 1057.88 444 1058.82 444H1066.66C1067.59 444 1068.36 444.961 1068.36 446.137V446.252V447.742V457.437Z" fill="#373737"/>
<path fill-rule="evenodd" clip-rule="evenodd" d="M841.812 252.859H849.664C851.211 252.859 852.476 254.044 852.476 255.493C852.476 256.942 851.211 258.128 849.664 258.128H841.812C840.265 258.128 839 256.942 839 255.493C839 254.044 840.265 252.859 841.812 252.859ZM851.362 247.437V247.667V249.042C851.362 250.218 850.595 251.179 849.656 251.179H841.82C840.882 251.179 840.114 250.218 840.114 249.042V247.667V247.437V237.742V236.252V236.137C840.114 234.961 840.882 234 841.82 234H849.656C850.595 234 851.362 234.961 851.362 236.137V236.252V237.742V247.437Z" fill="#373737"/>
<path fill-rule="evenodd" clip-rule="evenodd" d="M762.812 120.859H770.664C772.211 120.859 773.476 122.044 773.476 123.493C773.476 124.942 772.211 126.128 770.664 126.128H762.812C761.265 126.128 760 124.942 760 123.493C760 122.044 761.265 120.859 762.812 120.859ZM772.362 115.437V115.667V117.042C772.362 118.218 771.595 119.179 770.656 119.179H762.82C761.882 119.179 761.114 118.218 761.114 117.042V115.667V115.437V105.742V104.252V104.137C761.114 102.961 761.882 102 762.82 102H770.656C771.595 102 772.362 102.961 772.362 104.137V104.252V105.742V115.437Z" fill="#373737"/>
<path fill-rule="evenodd" clip-rule="evenodd" d="M557.812 122.859H565.664C567.211 122.859 568.476 124.044 568.476 125.493C568.476 126.942 567.211 128.128 565.664 128.128H557.812C556.265 128.128 555 126.942 555 125.493C555 124.044 556.265 122.859 557.812 122.859ZM567.362 117.437V117.667V119.042C567.362 120.218 566.595 121.179 565.656 121.179H557.82C556.882 121.179 556.114 120.218 556.114 119.042V117.667V117.437V107.742V106.252V106.137C556.114 104.961 556.882 104 557.82 104H565.656C566.595 104 567.362 104.961 567.362 106.137V106.252V107.742V117.437Z" fill="#373737"/>
<path fill-rule="evenodd" clip-rule="evenodd" d="M628.812 122.859H636.664C638.211 122.859 639.476 124.044 639.476 125.493C639.476 126.942 638.211 128.128 636.664 128.128H628.812C627.265 128.128 626 126.942 626 125.493C626 124.044 627.265 122.859 628.812 122.859ZM638.362 117.437V117.667V119.042C638.362 120.218 637.595 121.179 636.656 121.179H628.82C627.882 121.179 627.114 120.218 627.114 119.042V117.667V117.437V107.742V106.252V106.137C627.114 104.961 627.882 104 628.82 104H636.656C637.595 104 638.362 104.961 638.362 106.137V106.252V107.742V117.437Z" fill="#373737"/>
<path fill-rule="evenodd" clip-rule="evenodd" d="M621.812 61.8587H629.664C631.211 61.8587 632.476 63.0442 632.476 64.493C632.476 65.9417 631.211 67.1275 629.664 67.1275H621.812C620.265 67.1275 619 65.9419 619 64.493C619 63.0444 620.265 61.8587 621.812 61.8587ZM631.362 56.4368V56.6671V58.0421C631.362 59.2182 630.595 60.1795 629.656 60.1795H621.82C620.882 60.1795 620.114 59.2182 620.114 58.0421V56.6671V56.4368V46.7423V45.2521V45.1366C620.114 43.9612 620.882 43 621.82 43H629.656C630.595 43 631.362 43.9612 631.362 45.1366V45.2521V46.7423V56.4368Z" fill="#373737"/>
<path fill-rule="evenodd" clip-rule="evenodd" d="M509.812 168.859H517.664C519.211 168.859 520.476 170.044 520.476 171.493C520.476 172.942 519.211 174.128 517.664 174.128H509.812C508.265 174.128 507 172.942 507 171.493C507 170.044 508.265 168.859 509.812 168.859ZM519.362 163.437V163.667V165.042C519.362 166.218 518.595 167.179 517.656 167.179H509.82C508.882 167.179 508.114 166.218 508.114 165.042V163.667V163.437V153.742V152.252V152.137C508.114 150.961 508.882 150 509.82 150H517.656C518.595 150 519.362 150.961 519.362 152.137V152.252V153.742V163.437Z" fill="#373737"/>
<path fill-rule="evenodd" clip-rule="evenodd" d="M598.812 156.859H606.664C608.211 156.859 609.476 158.044 609.476 159.493C609.476 160.942 608.211 162.128 606.664 162.128H598.812C597.265 162.128 596 160.942 596 159.493C596 158.044 597.265 156.859 598.812 156.859ZM608.362 151.437V151.667V153.042C608.362 154.218 607.595 155.179 606.656 155.179H598.82C597.882 155.179 597.114 154.218 597.114 153.042V151.667V151.437V141.742V140.252V140.137C597.114 138.961 597.882 138 598.82 138H606.656C607.595 138 608.362 138.961 608.362 140.137V140.252V141.742V151.437Z" fill="#373737"/>
</svg>